<svg width="10" height="14" viewBox="0 0 10 14" fill="none" xmlns="http://www.w3.org/2000/svg">
<path fill-rule="evenodd" clip-rule="evenodd" d="M0.5 5C0.5 2.51472 2.51472 0.5 5 0.5C7.48528 0.5 9.5 2.51472 9.5 5V9.66667C9.5 9.94281 9.27614 10.1667 9 10.1667C8.72386 10.1667 8.5 9.94281 8.5 9.66667V5C8.5 3.067 6.933 1.5 5 1.5C3.067 1.5 1.5 3.067 1.5 5V10.3333C1.5 11.53 2.47005 12.5 3.66667 12.5C4.86328 12.5 5.83333 11.53 5.83333 10.3333V5.66667C5.83333 5.20643 5.46024 4.83333 5 4.83333C4.53976 4.83333 4.16667 5.20643 4.16667 5.66667V9.66667C4.16667 9.94281 3.94281 10.1667 3.66667 10.1667C3.39052 10.1667 3.16667 9.94281 3.16667 9.66667V5.66667C3.16667 4.65414 3.98748 3.83333 5 3.83333C6.01252 3.83333 6.83333 4.65414 6.83333 5.66667V10.3333C6.83333 12.0822 5.41557 13.5 3.66667 13.5C1.91777 13.5 0.5 12.0822 0.5 10.3333V5Z" fill="#A2AEBD"/>
</svg>
