<svg width="14" height="14" viewBox="0 0 14 14" fill="none" xmlns="http://www.w3.org/2000/svg">
<path d="M13.6654 9.04927V0.854818C13.6654 0.567161 13.4322 0.333984 13.1445 0.333984H0.852865C0.565208 0.333984 0.332031 0.567161 0.332031 0.854818V13.1465C0.332031 13.4341 0.565208 13.6673 0.852865 13.6673H9.04732C9.18729 13.6673 9.32047 13.6099 9.41568 13.5147L13.5128 9.4176C13.6079 9.32255 13.6654 9.18982 13.6654 9.04927ZM1.3737 1.37565H12.6237V8.52844H9.04732C8.75966 8.52844 8.52648 8.76161 8.52648 9.04927V12.6257H1.3737V1.37565ZM11.8871 9.5701L9.56815 11.8891V9.5701H11.8871ZM3.40495 4.95203C3.40495 4.66437 3.63813 4.4312 3.92578 4.4312H10.0716C10.3593 4.4312 10.5924 4.66437 10.5924 4.95203C10.5924 5.23969 10.3593 5.47286 10.0716 5.47286H3.92578C3.63813 5.47286 3.40495 5.23969 3.40495 4.95203ZM3.92578 7.52148C3.63813 7.52148 3.40495 7.28831 3.40495 7.00065C3.40495 6.713 3.63813 6.47982 3.92578 6.47982H10.0716C10.3593 6.47982 10.5924 6.713 10.5924 7.00065C10.5924 7.28831 10.3593 7.52148 10.0716 7.52148H3.92578Z" fill="#A2AEBD"/>
</svg>
