<svg width="20" height="20" viewBox="0 0 20 20" fill="none" xmlns="http://www.w3.org/2000/svg">
<path d="M14.5078 10.1179C14.4026 9.9229 14.2025 9.80133 13.985 9.80133H10.5971V3.11191C10.5971 2.77414 10.3293 2.5 9.99937 2.5C9.66943 2.5 9.40165 2.77414 9.40165 3.11191V9.80133H6.01378C5.79541 9.80133 5.59537 9.9229 5.49097 10.1179C5.38498 10.3129 5.39215 10.5511 5.50771 10.7396L9.4933 17.2144C9.60328 17.3923 9.79375 17.5 9.99937 17.5C10.205 17.5 10.3955 17.3923 10.5054 17.2144L14.491 10.7396C14.5516 10.6401 14.5827 10.5267 14.5827 10.4132C14.5827 10.3121 14.5572 10.2101 14.5078 10.1179Z" fill="#7966FF"/>
</svg>
