<svg width="20" height="20" viewBox="0 0 20 20" fill="none" xmlns="http://www.w3.org/2000/svg">
<path d="M5.49093 9.8821C5.59613 10.0771 5.79617 10.1987 6.01373 10.1987H9.40161V16.8881C9.40161 17.2259 9.66939 17.5 9.99933 17.5C10.3293 17.5 10.597 17.2259 10.597 16.8881V10.1987H13.9849C14.2033 10.1987 14.4033 10.0771 14.5077 9.8821C14.6137 9.68711 14.6065 9.44887 14.491 9.2604L10.5054 2.78556C10.3954 2.6077 10.2049 2.5 9.99933 2.5C9.79371 2.5 9.60324 2.6077 9.49326 2.78556L5.50767 9.2604C5.4471 9.35994 5.41602 9.47335 5.41602 9.58676C5.41602 9.68792 5.44152 9.78991 5.49093 9.8821Z" fill="#A2AEBD"/>
</svg>
