<svg width="34" height="34" viewBox="0 0 34 34" fill="none" xmlns="http://www.w3.org/2000/svg">
<path fill-rule="evenodd" clip-rule="evenodd" d="M9.21732 0.333984H24.7823C30.4506 0.333984 33.6507 3.54898 33.6673 9.21732V24.784C33.6673 30.4507 30.4506 33.6673 24.7823 33.6673H9.21732C3.54898 33.6673 0.333984 30.4507 0.333984 24.784V9.21732C0.333984 3.54898 3.54898 0.333984 9.21732 0.333984ZM17.0823 26.7673C17.8006 26.7673 18.399 26.234 18.4657 25.5173V8.53398C18.5323 8.01732 18.284 7.49898 17.834 7.21732C17.3657 6.93398 16.799 6.93398 16.3507 7.21732C15.899 7.49898 15.6507 8.01732 15.699 8.53398V25.5173C15.784 26.234 16.3823 26.7673 17.0823 26.7673ZM24.7507 26.7673C25.4507 26.7673 26.049 26.234 26.134 25.5173V20.0507C26.1823 19.5157 25.934 19.0173 25.4823 18.734C25.034 18.4507 24.4673 18.4507 24.0007 18.734C23.549 19.0173 23.3007 19.5157 23.3673 20.0507V25.5173C23.434 26.234 24.0323 26.7673 24.7507 26.7673ZM10.699 25.5173C10.6323 26.234 10.034 26.7673 9.31565 26.7673C8.59898 26.7673 7.99898 26.234 7.93398 25.5173V14.0007C7.88398 13.4823 8.13232 12.9673 8.58398 12.684C9.03232 12.4007 9.60065 12.4007 10.0507 12.684C10.499 12.9673 10.7507 13.4823 10.699 14.0007V25.5173Z" fill="#A2AEBD"/>
</svg>
