<svg width="16" height="16" viewBox="0 0 16 16" fill="none" xmlns="http://www.w3.org/2000/svg">
<path d="M0 8.0001C0 3.58147 3.58176 0 7.9999 0C12.4182 0 16 3.58147 16 8.0001C16 12.4181 12.4182 15.9998 7.9999 15.9998C3.58176 15.9998 0 12.4181 0 8.0001Z" fill="#7966FF"/>
<path d="M4.72344 9.76328C5.68174 9.76328 6.4586 8.98643 6.4586 8.02813C6.4586 7.06982 5.68174 6.29297 4.72344 6.29297C3.76514 6.29297 2.98828 7.06982 2.98828 8.02813C2.98828 8.98643 3.76514 9.76328 4.72344 9.76328Z" fill="white"/>
<path d="M10.0203 6.6793C10.9786 6.6793 11.7555 5.90244 11.7555 4.94414C11.7555 3.98584 10.9786 3.20898 10.0203 3.20898C9.06201 3.20898 8.28516 3.98584 8.28516 4.94414C8.28516 5.90244 9.06201 6.6793 10.0203 6.6793Z" fill="white"/>
<path d="M10.0203 12.7906C10.9786 12.7906 11.7555 12.0138 11.7555 11.0555C11.7555 10.0972 10.9786 9.32031 10.0203 9.32031C9.06201 9.32031 8.28516 10.0972 8.28516 11.0555C8.28516 12.0138 9.06201 12.7906 10.0203 12.7906Z" fill="white"/>
<path d="M4.48949 7.56673L4.95898 8.37305L10.2559 5.2888L9.7864 4.48248L4.48949 7.56673Z" fill="white"/>
<path d="M4.48824 8.37278L9.78516 11.457L10.2547 10.6507L4.95774 7.56646L4.48824 8.37278Z" fill="white"/>
</svg>
