<svg width="48" height="44" viewBox="0 0 48 44" fill="none" xmlns="http://www.w3.org/2000/svg">
<path d="M45.1025 5.96875H42.2051V14.6609H47.9998V8.86613C47.9998 7.26581 46.7028 5.96875 45.1025 5.96875Z" fill="#FFA436"/>
<path d="M45.1026 8.86598L36.4105 20.4555H0V3.07121C0 1.47089 1.29706 0.173828 2.89738 0.173828H17.0047C17.7735 0.173828 18.5104 0.479019 19.0542 1.02276L24 5.9686H42.2052C43.8056 5.9686 45.1026 7.26566 45.1026 8.86598Z" fill="#FFBC2B"/>
<path d="M42.2049 8.86523L36.4102 16.1087H45.1023V8.86523H42.2049Z" fill="#8AE7FF"/>
<path d="M42.2043 8.86523V23.3522L2.89648 11.7626V8.86523H42.2043Z" fill="#BDF2FF"/>
<path d="M2.89648 11.7637H30.9944V20.4558H2.89648V11.7637Z" fill="white"/>
<path d="M45.1025 11.7637L42.2051 14.6611V43.8281H45.1025C46.7028 43.8281 47.9998 42.531 47.9998 40.9307V14.6611C47.9998 13.0607 46.7028 11.7637 45.1025 11.7637Z" fill="#FFBC2B"/>
<path d="M45.1026 11.7637V40.9307C45.1026 42.531 43.8056 43.8281 42.2052 43.8281H2.89738C1.29706 43.8281 0 42.531 0 40.9307V20.4558C0 18.8555 1.29706 17.5584 2.89738 17.5584H24L28.9458 12.6126C29.4896 12.0689 30.2265 11.7637 30.9953 11.7637H45.1026Z" fill="#FFCF66"/>
</svg>
