<svg width="16" height="16" viewBox="0 0 16 16" fill="none" xmlns="http://www.w3.org/2000/svg">
<path fill-rule="evenodd" clip-rule="evenodd" d="M8.24479 0.657247C8.36456 0.549742 8.52299 0.49339 8.68515 0.500619C12.1133 0.603241 14.9783 3.09185 15.4975 6.41797C15.5008 6.43783 15.5008 6.45808 15.4975 6.47795C15.5087 6.63532 15.4555 6.79058 15.3497 6.90939C15.2439 7.02819 15.0942 7.10074 14.9338 7.111L9.17418 7.49083C8.98371 7.50771 8.79481 7.44504 8.65388 7.31819C8.51296 7.19135 8.43307 7.01209 8.43385 6.82446L8.04671 1.16699V1.0737C8.05375 0.914582 8.12502 0.764752 8.24479 0.657247ZM7.84974 8.97016L12.8419 8.65031L12.8758 8.66363C13.0902 8.66714 13.2944 8.75407 13.4434 8.90528C13.5924 9.0565 13.6741 9.25962 13.6705 9.46994C13.4738 12.3365 11.3721 14.7316 8.51208 15.3487C5.65203 15.9657 2.72013 14.6566 1.31584 12.1354C0.902913 11.4093 0.641977 10.6095 0.54834 9.78313C0.512023 9.53825 0.496123 9.29088 0.500796 9.04346C0.510262 5.9953 2.68046 3.3643 5.71705 2.71963C6.08465 2.65082 6.45321 2.83436 6.6136 3.16609C6.65352 3.22629 6.68547 3.29123 6.70868 3.35934C6.7656 4.23799 6.82465 5.10833 6.88344 5.97499C6.92988 6.65949 6.97616 7.34171 7.02111 8.02392C7.01879 8.18462 7.04405 8.34456 7.09583 8.49704C7.21771 8.79705 7.52102 8.9874 7.84974 8.97016Z" fill="white"/>
</svg>
