<svg width="548" height="88" viewBox="0 0 548 88" fill="none" xmlns="http://www.w3.org/2000/svg">
<path d="M26.1797 3.625V15H24.2188L19.1172 6.85156V15H17.1562V3.625H19.1172L24.2344 11.7891V3.625H26.1797ZM30.1875 3V15H28.3125V3H30.1875ZM29.8594 10.4609L29.25 10.4531C29.2552 9.86979 29.3359 9.33073 29.4922 8.83594C29.6536 8.34115 29.8776 7.91146 30.1641 7.54688C30.4557 7.17708 30.8047 6.89323 31.2109 6.69531C31.6172 6.49219 32.0677 6.39062 32.5625 6.39062C32.9792 6.39062 33.3542 6.44792 33.6875 6.5625C34.026 6.67708 34.3177 6.86198 34.5625 7.11719C34.8073 7.36719 34.9922 7.69531 35.1172 8.10156C35.2474 8.5026 35.3125 8.99219 35.3125 9.57031V15H33.4219V9.55469C33.4219 9.14844 33.362 8.82552 33.2422 8.58594C33.1276 8.34635 32.9583 8.17448 32.7344 8.07031C32.5104 7.96094 32.237 7.90625 31.9141 7.90625C31.5755 7.90625 31.276 7.97396 31.0156 8.10938C30.7604 8.24479 30.5469 8.42969 30.375 8.66406C30.2031 8.89844 30.0729 9.16927 29.9844 9.47656C29.901 9.78385 29.8594 10.112 29.8594 10.4609ZM39.2344 6.54688V15H37.3438V6.54688H39.2344ZM37.2188 4.32812C37.2188 4.04167 37.3125 3.80469 37.5 3.61719C37.6927 3.42448 37.9583 3.32812 38.2969 3.32812C38.6302 3.32812 38.8932 3.42448 39.0859 3.61719C39.2786 3.80469 39.375 4.04167 39.375 4.32812C39.375 4.60938 39.2786 4.84375 39.0859 5.03125C38.8932 5.21875 38.6302 5.3125 38.2969 5.3125C37.9583 5.3125 37.6927 5.21875 37.5 5.03125C37.3125 4.84375 37.2188 4.60938 37.2188 4.32812ZM45.0234 15.1562C44.3984 15.1562 43.8333 15.0547 43.3281 14.8516C42.8281 14.6432 42.401 14.3542 42.0469 13.9844C41.6979 13.6146 41.4297 13.1797 41.2422 12.6797C41.0547 12.1797 40.9609 11.6406 40.9609 11.0625V10.75C40.9609 10.0885 41.0573 9.48958 41.25 8.95312C41.4427 8.41667 41.7109 7.95833 42.0547 7.57812C42.3984 7.19271 42.8047 6.89844 43.2734 6.69531C43.7422 6.49219 44.25 6.39062 44.7969 6.39062C45.401 6.39062 45.9297 6.49219 46.3828 6.69531C46.8359 6.89844 47.2109 7.1849 47.5078 7.55469C47.8099 7.91927 48.0339 8.35417 48.1797 8.85938C48.3307 9.36458 48.4062 9.92188 48.4062 10.5312V11.3359H41.875V9.98438H46.5469V9.83594C46.5365 9.4974 46.4688 9.17969 46.3438 8.88281C46.224 8.58594 46.0391 8.34635 45.7891 8.16406C45.5391 7.98177 45.2057 7.89062 44.7891 7.89062C44.4766 7.89062 44.1979 7.95833 43.9531 8.09375C43.7135 8.22396 43.513 8.41406 43.3516 8.66406C43.1901 8.91406 43.0651 9.21615 42.9766 9.57031C42.8932 9.91927 42.8516 10.3125 42.8516 10.75V11.0625C42.8516 11.4323 42.901 11.776 43 12.0938C43.1042 12.4062 43.2552 12.6797 43.4531 12.9141C43.651 13.1484 43.8906 13.3333 44.1719 13.4688C44.4531 13.599 44.7734 13.6641 45.1328 13.6641C45.5859 13.6641 45.9896 13.5729 46.3438 13.3906C46.6979 13.2083 47.0052 12.9505 47.2656 12.6172L48.2578 13.5781C48.0755 13.8438 47.8385 14.099 47.5469 14.3438C47.2552 14.5833 46.8984 14.7786 46.4766 14.9297C46.0599 15.0807 45.5755 15.1562 45.0234 15.1562ZM45.2109 3L47.375 5.15625V5.24219H45.8516L44.6562 4.01562L43.4609 5.24219H41.9688V5.14062L44.1016 3H45.2109ZM43.6719 16.875C43.6719 16.6042 43.7656 16.3776 43.9531 16.1953C44.1458 16.013 44.4089 15.9219 44.7422 15.9219C45.0755 15.9219 45.3385 16.013 45.5312 16.1953C45.724 16.3776 45.8203 16.6042 45.8203 16.875C45.8203 17.1406 45.724 17.3646 45.5312 17.5469C45.3385 17.7292 45.0755 17.8203 44.7422 17.8203C44.4089 17.8203 44.1458 17.7292 43.9531 17.5469C43.7656 17.3646 43.6719 17.1406 43.6719 16.875ZM51.7578 8.26562V15H49.875V6.54688H51.6484L51.7578 8.26562ZM51.4531 10.4609L50.8125 10.4531C50.8125 9.86979 50.8854 9.33073 51.0312 8.83594C51.1771 8.34115 51.3906 7.91146 51.6719 7.54688C51.9531 7.17708 52.3021 6.89323 52.7188 6.69531C53.1406 6.49219 53.6276 6.39062 54.1797 6.39062C54.5651 6.39062 54.9167 6.44792 55.2344 6.5625C55.5573 6.67188 55.8359 6.84635 56.0703 7.08594C56.3099 7.32552 56.4922 7.63281 56.6172 8.00781C56.7474 8.38281 56.8125 8.83594 56.8125 9.36719V15H54.9297V9.53125C54.9297 9.11979 54.8672 8.79688 54.7422 8.5625C54.6224 8.32812 54.4479 8.16146 54.2188 8.0625C53.9948 7.95833 53.7266 7.90625 53.4141 7.90625C53.0599 7.90625 52.7578 7.97396 52.5078 8.10938C52.263 8.24479 52.0625 8.42969 51.9062 8.66406C51.75 8.89844 51.6354 9.16927 51.5625 9.47656C51.4896 9.78385 51.4531 10.112 51.4531 10.4609ZM56.6953 9.96094L55.8125 10.1562C55.8125 9.64583 55.8828 9.16406 56.0234 8.71094C56.1693 8.2526 56.3802 7.85156 56.6562 7.50781C56.9375 7.15885 57.2839 6.88542 57.6953 6.6875C58.1068 6.48958 58.5781 6.39062 59.1094 6.39062C59.5417 6.39062 59.9271 6.45052 60.2656 6.57031C60.6094 6.6849 60.901 6.86719 61.1406 7.11719C61.3802 7.36719 61.5625 7.69271 61.6875 8.09375C61.8125 8.48958 61.875 8.96875 61.875 9.53125V15H59.9844V9.52344C59.9844 9.09635 59.9219 8.76562 59.7969 8.53125C59.6771 8.29688 59.5052 8.13542 59.2812 8.04688C59.0573 7.95312 58.7891 7.90625 58.4766 7.90625C58.1849 7.90625 57.9271 7.96094 57.7031 8.07031C57.4844 8.17448 57.2995 8.32292 57.1484 8.51562C56.9974 8.70312 56.8828 8.91927 56.8047 9.16406C56.7318 9.40885 56.6953 9.67448 56.6953 9.96094ZM70.5469 13.5078L72.6172 6.54688H74.5703L71.6328 15H70.4141L70.5469 13.5078ZM68.9609 6.54688L71.0703 13.5391L71.1719 15H69.9531L67 6.54688H68.9609ZM80.8203 13.0078V6.54688H82.7109V15H80.9297L80.8203 13.0078ZM81.0859 11.25L81.7188 11.2344C81.7188 11.8021 81.6562 12.3255 81.5312 12.8047C81.4062 13.2786 81.2135 13.6927 80.9531 14.0469C80.6927 14.3958 80.3594 14.6693 79.9531 14.8672C79.5469 15.0599 79.0599 15.1562 78.4922 15.1562C78.0807 15.1562 77.7031 15.0964 77.3594 14.9766C77.0156 14.8568 76.7188 14.6719 76.4688 14.4219C76.224 14.1719 76.0339 13.8464 75.8984 13.4453C75.763 13.0443 75.6953 12.5651 75.6953 12.0078V6.54688H77.5781V12.0234C77.5781 12.3307 77.6146 12.5885 77.6875 12.7969C77.7604 13 77.8594 13.1641 77.9844 13.2891C78.1094 13.4141 78.2552 13.5026 78.4219 13.5547C78.5885 13.6068 78.7656 13.6328 78.9531 13.6328C79.4896 13.6328 79.9115 13.5286 80.2188 13.3203C80.5312 13.1068 80.7526 12.8203 80.8828 12.4609C81.0182 12.1016 81.0859 11.6979 81.0859 11.25ZM77.4844 16.875C77.4844 16.6042 77.5781 16.3776 77.7656 16.1953C77.9583 16.013 78.2214 15.9219 78.5547 15.9219C78.888 15.9219 79.151 16.013 79.3438 16.1953C79.5365 16.3776 79.6328 16.6042 79.6328 16.875C79.6328 17.1406 79.5365 17.3646 79.3438 17.5469C79.151 17.7292 78.888 17.8203 78.5547 17.8203C78.2214 17.8203 77.9583 17.7292 77.7656 17.5469C77.5781 17.3646 77.4844 17.1406 77.4844 16.875Z" fill="#3D5586"/>
<g opacity="0.5">
<circle cx="357" cy="16" r="2" transform="rotate(90 357 16)" fill="#667793"/>
<circle cx="357" cy="9" r="2" transform="rotate(90 357 9)" fill="#667793"/>
<circle cx="357" cy="2" r="2" transform="rotate(90 357 2)" fill="#667793"/>
</g>
<path d="M22.1406 33.2871H23.2656C23.207 33.8262 23.0527 34.3086 22.8027 34.7344C22.5527 35.1602 22.1992 35.498 21.7422 35.748C21.2852 35.9941 20.7148 36.1172 20.0312 36.1172C19.5312 36.1172 19.0762 36.0234 18.666 35.8359C18.2598 35.6484 17.9102 35.3828 17.6172 35.0391C17.3242 34.6914 17.0977 34.2754 16.9375 33.791C16.7812 33.3027 16.7031 32.7598 16.7031 32.1621V31.3125C16.7031 30.7148 16.7812 30.1738 16.9375 29.6895C17.0977 29.2012 17.3262 28.7832 17.623 28.4355C17.9238 28.0879 18.2852 27.8203 18.707 27.6328C19.1289 27.4453 19.6035 27.3516 20.1309 27.3516C20.7754 27.3516 21.3203 27.4727 21.7656 27.7148C22.2109 27.957 22.5566 28.293 22.8027 28.7227C23.0527 29.1484 23.207 29.6426 23.2656 30.2051H22.1406C22.0859 29.8066 21.9844 29.4648 21.8359 29.1797C21.6875 28.8906 21.4766 28.668 21.2031 28.5117C20.9297 28.3555 20.5723 28.2773 20.1309 28.2773C19.752 28.2773 19.418 28.3496 19.1289 28.4941C18.8438 28.6387 18.6035 28.8438 18.4082 29.1094C18.2168 29.375 18.0723 29.6934 17.9746 30.0645C17.877 30.4355 17.8281 30.8477 17.8281 31.3008V32.1621C17.8281 32.5801 17.8711 32.9727 17.957 33.3398C18.0469 33.707 18.1816 34.0293 18.3613 34.3066C18.541 34.584 18.7695 34.8027 19.0469 34.9629C19.3242 35.1191 19.6523 35.1973 20.0312 35.1973C20.5117 35.1973 20.8945 35.1211 21.1797 34.9688C21.4648 34.8164 21.6797 34.5977 21.8242 34.3125C21.9727 34.0273 22.0781 33.6855 22.1406 33.2871ZM28.3809 34.916V31.6523C28.3809 31.4023 28.3301 31.1855 28.2285 31.002C28.1309 30.8145 27.9824 30.6699 27.7832 30.5684C27.584 30.4668 27.3379 30.416 27.0449 30.416C26.7715 30.416 26.5312 30.4629 26.3242 30.5566C26.1211 30.6504 25.9609 30.7734 25.8438 30.9258C25.7305 31.0781 25.6738 31.2422 25.6738 31.418H24.5898C24.5898 31.1914 24.6484 30.9668 24.7656 30.7441C24.8828 30.5215 25.0508 30.3203 25.2695 30.1406C25.4922 29.957 25.7578 29.8125 26.0664 29.707C26.3789 29.5977 26.7266 29.543 27.1094 29.543C27.5703 29.543 27.9766 29.6211 28.3281 29.7773C28.6836 29.9336 28.9609 30.1699 29.1602 30.4863C29.3633 30.7988 29.4648 31.1914 29.4648 31.6641V34.6172C29.4648 34.8281 29.4824 35.0527 29.5176 35.291C29.5566 35.5293 29.6133 35.7344 29.6875 35.9062V36H28.5566C28.502 35.875 28.459 35.709 28.4277 35.502C28.3965 35.291 28.3809 35.0957 28.3809 34.916ZM28.5684 32.1562L28.5801 32.918H27.4844C27.1758 32.918 26.9004 32.9434 26.6582 32.9941C26.416 33.041 26.2129 33.1133 26.0488 33.2109C25.8848 33.3086 25.7598 33.4316 25.6738 33.5801C25.5879 33.7246 25.5449 33.8945 25.5449 34.0898C25.5449 34.2891 25.5898 34.4707 25.6797 34.6348C25.7695 34.7988 25.9043 34.9297 26.084 35.0273C26.2676 35.1211 26.4922 35.168 26.7578 35.168C27.0898 35.168 27.3828 35.0977 27.6367 34.957C27.8906 34.8164 28.0918 34.6445 28.2402 34.4414C28.3926 34.2383 28.4746 34.041 28.4863 33.8496L28.9492 34.3711C28.9219 34.5352 28.8477 34.7168 28.7266 34.916C28.6055 35.1152 28.4434 35.3066 28.2402 35.4902C28.041 35.6699 27.8027 35.8203 27.5254 35.9414C27.252 36.0586 26.9434 36.1172 26.5996 36.1172C26.1699 36.1172 25.793 36.0332 25.4688 35.8652C25.1484 35.6973 24.8984 35.4727 24.7188 35.1914C24.543 34.9062 24.4551 34.5879 24.4551 34.2363C24.4551 33.8965 24.5215 33.5977 24.6543 33.3398C24.7871 33.0781 24.9785 32.8613 25.2285 32.6895C25.4785 32.5137 25.7793 32.3809 26.1309 32.291C26.4824 32.2012 26.875 32.1562 27.3086 32.1562H28.5684ZM26.6289 28.7227L27.7656 27H29.0723L27.502 28.7227H26.6289ZM35.2305 31.0137V36H34.1465V29.6602H35.1719L35.2305 31.0137ZM34.9727 32.5898L34.5215 32.5723C34.5254 32.1387 34.5898 31.7383 34.7148 31.3711C34.8398 31 35.0156 30.6777 35.2422 30.4043C35.4688 30.1309 35.7383 29.9199 36.0508 29.7715C36.3672 29.6191 36.7168 29.543 37.0996 29.543C37.4121 29.543 37.6934 29.5859 37.9434 29.6719C38.1934 29.7539 38.4062 29.8867 38.582 30.0703C38.7617 30.2539 38.8984 30.4922 38.9922 30.7852C39.0859 31.0742 39.1328 31.4277 39.1328 31.8457V36H38.043V31.834C38.043 31.502 37.9941 31.2363 37.8965 31.0371C37.7988 30.834 37.6562 30.6875 37.4688 30.5977C37.2812 30.5039 37.0508 30.457 36.7773 30.457C36.5078 30.457 36.2617 30.5137 36.0391 30.627C35.8203 30.7402 35.6309 30.8965 35.4707 31.0957C35.3145 31.2949 35.1914 31.5234 35.1016 31.7812C35.0156 32.0352 34.9727 32.3047 34.9727 32.5898ZM41.8633 27V36H40.7793V27H41.8633ZM41.6055 32.5898L41.1543 32.5723C41.1582 32.1387 41.2227 31.7383 41.3477 31.3711C41.4727 31 41.6484 30.6777 41.875 30.4043C42.1016 30.1309 42.3711 29.9199 42.6836 29.7715C43 29.6191 43.3496 29.543 43.7324 29.543C44.0449 29.543 44.3262 29.5859 44.5762 29.6719C44.8262 29.7539 45.0391 29.8867 45.2148 30.0703C45.3945 30.2539 45.5312 30.4922 45.625 30.7852C45.7188 31.0742 45.7656 31.4277 45.7656 31.8457V36H44.6758V31.834C44.6758 31.502 44.627 31.2363 44.5293 31.0371C44.4316 30.834 44.2891 30.6875 44.1016 30.5977C43.9141 30.5039 43.6836 30.457 43.4102 30.457C43.1406 30.457 42.8945 30.5137 42.6719 30.627C42.4531 30.7402 42.2637 30.8965 42.1035 31.0957C41.9473 31.2949 41.8242 31.5234 41.7344 31.7812C41.6484 32.0352 41.6055 32.3047 41.6055 32.5898ZM51.127 34.916V31.6523C51.127 31.4023 51.0762 31.1855 50.9746 31.002C50.877 30.8145 50.7285 30.6699 50.5293 30.5684C50.3301 30.4668 50.084 30.416 49.791 30.416C49.5176 30.416 49.2773 30.4629 49.0703 30.5566C48.8672 30.6504 48.707 30.7734 48.5898 30.9258C48.4766 31.0781 48.4199 31.2422 48.4199 31.418H47.3359C47.3359 31.1914 47.3945 30.9668 47.5117 30.7441C47.6289 30.5215 47.7969 30.3203 48.0156 30.1406C48.2383 29.957 48.5039 29.8125 48.8125 29.707C49.125 29.5977 49.4727 29.543 49.8555 29.543C50.3164 29.543 50.7227 29.6211 51.0742 29.7773C51.4297 29.9336 51.707 30.1699 51.9062 30.4863C52.1094 30.7988 52.2109 31.1914 52.2109 31.6641V34.6172C52.2109 34.8281 52.2285 35.0527 52.2637 35.291C52.3027 35.5293 52.3594 35.7344 52.4336 35.9062V36H51.3027C51.248 35.875 51.2051 35.709 51.1738 35.502C51.1426 35.291 51.127 35.0957 51.127 34.916ZM51.3145 32.1562L51.3262 32.918H50.2305C49.9219 32.918 49.6465 32.9434 49.4043 32.9941C49.1621 33.041 48.959 33.1133 48.7949 33.2109C48.6309 33.3086 48.5059 33.4316 48.4199 33.5801C48.334 33.7246 48.291 33.8945 48.291 34.0898C48.291 34.2891 48.3359 34.4707 48.4258 34.6348C48.5156 34.7988 48.6504 34.9297 48.8301 35.0273C49.0137 35.1211 49.2383 35.168 49.5039 35.168C49.8359 35.168 50.1289 35.0977 50.3828 34.957C50.6367 34.8164 50.8379 34.6445 50.9863 34.4414C51.1387 34.2383 51.2207 34.041 51.2324 33.8496L51.6953 34.3711C51.668 34.5352 51.5938 34.7168 51.4727 34.916C51.3516 35.1152 51.1895 35.3066 50.9863 35.4902C50.7871 35.6699 50.5488 35.8203 50.2715 35.9414C49.998 36.0586 49.6895 36.1172 49.3457 36.1172C48.916 36.1172 48.5391 36.0332 48.2148 35.8652C47.8945 35.6973 47.6445 35.4727 47.4648 35.1914C47.2891 34.9062 47.2012 34.5879 47.2012 34.2363C47.2012 33.8965 47.2676 33.5977 47.4004 33.3398C47.5332 33.0781 47.7246 32.8613 47.9746 32.6895C48.2246 32.5137 48.5254 32.3809 48.877 32.291C49.2285 32.2012 49.6211 32.1562 50.0547 32.1562H51.3145ZM50.3008 27L51.7539 28.5996V28.6582H50.8516L49.9727 27.668L49.0996 28.6582H48.209V28.5938L49.6445 27H50.3008ZM55 31.0137V36H53.916V29.6602H54.9414L55 31.0137ZM54.7422 32.5898L54.291 32.5723C54.2949 32.1387 54.3594 31.7383 54.4844 31.3711C54.6094 31 54.7852 30.6777 55.0117 30.4043C55.2383 30.1309 55.5078 29.9199 55.8203 29.7715C56.1367 29.6191 56.4863 29.543 56.8691 29.543C57.1816 29.543 57.4629 29.5859 57.7129 29.6719C57.9629 29.7539 58.1758 29.8867 58.3516 30.0703C58.5312 30.2539 58.668 30.4922 58.7617 30.7852C58.8555 31.0742 58.9023 31.4277 58.9023 31.8457V36H57.8125V31.834C57.8125 31.502 57.7637 31.2363 57.666 31.0371C57.5684 30.834 57.4258 30.6875 57.2383 30.5977C57.0508 30.5039 56.8203 30.457 56.5469 30.457C56.2773 30.457 56.0312 30.5137 55.8086 30.627C55.5898 30.7402 55.4004 30.8965 55.2402 31.0957C55.084 31.2949 54.9609 31.5234 54.8711 31.7812C54.7852 32.0352 54.7422 32.3047 54.7422 32.5898Z" fill="#A2AEBD"/>
<path d="M16 64C16 59.5817 19.5817 56 24 56H125C129.418 56 133 59.5817 133 64V80C133 84.4183 129.418 88 125 88H24C19.5817 88 16 84.4183 16 80V64Z" fill="#7966FF"/>
<path d="M34.8906 73.7598H36.5996C36.5449 74.4115 36.3626 74.9925 36.0527 75.5029C35.7428 76.0088 35.3076 76.4076 34.7471 76.6992C34.1865 76.9909 33.5052 77.1367 32.7031 77.1367C32.0879 77.1367 31.5342 77.0273 31.042 76.8086C30.5498 76.5853 30.1283 76.2708 29.7773 75.8652C29.4264 75.4551 29.1576 74.9606 28.9707 74.3818C28.7884 73.8031 28.6973 73.1559 28.6973 72.4404V71.6133C28.6973 70.8978 28.7907 70.2507 28.9775 69.6719C29.1689 69.0931 29.4424 68.5986 29.7979 68.1885C30.1533 67.7738 30.5794 67.457 31.0762 67.2383C31.5775 67.0195 32.1403 66.9102 32.7646 66.9102C33.5576 66.9102 34.2275 67.056 34.7744 67.3477C35.3213 67.6393 35.7451 68.0426 36.0459 68.5576C36.3512 69.0726 36.5381 69.6628 36.6064 70.3281H34.8975C34.8519 69.8997 34.7516 69.5329 34.5967 69.2275C34.4463 68.9222 34.223 68.6898 33.9268 68.5303C33.6305 68.3662 33.2432 68.2842 32.7646 68.2842C32.3727 68.2842 32.0309 68.3571 31.7393 68.5029C31.4476 68.6488 31.2038 68.863 31.0078 69.1455C30.8118 69.4281 30.6637 69.7767 30.5635 70.1914C30.4678 70.6016 30.4199 71.071 30.4199 71.5996V72.4404C30.4199 72.9417 30.4632 73.3975 30.5498 73.8076C30.641 74.2132 30.7777 74.5618 30.96 74.8535C31.1468 75.1452 31.3838 75.3708 31.6709 75.5303C31.958 75.6898 32.3021 75.7695 32.7031 75.7695C33.1908 75.7695 33.585 75.6921 33.8857 75.5371C34.1911 75.3822 34.4212 75.1566 34.5762 74.8604C34.7357 74.5596 34.8405 74.1927 34.8906 73.7598ZM39.6211 66.5V77H37.9805V66.5H39.6211ZM39.334 73.0283L38.8008 73.0215C38.8053 72.5111 38.876 72.0394 39.0127 71.6064C39.154 71.1735 39.3499 70.7975 39.6006 70.4785C39.8558 70.1549 40.1611 69.9066 40.5166 69.7334C40.8721 69.5557 41.2663 69.4668 41.6992 69.4668C42.0638 69.4668 42.3919 69.5169 42.6836 69.6172C42.9798 69.7174 43.235 69.8792 43.4492 70.1025C43.6634 70.3213 43.8252 70.6084 43.9346 70.9639C44.0485 71.3148 44.1055 71.7432 44.1055 72.249V77H42.4512V72.2354C42.4512 71.8799 42.3988 71.5973 42.2939 71.3877C42.1937 71.1781 42.0456 71.0277 41.8496 70.9365C41.6536 70.8408 41.4144 70.793 41.1318 70.793C40.8356 70.793 40.5736 70.8522 40.3457 70.9707C40.1224 71.0892 39.9355 71.251 39.7852 71.4561C39.6348 71.6611 39.5208 71.8981 39.4434 72.167C39.3704 72.4359 39.334 72.723 39.334 73.0283ZM52.0762 68.8516H53.1768C53.1768 69.3757 53.0993 69.8268 52.9443 70.2051C52.7939 70.5833 52.5479 70.8727 52.2061 71.0732C51.8688 71.2738 51.4199 71.374 50.8594 71.374V70.5605C51.2012 70.5605 51.4587 70.4899 51.6318 70.3486C51.805 70.2074 51.9212 70.0091 51.9805 69.7539C52.0443 69.4987 52.0762 69.1979 52.0762 68.8516ZM45.4521 73.3838V73.2266C45.4521 72.6934 45.5296 72.1989 45.6846 71.7432C45.8395 71.2829 46.0628 70.8841 46.3545 70.5469C46.6507 70.2051 47.0107 69.9408 47.4346 69.7539C47.863 69.5625 48.346 69.4668 48.8838 69.4668C49.4261 69.4668 49.9115 69.5625 50.3398 69.7539C50.7682 69.9408 51.1283 70.2051 51.4199 70.5469C51.7161 70.8841 51.9417 71.2829 52.0967 71.7432C52.2516 72.1989 52.3291 72.6934 52.3291 73.2266V73.3838C52.3291 73.917 52.2516 74.4115 52.0967 74.8672C51.9417 75.3229 51.7161 75.7217 51.4199 76.0635C51.1283 76.4007 50.7705 76.665 50.3467 76.8564C49.9229 77.0433 49.4398 77.1367 48.8975 77.1367C48.3551 77.1367 47.8698 77.0433 47.4414 76.8564C47.0176 76.665 46.6576 76.4007 46.3613 76.0635C46.0651 75.7217 45.8395 75.3229 45.6846 74.8672C45.5296 74.4115 45.4521 73.917 45.4521 73.3838ZM47.0996 73.2266V73.3838C47.0996 73.7165 47.1338 74.0309 47.2021 74.3271C47.2705 74.6234 47.3776 74.8831 47.5234 75.1064C47.6738 75.3298 47.8607 75.5052 48.084 75.6328C48.3118 75.7604 48.583 75.8242 48.8975 75.8242C49.2074 75.8242 49.474 75.7604 49.6973 75.6328C49.9206 75.5052 50.1029 75.3298 50.2441 75.1064C50.39 74.8831 50.4993 74.6234 50.5723 74.3271C50.6452 74.0309 50.6816 73.7165 50.6816 73.3838V73.2266C50.6816 72.8984 50.6452 72.5885 50.5723 72.2969C50.5039 72.0007 50.3968 71.7386 50.251 71.5107C50.1051 71.2829 49.9183 71.1051 49.6904 70.9775C49.4671 70.8454 49.1982 70.7793 48.8838 70.7793C48.5739 70.7793 48.3073 70.8454 48.084 70.9775C47.8607 71.1051 47.6738 71.2829 47.5234 71.5107C47.3776 71.7386 47.2705 72.0007 47.2021 72.2969C47.1338 72.5885 47.0996 72.8984 47.0996 73.2266ZM48.4121 66.5L49.7451 68.5576H48.3711L46.5459 66.5H48.4121ZM58.9941 71.0254V79.8438H57.3467V69.6035H58.8643L58.9941 71.0254ZM63.8135 73.2334V73.377C63.8135 73.9147 63.7497 74.4137 63.6221 74.874C63.499 75.3298 63.3145 75.7285 63.0684 76.0703C62.8268 76.4076 62.5283 76.6696 62.1729 76.8564C61.8174 77.0433 61.4072 77.1367 60.9424 77.1367C60.4821 77.1367 60.0788 77.0524 59.7324 76.8838C59.3906 76.7106 59.1012 76.4668 58.8643 76.1523C58.6273 75.8379 58.4359 75.4688 58.29 75.0449C58.1488 74.6165 58.0485 74.1471 57.9893 73.6367V73.083C58.0485 72.5407 58.1488 72.0485 58.29 71.6064C58.4359 71.1644 58.6273 70.7839 58.8643 70.4648C59.1012 70.1458 59.3906 69.8997 59.7324 69.7266C60.0742 69.5534 60.473 69.4668 60.9287 69.4668C61.3936 69.4668 61.806 69.5579 62.166 69.7402C62.526 69.918 62.8291 70.1732 63.0752 70.5059C63.3213 70.834 63.5059 71.2305 63.6289 71.6953C63.752 72.1556 63.8135 72.6683 63.8135 73.2334ZM62.166 73.377V73.2334C62.166 72.8916 62.1341 72.5749 62.0703 72.2832C62.0065 71.987 61.9062 71.7272 61.7695 71.5039C61.6328 71.2806 61.4574 71.1074 61.2432 70.9844C61.0335 70.8568 60.7806 70.793 60.4844 70.793C60.1927 70.793 59.9421 70.8431 59.7324 70.9434C59.5228 71.0391 59.3473 71.1735 59.2061 71.3467C59.0648 71.5199 58.9554 71.7227 58.8779 71.9551C58.8005 72.1829 58.7458 72.4313 58.7139 72.7002V74.0264C58.7686 74.3545 58.862 74.6553 58.9941 74.9287C59.1263 75.2021 59.3132 75.4209 59.5547 75.585C59.8008 75.7445 60.1152 75.8242 60.498 75.8242C60.7943 75.8242 61.0472 75.7604 61.2568 75.6328C61.4665 75.5052 61.6374 75.3298 61.7695 75.1064C61.9062 74.8786 62.0065 74.6165 62.0703 74.3203C62.1341 74.0241 62.166 73.7096 62.166 73.377ZM66.8418 66.5V77H65.2012V66.5H66.8418ZM66.5547 73.0283L66.0215 73.0215C66.026 72.5111 66.0967 72.0394 66.2334 71.6064C66.3747 71.1735 66.5706 70.7975 66.8213 70.4785C67.0765 70.1549 67.3818 69.9066 67.7373 69.7334C68.0928 69.5557 68.487 69.4668 68.9199 69.4668C69.2845 69.4668 69.6126 69.5169 69.9043 69.6172C70.2005 69.7174 70.4557 69.8792 70.6699 70.1025C70.8841 70.3213 71.0459 70.6084 71.1553 70.9639C71.2692 71.3148 71.3262 71.7432 71.3262 72.249V77H69.6719V72.2354C69.6719 71.8799 69.6195 71.5973 69.5146 71.3877C69.4144 71.1781 69.2663 71.0277 69.0703 70.9365C68.8743 70.8408 68.6351 70.793 68.3525 70.793C68.0563 70.793 67.7943 70.8522 67.5664 70.9707C67.3431 71.0892 67.1562 71.251 67.0059 71.4561C66.8555 71.6611 66.7415 71.8981 66.6641 72.167C66.5911 72.4359 66.5547 72.723 66.5547 73.0283ZM77.1641 75.5166V71.9893C77.1641 71.7249 77.1162 71.4971 77.0205 71.3057C76.9248 71.1143 76.779 70.9661 76.583 70.8613C76.3916 70.7565 76.1501 70.7041 75.8584 70.7041C75.5895 70.7041 75.3571 70.7497 75.1611 70.8408C74.9652 70.932 74.8125 71.055 74.7031 71.21C74.5938 71.3649 74.5391 71.5404 74.5391 71.7363H72.8984C72.8984 71.4447 72.9691 71.1621 73.1104 70.8887C73.2516 70.6152 73.4567 70.3714 73.7256 70.1572C73.9945 69.943 74.3158 69.7744 74.6895 69.6514C75.0632 69.5283 75.4824 69.4668 75.9473 69.4668C76.5033 69.4668 76.9954 69.5602 77.4238 69.7471C77.8568 69.9339 78.1963 70.2165 78.4424 70.5947C78.693 70.9684 78.8184 71.4378 78.8184 72.0029V75.291C78.8184 75.6283 78.8411 75.9313 78.8867 76.2002C78.9368 76.4645 79.0075 76.6947 79.0986 76.8906V77H77.4102C77.3327 76.8223 77.2712 76.5967 77.2256 76.3232C77.1846 76.0452 77.1641 75.7764 77.1641 75.5166ZM77.4033 72.502L77.417 73.5205H76.2344C75.929 73.5205 75.6602 73.5501 75.4277 73.6094C75.1953 73.6641 75.0016 73.7461 74.8467 73.8555C74.6917 73.9648 74.5755 74.097 74.498 74.252C74.4206 74.4069 74.3818 74.5824 74.3818 74.7783C74.3818 74.9743 74.4274 75.1543 74.5186 75.3184C74.6097 75.4779 74.7419 75.6032 74.915 75.6943C75.0928 75.7855 75.307 75.8311 75.5576 75.8311C75.8949 75.8311 76.1888 75.7627 76.4395 75.626C76.6947 75.4847 76.8952 75.3138 77.041 75.1133C77.1868 74.9082 77.2643 74.7145 77.2734 74.5322L77.8066 75.2637C77.752 75.4505 77.6585 75.651 77.5264 75.8652C77.3942 76.0794 77.221 76.2845 77.0068 76.4805C76.7972 76.6719 76.5443 76.8291 76.248 76.9521C75.9564 77.0752 75.6191 77.1367 75.2363 77.1367C74.7533 77.1367 74.3226 77.041 73.9443 76.8496C73.5661 76.6536 73.2699 76.3916 73.0557 76.0635C72.8415 75.7308 72.7344 75.3548 72.7344 74.9355C72.7344 74.5436 72.8073 74.1973 72.9531 73.8965C73.1035 73.5911 73.3223 73.3359 73.6094 73.1309C73.901 72.9258 74.2565 72.7708 74.6758 72.666C75.0951 72.5566 75.5736 72.502 76.1113 72.502H77.4033ZM76.4941 66.5L78.3877 68.3867V68.4619H77.0547L76.0088 67.3887L74.9629 68.4619H73.6572V68.373L75.5234 66.5H76.4941ZM82.1748 71.1826V77H80.5273V69.6035H82.0791L82.1748 71.1826ZM81.8809 73.0283L81.3477 73.0215C81.3522 72.4974 81.4251 72.0166 81.5664 71.5791C81.7122 71.1416 81.9128 70.7656 82.168 70.4512C82.4277 70.1367 82.7376 69.8952 83.0977 69.7266C83.4577 69.5534 83.8587 69.4668 84.3008 69.4668C84.6562 69.4668 84.9775 69.5169 85.2646 69.6172C85.5563 69.7129 85.8047 69.8701 86.0098 70.0889C86.2194 70.3076 86.3789 70.5924 86.4883 70.9434C86.5977 71.2897 86.6523 71.7158 86.6523 72.2217V77H84.998V72.2148C84.998 71.8594 84.9456 71.5791 84.8408 71.374C84.7406 71.1644 84.5924 71.0163 84.3965 70.9297C84.2051 70.8385 83.9658 70.793 83.6787 70.793C83.3962 70.793 83.1432 70.8522 82.9199 70.9707C82.6966 71.0892 82.5075 71.251 82.3525 71.4561C82.2021 71.6611 82.0859 71.8981 82.0039 72.167C81.9219 72.4359 81.8809 72.723 81.8809 73.0283ZM93.0781 69.6035L94.4863 72.0576L95.9219 69.6035H97.7334L95.4912 73.2334L97.8223 77H96.0107L94.5068 74.4434L93.0029 77H91.1846L93.5088 73.2334L91.2734 69.6035H93.0781ZM105.93 68.9814H107.01C107.01 69.5101 106.935 69.9544 106.784 70.3145C106.638 70.6745 106.385 70.9456 106.025 71.1279C105.67 71.3102 105.175 71.4014 104.542 71.4014L104.549 70.5469C104.977 70.5469 105.287 70.4922 105.479 70.3828C105.674 70.2689 105.798 70.098 105.848 69.8701C105.902 69.6377 105.93 69.3415 105.93 68.9814ZM103.312 75.2568V69.6035H104.966V77H103.407L103.312 75.2568ZM103.544 73.7188L104.098 73.7051C104.098 74.2018 104.043 74.6598 103.934 75.0791C103.824 75.4938 103.656 75.8561 103.428 76.166C103.2 76.4714 102.908 76.7106 102.553 76.8838C102.197 77.0524 101.771 77.1367 101.274 77.1367C100.914 77.1367 100.584 77.0843 100.283 76.9795C99.9824 76.8747 99.7227 76.7129 99.5039 76.4941C99.2897 76.2754 99.1234 75.9906 99.0049 75.6396C98.8864 75.2887 98.8271 74.8695 98.8271 74.3818V69.6035H100.475V74.3955C100.475 74.6644 100.507 74.89 100.57 75.0723C100.634 75.25 100.721 75.3936 100.83 75.5029C100.939 75.6123 101.067 75.6898 101.213 75.7354C101.359 75.7809 101.514 75.8037 101.678 75.8037C102.147 75.8037 102.516 75.7126 102.785 75.5303C103.059 75.3434 103.252 75.0928 103.366 74.7783C103.485 74.4639 103.544 74.1107 103.544 73.7188ZM102.58 68.5234H101.356L101.295 67.5459C101.527 67.5322 101.714 67.5094 101.855 67.4775C101.997 67.4411 102.099 67.391 102.163 67.3271C102.231 67.2588 102.266 67.1699 102.266 67.0605C102.266 66.9694 102.238 66.8919 102.184 66.8281C102.133 66.7643 102.061 66.7142 101.965 66.6777C101.869 66.6367 101.757 66.6094 101.63 66.5957C101.502 66.5775 101.363 66.5684 101.213 66.5684L101.261 65.7412C101.648 65.7412 101.988 65.7731 102.279 65.8369C102.576 65.8962 102.822 65.9827 103.018 66.0967C103.218 66.2106 103.368 66.3473 103.469 66.5068C103.574 66.6663 103.626 66.8464 103.626 67.0469C103.626 67.375 103.517 67.6165 103.298 67.7715C103.079 67.9264 102.84 68.0221 102.58 68.0586V68.5234ZM112.684 66.5V77H111.029V66.5H112.684ZM116.635 76.1934L118.645 69.6035H120.408L117.441 78.1279C117.373 78.3102 117.284 78.5085 117.175 78.7227C117.065 78.9368 116.922 79.1396 116.744 79.3311C116.571 79.527 116.354 79.6842 116.095 79.8027C115.835 79.9258 115.521 79.9873 115.151 79.9873C115.006 79.9873 114.864 79.9736 114.728 79.9463C114.595 79.9235 114.47 79.8984 114.352 79.8711L114.345 78.6133C114.39 78.6178 114.445 78.6224 114.509 78.627C114.577 78.6315 114.632 78.6338 114.673 78.6338C114.946 78.6338 115.174 78.5996 115.356 78.5312C115.539 78.4674 115.687 78.3626 115.801 78.2168C115.919 78.071 116.02 77.875 116.102 77.6289L116.635 76.1934ZM115.5 69.6035L117.257 75.1406L117.551 76.877L116.409 77.1709L113.723 69.6035H115.5ZM116.334 68.5576L117.667 66.5H119.526L117.667 68.5576H116.334Z" fill="white"/>
<path d="M141 64C141 59.5817 144.582 56 149 56H252C256.418 56 260 59.5817 260 64V80C260 84.4183 256.418 88 252 88H149C144.582 88 141 84.4183 141 80V64Z" fill="#F2F0FF"/>
<path d="M159.891 73.7598H161.6C161.545 74.4115 161.363 74.9925 161.053 75.5029C160.743 76.0088 160.308 76.4076 159.747 76.6992C159.187 76.9909 158.505 77.1367 157.703 77.1367C157.088 77.1367 156.534 77.0273 156.042 76.8086C155.55 76.5853 155.128 76.2708 154.777 75.8652C154.426 75.4551 154.158 74.9606 153.971 74.3818C153.788 73.8031 153.697 73.1559 153.697 72.4404V71.6133C153.697 70.8978 153.791 70.2507 153.978 69.6719C154.169 69.0931 154.442 68.5986 154.798 68.1885C155.153 67.7738 155.579 67.457 156.076 67.2383C156.577 67.0195 157.14 66.9102 157.765 66.9102C158.558 66.9102 159.228 67.056 159.774 67.3477C160.321 67.6393 160.745 68.0426 161.046 68.5576C161.351 69.0726 161.538 69.6628 161.606 70.3281H159.897C159.852 69.8997 159.752 69.5329 159.597 69.2275C159.446 68.9222 159.223 68.6898 158.927 68.5303C158.631 68.3662 158.243 68.2842 157.765 68.2842C157.373 68.2842 157.031 68.3571 156.739 68.5029C156.448 68.6488 156.204 68.863 156.008 69.1455C155.812 69.4281 155.664 69.7767 155.563 70.1914C155.468 70.6016 155.42 71.071 155.42 71.5996V72.4404C155.42 72.9417 155.463 73.3975 155.55 73.8076C155.641 74.2132 155.778 74.5618 155.96 74.8535C156.147 75.1452 156.384 75.3708 156.671 75.5303C156.958 75.6898 157.302 75.7695 157.703 75.7695C158.191 75.7695 158.585 75.6921 158.886 75.5371C159.191 75.3822 159.421 75.1566 159.576 74.8604C159.736 74.5596 159.84 74.1927 159.891 73.7598ZM164.621 66.5V77H162.98V66.5H164.621ZM164.334 73.0283L163.801 73.0215C163.805 72.5111 163.876 72.0394 164.013 71.6064C164.154 71.1735 164.35 70.7975 164.601 70.4785C164.856 70.1549 165.161 69.9066 165.517 69.7334C165.872 69.5557 166.266 69.4668 166.699 69.4668C167.064 69.4668 167.392 69.5169 167.684 69.6172C167.98 69.7174 168.235 69.8792 168.449 70.1025C168.663 70.3213 168.825 70.6084 168.935 70.9639C169.049 71.3148 169.105 71.7432 169.105 72.249V77H167.451V72.2354C167.451 71.8799 167.399 71.5973 167.294 71.3877C167.194 71.1781 167.046 71.0277 166.85 70.9365C166.654 70.8408 166.414 70.793 166.132 70.793C165.836 70.793 165.574 70.8522 165.346 70.9707C165.122 71.0892 164.936 71.251 164.785 71.4561C164.635 71.6611 164.521 71.8981 164.443 72.167C164.37 72.4359 164.334 72.723 164.334 73.0283ZM177.842 68.9814H178.922C178.922 69.5101 178.847 69.9544 178.696 70.3145C178.55 70.6745 178.298 70.9456 177.938 71.1279C177.582 71.3102 177.088 71.4014 176.454 71.4014L176.461 70.5469C176.889 70.5469 177.199 70.4922 177.391 70.3828C177.587 70.2689 177.71 70.098 177.76 69.8701C177.814 69.6377 177.842 69.3415 177.842 68.9814ZM175.224 75.2568V69.6035H176.878V77H175.319L175.224 75.2568ZM175.456 73.7188L176.01 73.7051C176.01 74.2018 175.955 74.6598 175.846 75.0791C175.736 75.4938 175.568 75.8561 175.34 76.166C175.112 76.4714 174.82 76.7106 174.465 76.8838C174.109 77.0524 173.683 77.1367 173.187 77.1367C172.826 77.1367 172.496 77.0843 172.195 76.9795C171.895 76.8747 171.635 76.7129 171.416 76.4941C171.202 76.2754 171.035 75.9906 170.917 75.6396C170.799 75.2887 170.739 74.8695 170.739 74.3818V69.6035H172.387V74.3955C172.387 74.6644 172.419 74.89 172.482 75.0723C172.546 75.25 172.633 75.3936 172.742 75.5029C172.852 75.6123 172.979 75.6898 173.125 75.7354C173.271 75.7809 173.426 75.8037 173.59 75.8037C174.059 75.8037 174.428 75.7126 174.697 75.5303C174.971 75.3434 175.164 75.0928 175.278 74.7783C175.397 74.4639 175.456 74.1107 175.456 73.7188ZM183.516 75.5166V71.9893C183.516 71.7249 183.468 71.4971 183.372 71.3057C183.276 71.1143 183.131 70.9661 182.935 70.8613C182.743 70.7565 182.502 70.7041 182.21 70.7041C181.941 70.7041 181.709 70.7497 181.513 70.8408C181.317 70.932 181.164 71.055 181.055 71.21C180.945 71.3649 180.891 71.5404 180.891 71.7363H179.25C179.25 71.4447 179.321 71.1621 179.462 70.8887C179.603 70.6152 179.808 70.3714 180.077 70.1572C180.346 69.943 180.667 69.7744 181.041 69.6514C181.415 69.5283 181.834 69.4668 182.299 69.4668C182.855 69.4668 183.347 69.5602 183.775 69.7471C184.208 69.9339 184.548 70.2165 184.794 70.5947C185.045 70.9684 185.17 71.4378 185.17 72.0029V75.291C185.17 75.6283 185.193 75.9313 185.238 76.2002C185.288 76.4645 185.359 76.6947 185.45 76.8906V77H183.762C183.684 76.8223 183.623 76.5967 183.577 76.3232C183.536 76.0452 183.516 75.7764 183.516 75.5166ZM183.755 72.502L183.769 73.5205H182.586C182.281 73.5205 182.012 73.5501 181.779 73.6094C181.547 73.6641 181.353 73.7461 181.198 73.8555C181.043 73.9648 180.927 74.097 180.85 74.252C180.772 74.4069 180.733 74.5824 180.733 74.7783C180.733 74.9743 180.779 75.1543 180.87 75.3184C180.961 75.4779 181.093 75.6032 181.267 75.6943C181.444 75.7855 181.659 75.8311 181.909 75.8311C182.246 75.8311 182.54 75.7627 182.791 75.626C183.046 75.4847 183.247 75.3138 183.393 75.1133C183.538 74.9082 183.616 74.7145 183.625 74.5322L184.158 75.2637C184.104 75.4505 184.01 75.651 183.878 75.8652C183.746 76.0794 183.573 76.2845 183.358 76.4805C183.149 76.6719 182.896 76.8291 182.6 76.9521C182.308 77.0752 181.971 77.1367 181.588 77.1367C181.105 77.1367 180.674 77.041 180.296 76.8496C179.918 76.6536 179.621 76.3916 179.407 76.0635C179.193 75.7308 179.086 75.3548 179.086 74.9355C179.086 74.5436 179.159 74.1973 179.305 73.8965C179.455 73.5911 179.674 73.3359 179.961 73.1309C180.253 72.9258 180.608 72.7708 181.027 72.666C181.447 72.5566 181.925 72.502 182.463 72.502H183.755ZM193.77 69.6035V70.8066H189.6V69.6035H193.77ZM190.803 67.792H192.45V74.9561C192.45 75.1839 192.482 75.3594 192.546 75.4824C192.614 75.6009 192.708 75.6807 192.826 75.7217C192.945 75.7627 193.084 75.7832 193.243 75.7832C193.357 75.7832 193.466 75.7764 193.571 75.7627C193.676 75.749 193.76 75.7354 193.824 75.7217L193.831 76.9795C193.694 77.0205 193.535 77.057 193.353 77.0889C193.175 77.1208 192.97 77.1367 192.737 77.1367C192.359 77.1367 192.024 77.0706 191.732 76.9385C191.441 76.8018 191.213 76.5807 191.049 76.2754C190.885 75.9701 190.803 75.5645 190.803 75.0586V67.792ZM196.668 66.5V77H195.027V66.5H196.668ZM196.381 73.0283L195.848 73.0215C195.852 72.5111 195.923 72.0394 196.06 71.6064C196.201 71.1735 196.397 70.7975 196.647 70.4785C196.903 70.1549 197.208 69.9066 197.563 69.7334C197.919 69.5557 198.313 69.4668 198.746 69.4668C199.111 69.4668 199.439 69.5169 199.73 69.6172C200.027 69.7174 200.282 69.8792 200.496 70.1025C200.71 70.3213 200.872 70.6084 200.981 70.9639C201.095 71.3148 201.152 71.7432 201.152 72.249V77H199.498V72.2354C199.498 71.8799 199.446 71.5973 199.341 71.3877C199.241 71.1781 199.092 71.0277 198.896 70.9365C198.701 70.8408 198.461 70.793 198.179 70.793C197.882 70.793 197.62 70.8522 197.393 70.9707C197.169 71.0892 196.982 71.251 196.832 71.4561C196.682 71.6611 196.568 71.8981 196.49 72.167C196.417 72.4359 196.381 72.723 196.381 73.0283ZM209.889 68.9814H210.969C210.969 69.5101 210.894 69.9544 210.743 70.3145C210.597 70.6745 210.344 70.9456 209.984 71.1279C209.629 71.3102 209.134 71.4014 208.501 71.4014L208.508 70.5469C208.936 70.5469 209.246 70.4922 209.438 70.3828C209.633 70.2689 209.757 70.098 209.807 69.8701C209.861 69.6377 209.889 69.3415 209.889 68.9814ZM207.271 75.2568V69.6035H208.925V77H207.366L207.271 75.2568ZM207.503 73.7188L208.057 73.7051C208.057 74.2018 208.002 74.6598 207.893 75.0791C207.783 75.4938 207.615 75.8561 207.387 76.166C207.159 76.4714 206.867 76.7106 206.512 76.8838C206.156 77.0524 205.73 77.1367 205.233 77.1367C204.873 77.1367 204.543 77.0843 204.242 76.9795C203.941 76.8747 203.682 76.7129 203.463 76.4941C203.249 76.2754 203.082 75.9906 202.964 75.6396C202.845 75.2887 202.786 74.8695 202.786 74.3818V69.6035H204.434V74.3955C204.434 74.6644 204.465 74.89 204.529 75.0723C204.593 75.25 204.68 75.3936 204.789 75.5029C204.898 75.6123 205.026 75.6898 205.172 75.7354C205.318 75.7809 205.473 75.8037 205.637 75.8037C206.106 75.8037 206.475 75.7126 206.744 75.5303C207.018 75.3434 207.211 75.0928 207.325 74.7783C207.444 74.4639 207.503 74.1107 207.503 73.7188ZM204.898 78.6406C204.898 78.4036 204.98 78.2054 205.145 78.0459C205.313 77.8864 205.543 77.8066 205.835 77.8066C206.127 77.8066 206.357 77.8864 206.525 78.0459C206.694 78.2054 206.778 78.4036 206.778 78.6406C206.778 78.873 206.694 79.069 206.525 79.2285C206.357 79.388 206.127 79.4678 205.835 79.4678C205.543 79.4678 205.313 79.388 205.145 79.2285C204.98 79.069 204.898 78.873 204.898 78.6406ZM214.414 75.8242C214.683 75.8242 214.924 75.7718 215.139 75.667C215.357 75.5576 215.533 75.4072 215.665 75.2158C215.802 75.0244 215.877 74.8034 215.891 74.5527H217.442C217.433 75.0312 217.292 75.4665 217.019 75.8584C216.745 76.2503 216.383 76.5625 215.932 76.7949C215.48 77.0228 214.981 77.1367 214.435 77.1367C213.869 77.1367 213.377 77.041 212.958 76.8496C212.539 76.6536 212.19 76.3848 211.912 76.043C211.634 75.7012 211.424 75.307 211.283 74.8604C211.146 74.4137 211.078 73.9352 211.078 73.4248V73.1855C211.078 72.6751 211.146 72.1966 211.283 71.75C211.424 71.2988 211.634 70.9023 211.912 70.5605C212.19 70.2188 212.539 69.9521 212.958 69.7607C213.377 69.5648 213.867 69.4668 214.428 69.4668C215.02 69.4668 215.54 69.5853 215.986 69.8223C216.433 70.0547 216.784 70.3805 217.039 70.7998C217.299 71.2145 217.433 71.6976 217.442 72.249H215.891C215.877 71.9756 215.809 71.7295 215.686 71.5107C215.567 71.2874 215.398 71.1097 215.18 70.9775C214.965 70.8454 214.708 70.7793 214.407 70.7793C214.075 70.7793 213.799 70.8477 213.58 70.9844C213.361 71.1165 213.19 71.2988 213.067 71.5312C212.944 71.7591 212.855 72.0166 212.801 72.3037C212.751 72.5863 212.726 72.8802 212.726 73.1855V73.4248C212.726 73.7301 212.751 74.0264 212.801 74.3135C212.851 74.6006 212.938 74.8581 213.061 75.0859C213.188 75.3092 213.361 75.4893 213.58 75.626C213.799 75.7581 214.077 75.8242 214.414 75.8242ZM223.82 66.5V77H222.18V66.5H223.82ZM223.533 73.0283L223 73.0215C223.005 72.5111 223.075 72.0394 223.212 71.6064C223.353 71.1735 223.549 70.7975 223.8 70.4785C224.055 70.1549 224.36 69.9066 224.716 69.7334C225.071 69.5557 225.465 69.4668 225.898 69.4668C226.263 69.4668 226.591 69.5169 226.883 69.6172C227.179 69.7174 227.434 69.8792 227.648 70.1025C227.863 70.3213 228.024 70.6084 228.134 70.9639C228.248 71.3148 228.305 71.7432 228.305 72.249V77H226.65V72.2354C226.65 71.8799 226.598 71.5973 226.493 71.3877C226.393 71.1781 226.245 71.0277 226.049 70.9365C225.853 70.8408 225.614 70.793 225.331 70.793C225.035 70.793 224.773 70.8522 224.545 70.9707C224.322 71.0892 224.135 71.251 223.984 71.4561C223.834 71.6611 223.72 71.8981 223.643 72.167C223.57 72.4359 223.533 72.723 223.533 73.0283ZM231.736 69.6035V77H230.082V69.6035H231.736ZM229.973 67.6621C229.973 67.4115 230.055 67.2041 230.219 67.04C230.387 66.8714 230.62 66.7871 230.916 66.7871C231.208 66.7871 231.438 66.8714 231.606 67.04C231.775 67.2041 231.859 67.4115 231.859 67.6621C231.859 67.9082 231.775 68.1133 231.606 68.2773C231.438 68.4414 231.208 68.5234 230.916 68.5234C230.62 68.5234 230.387 68.4414 230.219 68.2773C230.055 68.1133 229.973 67.9082 229.973 67.6621ZM236.802 77.1367C236.255 77.1367 235.76 77.0479 235.318 76.8701C234.881 76.6878 234.507 76.4349 234.197 76.1113C233.892 75.7878 233.657 75.4072 233.493 74.9697C233.329 74.5322 233.247 74.0605 233.247 73.5547V73.2812C233.247 72.7025 233.331 72.1784 233.5 71.709C233.669 71.2396 233.903 70.8385 234.204 70.5059C234.505 70.1686 234.86 69.9111 235.271 69.7334C235.681 69.5557 236.125 69.4668 236.604 69.4668C237.132 69.4668 237.595 69.5557 237.991 69.7334C238.388 69.9111 238.716 70.1618 238.976 70.4854C239.24 70.8044 239.436 71.1849 239.563 71.627C239.696 72.069 239.762 72.5566 239.762 73.0898V73.7939H234.047V72.6113H238.135V72.4814C238.126 72.1852 238.066 71.9072 237.957 71.6475C237.852 71.3877 237.69 71.1781 237.472 71.0186C237.253 70.859 236.961 70.7793 236.597 70.7793C236.323 70.7793 236.079 70.8385 235.865 70.957C235.656 71.071 235.48 71.2373 235.339 71.4561C235.198 71.6748 235.088 71.9391 235.011 72.249C234.938 72.5544 234.901 72.8984 234.901 73.2812V73.5547C234.901 73.8783 234.945 74.179 235.031 74.457C235.122 74.7305 235.255 74.9697 235.428 75.1748C235.601 75.3799 235.811 75.5417 236.057 75.6602C236.303 75.7741 236.583 75.8311 236.897 75.8311C237.294 75.8311 237.647 75.7513 237.957 75.5918C238.267 75.4323 238.536 75.2067 238.764 74.915L239.632 75.7559C239.472 75.9883 239.265 76.2116 239.01 76.4258C238.755 76.6354 238.442 76.8063 238.073 76.9385C237.709 77.0706 237.285 77.1367 236.802 77.1367ZM236.966 66.5L238.859 68.3867V68.4619H237.526L236.48 67.3887L235.435 68.4619H234.129V68.373L235.995 66.5H236.966ZM235.619 78.6406C235.619 78.4036 235.701 78.2054 235.865 78.0459C236.034 77.8864 236.264 77.8066 236.556 77.8066C236.847 77.8066 237.077 77.8864 237.246 78.0459C237.415 78.2054 237.499 78.4036 237.499 78.6406C237.499 78.873 237.415 79.069 237.246 79.2285C237.077 79.388 236.847 79.4678 236.556 79.4678C236.264 79.4678 236.034 79.388 235.865 79.2285C235.701 79.069 235.619 78.873 235.619 78.6406ZM242.681 71.1826V77H241.033V69.6035H242.585L242.681 71.1826ZM242.387 73.0283L241.854 73.0215C241.858 72.4974 241.931 72.0166 242.072 71.5791C242.218 71.1416 242.419 70.7656 242.674 70.4512C242.934 70.1367 243.243 69.8952 243.604 69.7266C243.964 69.5534 244.365 69.4668 244.807 69.4668C245.162 69.4668 245.483 69.5169 245.771 69.6172C246.062 69.7129 246.311 69.8701 246.516 70.0889C246.725 70.3076 246.885 70.5924 246.994 70.9434C247.104 71.2897 247.158 71.7158 247.158 72.2217V77H245.504V72.2148C245.504 71.8594 245.451 71.5791 245.347 71.374C245.246 71.1644 245.098 71.0163 244.902 70.9297C244.711 70.8385 244.472 70.793 244.185 70.793C243.902 70.793 243.649 70.8522 243.426 70.9707C243.202 71.0892 243.013 71.251 242.858 71.4561C242.708 71.6611 242.592 71.8981 242.51 72.167C242.428 72.4359 242.387 72.723 242.387 73.0283Z" fill="#7966FF"/>
<path d="M268 64C268 59.5817 271.582 56 276 56H379C383.418 56 387 59.5817 387 64V80C387 84.4183 383.418 88 379 88H276C271.582 88 268 84.4183 268 80V64Z" fill="#F2F0FF"/>
<path d="M284.108 77H281.982L281.996 75.6396H284.108C284.724 75.6396 285.239 75.5052 285.653 75.2363C286.073 74.9674 286.387 74.5824 286.597 74.0811C286.811 73.5798 286.918 72.9827 286.918 72.29V71.75C286.918 71.2122 286.856 70.736 286.733 70.3213C286.615 69.9066 286.437 69.5579 286.2 69.2754C285.968 68.9928 285.681 68.7786 285.339 68.6328C285.002 68.487 284.612 68.4141 284.17 68.4141H281.941V67.0469H284.17C284.831 67.0469 285.435 67.1585 285.981 67.3818C286.528 67.6006 287 67.9173 287.396 68.332C287.798 68.7467 288.105 69.2435 288.319 69.8223C288.534 70.401 288.641 71.0482 288.641 71.7637V72.29C288.641 73.0055 288.534 73.6527 288.319 74.2314C288.105 74.8102 287.798 75.307 287.396 75.7217C286.995 76.1318 286.517 76.4486 285.961 76.6719C285.41 76.8906 284.792 77 284.108 77ZM282.933 67.0469V77H281.217V67.0469H282.933ZM284.751 71.3945V72.5293H280.157V71.3945H284.751ZM294.369 75.5166V71.9893C294.369 71.7249 294.321 71.4971 294.226 71.3057C294.13 71.1143 293.984 70.9661 293.788 70.8613C293.597 70.7565 293.355 70.7041 293.063 70.7041C292.795 70.7041 292.562 70.7497 292.366 70.8408C292.17 70.932 292.018 71.055 291.908 71.21C291.799 71.3649 291.744 71.5404 291.744 71.7363H290.104C290.104 71.4447 290.174 71.1621 290.315 70.8887C290.457 70.6152 290.662 70.3714 290.931 70.1572C291.2 69.943 291.521 69.7744 291.895 69.6514C292.268 69.5283 292.688 69.4668 293.152 69.4668C293.708 69.4668 294.201 69.5602 294.629 69.7471C295.062 69.9339 295.401 70.2165 295.647 70.5947C295.898 70.9684 296.023 71.4378 296.023 72.0029V75.291C296.023 75.6283 296.046 75.9313 296.092 76.2002C296.142 76.4645 296.213 76.6947 296.304 76.8906V77H294.615C294.538 76.8223 294.476 76.5967 294.431 76.3232C294.39 76.0452 294.369 75.7764 294.369 75.5166ZM294.608 72.502L294.622 73.5205H293.439C293.134 73.5205 292.865 73.5501 292.633 73.6094C292.4 73.6641 292.207 73.7461 292.052 73.8555C291.897 73.9648 291.781 74.097 291.703 74.252C291.626 74.4069 291.587 74.5824 291.587 74.7783C291.587 74.9743 291.632 75.1543 291.724 75.3184C291.815 75.4779 291.947 75.6032 292.12 75.6943C292.298 75.7855 292.512 75.8311 292.763 75.8311C293.1 75.8311 293.394 75.7627 293.645 75.626C293.9 75.4847 294.1 75.3138 294.246 75.1133C294.392 74.9082 294.469 74.7145 294.479 74.5322L295.012 75.2637C294.957 75.4505 294.864 75.651 294.731 75.8652C294.599 76.0794 294.426 76.2845 294.212 76.4805C294.002 76.6719 293.749 76.8291 293.453 76.9521C293.161 77.0752 292.824 77.1367 292.441 77.1367C291.958 77.1367 291.528 77.041 291.149 76.8496C290.771 76.6536 290.475 76.3916 290.261 76.0635C290.047 75.7308 289.939 75.3548 289.939 74.9355C289.939 74.5436 290.012 74.1973 290.158 73.8965C290.309 73.5911 290.527 73.3359 290.814 73.1309C291.106 72.9258 291.462 72.7708 291.881 72.666C292.3 72.5566 292.779 72.502 293.316 72.502H294.608ZM299.38 71.1826V77H297.732V69.6035H299.284L299.38 71.1826ZM299.086 73.0283L298.553 73.0215C298.557 72.4974 298.63 72.0166 298.771 71.5791C298.917 71.1416 299.118 70.7656 299.373 70.4512C299.633 70.1367 299.943 69.8952 300.303 69.7266C300.663 69.5534 301.064 69.4668 301.506 69.4668C301.861 69.4668 302.183 69.5169 302.47 69.6172C302.761 69.7129 303.01 69.8701 303.215 70.0889C303.424 70.3076 303.584 70.5924 303.693 70.9434C303.803 71.2897 303.857 71.7158 303.857 72.2217V77H302.203V72.2148C302.203 71.8594 302.151 71.5791 302.046 71.374C301.946 71.1644 301.798 71.0163 301.602 70.9297C301.41 70.8385 301.171 70.793 300.884 70.793C300.601 70.793 300.348 70.8522 300.125 70.9707C299.902 71.0892 299.713 71.251 299.558 71.4561C299.407 71.6611 299.291 71.8981 299.209 72.167C299.127 72.4359 299.086 72.723 299.086 73.0283ZM310.276 69.6035H311.773V76.7949C311.773 77.4603 311.632 78.0254 311.35 78.4902C311.067 78.9551 310.673 79.3083 310.167 79.5498C309.661 79.7959 309.076 79.9189 308.41 79.9189C308.128 79.9189 307.813 79.8779 307.467 79.7959C307.125 79.7139 306.792 79.5817 306.469 79.3994C306.15 79.2217 305.883 78.987 305.669 78.6953L306.441 77.7246C306.706 78.0391 306.997 78.2692 307.316 78.415C307.635 78.5609 307.97 78.6338 308.321 78.6338C308.7 78.6338 309.021 78.5632 309.285 78.4219C309.554 78.2852 309.761 78.0824 309.907 77.8135C310.053 77.5446 310.126 77.2165 310.126 76.8291V71.2783L310.276 69.6035ZM305.252 73.3838V73.2402C305.252 72.6797 305.32 72.1693 305.457 71.709C305.594 71.2441 305.79 70.8454 306.045 70.5127C306.3 70.1755 306.61 69.918 306.975 69.7402C307.339 69.5579 307.752 69.4668 308.212 69.4668C308.69 69.4668 309.098 69.5534 309.436 69.7266C309.777 69.8997 310.062 70.1481 310.29 70.4717C310.518 70.7907 310.696 71.1735 310.823 71.6201C310.955 72.0622 311.053 72.5544 311.117 73.0967V73.5547C311.058 74.0833 310.958 74.5664 310.816 75.0039C310.675 75.4414 310.488 75.8197 310.256 76.1387C310.023 76.4577 309.736 76.7038 309.395 76.877C309.057 77.0501 308.659 77.1367 308.198 77.1367C307.747 77.1367 307.339 77.0433 306.975 76.8564C306.615 76.6696 306.305 76.4076 306.045 76.0703C305.79 75.7331 305.594 75.3366 305.457 74.8809C305.32 74.4206 305.252 73.9215 305.252 73.3838ZM306.899 73.2402V73.3838C306.899 73.721 306.931 74.0355 306.995 74.3271C307.063 74.6188 307.166 74.8763 307.303 75.0996C307.444 75.3184 307.622 75.4915 307.836 75.6191C308.055 75.7422 308.312 75.8037 308.608 75.8037C308.996 75.8037 309.312 75.7217 309.559 75.5576C309.809 75.3936 310.001 75.1725 310.133 74.8945C310.27 74.612 310.365 74.2975 310.42 73.9512V72.7139C310.393 72.445 310.336 72.1943 310.249 71.9619C310.167 71.7295 310.055 71.5267 309.914 71.3535C309.773 71.1758 309.595 71.0391 309.381 70.9434C309.167 70.8431 308.914 70.793 308.622 70.793C308.326 70.793 308.068 70.8568 307.85 70.9844C307.631 71.112 307.451 71.2874 307.31 71.5107C307.173 71.734 307.07 71.9938 307.002 72.29C306.934 72.5863 306.899 72.903 306.899 73.2402ZM320.359 69.6035V70.8066H316.189V69.6035H320.359ZM317.393 67.792H319.04V74.9561C319.04 75.1839 319.072 75.3594 319.136 75.4824C319.204 75.6009 319.298 75.6807 319.416 75.7217C319.535 75.7627 319.674 75.7832 319.833 75.7832C319.947 75.7832 320.056 75.7764 320.161 75.7627C320.266 75.749 320.35 75.7354 320.414 75.7217L320.421 76.9795C320.284 77.0205 320.125 77.057 319.942 77.0889C319.765 77.1208 319.56 77.1367 319.327 77.1367C318.949 77.1367 318.614 77.0706 318.322 76.9385C318.031 76.8018 317.803 76.5807 317.639 76.2754C317.475 75.9701 317.393 75.5645 317.393 75.0586V67.792ZM323.258 66.5V77H321.617V66.5H323.258ZM322.971 73.0283L322.438 73.0215C322.442 72.5111 322.513 72.0394 322.649 71.6064C322.791 71.1735 322.987 70.7975 323.237 70.4785C323.493 70.1549 323.798 69.9066 324.153 69.7334C324.509 69.5557 324.903 69.4668 325.336 69.4668C325.701 69.4668 326.029 69.5169 326.32 69.6172C326.617 69.7174 326.872 69.8792 327.086 70.1025C327.3 70.3213 327.462 70.6084 327.571 70.9639C327.685 71.3148 327.742 71.7432 327.742 72.249V77H326.088V72.2354C326.088 71.8799 326.035 71.5973 325.931 71.3877C325.83 71.1781 325.682 71.0277 325.486 70.9365C325.29 70.8408 325.051 70.793 324.769 70.793C324.472 70.793 324.21 70.8522 323.982 70.9707C323.759 71.0892 323.572 71.251 323.422 71.4561C323.271 71.6611 323.158 71.8981 323.08 72.167C323.007 72.4359 322.971 72.723 322.971 73.0283ZM336.479 68.9814H337.559C337.559 69.5101 337.483 69.9544 337.333 70.3145C337.187 70.6745 336.934 70.9456 336.574 71.1279C336.219 71.3102 335.724 71.4014 335.091 71.4014L335.098 70.5469C335.526 70.5469 335.836 70.4922 336.027 70.3828C336.223 70.2689 336.346 70.098 336.396 69.8701C336.451 69.6377 336.479 69.3415 336.479 68.9814ZM333.86 75.2568V69.6035H335.515V77H333.956L333.86 75.2568ZM334.093 73.7188L334.646 73.7051C334.646 74.2018 334.592 74.6598 334.482 75.0791C334.373 75.4938 334.204 75.8561 333.977 76.166C333.749 76.4714 333.457 76.7106 333.102 76.8838C332.746 77.0524 332.32 77.1367 331.823 77.1367C331.463 77.1367 331.133 77.0843 330.832 76.9795C330.531 76.8747 330.271 76.7129 330.053 76.4941C329.839 76.2754 329.672 75.9906 329.554 75.6396C329.435 75.2887 329.376 74.8695 329.376 74.3818V69.6035H331.023V74.3955C331.023 74.6644 331.055 74.89 331.119 75.0723C331.183 75.25 331.27 75.3936 331.379 75.5029C331.488 75.6123 331.616 75.6898 331.762 75.7354C331.908 75.7809 332.062 75.8037 332.227 75.8037C332.696 75.8037 333.065 75.7126 333.334 75.5303C333.607 75.3434 333.801 75.0928 333.915 74.7783C334.034 74.4639 334.093 74.1107 334.093 73.7188ZM331.488 78.6406C331.488 78.4036 331.57 78.2054 331.734 78.0459C331.903 77.8864 332.133 77.8066 332.425 77.8066C332.716 77.8066 332.947 77.8864 333.115 78.0459C333.284 78.2054 333.368 78.4036 333.368 78.6406C333.368 78.873 333.284 79.069 333.115 79.2285C332.947 79.388 332.716 79.4678 332.425 79.4678C332.133 79.4678 331.903 79.388 331.734 79.2285C331.57 79.069 331.488 78.873 331.488 78.6406ZM341.004 75.8242C341.273 75.8242 341.514 75.7718 341.729 75.667C341.947 75.5576 342.123 75.4072 342.255 75.2158C342.392 75.0244 342.467 74.8034 342.48 74.5527H344.032C344.023 75.0312 343.882 75.4665 343.608 75.8584C343.335 76.2503 342.973 76.5625 342.521 76.7949C342.07 77.0228 341.571 77.1367 341.024 77.1367C340.459 77.1367 339.967 77.041 339.548 76.8496C339.129 76.6536 338.78 76.3848 338.502 76.043C338.224 75.7012 338.014 75.307 337.873 74.8604C337.736 74.4137 337.668 73.9352 337.668 73.4248V73.1855C337.668 72.6751 337.736 72.1966 337.873 71.75C338.014 71.2988 338.224 70.9023 338.502 70.5605C338.78 70.2188 339.129 69.9521 339.548 69.7607C339.967 69.5648 340.457 69.4668 341.018 69.4668C341.61 69.4668 342.13 69.5853 342.576 69.8223C343.023 70.0547 343.374 70.3805 343.629 70.7998C343.889 71.2145 344.023 71.6976 344.032 72.249H342.48C342.467 71.9756 342.398 71.7295 342.275 71.5107C342.157 71.2874 341.988 71.1097 341.77 70.9775C341.555 70.8454 341.298 70.7793 340.997 70.7793C340.664 70.7793 340.389 70.8477 340.17 70.9844C339.951 71.1165 339.78 71.2988 339.657 71.5312C339.534 71.7591 339.445 72.0166 339.391 72.3037C339.34 72.5863 339.315 72.8802 339.315 73.1855V73.4248C339.315 73.7301 339.34 74.0264 339.391 74.3135C339.441 74.6006 339.527 74.8581 339.65 75.0859C339.778 75.3092 339.951 75.4893 340.17 75.626C340.389 75.7581 340.667 75.8242 341.004 75.8242ZM350.41 66.5V77H348.77V66.5H350.41ZM350.123 73.0283L349.59 73.0215C349.594 72.5111 349.665 72.0394 349.802 71.6064C349.943 71.1735 350.139 70.7975 350.39 70.4785C350.645 70.1549 350.95 69.9066 351.306 69.7334C351.661 69.5557 352.055 69.4668 352.488 69.4668C352.853 69.4668 353.181 69.5169 353.473 69.6172C353.769 69.7174 354.024 69.8792 354.238 70.1025C354.452 70.3213 354.614 70.6084 354.724 70.9639C354.838 71.3148 354.895 71.7432 354.895 72.249V77H353.24V72.2354C353.24 71.8799 353.188 71.5973 353.083 71.3877C352.983 71.1781 352.835 71.0277 352.639 70.9365C352.443 70.8408 352.203 70.793 351.921 70.793C351.625 70.793 351.363 70.8522 351.135 70.9707C350.911 71.0892 350.725 71.251 350.574 71.4561C350.424 71.6611 350.31 71.8981 350.232 72.167C350.16 72.4359 350.123 72.723 350.123 73.0283ZM358.326 69.6035V77H356.672V69.6035H358.326ZM356.562 67.6621C356.562 67.4115 356.645 67.2041 356.809 67.04C356.977 66.8714 357.21 66.7871 357.506 66.7871C357.798 66.7871 358.028 66.8714 358.196 67.04C358.365 67.2041 358.449 67.4115 358.449 67.6621C358.449 67.9082 358.365 68.1133 358.196 68.2773C358.028 68.4414 357.798 68.5234 357.506 68.5234C357.21 68.5234 356.977 68.4414 356.809 68.2773C356.645 68.1133 356.562 67.9082 356.562 67.6621ZM363.392 77.1367C362.845 77.1367 362.35 77.0479 361.908 76.8701C361.471 76.6878 361.097 76.4349 360.787 76.1113C360.482 75.7878 360.247 75.4072 360.083 74.9697C359.919 74.5322 359.837 74.0605 359.837 73.5547V73.2812C359.837 72.7025 359.921 72.1784 360.09 71.709C360.258 71.2396 360.493 70.8385 360.794 70.5059C361.095 70.1686 361.45 69.9111 361.86 69.7334C362.271 69.5557 362.715 69.4668 363.193 69.4668C363.722 69.4668 364.185 69.5557 364.581 69.7334C364.978 69.9111 365.306 70.1618 365.565 70.4854C365.83 70.8044 366.026 71.1849 366.153 71.627C366.285 72.069 366.352 72.5566 366.352 73.0898V73.7939H360.637V72.6113H364.725V72.4814C364.715 72.1852 364.656 71.9072 364.547 71.6475C364.442 71.3877 364.28 71.1781 364.062 71.0186C363.843 70.859 363.551 70.7793 363.187 70.7793C362.913 70.7793 362.669 70.8385 362.455 70.957C362.245 71.071 362.07 71.2373 361.929 71.4561C361.787 71.6748 361.678 71.9391 361.601 72.249C361.528 72.5544 361.491 72.8984 361.491 73.2812V73.5547C361.491 73.8783 361.535 74.179 361.621 74.457C361.712 74.7305 361.844 74.9697 362.018 75.1748C362.191 75.3799 362.4 75.5417 362.646 75.6602C362.893 75.7741 363.173 75.8311 363.487 75.8311C363.884 75.8311 364.237 75.7513 364.547 75.5918C364.857 75.4323 365.126 75.2067 365.354 74.915L366.222 75.7559C366.062 75.9883 365.855 76.2116 365.6 76.4258C365.344 76.6354 365.032 76.8063 364.663 76.9385C364.299 77.0706 363.875 77.1367 363.392 77.1367ZM363.556 66.5L365.449 68.3867V68.4619H364.116L363.07 67.3887L362.024 68.4619H360.719V68.373L362.585 66.5H363.556ZM362.209 78.6406C362.209 78.4036 362.291 78.2054 362.455 78.0459C362.624 77.8864 362.854 77.8066 363.146 77.8066C363.437 77.8066 363.667 77.8864 363.836 78.0459C364.005 78.2054 364.089 78.4036 364.089 78.6406C364.089 78.873 364.005 79.069 363.836 79.2285C363.667 79.388 363.437 79.4678 363.146 79.4678C362.854 79.4678 362.624 79.388 362.455 79.2285C362.291 79.069 362.209 78.873 362.209 78.6406ZM369.271 71.1826V77H367.623V69.6035H369.175L369.271 71.1826ZM368.977 73.0283L368.443 73.0215C368.448 72.4974 368.521 72.0166 368.662 71.5791C368.808 71.1416 369.008 70.7656 369.264 70.4512C369.523 70.1367 369.833 69.8952 370.193 69.7266C370.553 69.5534 370.954 69.4668 371.396 69.4668C371.752 69.4668 372.073 69.5169 372.36 69.6172C372.652 69.7129 372.9 69.8701 373.105 70.0889C373.315 70.3076 373.475 70.5924 373.584 70.9434C373.693 71.2897 373.748 71.7158 373.748 72.2217V77H372.094V72.2148C372.094 71.8594 372.041 71.5791 371.937 71.374C371.836 71.1644 371.688 71.0163 371.492 70.9297C371.301 70.8385 371.062 70.793 370.774 70.793C370.492 70.793 370.239 70.8522 370.016 70.9707C369.792 71.0892 369.603 71.251 369.448 71.4561C369.298 71.6611 369.182 71.8981 369.1 72.167C369.018 72.4359 368.977 72.723 368.977 73.0283Z" fill="#7966FF"/>
<path d="M395 64C395 59.5817 398.582 56 403 56H540C544.418 56 548 59.5817 548 64V80C548 84.4183 544.418 88 540 88H403C398.582 88 395 84.4183 395 80V64Z" fill="#F2F0FF"/>
<path d="M410.903 77H408.777L408.791 75.6396H410.903C411.519 75.6396 412.034 75.5052 412.448 75.2363C412.868 74.9674 413.182 74.5824 413.392 74.0811C413.606 73.5798 413.713 72.9827 413.713 72.29V71.75C413.713 71.2122 413.651 70.736 413.528 70.3213C413.41 69.9066 413.232 69.5579 412.995 69.2754C412.763 68.9928 412.476 68.7786 412.134 68.6328C411.797 68.487 411.407 68.4141 410.965 68.4141H408.736V67.0469H410.965C411.626 67.0469 412.229 67.1585 412.776 67.3818C413.323 67.6006 413.795 67.9173 414.191 68.332C414.592 68.7467 414.9 69.2435 415.114 69.8223C415.328 70.401 415.436 71.0482 415.436 71.7637V72.29C415.436 73.0055 415.328 73.6527 415.114 74.2314C414.9 74.8102 414.592 75.307 414.191 75.7217C413.79 76.1318 413.312 76.4486 412.756 76.6719C412.204 76.8906 411.587 77 410.903 77ZM409.728 67.0469V77H408.012V67.0469H409.728ZM421.164 75.5166V71.9893C421.164 71.7249 421.116 71.4971 421.021 71.3057C420.925 71.1143 420.779 70.9661 420.583 70.8613C420.392 70.7565 420.15 70.7041 419.858 70.7041C419.59 70.7041 419.357 70.7497 419.161 70.8408C418.965 70.932 418.812 71.055 418.703 71.21C418.594 71.3649 418.539 71.5404 418.539 71.7363H416.898C416.898 71.4447 416.969 71.1621 417.11 70.8887C417.252 70.6152 417.457 70.3714 417.726 70.1572C417.994 69.943 418.316 69.7744 418.689 69.6514C419.063 69.5283 419.482 69.4668 419.947 69.4668C420.503 69.4668 420.995 69.5602 421.424 69.7471C421.857 69.9339 422.196 70.2165 422.442 70.5947C422.693 70.9684 422.818 71.4378 422.818 72.0029V75.291C422.818 75.6283 422.841 75.9313 422.887 76.2002C422.937 76.4645 423.007 76.6947 423.099 76.8906V77H421.41C421.333 76.8223 421.271 76.5967 421.226 76.3232C421.185 76.0452 421.164 75.7764 421.164 75.5166ZM421.403 72.502L421.417 73.5205H420.234C419.929 73.5205 419.66 73.5501 419.428 73.6094C419.195 73.6641 419.002 73.7461 418.847 73.8555C418.692 73.9648 418.576 74.097 418.498 74.252C418.421 74.4069 418.382 74.5824 418.382 74.7783C418.382 74.9743 418.427 75.1543 418.519 75.3184C418.61 75.4779 418.742 75.6032 418.915 75.6943C419.093 75.7855 419.307 75.8311 419.558 75.8311C419.895 75.8311 420.189 75.7627 420.439 75.626C420.695 75.4847 420.895 75.3138 421.041 75.1133C421.187 74.9082 421.264 74.7145 421.273 74.5322L421.807 75.2637C421.752 75.4505 421.659 75.651 421.526 75.8652C421.394 76.0794 421.221 76.2845 421.007 76.4805C420.797 76.6719 420.544 76.8291 420.248 76.9521C419.956 77.0752 419.619 77.1367 419.236 77.1367C418.753 77.1367 418.323 77.041 417.944 76.8496C417.566 76.6536 417.27 76.3916 417.056 76.0635C416.841 75.7308 416.734 75.3548 416.734 74.9355C416.734 74.5436 416.807 74.1973 416.953 73.8965C417.104 73.5911 417.322 73.3359 417.609 73.1309C417.901 72.9258 418.257 72.7708 418.676 72.666C419.095 72.5566 419.574 72.502 420.111 72.502H421.403ZM426.175 71.1826V77H424.527V69.6035H426.079L426.175 71.1826ZM425.881 73.0283L425.348 73.0215C425.352 72.4974 425.425 72.0166 425.566 71.5791C425.712 71.1416 425.913 70.7656 426.168 70.4512C426.428 70.1367 426.738 69.8952 427.098 69.7266C427.458 69.5534 427.859 69.4668 428.301 69.4668C428.656 69.4668 428.978 69.5169 429.265 69.6172C429.556 69.7129 429.805 69.8701 430.01 70.0889C430.219 70.3076 430.379 70.5924 430.488 70.9434C430.598 71.2897 430.652 71.7158 430.652 72.2217V77H428.998V72.2148C428.998 71.8594 428.946 71.5791 428.841 71.374C428.741 71.1644 428.592 71.0163 428.396 70.9297C428.205 70.8385 427.966 70.793 427.679 70.793C427.396 70.793 427.143 70.8522 426.92 70.9707C426.697 71.0892 426.507 71.251 426.353 71.4561C426.202 71.6611 426.086 71.8981 426.004 72.167C425.922 72.4359 425.881 72.723 425.881 73.0283ZM433.961 66.5V77H432.32V66.5H433.961ZM433.674 73.0283L433.141 73.0215C433.145 72.5111 433.216 72.0394 433.353 71.6064C433.494 71.1735 433.69 70.7975 433.94 70.4785C434.196 70.1549 434.501 69.9066 434.856 69.7334C435.212 69.5557 435.606 69.4668 436.039 69.4668C436.404 69.4668 436.732 69.5169 437.023 69.6172C437.32 69.7174 437.575 69.8792 437.789 70.1025C438.003 70.3213 438.165 70.6084 438.274 70.9639C438.388 71.3148 438.445 71.7432 438.445 72.249V77H436.791V72.2354C436.791 71.8799 436.739 71.5973 436.634 71.3877C436.534 71.1781 436.385 71.0277 436.189 70.9365C435.993 70.8408 435.754 70.793 435.472 70.793C435.175 70.793 434.913 70.8522 434.686 70.9707C434.462 71.0892 434.275 71.251 434.125 71.4561C433.975 71.6611 433.861 71.8981 433.783 72.167C433.71 72.4359 433.674 72.723 433.674 73.0283ZM447.749 74.9971C447.749 74.833 447.708 74.6849 447.626 74.5527C447.544 74.416 447.387 74.293 447.154 74.1836C446.926 74.0742 446.589 73.974 446.143 73.8828C445.751 73.7962 445.391 73.6937 445.062 73.5752C444.739 73.4521 444.461 73.304 444.229 73.1309C443.996 72.9577 443.816 72.7526 443.688 72.5156C443.561 72.2786 443.497 72.0052 443.497 71.6953C443.497 71.3945 443.563 71.1097 443.695 70.8408C443.827 70.5719 444.017 70.335 444.263 70.1299C444.509 69.9248 444.807 69.763 445.158 69.6445C445.514 69.526 445.91 69.4668 446.348 69.4668C446.967 69.4668 447.498 69.5716 447.94 69.7812C448.387 69.9863 448.729 70.2666 448.966 70.6221C449.203 70.973 449.321 71.3695 449.321 71.8115H447.674C447.674 71.6156 447.624 71.4333 447.523 71.2646C447.428 71.0915 447.282 70.9525 447.086 70.8477C446.89 70.7383 446.644 70.6836 446.348 70.6836C446.065 70.6836 445.83 70.7292 445.644 70.8203C445.461 70.9069 445.325 71.0208 445.233 71.1621C445.147 71.3034 445.104 71.4583 445.104 71.627C445.104 71.75 445.126 71.8617 445.172 71.9619C445.222 72.0576 445.304 72.1465 445.418 72.2285C445.532 72.306 445.687 72.3789 445.883 72.4473C446.083 72.5156 446.334 72.5817 446.635 72.6455C447.2 72.764 447.685 72.9167 448.091 73.1035C448.501 73.2858 448.815 73.5228 449.034 73.8145C449.253 74.1016 449.362 74.4661 449.362 74.9082C449.362 75.2363 449.292 75.5371 449.15 75.8105C449.014 76.0794 448.813 76.3141 448.549 76.5146C448.285 76.7106 447.968 76.8633 447.599 76.9727C447.234 77.082 446.824 77.1367 446.368 77.1367C445.698 77.1367 445.131 77.0182 444.666 76.7812C444.201 76.5397 443.848 76.2321 443.606 75.8584C443.369 75.4801 443.251 75.0882 443.251 74.6826H444.844C444.862 74.988 444.946 75.2318 445.097 75.4141C445.252 75.5918 445.443 75.7217 445.671 75.8037C445.903 75.8812 446.143 75.9199 446.389 75.9199C446.685 75.9199 446.933 75.8812 447.134 75.8037C447.334 75.7217 447.487 75.6123 447.592 75.4756C447.697 75.3343 447.749 75.1748 447.749 74.9971ZM454.975 75.5166V71.9893C454.975 71.7249 454.927 71.4971 454.831 71.3057C454.735 71.1143 454.59 70.9661 454.394 70.8613C454.202 70.7565 453.961 70.7041 453.669 70.7041C453.4 70.7041 453.168 70.7497 452.972 70.8408C452.776 70.932 452.623 71.055 452.514 71.21C452.404 71.3649 452.35 71.5404 452.35 71.7363H450.709C450.709 71.4447 450.78 71.1621 450.921 70.8887C451.062 70.6152 451.267 70.3714 451.536 70.1572C451.805 69.943 452.126 69.7744 452.5 69.6514C452.874 69.5283 453.293 69.4668 453.758 69.4668C454.314 69.4668 454.806 69.5602 455.234 69.7471C455.667 69.9339 456.007 70.2165 456.253 70.5947C456.504 70.9684 456.629 71.4378 456.629 72.0029V75.291C456.629 75.6283 456.652 75.9313 456.697 76.2002C456.747 76.4645 456.818 76.6947 456.909 76.8906V77H455.221C455.143 76.8223 455.082 76.5967 455.036 76.3232C454.995 76.0452 454.975 75.7764 454.975 75.5166ZM455.214 72.502L455.228 73.5205H454.045C453.74 73.5205 453.471 73.5501 453.238 73.6094C453.006 73.6641 452.812 73.7461 452.657 73.8555C452.502 73.9648 452.386 74.097 452.309 74.252C452.231 74.4069 452.192 74.5824 452.192 74.7783C452.192 74.9743 452.238 75.1543 452.329 75.3184C452.42 75.4779 452.552 75.6032 452.726 75.6943C452.903 75.7855 453.118 75.8311 453.368 75.8311C453.705 75.8311 453.999 75.7627 454.25 75.626C454.505 75.4847 454.706 75.3138 454.852 75.1133C454.997 74.9082 455.075 74.7145 455.084 74.5322L455.617 75.2637C455.562 75.4505 455.469 75.651 455.337 75.8652C455.205 76.0794 455.032 76.2845 454.817 76.4805C454.608 76.6719 454.355 76.8291 454.059 76.9521C453.767 77.0752 453.43 77.1367 453.047 77.1367C452.564 77.1367 452.133 77.041 451.755 76.8496C451.377 76.6536 451.08 76.3916 450.866 76.0635C450.652 75.7308 450.545 75.3548 450.545 74.9355C450.545 74.5436 450.618 74.1973 450.764 73.8965C450.914 73.5911 451.133 73.3359 451.42 73.1309C451.712 72.9258 452.067 72.7708 452.486 72.666C452.906 72.5566 453.384 72.502 453.922 72.502H455.214ZM452.992 68.5576L454.325 66.5H456.185L454.325 68.5576H452.992ZM461.373 75.8242C461.642 75.8242 461.883 75.7718 462.098 75.667C462.316 75.5576 462.492 75.4072 462.624 75.2158C462.761 75.0244 462.836 74.8034 462.85 74.5527H464.401C464.392 75.0312 464.251 75.4665 463.978 75.8584C463.704 76.2503 463.342 76.5625 462.891 76.7949C462.439 77.0228 461.94 77.1367 461.394 77.1367C460.828 77.1367 460.336 77.041 459.917 76.8496C459.498 76.6536 459.149 76.3848 458.871 76.043C458.593 75.7012 458.383 75.307 458.242 74.8604C458.105 74.4137 458.037 73.9352 458.037 73.4248V73.1855C458.037 72.6751 458.105 72.1966 458.242 71.75C458.383 71.2988 458.593 70.9023 458.871 70.5605C459.149 70.2188 459.498 69.9521 459.917 69.7607C460.336 69.5648 460.826 69.4668 461.387 69.4668C461.979 69.4668 462.499 69.5853 462.945 69.8223C463.392 70.0547 463.743 70.3805 463.998 70.7998C464.258 71.2145 464.392 71.6976 464.401 72.249H462.85C462.836 71.9756 462.768 71.7295 462.645 71.5107C462.526 71.2874 462.357 71.1097 462.139 70.9775C461.924 70.8454 461.667 70.7793 461.366 70.7793C461.034 70.7793 460.758 70.8477 460.539 70.9844C460.32 71.1165 460.149 71.2988 460.026 71.5312C459.903 71.7591 459.814 72.0166 459.76 72.3037C459.71 72.5863 459.685 72.8802 459.685 73.1855V73.4248C459.685 73.7301 459.71 74.0264 459.76 74.3135C459.81 74.6006 459.896 74.8581 460.02 75.0859C460.147 75.3092 460.32 75.4893 460.539 75.626C460.758 75.7581 461.036 75.8242 461.373 75.8242ZM467.293 66.5V77H465.652V66.5H467.293ZM467.006 73.0283L466.473 73.0215C466.477 72.5111 466.548 72.0394 466.685 71.6064C466.826 71.1735 467.022 70.7975 467.272 70.4785C467.528 70.1549 467.833 69.9066 468.188 69.7334C468.544 69.5557 468.938 69.4668 469.371 69.4668C469.736 69.4668 470.064 69.5169 470.355 69.6172C470.652 69.7174 470.907 69.8792 471.121 70.1025C471.335 70.3213 471.497 70.6084 471.606 70.9639C471.72 71.3148 471.777 71.7432 471.777 72.249V77H470.123V72.2354C470.123 71.8799 470.071 71.5973 469.966 71.3877C469.866 71.1781 469.717 71.0277 469.521 70.9365C469.326 70.8408 469.086 70.793 468.804 70.793C468.507 70.793 468.245 70.8522 468.018 70.9707C467.794 71.0892 467.607 71.251 467.457 71.4561C467.307 71.6611 467.193 71.8981 467.115 72.167C467.042 72.4359 467.006 72.723 467.006 73.0283ZM479.953 75.8242C480.222 75.8242 480.464 75.7718 480.678 75.667C480.896 75.5576 481.072 75.4072 481.204 75.2158C481.341 75.0244 481.416 74.8034 481.43 74.5527H482.981C482.972 75.0312 482.831 75.4665 482.558 75.8584C482.284 76.2503 481.922 76.5625 481.471 76.7949C481.02 77.0228 480.521 77.1367 479.974 77.1367C479.409 77.1367 478.916 77.041 478.497 76.8496C478.078 76.6536 477.729 76.3848 477.451 76.043C477.173 75.7012 476.964 75.307 476.822 74.8604C476.686 74.4137 476.617 73.9352 476.617 73.4248V73.1855C476.617 72.6751 476.686 72.1966 476.822 71.75C476.964 71.2988 477.173 70.9023 477.451 70.5605C477.729 70.2188 478.078 69.9521 478.497 69.7607C478.916 69.5648 479.406 69.4668 479.967 69.4668C480.559 69.4668 481.079 69.5853 481.525 69.8223C481.972 70.0547 482.323 70.3805 482.578 70.7998C482.838 71.2145 482.972 71.6976 482.981 72.249H481.43C481.416 71.9756 481.348 71.7295 481.225 71.5107C481.106 71.2874 480.938 71.1097 480.719 70.9775C480.505 70.8454 480.247 70.7793 479.946 70.7793C479.614 70.7793 479.338 70.8477 479.119 70.9844C478.9 71.1165 478.729 71.2988 478.606 71.5312C478.483 71.7591 478.395 72.0166 478.34 72.3037C478.29 72.5863 478.265 72.8802 478.265 73.1855V73.4248C478.265 73.7301 478.29 74.0264 478.34 74.3135C478.39 74.6006 478.477 74.8581 478.6 75.0859C478.727 75.3092 478.9 75.4893 479.119 75.626C479.338 75.7581 479.616 75.8242 479.953 75.8242ZM483.932 73.3838V73.2266C483.932 72.6934 484.009 72.1989 484.164 71.7432C484.319 71.2829 484.542 70.8841 484.834 70.5469C485.13 70.2051 485.49 69.9408 485.914 69.7539C486.342 69.5625 486.826 69.4668 487.363 69.4668C487.906 69.4668 488.389 69.5625 488.812 69.7539C489.241 69.9408 489.603 70.2051 489.899 70.5469C490.196 70.8841 490.421 71.2829 490.576 71.7432C490.731 72.1989 490.809 72.6934 490.809 73.2266V73.3838C490.809 73.917 490.731 74.4115 490.576 74.8672C490.421 75.3229 490.196 75.7217 489.899 76.0635C489.603 76.4007 489.243 76.665 488.819 76.8564C488.396 77.0433 487.915 77.1367 487.377 77.1367C486.835 77.1367 486.349 77.0433 485.921 76.8564C485.497 76.665 485.137 76.4007 484.841 76.0635C484.545 75.7217 484.319 75.3229 484.164 74.8672C484.009 74.4115 483.932 73.917 483.932 73.3838ZM485.579 73.2266V73.3838C485.579 73.7165 485.613 74.0309 485.682 74.3271C485.75 74.6234 485.857 74.8831 486.003 75.1064C486.149 75.3298 486.336 75.5052 486.563 75.6328C486.791 75.7604 487.062 75.8242 487.377 75.8242C487.682 75.8242 487.947 75.7604 488.17 75.6328C488.398 75.5052 488.585 75.3298 488.73 75.1064C488.876 74.8831 488.983 74.6234 489.052 74.3271C489.125 74.0309 489.161 73.7165 489.161 73.3838V73.2266C489.161 72.8984 489.125 72.5885 489.052 72.2969C488.983 72.0007 488.874 71.7386 488.724 71.5107C488.578 71.2829 488.391 71.1051 488.163 70.9775C487.94 70.8454 487.673 70.7793 487.363 70.7793C487.053 70.7793 486.785 70.8454 486.557 70.9775C486.333 71.1051 486.149 71.2829 486.003 71.5107C485.857 71.7386 485.75 72.0007 485.682 72.2969C485.613 72.5885 485.579 72.8984 485.579 73.2266ZM487.821 66.5L489.715 68.3867V68.4619H488.382L487.336 67.3887L486.29 68.4619H484.984V68.373L486.851 66.5H487.821ZM493.823 71.1826V77H492.176V69.6035H493.728L493.823 71.1826ZM493.529 73.0283L492.996 73.0215C493.001 72.4974 493.074 72.0166 493.215 71.5791C493.361 71.1416 493.561 70.7656 493.816 70.4512C494.076 70.1367 494.386 69.8952 494.746 69.7266C495.106 69.5534 495.507 69.4668 495.949 69.4668C496.305 69.4668 496.626 69.5169 496.913 69.6172C497.205 69.7129 497.453 69.8701 497.658 70.0889C497.868 70.3076 498.027 70.5924 498.137 70.9434C498.246 71.2897 498.301 71.7158 498.301 72.2217V77H496.646V72.2148C496.646 71.8594 496.594 71.5791 496.489 71.374C496.389 71.1644 496.241 71.0163 496.045 70.9297C495.854 70.8385 495.614 70.793 495.327 70.793C495.045 70.793 494.792 70.8522 494.568 70.9707C494.345 71.0892 494.156 71.251 494.001 71.4561C493.851 71.6611 493.734 71.8981 493.652 72.167C493.57 72.4359 493.529 72.723 493.529 73.0283ZM504.72 69.6035H506.217V76.7949C506.217 77.4603 506.076 78.0254 505.793 78.4902C505.51 78.9551 505.116 79.3083 504.61 79.5498C504.104 79.7959 503.519 79.9189 502.854 79.9189C502.571 79.9189 502.257 79.8779 501.91 79.7959C501.568 79.7139 501.236 79.5817 500.912 79.3994C500.593 79.2217 500.326 78.987 500.112 78.6953L500.885 77.7246C501.149 78.0391 501.441 78.2692 501.76 78.415C502.079 78.5609 502.414 78.6338 502.765 78.6338C503.143 78.6338 503.464 78.5632 503.729 78.4219C503.997 78.2852 504.205 78.0824 504.351 77.8135C504.496 77.5446 504.569 77.2165 504.569 76.8291V71.2783L504.72 69.6035ZM499.695 73.3838V73.2402C499.695 72.6797 499.764 72.1693 499.9 71.709C500.037 71.2441 500.233 70.8454 500.488 70.5127C500.743 70.1755 501.053 69.918 501.418 69.7402C501.783 69.5579 502.195 69.4668 502.655 69.4668C503.134 69.4668 503.542 69.5534 503.879 69.7266C504.221 69.8997 504.506 70.1481 504.733 70.4717C504.961 70.7907 505.139 71.1735 505.267 71.6201C505.399 72.0622 505.497 72.5544 505.561 73.0967V73.5547C505.501 74.0833 505.401 74.5664 505.26 75.0039C505.118 75.4414 504.932 75.8197 504.699 76.1387C504.467 76.4577 504.18 76.7038 503.838 76.877C503.501 77.0501 503.102 77.1367 502.642 77.1367C502.19 77.1367 501.783 77.0433 501.418 76.8564C501.058 76.6696 500.748 76.4076 500.488 76.0703C500.233 75.7331 500.037 75.3366 499.9 74.8809C499.764 74.4206 499.695 73.9215 499.695 73.3838ZM501.343 73.2402V73.3838C501.343 73.721 501.375 74.0355 501.438 74.3271C501.507 74.6188 501.609 74.8763 501.746 75.0996C501.887 75.3184 502.065 75.4915 502.279 75.6191C502.498 75.7422 502.756 75.8037 503.052 75.8037C503.439 75.8037 503.756 75.7217 504.002 75.5576C504.253 75.3936 504.444 75.1725 504.576 74.8945C504.713 74.612 504.809 74.2975 504.863 73.9512V72.7139C504.836 72.445 504.779 72.1943 504.692 71.9619C504.61 71.7295 504.499 71.5267 504.357 71.3535C504.216 71.1758 504.038 71.0391 503.824 70.9434C503.61 70.8431 503.357 70.793 503.065 70.793C502.769 70.793 502.512 70.8568 502.293 70.9844C502.074 71.112 501.894 71.2874 501.753 71.5107C501.616 71.734 501.514 71.9938 501.445 72.29C501.377 72.5863 501.343 72.903 501.343 73.2402ZM513.818 75.6943L515.63 69.6035H517.339L514.769 77H513.702L513.818 75.6943ZM512.431 69.6035L514.276 75.7217L514.365 77H513.299L510.715 69.6035H512.431ZM520.121 69.6035V77H518.467V69.6035H520.121ZM518.357 67.6621C518.357 67.4115 518.439 67.2041 518.604 67.04C518.772 66.8714 519.005 66.7871 519.301 66.7871C519.592 66.7871 519.823 66.8714 519.991 67.04C520.16 67.2041 520.244 67.4115 520.244 67.6621C520.244 67.9082 520.16 68.1133 519.991 68.2773C519.823 68.4414 519.592 68.5234 519.301 68.5234C519.005 68.5234 518.772 68.4414 518.604 68.2773C518.439 68.1133 518.357 67.9082 518.357 67.6621ZM525.187 77.1367C524.64 77.1367 524.145 77.0479 523.703 76.8701C523.266 76.6878 522.892 76.4349 522.582 76.1113C522.277 75.7878 522.042 75.4072 521.878 74.9697C521.714 74.5322 521.632 74.0605 521.632 73.5547V73.2812C521.632 72.7025 521.716 72.1784 521.885 71.709C522.053 71.2396 522.288 70.8385 522.589 70.5059C522.89 70.1686 523.245 69.9111 523.655 69.7334C524.065 69.5557 524.51 69.4668 524.988 69.4668C525.517 69.4668 525.979 69.5557 526.376 69.7334C526.772 69.9111 527.101 70.1618 527.36 70.4854C527.625 70.8044 527.821 71.1849 527.948 71.627C528.08 72.069 528.146 72.5566 528.146 73.0898V73.7939H522.432V72.6113H526.52V72.4814C526.51 72.1852 526.451 71.9072 526.342 71.6475C526.237 71.3877 526.075 71.1781 525.856 71.0186C525.638 70.859 525.346 70.7793 524.981 70.7793C524.708 70.7793 524.464 70.8385 524.25 70.957C524.04 71.071 523.865 71.2373 523.724 71.4561C523.582 71.6748 523.473 71.9391 523.396 72.249C523.323 72.5544 523.286 72.8984 523.286 73.2812V73.5547C523.286 73.8783 523.329 74.179 523.416 74.457C523.507 74.7305 523.639 74.9697 523.812 75.1748C523.986 75.3799 524.195 75.5417 524.441 75.6602C524.688 75.7741 524.968 75.8311 525.282 75.8311C525.679 75.8311 526.032 75.7513 526.342 75.5918C526.652 75.4323 526.921 75.2067 527.148 74.915L528.017 75.7559C527.857 75.9883 527.65 76.2116 527.395 76.4258C527.139 76.6354 526.827 76.8063 526.458 76.9385C526.093 77.0706 525.67 77.1367 525.187 77.1367ZM525.351 66.5L527.244 68.3867V68.4619H525.911L524.865 67.3887L523.819 68.4619H522.514V68.373L524.38 66.5H525.351ZM524.004 78.6406C524.004 78.4036 524.086 78.2054 524.25 78.0459C524.419 77.8864 524.649 77.8066 524.94 77.8066C525.232 77.8066 525.462 77.8864 525.631 78.0459C525.799 78.2054 525.884 78.4036 525.884 78.6406C525.884 78.873 525.799 79.069 525.631 79.2285C525.462 79.388 525.232 79.4678 524.94 79.4678C524.649 79.4678 524.419 79.388 524.25 79.2285C524.086 79.069 524.004 78.873 524.004 78.6406ZM532.453 75.8242C532.722 75.8242 532.964 75.7718 533.178 75.667C533.396 75.5576 533.572 75.4072 533.704 75.2158C533.841 75.0244 533.916 74.8034 533.93 74.5527H535.481C535.472 75.0312 535.331 75.4665 535.058 75.8584C534.784 76.2503 534.422 76.5625 533.971 76.7949C533.52 77.0228 533.021 77.1367 532.474 77.1367C531.909 77.1367 531.416 77.041 530.997 76.8496C530.578 76.6536 530.229 76.3848 529.951 76.043C529.673 75.7012 529.464 75.307 529.322 74.8604C529.186 74.4137 529.117 73.9352 529.117 73.4248V73.1855C529.117 72.6751 529.186 72.1966 529.322 71.75C529.464 71.2988 529.673 70.9023 529.951 70.5605C530.229 70.2188 530.578 69.9521 530.997 69.7607C531.416 69.5648 531.906 69.4668 532.467 69.4668C533.059 69.4668 533.579 69.5853 534.025 69.8223C534.472 70.0547 534.823 70.3805 535.078 70.7998C535.338 71.2145 535.472 71.6976 535.481 72.249H533.93C533.916 71.9756 533.848 71.7295 533.725 71.5107C533.606 71.2874 533.438 71.1097 533.219 70.9775C533.005 70.8454 532.747 70.7793 532.446 70.7793C532.114 70.7793 531.838 70.8477 531.619 70.9844C531.4 71.1165 531.229 71.2988 531.106 71.5312C530.983 71.7591 530.895 72.0166 530.84 72.3037C530.79 72.5863 530.765 72.8802 530.765 73.1855V73.4248C530.765 73.7301 530.79 74.0264 530.84 74.3135C530.89 74.6006 530.977 74.8581 531.1 75.0859C531.227 75.3092 531.4 75.4893 531.619 75.626C531.838 75.7581 532.116 75.8242 532.453 75.8242Z" fill="#7966FF"/>
</svg>
