<svg width="21" height="20" viewBox="0 0 21 20" fill="none" xmlns="http://www.w3.org/2000/svg">
<path d="M19.0814 10.1624L11.3144 17.5444C10.1194 18.6801 8.58311 19.1668 7.04677 19.1668C5.51043 19.1668 3.97409 18.599 2.77916 17.5444C0.474654 15.3541 0.474654 11.7037 2.77916 9.51344L10.6316 2.05031C11.3997 1.32022 12.5093 0.833496 13.6189 0.833496C14.7285 0.833496 15.838 1.2391 16.6062 2.05031C18.3132 3.67273 18.3132 6.18748 16.6062 7.8099L8.75381 15.273C7.72959 16.2465 6.1079 16.2465 5.16902 15.273C4.74226 14.8674 4.4862 14.2185 4.4862 13.5695C4.4862 12.9205 4.74226 12.2715 5.25437 11.8659L12.5093 4.97066C12.8507 4.64618 13.3628 4.64618 13.7042 4.97066C14.0456 5.29515 14.0456 5.78187 13.7042 6.10636L6.4493 13.0016C6.2786 13.1639 6.19325 13.3261 6.19325 13.5695C6.19325 13.8128 6.2786 13.9751 6.4493 14.1373C6.79071 14.4618 7.30282 14.4618 7.64423 14.1373L15.4966 6.6742C16.5209 5.70075 16.5209 4.15945 15.4966 3.26712C14.5578 2.37479 12.8507 2.37479 11.9118 3.26712L4.05944 10.7303C2.3524 12.3527 2.3524 14.8674 4.05944 16.4898C5.76649 18.1123 8.4124 18.1123 10.1194 16.4898L17.9718 9.02671C18.3133 8.70223 18.8254 8.70223 19.1668 9.02671C19.5082 9.35119 19.4228 9.83792 19.0814 10.1624Z" fill="black"/>
<mask id="mask0_12275_165283" style="mask-type:alpha" maskUnits="userSpaceOnUse" x="1" y="0" width="19" height="20">
<path d="M19.0814 10.1624L11.3144 17.5444C10.1194 18.6801 8.58311 19.1668 7.04677 19.1668C5.51043 19.1668 3.97409 18.599 2.77916 17.5444C0.474654 15.3541 0.474654 11.7037 2.77916 9.51344L10.6316 2.05031C11.3997 1.32022 12.5093 0.833496 13.6189 0.833496C14.7285 0.833496 15.838 1.2391 16.6062 2.05031C18.3132 3.67273 18.3132 6.18748 16.6062 7.8099L8.75381 15.273C7.72959 16.2465 6.1079 16.2465 5.16902 15.273C4.74226 14.8674 4.4862 14.2185 4.4862 13.5695C4.4862 12.9205 4.74226 12.2715 5.25437 11.8659L12.5093 4.97066C12.8507 4.64618 13.3628 4.64618 13.7042 4.97066C14.0456 5.29515 14.0456 5.78187 13.7042 6.10636L6.4493 13.0016C6.2786 13.1639 6.19325 13.3261 6.19325 13.5695C6.19325 13.8128 6.2786 13.9751 6.4493 14.1373C6.79071 14.4618 7.30282 14.4618 7.64423 14.1373L15.4966 6.6742C16.5209 5.70075 16.5209 4.15945 15.4966 3.26712C14.5578 2.37479 12.8507 2.37479 11.9118 3.26712L4.05944 10.7303C2.3524 12.3527 2.3524 14.8674 4.05944 16.4898C5.76649 18.1123 8.4124 18.1123 10.1194 16.4898L17.9718 9.02671C18.3133 8.70223 18.8254 8.70223 19.1668 9.02671C19.5082 9.35119 19.4228 9.83792 19.0814 10.1624Z" fill="white"/>
</mask>
<g mask="url(#mask0_12275_165283)">
<rect x="0.216797" width="20" height="20" fill="#A2AEBD"/>
</g>
</svg>
