<svg width="24" height="24" viewBox="0 0 24 24" fill="none" xmlns="http://www.w3.org/2000/svg">
<rect width="24" height="24" rx="12" fill="#7966FF"/>
<path d="M9.14287 15.402V16.7626C9.14287 17.783 8.32654 18.6673 7.23811 18.6673C6.14967 18.6673 5.33334 17.783 5.33334 16.7626V15.402C5.33334 14.3816 6.14967 13.4973 7.23811 13.4973C8.32654 13.4973 9.14287 14.3816 9.14287 15.402Z" fill="white"/>
<path d="M13.9048 11.3204V16.7626C13.9048 17.783 13.0884 18.6673 12 18.6673C10.9116 18.6673 10.0952 17.783 10.0952 16.7626V11.3204C10.0952 10.3 10.9116 9.41562 12 9.41562C13.0884 9.41562 13.9048 10.3 13.9048 11.3204Z" fill="white"/>
<path d="M18.6667 7.23875V16.7626C18.6667 17.783 17.8504 18.6673 16.7619 18.6673C15.6735 18.6673 14.8572 17.851 14.8572 16.7626V7.23875C14.8572 6.21834 15.6735 5.33398 16.7619 5.33398C17.8504 5.33398 18.6667 6.21834 18.6667 7.23875Z" fill="white"/>
</svg>
