<svg width="24" height="25" viewBox="0 0 24 25" fill="none" xmlns="http://www.w3.org/2000/svg">
<rect y="0.148438" width="24" height="24" rx="12" fill="#FF8D8D"/>
<path d="M19 12.1484C19 14.4919 17.0935 16.3984 14.75 16.3984H14V17.7914C14 18.1079 13.6175 18.2659 13.394 18.0424L11 15.6484L13.394 13.2544C13.6175 13.0309 14 13.1894 14 13.5054V14.8984H14.75C16.266 14.8984 17.5 13.6649 17.5 12.1484C17.5 10.6319 16.266 9.39844 14.75 9.39844C14.336 9.39844 14 9.06294 14 8.64844C14 8.23394 14.336 7.89844 14.75 7.89844C17.0935 7.89844 19 9.80494 19 12.1484Z" fill="white"/>
<path d="M13 8.64907L10.606 11.0431C10.3825 11.2666 10 11.1081 10 10.7921V9.39907H9.25C7.734 9.39907 6.5 10.6326 6.5 12.1491C6.5 13.6656 7.734 14.8991 9.25 14.8991C9.664 14.8991 10 15.2346 10 15.6491C10 16.0636 9.664 16.3991 9.25 16.3991C6.9065 16.3991 5 14.4926 5 12.1491C5 9.80557 6.9065 7.89907 9.25 7.89907H10V6.50607C10 6.18957 10.3825 6.03157 10.606 6.25507L13 8.64907Z" fill="#F9FAFF"/>
</svg>
