<svg width="27" height="28" viewBox="0 0 27 28" fill="none" xmlns="http://www.w3.org/2000/svg">
<path d="M10.5897 1.69215V5.11095C10.5897 5.38297 10.4817 5.64384 10.2893 5.83619C10.097 6.02853 9.8361 6.13659 9.56408 6.13659C9.29207 6.13659 9.03119 6.02853 8.83884 5.83619C8.6465 5.64384 8.53844 5.38297 8.53844 5.11095V1.69215C8.53844 1.42013 8.6465 1.15925 8.83884 0.966907C9.03119 0.774562 9.29207 0.666504 9.56408 0.666504C9.8361 0.666504 10.097 0.774562 10.2893 0.966907C10.4817 1.15925 10.5897 1.42013 10.5897 1.69215Z" fill="#7966FF"/>
<path d="M26.535 5.86309C26.4712 4.98242 26.0916 4.15441 25.466 3.53131C24.8403 2.90821 24.0108 2.53192 23.1299 2.47163C22.241 2.40326 21.229 2.33488 20.1624 2.28018V5.11095C20.1624 5.74565 19.9102 6.35437 19.4614 6.80317C19.0126 7.25198 18.4039 7.50411 17.7692 7.50411C17.1345 7.50411 16.5258 7.25198 16.077 6.80317C15.6282 6.35437 15.376 5.74565 15.376 5.11095V2.03403H11.9572V5.11095C11.9572 5.74565 11.7051 6.35437 11.2563 6.80317C10.8075 7.25198 10.1988 7.50411 9.56408 7.50411C8.92938 7.50411 8.32067 7.25198 7.87186 6.80317C7.42306 6.35437 7.17092 5.74565 7.17092 5.11095V2.28018C6.10425 2.28018 5.09229 2.40326 4.18972 2.47163C3.30979 2.5347 2.48183 2.91189 1.85678 3.53444C1.23172 4.15698 0.851207 4.98342 0.784595 5.86309C0.579467 8.393 0.333313 11.9759 0.333313 14.6836C0.333313 17.3913 0.579467 20.9879 0.784595 23.5178C0.851572 24.396 1.23259 25.2207 1.85789 25.841C2.4832 26.4613 3.31098 26.8357 4.18972 26.8956C6.92477 27.1007 10.7812 27.3332 13.6666 27.3332C16.5521 27.3332 20.3949 27.1007 23.1299 26.8956C24.0096 26.8385 24.839 26.465 25.4648 25.8442C26.0907 25.2233 26.4708 24.397 26.535 23.5178C26.7538 20.9879 27 17.405 27 14.6836C27 11.9622 26.7538 8.393 26.535 5.86309ZM8.19656 19.5383C7.83387 19.5383 7.48604 19.3942 7.22958 19.1378C6.97312 18.8813 6.82904 18.5335 6.82904 18.1708C6.82904 17.8081 6.97312 17.4603 7.22958 17.2038C7.48604 16.9473 7.83387 16.8033 8.19656 16.8033C8.55925 16.8033 8.90708 16.9473 9.16354 17.2038C9.42 17.4603 9.56408 17.8081 9.56408 18.1708C9.56408 18.5335 9.42 18.8813 9.16354 19.1378C8.90708 19.3942 8.55925 19.5383 8.19656 19.5383ZM8.19656 14.0682C7.83387 14.0682 7.48604 13.9241 7.22958 13.6677C6.97312 13.4112 6.82904 13.0634 6.82904 12.7007C6.82904 12.338 6.97312 11.9902 7.22958 11.7337C7.48604 11.4773 7.83387 11.3332 8.19656 11.3332C8.55925 11.3332 8.90708 11.4773 9.16354 11.7337C9.42 11.9902 9.56408 12.338 9.56408 12.7007C9.56408 13.0634 9.42 13.4112 9.16354 13.6677C8.90708 13.9241 8.55925 14.0682 8.19656 14.0682ZM13.6666 19.5383C13.304 19.5383 12.9561 19.3942 12.6997 19.1378C12.4432 18.8813 12.2991 18.5335 12.2991 18.1708C12.2991 17.8081 12.4432 17.4603 12.6997 17.2038C12.9561 16.9473 13.304 16.8033 13.6666 16.8033C14.0293 16.8033 14.3772 16.9473 14.6336 17.2038C14.8901 17.4603 15.0342 17.8081 15.0342 18.1708C15.0342 18.5335 14.8901 18.8813 14.6336 19.1378C14.3772 19.3942 14.0293 19.5383 13.6666 19.5383ZM13.6666 14.0682C13.304 14.0682 12.9561 13.9241 12.6997 13.6677C12.4432 13.4112 12.2991 13.0634 12.2991 12.7007C12.2991 12.338 12.4432 11.9902 12.6997 11.7337C12.9561 11.4773 13.304 11.3332 13.6666 11.3332C14.0293 11.3332 14.3772 11.4773 14.6336 11.7337C14.8901 11.9902 15.0342 12.338 15.0342 12.7007C15.0342 13.0634 14.8901 13.4112 14.6336 13.6677C14.3772 13.9241 14.0293 14.0682 13.6666 14.0682ZM19.1367 14.0682C18.774 14.0682 18.4262 13.9241 18.1697 13.6677C17.9133 13.4112 17.7692 13.0634 17.7692 12.7007C17.7692 12.338 17.9133 11.9902 18.1697 11.7337C18.4262 11.4773 18.774 11.3332 19.1367 11.3332C19.4994 11.3332 19.8473 11.4773 20.1037 11.7337C20.3602 11.9902 20.5043 12.338 20.5043 12.7007C20.5043 13.0634 20.3602 13.4112 20.1037 13.6677C19.8473 13.9241 19.4994 14.0682 19.1367 14.0682Z" fill="#7966FF"/>
<path d="M18.7949 1.69215V5.11095C18.7949 5.38297 18.6868 5.64384 18.4944 5.83619C18.3021 6.02853 18.0412 6.13659 17.7692 6.13659C17.4972 6.13659 17.2363 6.02853 17.044 5.83619C16.8516 5.64384 16.7436 5.38297 16.7436 5.11095V1.69215C16.7436 1.42013 16.8516 1.15925 17.044 0.966907C17.2363 0.774562 17.4972 0.666504 17.7692 0.666504C18.0412 0.666504 18.3021 0.774562 18.4944 0.966907C18.6868 1.15925 18.7949 1.42013 18.7949 1.69215Z" fill="#7966FF"/>
</svg>
