<svg width="20" height="20" viewBox="0 0 20 20" fill="none" xmlns="http://www.w3.org/2000/svg">
<path fill-rule="evenodd" clip-rule="evenodd" d="M14.5646 4.16699H17.3092C18.6423 4.16699 19.6617 5.25033 19.6617 6.66699V15.8337C19.6617 17.2503 18.6423 18.3337 17.3092 18.3337H3.19428C1.86121 18.3337 0.841797 17.2503 0.841797 15.8337V6.66699C0.841797 5.25033 1.86121 4.16699 3.19428 4.16699H5.93885L7.27192 2.00033C7.42875 1.83366 7.664 1.66699 7.89925 1.66699H12.6042C12.8395 1.66699 13.0747 1.83366 13.2315 2.00033L14.5646 4.16699ZM17.3092 16.667C17.7797 16.667 18.0933 16.3337 18.0933 15.8337V6.66699C18.0933 6.16699 17.7797 5.83366 17.3092 5.83366H14.1725C13.9373 5.83366 13.702 5.66699 13.4668 5.50033L12.1337 3.33366H8.29133L6.95826 5.50033C6.80142 5.66699 6.56618 5.83366 6.33093 5.83366H3.19428C2.72378 5.83366 2.41012 6.16699 2.41012 6.66699V15.8337C2.41012 16.3337 2.72378 16.667 3.19428 16.667H17.3092ZM10.2517 6.66699C8.05608 6.66699 6.33093 8.50033 6.33093 10.8337C6.33093 13.167 8.05608 15.0003 10.2517 15.0003C12.4474 15.0003 14.1725 13.167 14.1725 10.8337C14.1725 8.50033 12.4474 6.66699 10.2517 6.66699ZM7.89925 10.8337C7.89925 12.2503 8.91866 13.3337 10.2517 13.3337C11.5848 13.3337 12.6042 12.2503 12.6042 10.8337C12.6042 9.41699 11.5848 8.33366 10.2517 8.33366C8.91866 8.33366 7.89925 9.41699 7.89925 10.8337Z" fill="black"/>
<mask id="mask0_12275_165400" style="mask-type:alpha" maskUnits="userSpaceOnUse" x="0" y="1" width="20" height="18">
<path fill-rule="evenodd" clip-rule="evenodd" d="M14.5646 4.16699H17.3092C18.6423 4.16699 19.6617 5.25033 19.6617 6.66699V15.8337C19.6617 17.2503 18.6423 18.3337 17.3092 18.3337H3.19428C1.86121 18.3337 0.841797 17.2503 0.841797 15.8337V6.66699C0.841797 5.25033 1.86121 4.16699 3.19428 4.16699H5.93885L7.27192 2.00033C7.42875 1.83366 7.664 1.66699 7.89925 1.66699H12.6042C12.8395 1.66699 13.0747 1.83366 13.2315 2.00033L14.5646 4.16699ZM17.3092 16.667C17.7797 16.667 18.0933 16.3337 18.0933 15.8337V6.66699C18.0933 6.16699 17.7797 5.83366 17.3092 5.83366H14.1725C13.9373 5.83366 13.702 5.66699 13.4668 5.50033L12.1337 3.33366H8.29133L6.95826 5.50033C6.80142 5.66699 6.56618 5.83366 6.33093 5.83366H3.19428C2.72378 5.83366 2.41012 6.16699 2.41012 6.66699V15.8337C2.41012 16.3337 2.72378 16.667 3.19428 16.667H17.3092ZM10.2517 6.66699C8.05608 6.66699 6.33093 8.50033 6.33093 10.8337C6.33093 13.167 8.05608 15.0003 10.2517 15.0003C12.4474 15.0003 14.1725 13.167 14.1725 10.8337C14.1725 8.50033 12.4474 6.66699 10.2517 6.66699ZM7.89925 10.8337C7.89925 12.2503 8.91866 13.3337 10.2517 13.3337C11.5848 13.3337 12.6042 12.2503 12.6042 10.8337C12.6042 9.41699 11.5848 8.33366 10.2517 8.33366C8.91866 8.33366 7.89925 9.41699 7.89925 10.8337Z" fill="white"/>
</mask>
<g mask="url(#mask0_12275_165400)">
<rect x="0.841797" width="18.8199" height="20" fill="#A2AEBD"/>
</g>
</svg>
