<svg width="22" height="22" viewBox="0 0 22 22" fill="none" xmlns="http://www.w3.org/2000/svg">
<path d="M10.9991 5.26111C12.4428 5.26111 13.6173 4.08098 13.6173 2.63055C13.6173 1.18012 12.4428 0 10.9991 0C9.55538 0 8.38086 1.18012 8.38086 2.63055C8.38086 4.08098 9.55538 5.26111 10.9991 5.26111Z" fill="#7966FF"/>
<path d="M11.5512 6.11238C11.493 6.04868 11.4079 6.0166 11.3218 6.0166H10.6796C10.5935 6.0166 10.5084 6.04868 10.4502 6.11238C10.36 6.21107 10.347 6.35359 10.4109 6.465L10.7542 6.98499L10.5934 8.34708L10.9099 9.19289C10.9408 9.27796 11.0605 9.27796 11.0913 9.19289L11.4078 8.34708L11.2471 6.98499L11.5903 6.465C11.6545 6.35359 11.6413 6.21099 11.5512 6.11238Z" fill="#7966FF"/>
<path d="M6.96859 12.1883H15.0323C15.2379 12.1883 15.4053 12.0202 15.4053 11.8136V8.43827C15.4053 7.45484 14.7707 6.58156 13.8263 6.26534L13.09 6.03828C12.9553 5.99645 12.8117 6.06834 12.7633 6.20156L11.0005 11.0611L9.2377 6.20148C9.19859 6.09387 9.09748 6.02637 8.98911 6.02637C8.96333 6.02637 8.93711 6.03016 8.91133 6.0382L8.18067 6.2634C7.23022 6.58164 6.5957 7.45484 6.5957 8.43827V11.8136C6.5957 12.0202 6.76304 12.1883 6.96859 12.1883Z" fill="#7966FF"/>
<path d="M2.61815 6.60576C4.06185 6.60576 5.23637 5.42571 5.23637 3.97528C5.23637 2.52478 4.06178 1.34473 2.61815 1.34473C1.17452 1.34473 0 2.52485 0 3.97528C0 5.42578 1.17452 6.60576 2.61815 6.60576Z" fill="#7966FF"/>
<path d="M7.07409 13.8373H4.98876V9.69898C4.98876 8.38311 3.92705 7.31641 2.61743 7.31641C1.3078 7.31641 0.246094 8.38311 0.246094 9.69891V15.3204C0.246094 16.5838 1.26543 17.6079 2.52283 17.6079H5.22853V21.3538C5.22853 21.7109 5.51661 22.0003 5.87202 22.0003H8.37016C8.72557 22.0003 9.01364 21.7109 9.01364 21.3538V15.786C9.01364 14.7097 8.14527 13.8373 7.07409 13.8373Z" fill="#7966FF"/>
<path d="M19.3819 6.60576C20.8256 6.60576 22 5.42571 22 3.97528C22 2.52478 20.8255 1.34473 19.3819 1.34473C17.9383 1.34473 16.7637 2.52485 16.7637 3.97528C16.7636 5.42578 17.9382 6.60576 19.3819 6.60576Z" fill="#7966FF"/>
<path d="M19.3825 7.31641C18.0728 7.31641 17.0111 8.38311 17.0111 9.69891V13.8372H14.9259C13.8547 13.8372 12.9863 14.7096 12.9863 15.7859V21.3537C12.9863 21.7108 13.2744 22.0003 13.6298 22.0003H16.128C16.4834 22.0003 16.7714 21.7108 16.7714 21.3537V17.6078H19.4771C20.7345 17.6078 21.7539 16.5837 21.7539 15.3204V9.69883C21.7539 8.38311 20.6922 7.31641 19.3825 7.31641Z" fill="#7966FF"/>
</svg>
