<svg width="20" height="20" viewBox="0 0 20 20" fill="none" xmlns="http://www.w3.org/2000/svg">
<path fill-rule="evenodd" clip-rule="evenodd" d="M13.4659 6.86038C13.4659 8.81845 11.9049 10.3885 9.95817 10.3885C8.01142 10.3885 6.45044 8.81845 6.45044 6.86038C6.45044 4.90156 8.01142 3.33301 9.95817 3.33301C11.9049 3.33301 13.4659 4.90156 13.4659 6.86038ZM9.95817 16.6663C7.09886 16.6663 4.65739 16.213 4.65739 14.3998C4.65739 12.5858 7.08319 12.116 9.95817 12.116C12.8175 12.116 15.259 12.5693 15.259 14.3833C15.259 16.1965 12.8332 16.6663 9.95817 16.6663ZM14.9649 6.92403C14.9649 7.9222 14.6672 8.85208 14.1449 9.6251C14.0911 9.70465 14.1389 9.81197 14.2336 9.82848C14.3642 9.851 14.4993 9.86376 14.6366 9.86751C16.0058 9.90353 17.2347 9.01719 17.5742 7.68279C18.0772 5.7007 16.6005 3.92125 14.7202 3.92125C14.5157 3.92125 14.3202 3.94302 14.1299 3.98205C14.1038 3.98805 14.0762 4.00006 14.0613 4.02332C14.0434 4.05184 14.0568 4.09012 14.0747 4.11488C14.6396 4.91117 14.9649 5.88233 14.9649 6.92403ZM17.2325 11.2601C18.1525 11.441 18.7577 11.8103 19.0084 12.3469C19.2203 12.7874 19.2203 13.2985 19.0084 13.7383C18.6249 14.5706 17.3885 14.8378 16.9079 14.9069C16.8087 14.9219 16.7288 14.8356 16.7393 14.7357C16.9848 12.4294 15.0321 11.3359 14.5269 11.0845C14.5053 11.0733 14.5008 11.056 14.503 11.0455C14.5045 11.038 14.5135 11.026 14.5299 11.0237C15.623 11.0035 16.7982 11.1536 17.2325 11.2601ZM5.36491 9.86744C5.5022 9.86368 5.63651 9.85168 5.76784 9.82841C5.8626 9.8119 5.91036 9.70458 5.85663 9.62502C5.33432 8.852 5.03659 7.92212 5.03659 6.92395C5.03659 5.88225 5.36192 4.9111 5.92677 4.11481C5.94468 4.09004 5.95737 4.05177 5.9402 4.02325C5.92528 4.00073 5.89693 3.98797 5.87156 3.98197C5.68054 3.94294 5.48504 3.92118 5.28059 3.92118C3.40025 3.92118 1.92358 5.70063 2.42724 7.68271C2.76675 9.01711 3.99569 9.90346 5.36491 9.86744ZM5.4981 11.0451C5.50034 11.0563 5.49586 11.0728 5.47497 11.0848C4.96907 11.3363 3.01634 12.4297 3.26183 14.7353C3.27228 14.8359 3.19318 14.9214 3.09394 14.9072C2.61341 14.8381 1.37701 14.5709 0.993478 13.7386C0.78082 13.2981 0.78082 12.7877 0.993478 12.3472C1.24419 11.8106 1.84859 11.4413 2.76861 11.2597C3.20363 11.1539 4.3781 11.0038 5.47198 11.024C5.4884 11.0263 5.49661 11.0383 5.4981 11.0451Z" fill="#FB7897"/>
</svg>
