<svg width="65" height="64" viewBox="0 0 65 64" fill="none" xmlns="http://www.w3.org/2000/svg">
<g clip-path="url(#clip0_9714_180837)">
<path d="M32.3446 63.9998C35.3654 63.9998 37.8142 61.551 37.8142 58.5302C37.8142 55.5094 35.3654 53.0605 32.3446 53.0605C29.3238 53.0605 26.875 55.5094 26.875 58.5302C26.875 61.551 29.3238 63.9998 32.3446 63.9998Z" fill="#C6DBEF"/>
<path d="M37.813 58.5055C37.7996 55.4962 35.3565 53.0605 32.344 53.0605C29.3315 53.0605 26.8884 55.4962 26.875 58.5055H37.813Z" fill="#B5CDE4"/>
<path d="M37.815 58.5306C37.815 61.5511 35.3653 63.9992 32.3449 63.9992C31.4459 63.9992 30.5977 63.7819 29.8493 63.3983C32.4893 63.3412 34.6107 61.1833 34.6107 58.5307C34.6107 55.8764 32.4877 53.7184 29.8477 53.663C30.596 53.2778 31.4459 53.0605 32.3449 53.0605C35.3653 53.0604 37.815 55.5084 37.815 58.5306Z" fill="#B5CDE4"/>
<path d="M32.3449 10.0219C29.5819 10.0219 27.334 7.774 27.334 5.011C27.334 2.248 29.5819 0 32.3449 0C35.1079 0 37.3559 2.24787 37.3559 5.011C37.3559 7.77412 35.108 10.0219 32.3449 10.0219ZM32.3449 1.94137C30.6522 1.94137 29.2754 3.31837 29.2754 5.011C29.2754 6.70362 30.6524 8.0805 32.3449 8.0805C34.0374 8.0805 35.4145 6.7035 35.4145 5.011C35.4145 3.3185 34.0375 1.94137 32.3449 1.94137Z" fill="#E2E8F0"/>
<path d="M32.3442 7.75781C24.0369 7.75781 16.9998 13.8794 15.8495 22.1066L12.1875 48.2954H52.5008L48.8388 22.1066C47.6885 13.8794 40.6514 7.75781 32.3442 7.75781Z" fill="#D7E8F9"/>
<path d="M52.5012 48.2955H47.2959L43.6348 22.107C42.6058 14.7548 36.8773 9.0848 29.7422 7.96069C30.5921 7.82756 31.4609 7.75781 32.3457 7.75781C40.6523 7.75781 47.689 13.8796 48.8401 22.1071L52.5012 48.2955Z" fill="#D0E3F5"/>
<path d="M14.1267 34.4258L13.3125 40.2487H51.3758L50.5616 34.4258H14.1267Z" fill="#B5CDE4"/>
<path d="M12.936 33.8758L12.6425 35.9744C12.5759 36.4512 12.9462 36.877 13.4277 36.877H51.2624C51.7438 36.877 52.1142 36.4512 52.0475 35.9744L51.754 33.8758C51.6445 33.0925 50.9745 32.5098 50.1837 32.5098H14.5063C13.7154 32.5099 13.0455 33.0926 12.936 33.8758Z" fill="#CADEF1"/>
<path d="M51.2629 36.8764H46.8947C47.3767 36.8764 47.7477 36.4515 47.6795 35.9743L47.3862 33.875C47.2768 33.0933 46.6077 32.5098 45.8164 32.5098H50.183C50.9743 32.5098 51.6449 33.0933 51.7543 33.875L52.0477 35.9743C52.1144 36.4515 51.7433 36.8764 51.2629 36.8764Z" fill="#BCD2E9"/>
<path d="M52.5012 48.2949H12.1879C8.86751 48.2949 6.17578 50.9867 6.17578 54.307C6.17578 55.1826 6.88565 55.8926 7.76127 55.8926H56.9276C57.8032 55.8926 58.5131 55.1828 58.5131 54.307C58.5132 50.9865 55.8215 48.2949 52.5012 48.2949Z" fill="#C6DBEF"/>
<path d="M58.5124 54.3073C58.5124 55.1825 57.802 55.8929 56.9269 55.8929H52.2432C53.1184 55.8929 53.8288 55.1825 53.8288 54.3073C53.8288 52.6472 53.1565 51.1442 52.0673 50.0564C50.9795 48.9672 49.4765 48.2949 47.8164 48.2949H52.5002C54.1603 48.2949 55.6634 48.9672 56.751 50.0564C57.8402 51.144 58.5124 52.6472 58.5124 54.3073Z" fill="#B5CDE4"/>
</g>
<defs>
<clipPath id="clip0_9714_180837">
<rect width="64" height="64" fill="white" transform="translate(0.5)"/>
</clipPath>
</defs>
</svg>
