<svg width="56" height="56" viewBox="0 0 56 56" fill="none" xmlns="http://www.w3.org/2000/svg">
<g clip-path="url(#clip0_2732_50638)">
<path d="M29.4967 3.01367C28.4075 3.01367 27.3962 3.34562 26.5586 3.91295C26.8619 4.74562 27.0194 5.70441 27.0194 6.78011V8.3212C31.5448 9.32789 34.7276 11.9975 34.7276 17.0622V8.22408C34.7276 5.34642 32.3857 3.01367 29.4967 3.01367Z" fill="#3D5959"/>
<path d="M22.2309 7.84098C23.9693 7.84098 25.6246 8.00012 27.1287 8.34531V6.77983C27.1287 2.48073 24.6563 0 20.3403 0H17.5492C13.2332 0 9.73438 3.48512 9.73438 7.78422V17.062C9.73438 10.3465 15.3291 7.84098 22.2309 7.84098Z" fill="#537982"/>
<path d="M13.2403 10.0361V7.78422C13.2403 3.59417 16.5643 0.178828 20.729 0.00820313C20.601 0.00328125 20.4718 0 20.3402 0H17.5492C13.2332 0 9.73438 3.48512 9.73438 7.78422V17.062C9.73438 13.7815 11.07 11.506 13.2403 10.0361Z" fill="#3D5959"/>
<path d="M30.517 45.3831C30.517 42.6727 31.5528 40.1987 33.2506 38.333H27.974V38.4424C27.6008 41.2669 25.1535 43.382 22.2306 43.382C19.3078 43.382 16.8603 41.2669 16.487 38.4424V38.333H7.97131C4.92117 38.333 2.43945 40.754 2.43945 43.7296V51.7073C2.43945 52.1031 2.76528 52.4241 3.16723 52.4241H33.2424C31.5495 50.5595 30.517 48.0891 30.517 45.3831Z" fill="#0592FB"/>
<path d="M7.15538 51.7073V43.7296C7.15538 40.754 9.6371 38.333 12.6872 38.333H7.97131C4.92117 38.333 2.43945 40.754 2.43945 43.7296V51.7073C2.43945 52.1031 2.76528 52.4241 3.16723 52.4241H7.88316C7.4812 52.4241 7.15538 52.103 7.15538 51.7073Z" fill="#0181FB"/>
<path d="M25.7217 34.5879C25.0619 34.7097 24.3816 34.7743 23.686 34.7743H20.7744C20.0789 34.7743 19.3987 34.7097 18.7389 34.5879V38.3323H16.3633C16.6831 41.2326 19.1872 43.4907 22.2303 43.4907C25.2732 43.4907 27.7774 41.2326 28.0971 38.3323H25.7217V34.5879Z" fill="#FFAF9D"/>
<path d="M20.7744 34.7743C20.0789 34.7743 19.3987 34.7097 18.7389 34.5879V38.3323H16.3633C16.5105 39.6675 17.1215 40.8657 18.0339 41.771H20.5328C21.155 41.771 21.6595 41.2665 21.6595 40.6442V34.7743H20.7744Z" fill="#F69380"/>
<path d="M9.8437 24.0989V18.5527H8.03103C6.76294 18.5527 5.73438 19.5467 5.73438 20.7729V23.4607C5.73438 24.6869 6.76294 25.6809 8.03103 25.6809H9.9638C9.88505 25.1645 9.8437 24.6364 9.8437 24.0989Z" fill="#FFCDBE"/>
<path d="M36.4311 18.5527H34.6182V24.0989C34.6182 24.6363 34.5769 25.1645 34.498 25.6808H36.4311C37.6997 25.6808 38.7274 24.6868 38.7274 23.4606V20.7728C38.7274 19.5467 37.6997 18.5527 36.4311 18.5527Z" fill="#FFAF9D"/>
<path d="M22.2309 7.72461C15.329 7.72461 9.73438 10.2301 9.73438 16.9456V24.0985C9.73438 30.0548 14.6775 34.8836 20.775 34.8836H23.6867C29.7844 34.8836 34.7275 30.0547 34.7275 24.0985V16.9456C34.7275 10.2301 29.1327 7.72461 22.2309 7.72461Z" fill="#FFCDBE"/>
<path d="M22.2309 7.72461C15.329 7.72461 9.73438 10.2301 9.73438 16.9456V24.0985C9.73438 30.0548 14.6775 34.8836 20.775 34.8836H23.6867C29.7844 34.8836 34.7275 30.0547 34.7275 24.0985V16.9456C34.7275 10.2301 29.1327 7.72461 22.2309 7.72461Z" fill="#FFCDBE"/>
<path d="M13.2403 24.0985V16.9456C13.2403 10.8092 17.9121 8.18847 23.9839 7.78203C23.411 7.74375 22.826 7.72461 22.2309 7.72461C15.329 7.72461 9.73438 10.2301 9.73438 16.9456V24.0985C9.73438 30.0548 14.6775 34.8836 20.775 34.8836H23.6867C23.7861 34.8836 23.8851 34.8822 23.9839 34.8797C18.0237 34.7258 13.2403 29.9577 13.2403 24.0985Z" fill="#FFAF9D"/>
<path d="M23.3798 24.5501H21.8698C21.0294 24.5501 20.3457 23.8741 20.3457 23.0432V19.5469C20.3457 19.0938 20.713 18.7266 21.166 18.7266C21.619 18.7266 21.9863 19.0938 21.9863 19.5469V22.9095H23.3798C23.8328 22.9095 24.2001 23.2768 24.2001 23.7298C24.2001 24.1828 23.8329 24.5501 23.3798 24.5501Z" fill="#AB5E2E"/>
<path d="M15.5371 21.3006C15.0841 21.3006 14.7168 20.9333 14.7168 20.4803V17.998C14.7168 17.545 15.0841 17.1777 15.5371 17.1777C15.9901 17.1777 16.3574 17.545 16.3574 17.998V20.4803C16.3574 20.9333 15.9901 21.3006 15.5371 21.3006Z" fill="#AB5E2E"/>
<path d="M28.9258 21.3006C28.4726 21.3006 28.1055 20.9333 28.1055 20.4803V17.998C28.1055 17.545 28.4726 17.1777 28.9258 17.1777C29.3789 17.1777 29.7461 17.545 29.7461 17.998V20.4803C29.7461 20.9333 29.3789 21.3006 28.9258 21.3006Z" fill="#AB5E2E"/>
<path d="M22.2307 30.7017C20.0594 30.7017 18.0746 29.4278 17.174 27.4563C16.9857 27.0442 17.1672 26.5576 17.5793 26.3692C17.9915 26.1812 18.478 26.3625 18.6663 26.7746C19.3008 28.1635 20.6999 29.061 22.2307 29.061C23.7616 29.061 25.1606 28.1636 25.7949 26.7747C25.9831 26.3625 26.4697 26.1811 26.8819 26.3692C27.294 26.5574 27.4755 27.0441 27.2873 27.4562C26.387 29.4278 24.4021 30.7017 22.2307 30.7017Z" fill="#AB5E2E"/>
<path d="M40.7297 55.9997C46.9823 55.9997 52.0511 50.9507 52.0511 44.7225C52.0511 38.4943 46.9823 33.4453 40.7297 33.4453C34.477 33.4453 29.4082 38.4943 29.4082 44.7225C29.4082 50.9507 34.477 55.9997 40.7297 55.9997Z" fill="#00C184"/>
<path d="M33.1711 44.7224C33.1711 39.1328 37.2541 34.4939 42.6111 33.6012C41.9991 33.4992 41.3706 33.4453 40.7297 33.4453C34.4771 33.4453 29.4082 38.4943 29.4082 44.7225C29.4082 50.9506 34.4771 55.9997 40.7297 55.9997C41.3707 55.9997 41.9992 55.9458 42.6111 55.8438C37.2541 54.951 33.1711 50.3118 33.1711 44.7224Z" fill="#07B17B"/>
<path d="M40.7484 50.6375C40.144 50.6363 39.5647 50.379 39.1585 49.9315L33.2241 43.3964C33.16 43.3259 33.1266 43.233 33.1313 43.1378C33.1359 43.0428 33.178 42.9533 33.2486 42.8893L35.9066 40.4757C35.9753 40.4133 36.0618 40.3825 36.1478 40.3825C36.2455 40.3825 36.343 40.4221 36.4139 40.5002L40.5832 45.0916C40.6284 45.1412 40.6928 45.1699 40.7599 45.17C40.8272 45.17 40.8918 45.1417 40.9369 45.0922L50.7285 34.395C50.7928 34.3247 50.8824 34.2828 50.9775 34.2787C50.983 34.2783 50.9881 34.2783 50.9934 34.2783C51.083 34.2783 51.1695 34.3118 51.2359 34.3725L53.8843 36.7967C54.0307 36.9306 54.0406 37.1577 53.9067 37.3039L42.3421 49.9379C41.9351 50.3826 41.356 50.6376 40.7531 50.6376H40.7484V50.6375Z" fill="#C7EEFD"/>
</g>
<defs>
<clipPath id="clip0_2732_50638">
<rect width="56" height="56" fill="white"/>
</clipPath>
</defs>
</svg>
