<svg width="56" height="56" viewBox="0 0 56 56" fill="none" xmlns="http://www.w3.org/2000/svg">
<rect width="56" height="56" rx="18" fill="#18D2A6"/>
<path d="M32.0775 42.2207H13.2017C11.7072 42.2207 10.4983 41.0094 10.4983 39.5173C10.4983 33.3274 15.516 28.312 21.7035 28.312H23.5757C29.7655 28.312 34.7809 33.3298 34.7809 39.5173C34.7809 41.0094 33.572 42.2207 32.0775 42.2207Z" fill="white"/>
<path d="M22.6417 25.9237C25.9942 25.9237 28.7118 23.206 28.7118 19.8536C28.7118 16.5012 25.9942 13.7835 22.6417 13.7835C19.2893 13.7835 16.5717 16.5012 16.5717 19.8536C16.5717 23.206 19.2893 25.9237 22.6417 25.9237Z" fill="white"/>
<path d="M45.5013 21.9998L42.8047 19.3033L36.2419 25.8662L32.9581 22.5848L30.2616 25.2813L36.2442 31.2616L38.9407 28.565L38.9384 28.5627L45.5013 21.9998Z" fill="white"/>
</svg>
