<svg width="20" height="20" viewBox="0 0 20 20" fill="none" xmlns="http://www.w3.org/2000/svg">
<path d="M1.66605 7.97989V15.9036C1.66605 17.7059 3.12649 19.1663 4.92878 19.1663H14.8723C16.6745 19.1663 18.135 17.7059 18.135 15.9036V7.97989H1.66605ZM13.8779 11.4912L9.49657 15.8415C9.3412 15.9969 9.15476 16.059 8.93726 16.059C8.71973 16.059 8.53332 15.9658 8.37795 15.8415L5.89207 13.3867C5.58133 13.0759 5.58133 12.5788 5.89207 12.2991C6.2028 11.9884 6.69999 11.9884 6.97964 12.2991L8.90618 14.2256L12.7282 10.4036L12.7593 10.4347C13.07 10.155 13.5361 10.155 13.8469 10.4347C14.1576 10.6833 14.1887 11.1805 13.8779 11.4912ZM14.8723 3.00816H14.5615V1.60985C14.5615 1.17482 14.2197 0.833008 13.7847 0.833008C13.3497 0.833008 13.0079 1.17482 13.0079 1.60985V3.00816H6.79316V1.60985C6.79316 1.17482 6.45138 0.833008 6.01632 0.833008C5.58129 0.833008 5.23948 1.17482 5.23948 1.60985V3.00816H4.92874C3.12649 3.00816 1.66602 4.46859 1.66602 6.27088V6.42625H18.1349V6.27088C18.135 4.46859 16.6745 3.00816 14.8723 3.00816Z" fill="#28C76F"/>
</svg>
