<svg width="18" height="18" viewBox="0 0 18 18" fill="none" xmlns="http://www.w3.org/2000/svg">
<path d="M16.8622 1.15198C16.4453 0.724157 15.8284 0.564773 15.2532 0.732546L1.83935 4.63326C1.23243 4.80187 0.802255 5.2859 0.686374 5.90079C0.567992 6.52658 0.981495 7.32098 1.52172 7.65317L5.71593 10.231C6.14611 10.4952 6.70134 10.429 7.05732 10.0699L11.8601 5.23724C12.1019 4.98559 12.502 4.98559 12.7438 5.23724C12.9856 5.48051 12.9856 5.87478 12.7438 6.12644L7.93267 10.96C7.57586 11.3182 7.50917 11.876 7.77177 12.3089L10.3345 16.5451C10.6346 17.0484 11.1515 17.3337 11.7184 17.3337C11.7851 17.3337 11.8601 17.3337 11.9268 17.3253C12.5771 17.2414 13.094 16.7968 13.2857 16.1676L17.2623 2.77098C17.4374 2.20056 17.279 1.5798 16.8622 1.15198Z" fill="#A2AEBD"/>
</svg>
