<svg width="18" height="18" viewBox="0 0 18 18" fill="none" xmlns="http://www.w3.org/2000/svg">
<path d="M8.99935 0.666992C4.40751 0.666992 0.666016 4.40849 0.666016 9.00033C0.666016 13.5922 4.40751 17.3337 8.99935 17.3337C13.5912 17.3337 17.3327 13.5922 17.3327 9.00033C17.3327 4.40849 13.5912 0.666992 8.99935 0.666992ZM11.9755 7.72482L8.57418 11.1262C8.40411 11.2112 8.31908 11.2962 8.14901 11.2962C7.97894 11.2962 7.80887 11.2112 7.72384 11.1262L6.02316 9.4255C5.76806 9.17039 5.76806 8.74522 6.02316 8.49012C6.27826 8.23502 6.70343 8.23502 6.95853 8.49012L8.23404 9.76563L11.2102 6.78944C11.4653 6.53434 11.8905 6.53434 12.1456 6.78944C12.2306 7.12958 12.2306 7.46971 11.9755 7.72482Z" fill="#A2AEBD"/>
</svg>
