<svg width="56" height="56" viewBox="0 0 56 56" fill="none" xmlns="http://www.w3.org/2000/svg">
<path d="M28 15.4219L0.109375 16.5156V52.6094L28 53.7031L55.8906 52.6094V16.5156L28 15.4219Z" fill="#ECF5FF"/>
<path d="M29.6406 3.39062L28 6.67188L26.3594 3.39062H0.109375V13.2344L28 14.3281L55.8906 13.2344V3.39062H29.6406Z" fill="#FF9F43"/>
<path d="M6.67188 6.67188H9.95312C9.95312 5.87344 9.95312 0.907813 9.95312 0.109375H6.67188V6.67188Z" fill="#1F2F4E"/>
<path d="M16.5156 6.67188H19.7969C19.7969 5.87344 19.7969 0.907813 19.7969 0.109375H16.5156V6.67188Z" fill="#1F2F4E"/>
<path d="M26.3594 0.109375V6.67188H29.6406C29.6406 5.87344 29.6406 0.907813 29.6406 0.109375C28.4922 0.109375 27.5078 0.109375 26.3594 0.109375Z" fill="#1F2F4E"/>
<path d="M36.2031 6.67188H39.4844C39.4844 5.87344 39.4844 0.907813 39.4844 0.109375H36.2031V6.67188Z" fill="#1F2F4E"/>
<path d="M46.0469 0.109375V6.67188H49.3281C49.3281 5.87344 49.3281 0.907813 49.3281 0.109375H46.0469Z" fill="#1F2F4E"/>
<path d="M0.109375 13.2344V16.5156H55.8906V13.2344C54.3156 13.2344 1.68437 13.2344 0.109375 13.2344Z" fill="#FFAC5C"/>
<path d="M0.109375 52.6094V55.8906H55.8906V52.6094C54.3156 52.6094 1.68437 52.6094 0.109375 52.6094Z" fill="#D6E8FE"/>
<path d="M28 21.4375C20.7594 21.4375 14.875 27.3219 14.875 34.5625C14.875 41.8031 20.7594 47.6875 28 47.6875C35.2406 47.6875 41.125 41.8031 41.125 34.5625C41.125 27.3219 35.2406 21.4375 28 21.4375Z" fill="#FF9F43"/>
<path d="M28 24.7188C22.575 24.7188 18.1562 29.1375 18.1562 34.5625C18.1562 39.9875 22.575 44.4062 28 44.4062C33.425 44.4062 37.8438 39.9875 37.8438 34.5625C37.8438 29.1375 33.425 24.7188 28 24.7188Z" fill="#FFAC5C"/>
<path fill-rule="evenodd" clip-rule="evenodd" d="M26.2509 40.3519L32.1085 32.777C32.4269 32.3685 32.5401 31.8962 32.4339 31.4153C32.342 30.9782 32.0731 30.5625 31.6699 30.2472L30.6866 29.466C29.8306 28.7852 28.7694 28.8569 28.161 29.638L27.5031 30.4916C27.4182 30.5983 27.4394 30.756 27.5455 30.842C27.5455 30.842 29.208 32.175 29.2434 32.2036C29.3566 32.3111 29.4415 32.4545 29.4627 32.6265C29.4981 32.9633 29.2646 33.2786 28.918 33.3216C28.7553 33.3431 28.5996 33.2929 28.4864 33.1998L26.7391 31.8095C26.6542 31.7457 26.5268 31.7593 26.4561 31.8453L22.3034 37.2202C22.0346 37.557 21.9426 37.9942 22.0346 38.417L22.5652 40.7174C22.5935 40.8393 22.6996 40.9253 22.8269 40.9253L25.1615 40.8966C25.5859 40.8894 25.9821 40.6959 26.2509 40.3519ZM29.5198 39.6355H33.3265C33.6979 39.6355 34 39.9415 34 40.3178C34 40.6947 33.6979 41 33.3265 41H29.5198C29.1484 41 28.8463 40.6947 28.8463 40.3178C28.8463 39.9415 29.1484 39.6355 29.5198 39.6355Z" fill="white"/>
</svg>
