<svg width="54" height="40" viewBox="0 0 54 40" fill="none" xmlns="http://www.w3.org/2000/svg">
<path d="M50.4055 6.38281L47.0695 39.9391H6.92891L4.23828 7.03906L26.9992 19.7703L50.4055 6.38281Z" fill="#F2F2F2"/>
<path d="M49.268 0.0605469L26.9992 20.984L4.73047 0.0605469H26.9992H49.268Z" fill="#F2F2F2"/>
<path opacity="0.1" d="M50.0781 6.33789L50.1219 7.49726L6.6125 39.8941L3.92188 6.99414L26.6719 19.7363L50.0781 6.33789Z" fill="black"/>
<path d="M6.9293 9.72891V39.9383H3.29805C1.93086 39.9383 0.826172 38.8336 0.826172 37.4664V5.27734L4.81836 5.38672L6.9293 9.72891Z" fill="#D54C3F"/>
<path opacity="0.2" d="M50.0777 6.33828L50.1215 39.9383L27.3277 39.9164L0.826172 5.27734L26.6715 19.7367L50.0777 6.33828Z" fill="url(#paint0_linear_4238_84062)"/>
<path d="M53.1734 5.27695V37.466C53.1734 38.8332 52.0688 39.9379 50.7016 39.9379H47.0703V9.72852L49.0828 4.9707L53.1734 5.27695Z" fill="#C33C2C"/>
<path d="M53.173 2.53242V5.27774L47.0699 9.7293L27.0215 24.7027L6.9293 9.7293L0.826172 5.27774V2.53242C0.826172 1.16524 1.93086 0.0605469 3.29805 0.0605469H4.73086L26.9996 16.3027L49.2683 0.0605469H50.6902C52.0683 0.0605469 53.173 1.16524 53.173 2.53242Z" fill="#DE5145"/>
<defs>
<linearGradient id="paint0_linear_4238_84062" x1="26.0825" y1="6.82631" x2="43.3477" y2="34.8682" gradientUnits="userSpaceOnUse">
<stop/>
<stop offset="0.9425" stop-opacity="0"/>
</linearGradient>
</defs>
</svg>
