<svg width="24" height="25" viewBox="0 0 24 25" fill="none" xmlns="http://www.w3.org/2000/svg">
<rect y="0.148438" width="24" height="24" rx="12" fill="#5AB9EE"/>
<g clip-path="url(#clip0_25147_16549)">
<path d="M17.6528 7.3591C17.5322 7.3591 17.4122 7.31644 17.3162 7.22844C15.8448 5.8871 13.9568 5.14844 11.9995 5.14844C10.0422 5.14844 8.15416 5.8871 6.68282 7.2291C6.47816 7.4151 6.16216 7.39977 5.97616 7.19644C5.79016 6.99244 5.80482 6.67577 6.00882 6.48977C7.66549 4.97977 9.79282 4.14844 11.9995 4.14844C14.2062 4.14844 16.3335 4.97977 17.9902 6.48977C18.1942 6.67577 18.2088 6.99177 18.0228 7.19644C17.9242 7.30444 17.7888 7.3591 17.6528 7.3591Z" fill="white"/>
<path d="M18.5002 10.6268C18.3396 10.6268 18.1809 10.5495 18.0849 10.4055C16.6969 8.3388 14.4222 7.1048 12.0002 7.1048C9.57824 7.1048 7.30357 8.3388 5.91557 10.4055C5.76157 10.6355 5.45024 10.6968 5.22157 10.5421C4.99224 10.3881 4.93091 10.0775 5.08491 9.84814C6.65891 7.5048 9.24424 6.10547 12.0002 6.10547C14.7562 6.10547 17.3416 7.5048 18.9156 9.8488C19.0696 10.0781 19.0089 10.3888 18.7789 10.5428C18.6936 10.5995 18.5969 10.6268 18.5002 10.6268Z" fill="white"/>
<path d="M10.4212 20.1482C10.2925 20.1482 10.1639 20.0989 10.0659 20.0002C9.95653 19.8902 7.39453 17.2749 7.39453 14.7569C7.39453 12.1436 9.46053 10.0176 12.0005 10.0176C14.5405 10.0176 16.6065 12.1436 16.6065 14.7569C16.6065 15.0329 16.3825 15.2569 16.1065 15.2569C15.8305 15.2569 15.6065 15.0329 15.6065 14.7569C15.6065 12.6949 13.9892 11.0176 12.0005 11.0176C10.0119 11.0176 8.39453 12.6949 8.39453 14.7569C8.39453 16.8682 10.7525 19.2722 10.7765 19.2962C10.9712 19.4922 10.9699 19.8089 10.7732 20.0036C10.6759 20.1002 10.5485 20.1482 10.4212 20.1482Z" fill="white"/>
<path d="M13.5787 20.1479C12.376 20.1479 9.58805 17.8599 9.31805 15.3119C9.22271 14.4112 9.50938 13.4899 10.084 12.8472C10.584 12.2885 11.2594 11.9785 11.9854 11.9745H11.9994C12.7074 11.9745 13.3767 12.2525 13.886 12.7585C14.418 13.2872 14.7107 13.9972 14.7107 14.7572V15.0832C14.7107 15.8865 15.336 16.5399 16.1054 16.5399C16.8747 16.5399 17.5007 15.8865 17.5007 15.0832V14.9692C17.5007 11.8559 15.2454 9.26588 12.366 9.07388C10.8647 8.97188 9.42471 9.49055 8.31338 10.5292C7.16005 11.6079 6.49871 13.1492 6.49871 14.7572C6.49871 16.0799 6.94671 17.3685 7.76005 18.3859C7.93205 18.6019 7.89738 18.9159 7.68138 19.0885C7.46605 19.2612 7.15138 19.2259 6.97805 19.0099C6.02405 17.8159 5.49805 16.3052 5.49805 14.7565C5.49805 12.8725 6.27538 11.0652 7.62938 9.79855C8.94471 8.56788 10.65 7.95588 12.4314 8.07521C15.834 8.30255 18.5 11.3305 18.5 14.9685V15.0825C18.5 16.4372 17.4254 17.5392 16.1047 17.5392C14.784 17.5392 13.71 16.4372 13.71 15.0825V14.7565C13.71 14.2645 13.522 13.8072 13.1807 13.4672C12.8607 13.1485 12.4414 12.9739 11.9994 12.9739C11.996 12.9739 11.9934 12.9739 11.99 12.9739C11.4267 12.9765 11.0474 13.2692 10.8287 13.5139C10.4387 13.9492 10.2454 14.5825 10.3114 15.2065C10.532 17.2852 12.9207 19.1485 13.578 19.1485C13.854 19.1485 14.078 19.3725 14.078 19.6485C14.078 19.9245 13.8547 20.1479 13.5787 20.1479Z" fill="white"/>
<path d="M15.4349 19.171C13.6456 19.171 11.4609 16.9843 11.4609 14.4316C11.4609 14.1556 11.6849 13.9316 11.9609 13.9316C12.2369 13.9316 12.4609 14.1556 12.4609 14.4316C12.4609 16.4103 14.1243 18.171 15.4349 18.171C15.7109 18.171 15.9349 18.395 15.9349 18.671C15.9349 18.947 15.7109 19.171 15.4349 19.171Z" fill="white"/>
</g>
<defs>
<clipPath id="clip0_25147_16549">
<rect width="16" height="16" fill="white" transform="translate(4 4.14844)"/>
</clipPath>
</defs>
</svg>
