<svg width="20" height="20" viewBox="0 0 20 20" fill="none" xmlns="http://www.w3.org/2000/svg">
<path d="M18.705 10.1619L11.3963 17.5439C10.2718 18.6796 8.82615 19.1663 7.38047 19.1663C5.93478 19.1663 4.4891 18.5985 3.36468 17.5439C1.19615 15.3537 1.19615 11.7032 3.36468 9.51295L10.7537 2.04982C11.4766 1.31973 12.5207 0.833008 13.5648 0.833008C14.6089 0.833008 15.653 1.23861 16.3758 2.04982C17.9822 3.67224 17.9822 6.18699 16.3758 7.80941L8.98679 15.2725C8.023 16.246 6.49699 16.246 5.61352 15.2725C5.21194 14.8669 4.97099 14.218 4.97099 13.569C4.97099 12.92 5.21194 12.2711 5.69384 11.8655L12.5207 4.97018C12.8419 4.64569 13.3238 4.64569 13.6451 4.97018C13.9664 5.29466 13.9664 5.78138 13.6451 6.10587L6.81826 13.0011C6.65763 13.1634 6.57731 13.3256 6.57731 13.569C6.57731 13.8124 6.65763 13.9746 6.81826 14.1368C7.13952 14.4613 7.62142 14.4613 7.94268 14.1368L15.3317 6.67372C16.2955 5.70026 16.2955 4.15897 15.3317 3.26664C14.4483 2.37431 12.8419 2.37431 11.9585 3.26664L4.56941 10.7298C2.9631 12.3522 2.9631 14.8669 4.56941 16.4893C6.17573 18.1118 8.66552 18.1118 10.2718 16.4893L17.6609 9.02622C17.9822 8.70174 18.4641 8.70174 18.7853 9.02622C19.1066 9.35071 19.0263 9.83743 18.705 10.1619Z" fill="black"/>
<mask id="mask0_12275_165399" style="mask-type:alpha" maskUnits="userSpaceOnUse" x="1" y="0" width="18" height="20">
<path d="M18.705 10.1619L11.3963 17.5439C10.2718 18.6796 8.82615 19.1663 7.38047 19.1663C5.93478 19.1663 4.4891 18.5985 3.36468 17.5439C1.19615 15.3537 1.19615 11.7032 3.36468 9.51295L10.7537 2.04982C11.4766 1.31973 12.5207 0.833008 13.5648 0.833008C14.6089 0.833008 15.653 1.23861 16.3758 2.04982C17.9822 3.67224 17.9822 6.18699 16.3758 7.80941L8.98679 15.2725C8.023 16.246 6.49699 16.246 5.61352 15.2725C5.21194 14.8669 4.97099 14.218 4.97099 13.569C4.97099 12.92 5.21194 12.2711 5.69384 11.8655L12.5207 4.97018C12.8419 4.64569 13.3238 4.64569 13.6451 4.97018C13.9664 5.29466 13.9664 5.78138 13.6451 6.10587L6.81826 13.0011C6.65763 13.1634 6.57731 13.3256 6.57731 13.569C6.57731 13.8124 6.65763 13.9746 6.81826 14.1368C7.13952 14.4613 7.62142 14.4613 7.94268 14.1368L15.3317 6.67372C16.2955 5.70026 16.2955 4.15897 15.3317 3.26664C14.4483 2.37431 12.8419 2.37431 11.9585 3.26664L4.56941 10.7298C2.9631 12.3522 2.9631 14.8669 4.56941 16.4893C6.17573 18.1118 8.66552 18.1118 10.2718 16.4893L17.6609 9.02622C17.9822 8.70174 18.4641 8.70174 18.7853 9.02622C19.1066 9.35071 19.0263 9.83743 18.705 10.1619Z" fill="white"/>
</mask>
<g mask="url(#mask0_12275_165399)">
<rect x="0.955078" width="18.8199" height="20" fill="#A2AEBD"/>
</g>
</svg>
