<svg width="14" height="14" viewBox="0 0 14 14" fill="none" xmlns="http://www.w3.org/2000/svg">
<path d="M7.00065 0.333984C3.32718 0.333984 0.333984 3.32718 0.333984 7.00065C0.333984 10.6741 3.32718 13.6673 7.00065 13.6673C10.6741 13.6673 13.6673 10.6741 13.6673 7.00065C13.6673 3.32718 10.6741 0.333984 7.00065 0.333984ZM7.00065 10.7421C6.66052 10.7421 6.32038 10.402 6.32038 10.0619C6.32038 9.72174 6.66052 9.38161 7.00065 9.38161C7.34079 9.38161 7.68092 9.72174 7.68092 10.0619C7.68092 10.402 7.34079 10.7421 7.00065 10.7421ZM8.56528 6.32038C8.42922 6.52446 8.29317 6.72854 8.08909 6.93262C7.74895 7.34079 7.47684 7.68092 7.47684 8.02106C7.47684 8.29317 7.27276 8.56528 6.93262 8.56528C6.59249 8.56528 6.38841 8.3612 6.38841 8.02106C6.38841 7.34079 6.8646 6.72854 7.20473 6.25235C7.34079 6.1163 7.47684 5.91222 7.6129 5.70814C7.68092 5.57208 7.74895 5.43603 7.74895 5.23194C7.74895 4.75575 7.34079 4.41562 6.93262 4.41562C6.52446 4.41562 6.1163 4.82378 6.1163 5.23194C6.1163 5.50405 5.91222 5.77616 5.57208 5.77616C5.23194 5.77616 5.09589 5.57208 5.09589 5.29997C5.09589 4.27956 5.91222 3.39521 7.00065 3.39521C8.08909 3.39521 8.90541 4.21154 8.90541 5.29997C8.90541 5.64011 8.76936 5.98024 8.56528 6.32038Z" fill="#667793"/>
</svg>
