<svg width="24" height="24" viewBox="0 0 24 24" fill="none" xmlns="http://www.w3.org/2000/svg">
<path d="M11.1711 20.6922C12.8905 21.1531 14.708 21.0936 16.3937 20.5215C18.0793 19.9494 19.5575 18.8902 20.6411 17.478C21.7248 16.0657 22.3654 14.3638 22.4818 12.5875C22.5982 10.8112 22.1852 9.04028 21.2951 7.4987C20.4049 5.95711 19.0777 4.71411 17.4811 3.9269C15.8845 3.13969 14.0903 2.84362 12.3254 3.07614C10.5606 3.30866 8.9043 4.05933 7.56608 5.2332C6.22787 6.40708 5.26782 7.95144 4.80735 9.67096L4.6611 10.2185L3.5811 8.35096C3.43191 8.09238 3.18611 7.90365 2.89778 7.82629C2.60944 7.74893 2.30218 7.78928 2.0436 7.93846C1.78501 8.08765 1.59628 8.33344 1.51892 8.62178C1.44156 8.91012 1.48191 9.21738 1.6311 9.47596L4.2561 14.021C4.35568 14.1929 4.51941 14.3183 4.71135 14.3696C4.90329 14.4209 5.10775 14.394 5.27985 14.2947L9.8286 11.6697C9.96304 11.5994 10.0819 11.5026 10.1779 11.3851C10.274 11.2677 10.3453 11.132 10.3876 10.9863C10.4299 10.8406 10.4422 10.6878 10.4239 10.5372C10.4056 10.3866 10.3571 10.2412 10.2811 10.1099C10.2052 9.97851 10.1035 9.86386 9.98208 9.77283C9.8607 9.6818 9.72215 9.61627 9.57478 9.58017C9.42741 9.54407 9.27426 9.53816 9.12454 9.56278C8.97483 9.58741 8.83164 9.64206 8.7036 9.72346L6.83235 10.7997L6.9336 10.4285C7.8936 6.83596 11.5423 4.54471 15.1498 5.45596C16.1215 5.7015 17.0263 6.16032 17.7985 6.79911C18.5707 7.4379 19.191 8.24063 19.6144 9.14903C20.0377 10.0574 20.2534 11.0487 20.2459 12.0509C20.2384 13.053 20.0078 14.0409 19.5709 14.9429C19.134 15.8448 18.5018 16.6382 17.72 17.2653C16.9383 17.8925 16.0268 18.3377 15.0515 18.5686C14.0763 18.7995 13.0619 18.8104 12.0819 18.6004C11.102 18.3905 10.1811 17.9649 9.3861 17.3547C9.18067 17.1933 8.92734 17.1049 8.6661 17.1035C8.47226 17.1034 8.28194 17.1552 8.11485 17.2535C7.95622 17.3444 7.82223 17.4727 7.72454 17.6272C7.62686 17.7818 7.56845 17.9578 7.5544 18.1401C7.54035 18.3224 7.57108 18.5054 7.64393 18.6731C7.71678 18.8407 7.82952 18.9881 7.97235 19.1022C8.92015 19.843 10.0083 20.3839 11.1711 20.6922Z" fill="#7966FF"/>
</svg>
