<svg width="20" height="20" viewBox="0 0 20 20" fill="none" xmlns="http://www.w3.org/2000/svg">
<path d="M14.8723 3.00816H14.5615V1.60985C14.5615 1.17482 14.2197 0.833008 13.7847 0.833008C13.3497 0.833008 13.0079 1.17482 13.0079 1.60985V3.00816H6.79316V1.60985C6.79316 1.17482 6.45138 0.833008 6.01632 0.833008C5.58129 0.833008 5.23948 1.17482 5.23948 1.60985V3.00816H4.92874C3.12649 3.00816 1.66602 4.46859 1.66602 6.27088V6.42625H18.1349V6.27088C18.135 4.46859 16.6745 3.00816 14.8723 3.00816ZM1.66605 7.97989V15.9036C1.66605 17.7059 3.12649 19.1663 4.92878 19.1663H14.8723C16.6745 19.1663 18.135 17.7059 18.135 15.9036V7.97989H1.66605ZM12.9457 16.0901C12.635 16.4008 12.1378 16.4008 11.8581 16.0901L9.9316 14.1635L8.00505 16.0901C7.69432 16.4008 7.19713 16.4008 6.91748 16.0901C6.60674 15.7793 6.60674 15.2821 6.91748 15.0025L8.84402 13.0759L6.8864 11.1494C6.57566 10.8387 6.57566 10.3415 6.8864 10.0618C7.19713 9.7511 7.69432 9.7511 7.97397 10.0618L9.90051 11.9884L11.8271 10.0618C12.1378 9.7511 12.635 9.7511 12.9146 10.0618C13.2254 10.3726 13.1943 10.8698 12.9146 11.1494L10.9881 13.0449L12.9457 14.9714C13.2564 15.2821 13.2564 15.7793 12.9457 16.0901Z" fill="#EA5455"/>
</svg>
