<svg width="56" height="56" viewBox="0 0 56 56" fill="none" xmlns="http://www.w3.org/2000/svg">
<rect width="56" height="56" rx="18" fill="#8E68DF"/>
<g clip-path="url(#clip0_22137_6782)">
<path d="M46.6667 34.599C46.6667 29.9662 44.0089 25.8316 40.0284 23.8204C39.9048 32.7031 32.7032 39.9048 23.8204 40.0284C25.8316 44.0089 29.9662 46.6667 34.599 46.6667C36.7711 46.6667 38.8834 46.0882 40.7394 44.989L46.614 46.614L44.9891 40.7393C46.0882 38.8834 46.6667 36.7711 46.6667 34.599Z" fill="white"/>
<path d="M37.8438 23.5885C37.8438 15.7281 31.4491 9.33333 23.5886 9.33333C15.7281 9.33333 9.33337 15.7281 9.33337 23.5885C9.33337 26.1503 10.0153 28.6446 11.3101 30.8343L9.38578 37.791L16.3428 35.867C18.5326 37.1619 21.0268 37.8437 23.5886 37.8437C31.4491 37.8437 37.8438 31.449 37.8438 23.5885ZM21.4011 20.2708H19.2136C19.2136 17.8583 21.1761 15.8958 23.5886 15.8958C26.0011 15.8958 27.9636 17.8583 27.9636 20.2708C27.9636 21.4953 27.4452 22.6722 26.5408 23.4994L24.6823 25.2004V26.9062H22.4948V24.2371L25.064 21.8855C25.5232 21.4654 25.7761 20.892 25.7761 20.2708C25.7761 19.0646 24.7948 18.0833 23.5886 18.0833C22.3823 18.0833 21.4011 19.0646 21.4011 20.2708ZM22.4948 29.0937H24.6823V31.2812H22.4948V29.0937Z" fill="white"/>
</g>
<defs>
<clipPath id="clip0_22137_6782">
<rect width="37.3333" height="37.3333" fill="white" transform="translate(9.33337 9.33333)"/>
</clipPath>
</defs>
</svg>
