<svg width="16" height="16" viewBox="0 0 16 16" fill="none" xmlns="http://www.w3.org/2000/svg">
<path d="M8.00065 1.33301C4.32718 1.33301 1.33398 4.32621 1.33398 7.99968C1.33398 11.6731 4.32718 14.6663 8.00065 14.6663C11.6741 14.6663 14.6673 11.6731 14.6673 7.99968C14.6673 4.32621 11.6741 1.33301 8.00065 1.33301ZM8.54487 10.3806C8.54487 10.6527 8.34079 10.9248 8.00065 10.9248C7.66052 10.9248 7.45643 10.7208 7.45643 10.3806V7.65954C7.45643 7.38743 7.66052 7.11532 8.00065 7.11532C8.34079 7.11532 8.54487 7.3194 8.54487 7.65954V10.3806ZM8.00065 6.299C7.66052 6.299 7.32038 5.95886 7.32038 5.61872C7.32038 5.27859 7.66052 4.93845 8.00065 4.93845C8.34079 4.93845 8.68092 5.27859 8.68092 5.61872C8.68092 5.95886 8.34079 6.299 8.00065 6.299Z" fill="#A2AEBD"/>
</svg>
