<svg width="16" height="16" viewBox="0 0 16 16" fill="none" xmlns="http://www.w3.org/2000/svg">
<path d="M12.6716 3.3469C11.5037 2.0969 9.7862 1.33301 8 1.33301C6.2138 1.33301 4.4963 2.02745 3.32839 3.3469C2.36659 4.45801 1.88569 5.8469 2.02309 7.23579C2.02309 7.51356 2.09179 7.79134 2.16049 7.99967C2.77879 10.9163 5.939 13.4858 7.313 14.458C7.5191 14.5969 7.7252 14.6663 8 14.6663C8.2748 14.6663 8.4809 14.5969 8.687 14.458C9.9923 13.4858 13.2212 10.9163 13.8395 7.99967C13.9082 7.79134 13.9082 7.51356 13.9769 7.23579C14.1143 5.8469 13.6334 4.45801 12.6716 3.3469ZM8 9.31912C6.9695 9.31912 6.0764 8.48579 6.0764 7.37467C6.0764 6.26356 6.9008 5.43023 8 5.43023C9.0992 5.43023 9.9236 6.26356 9.9236 7.37467C9.9236 8.48579 9.0305 9.31912 8 9.31912Z" fill="#A2AEBD"/>
</svg>
