<svg width="32" height="32" viewBox="0 0 32 32" fill="none" xmlns="http://www.w3.org/2000/svg">
<path d="M26.0006 0.00207079H2.53665C1.51021 -0.00786557 0.58263 0.612313 0.199549 1.56458C-0.202967 2.50941 0.0150703 3.60441 0.748798 4.32295L27.679 31.2532C28.1468 31.7285 28.7853 31.9969 29.4521 31.9984C29.7904 31.9978 30.1252 31.9303 30.4373 31.7997C31.389 31.4173 32.009 30.4909 31.9998 29.4653V6.00138C31.9999 2.68807 29.3139 0.00207079 26.0006 0.00207079Z" fill="#EA5455"/>
<path d="M14.0019 10.6683C13.6337 10.6683 13.3352 10.37 13.3351 10.0018C13.3351 9.95703 13.3396 9.91229 13.3486 9.86835L14.2498 5.36087L11.8074 7.80728C11.5426 8.063 11.1206 8.05569 10.8648 7.7909C10.6154 7.53256 10.6154 7.12304 10.8648 6.86476L14.8644 2.86522C15.1247 2.60487 15.5467 2.60481 15.8071 2.86509C15.9645 3.02251 16.033 3.24811 15.9896 3.46646L15.0884 7.97395L17.5321 5.53154C17.7879 5.26676 18.2099 5.25938 18.4747 5.51517C18.7395 5.77089 18.7469 6.1929 18.4911 6.45775C18.4857 6.46331 18.4803 6.46874 18.4747 6.47412L14.4752 10.4737C14.3496 10.5989 14.1793 10.6689 14.0019 10.6683Z" fill="#FAFAFA"/>
<path d="M18.0009 14.6676C17.824 14.668 17.6542 14.598 17.5289 14.473L15.5291 12.4732C15.2689 12.2129 15.2689 11.791 15.5291 11.5306L19.5287 7.5311C19.789 7.27088 20.2109 7.27088 20.4713 7.5311L22.471 9.53087C22.7358 9.78665 22.7431 10.2086 22.4874 10.4734C22.2316 10.7382 21.8097 10.7455 21.5448 10.4898C21.5393 10.4844 21.5338 10.479 21.5285 10.4734L20.0006 8.94431L16.9437 12.0013L18.4715 13.5291C18.7322 13.7891 18.7327 14.2111 18.4727 14.4718C18.3476 14.5972 18.1779 14.6676 18.0009 14.6676Z" fill="#FAFAFA"/>
<path d="M19.334 12.0013C19.1571 12.0016 18.9873 11.9316 18.8621 11.8066L17.5289 10.4734C17.2732 10.2087 17.2805 9.78664 17.5453 9.53085C17.8036 9.28138 18.2131 9.28138 18.4714 9.53085L19.8046 10.864C20.0645 11.1247 20.0639 11.5468 19.8031 11.8067C19.6785 11.931 19.5099 12.0009 19.334 12.0013Z" fill="#FAFAFA"/>
<path d="M23.3335 20C22.9653 19.9998 22.6671 19.7011 22.6674 19.3329C22.6674 19.2615 22.6789 19.1906 22.7015 19.1228L23.6134 16.3884L20.8791 17.3003C20.6231 17.383 20.3424 17.306 20.1645 17.1043C19.9882 16.9005 19.9519 16.6107 20.0725 16.3697L22.7388 11.037C22.9034 10.7076 23.3039 10.5738 23.6334 10.7384C23.963 10.9029 24.0966 11.3034 23.9321 11.633L21.9856 15.5258L24.4586 14.7019C24.6984 14.6235 24.9619 14.6858 25.1413 14.8632C25.32 15.0417 25.3825 15.3061 25.3025 15.5458L24.4786 18.0175L28.3715 16.0711C28.701 15.9065 29.1015 16.0402 29.2661 16.3697C29.4306 16.6992 29.297 17.0997 28.9674 17.2643L23.6347 19.9307C23.5411 19.9772 23.4379 20.0009 23.3335 20Z" fill="#FAFAFA"/>
</svg>
