<svg width="16" height="18" viewBox="0 0 16 18" fill="none" xmlns="http://www.w3.org/2000/svg">
<path fill-rule="evenodd" clip-rule="evenodd" d="M5.43747 12.6587H9.92592C10.2642 12.6587 10.5447 12.3753 10.5447 12.0337C10.5447 11.692 10.2642 11.417 9.92592 11.417H5.43747C5.09918 11.417 4.81866 11.692 4.81866 12.0337C4.81866 12.3753 5.09918 12.6587 5.43747 12.6587ZM8.22625 7.25033H5.43747C5.09918 7.25033 4.81866 7.53366 4.81866 7.87533C4.81866 8.21699 5.09918 8.49199 5.43747 8.49199H8.22625C8.56453 8.49199 8.84506 8.21699 8.84506 7.87533C8.84506 7.53366 8.56453 7.25033 8.22625 7.25033ZM14.1144 6.52167C14.3083 6.51943 14.5195 6.51699 14.7114 6.51699C14.9177 6.51699 15.0827 6.68366 15.0827 6.89199V13.592C15.0827 15.6587 13.4243 17.3337 11.3781 17.3337H4.81041C2.66519 17.3337 0.916016 15.5753 0.916016 13.4087V4.42533C0.916016 2.35866 2.58268 0.666992 4.63714 0.666992H9.04308C9.2576 0.666992 9.42262 0.841992 9.42262 1.05033V3.73366C9.42262 5.25866 10.6685 6.50866 12.1784 6.51699C12.5311 6.51699 12.842 6.51963 13.1141 6.52194C13.3258 6.52373 13.514 6.52533 13.68 6.52533C13.7975 6.52533 13.9497 6.52357 14.1144 6.52167ZM14.3419 5.30533C13.6637 5.30783 12.8642 5.30533 12.2891 5.29949C11.3766 5.29949 10.6249 4.54033 10.6249 3.61866V1.42199C10.6249 1.06283 11.0564 0.884492 11.3031 1.14366C11.7502 1.61315 12.3648 2.25871 12.9763 2.90112C13.5848 3.54035 14.1904 4.17646 14.6249 4.63283C14.8659 4.88533 14.6893 5.30449 14.3419 5.30533Z" fill="#A2AEBD"/>
</svg>
