<svg width="32" height="32" viewBox="0 0 32 32" fill="none" xmlns="http://www.w3.org/2000/svg">
    <g clip-path="url(#clip0_50_4)">
        <path
            d="M0.338998 11.1964L9.48197 2.05361C9.7082 1.82738 9.97596 1.71423 10.2855 1.71423C10.595 1.71423 10.863 1.82738 11.089 2.05361C11.3152 2.27996 11.4285 2.54784 11.4285 2.85732V7.42871H15.4285C23.9169 7.42871 29.125 9.82758 31.0538 14.6252C31.6846 16.2202 31.9999 18.2026 31.9999 20.5717C31.9999 22.5477 31.244 25.2322 29.7321 28.6252C29.6964 28.7087 29.6342 28.8512 29.5447 29.0535C29.4553 29.2557 29.3751 29.4343 29.3037 29.5892C29.232 29.7438 29.1546 29.8748 29.0713 29.9818C28.9286 30.1842 28.7618 30.2857 28.5713 30.2857C28.3927 30.2857 28.2528 30.2262 28.1516 30.1072C28.0506 29.9882 28 29.8392 28 29.6611C28 29.5536 28.0148 29.3962 28.0447 29.1877C28.0745 28.9792 28.0894 28.8397 28.0894 28.7681C28.149 27.9589 28.1788 27.2262 28.1788 26.5719C28.1788 25.3696 28.0745 24.2922 27.8663 23.3399C27.6578 22.3874 27.3692 21.5631 27 20.8666C26.631 20.1699 26.1549 19.5691 25.5714 19.0631C24.9882 18.5571 24.3603 18.1436 23.6877 17.8221C23.015 17.5005 22.2233 17.2476 21.3126 17.0631C20.4019 16.8786 19.4853 16.7506 18.5626 16.6791C17.6399 16.6076 16.5952 16.5721 15.4285 16.5721H11.4285V21.1436C11.4285 21.4531 11.3155 21.721 11.0895 21.9471C10.863 22.1731 10.5953 22.2863 10.2859 22.2863C9.97646 22.2863 9.70851 22.1731 9.48197 21.9471L0.339185 12.804C0.112957 12.5778 -6.31125e-05 12.31 -6.31125e-05 12.0005C-5.66946e-07 11.691 0.112958 11.4231 0.338998 11.1964Z"
            fill="#A2AEBD" />
    </g>
    <defs>
        <clipPath id="clip0_50_4">
            <rect width="32" height="32" fill="white" transform="matrix(-1 0 0 1 32 0)" />
        </clipPath>
    </defs>
</svg>
