<svg width="18" height="18" viewBox="0 0 18 18" fill="none" xmlns="http://www.w3.org/2000/svg">
<path fill-rule="evenodd" clip-rule="evenodd" d="M5.10964 0.666992H12.8846C15.718 0.666992 17.3346 2.26699 17.3346 5.10866V12.892C17.3346 15.717 15.7263 17.3337 12.893 17.3337H5.10964C2.26797 17.3337 0.667969 15.717 0.667969 12.892V5.10866C0.667969 2.26699 2.26797 0.666992 5.10964 0.666992ZM9.68464 9.69199H12.0513C12.4346 9.68366 12.743 9.37533 12.743 8.99199C12.743 8.60866 12.4346 8.30033 12.0513 8.30033H9.68464V5.95033C9.68464 5.56699 9.3763 5.25866 8.99297 5.25866C8.60963 5.25866 8.3013 5.56699 8.3013 5.95033V8.30033H5.94297C5.75964 8.30033 5.58464 8.37533 5.4513 8.50033C5.3263 8.63366 5.2513 8.80783 5.2513 8.99199C5.2513 9.37533 5.55964 9.68366 5.94297 9.69199H8.3013V12.0503C8.3013 12.4337 8.60963 12.742 8.99297 12.742C9.3763 12.742 9.68464 12.4337 9.68464 12.0503V9.69199Z" fill="#28C76F"/>
</svg>
