<svg width="22" height="14" viewBox="0 0 22 14" fill="none" xmlns="http://www.w3.org/2000/svg">
<path fill-rule="evenodd" clip-rule="evenodd" d="M0.94 0H17.06C17.5791 0 18 0.420852 18 0.94V1.06C18 1.57915 17.5791 2 17.06 2H0.94C0.420852 2 0 1.57915 0 1.06V0.94C0 0.420852 0.420852 0 0.94 0ZM20.9956 6.00003C20.7332 5.99821 20.4802 6.08965 20.2901 6.25506H20.2915C20.2819 6.26364 20.2729 6.27269 20.2645 6.28219L15.5781 11.7397L12.7525 9.15831C12.6598 9.06743 12.5481 8.99454 12.4239 8.94398C12.2998 8.89343 12.1658 8.86624 12.0299 8.86405C11.894 8.86186 11.759 8.88471 11.633 8.93123C11.507 8.97775 11.3925 9.047 11.2964 9.13483C11.2003 9.22267 11.1246 9.3273 11.0737 9.44248C11.0228 9.55765 10.9978 9.68102 11.0002 9.80522C11.0026 9.92942 11.0323 10.0519 11.0876 10.1654C11.1429 10.2788 11.2227 10.381 11.3221 10.4656L14.8926 13.729C14.9888 13.817 15.1034 13.8863 15.2296 13.9328C15.3558 13.9793 15.4909 14.0021 15.627 13.9998C15.763 13.9975 15.8972 13.9702 16.0214 13.9194C16.1456 13.8686 16.2573 13.7955 16.3499 13.7044L21.734 7.55005C21.9113 7.37323 22.0066 7.14035 21.9996 6.90055C21.9927 6.66075 21.8841 6.4328 21.6968 6.26478C21.5095 6.09677 21.2581 6.00184 20.9956 6.00003ZM8.06 6H0.94C0.420852 6 0 6.42085 0 6.94V7.06C0 7.57915 0.420852 8 0.94 8H8.06C8.57915 8 9 7.57915 9 7.06V6.94C9 6.42085 8.57915 6 8.06 6ZM0.94 12H8.06C8.57915 12 9 12.4209 9 12.94V13.06C9 13.5791 8.57915 14 8.06 14H0.94C0.420852 14 0 13.5791 0 13.06V12.94C0 12.4209 0.420852 12 0.94 12Z" fill="#A2AEBD"/>
</svg>
