<svg width="14" height="14" viewBox="0 0 14 14" fill="none" xmlns="http://www.w3.org/2000/svg">
<path d="M7.00065 0.333496C3.32718 0.333496 0.333984 3.32669 0.333984 7.00016C0.333984 10.6736 3.32718 13.6668 7.00065 13.6668C10.6741 13.6668 13.6673 10.6736 13.6673 7.00016C13.6673 3.32669 10.6741 0.333496 7.00065 0.333496ZM7.54487 9.38112C7.54487 9.65322 7.34079 9.92533 7.00065 9.92533C6.66052 9.92533 6.45643 9.72125 6.45643 9.38112V6.66003C6.45643 6.38792 6.66052 6.11581 7.00065 6.11581C7.34079 6.11581 7.54487 6.31989 7.54487 6.66003V9.38112ZM7.00065 5.29948C6.66052 5.29948 6.32038 4.95935 6.32038 4.61921C6.32038 4.27908 6.66052 3.93894 7.00065 3.93894C7.34079 3.93894 7.68092 4.27908 7.68092 4.61921C7.68092 4.95935 7.34079 5.29948 7.00065 5.29948Z" fill="#A2AEBD"/>
</svg>
