<svg width="12" height="14" viewBox="0 0 12 14" fill="none" xmlns="http://www.w3.org/2000/svg">
<path d="M10.6716 2.34738C9.5037 1.09738 7.7862 0.333496 6 0.333496C4.2138 0.333496 2.4963 1.02794 1.32839 2.34738C0.366592 3.4585 -0.114308 4.84738 0.0230921 6.23627C0.0230921 6.51405 0.0917922 6.79183 0.160492 7.00016C0.778793 9.91683 3.939 12.4863 5.313 13.4585C5.5191 13.5974 5.7252 13.6668 6 13.6668C6.2748 13.6668 6.4809 13.5974 6.687 13.4585C7.9923 12.4863 11.2212 9.91683 11.8395 7.00016C11.9082 6.79183 11.9082 6.51405 11.9769 6.23627C12.1143 4.84738 11.6334 3.4585 10.6716 2.34738ZM6 8.31961C4.9695 8.31961 4.0764 7.48627 4.0764 6.37516C4.0764 5.26405 4.9008 4.43072 6 4.43072C7.0992 4.43072 7.9236 5.26405 7.9236 6.37516C7.9236 7.48627 7.0305 8.31961 6 8.31961Z" fill="#A2AEBD"/>
</svg>
