<svg width="20" height="20" viewBox="0 0 20 20" fill="none" xmlns="http://www.w3.org/2000/svg">
<path d="M18.75 10C18.75 12.9294 16.3669 15.3125 13.4375 15.3125H12.5V17.0538C12.5 17.4494 12.0219 17.6469 11.7425 17.3675L8.75 14.375L11.7425 11.3825C12.0219 11.1031 12.5 11.3013 12.5 11.6963V13.4375H13.4375C15.3325 13.4375 16.875 11.8956 16.875 10C16.875 8.10438 15.3325 6.5625 13.4375 6.5625C12.92 6.5625 12.5 6.14313 12.5 5.625C12.5 5.10688 12.92 4.6875 13.4375 4.6875C16.3669 4.6875 18.75 7.07063 18.75 10Z" fill="#02C5DD"/>
<path d="M11.25 5.62531L8.2575 8.61781C7.97813 8.89718 7.5 8.69906 7.5 8.30406V6.56281H6.5625C4.6675 6.56281 3.125 8.10468 3.125 10.0003C3.125 11.8959 4.6675 13.4378 6.5625 13.4378C7.08 13.4378 7.5 13.8572 7.5 14.3753C7.5 14.8934 7.08 15.3128 6.5625 15.3128C3.63313 15.3128 1.25 12.9297 1.25 10.0003C1.25 7.07093 3.63313 4.68781 6.5625 4.68781H7.5V2.94656C7.5 2.55093 7.97813 2.35343 8.2575 2.63281L11.25 5.62531Z" fill="#02C5DD"/>
</svg>
