<svg width="56" height="56" viewBox="0 0 56 56" fill="none" xmlns="http://www.w3.org/2000/svg">
<path d="M32.9219 4.92188V51.0781C32.9219 53.8015 30.7235 56 28 56H4.92188C2.19833 56 0 53.8015 0 51.0781V4.92188C0 2.19833 2.19833 0 4.92188 0H28C30.7235 0 32.9219 2.19833 32.9219 4.92188Z" fill="#47568C"/>
<path d="M32.9219 4.92188V51.0781C32.9219 53.8015 30.7235 56 28 56H16.5156V0H28C30.7235 0 32.9219 2.19833 32.9219 4.92188Z" fill="#29376D"/>
<path d="M29.6406 4.92188V51.0781C29.6406 51.9968 28.9189 52.7188 28 52.7188H4.92188C4.00302 52.7188 3.28125 51.9968 3.28125 51.0781V4.92188C3.28125 4.00302 4.00302 3.28125 4.92188 3.28125H28C28.9189 3.28125 29.6406 4.00302 29.6406 4.92188Z" fill="#6AA9FF"/>
<path d="M29.6406 4.92188V51.0781C29.6406 51.9968 28.9189 52.7188 28 52.7188H16.5156V3.28125H28C28.9189 3.28125 29.6406 4.00302 29.6406 4.92188Z" fill="#4895FF"/>
<path d="M16.5156 9.84375C17.4217 9.84375 18.1562 9.10922 18.1562 8.20312C18.1562 7.29703 17.4217 6.5625 16.5156 6.5625C15.6095 6.5625 14.875 7.29703 14.875 8.20312C14.875 9.10922 15.6095 9.84375 16.5156 9.84375Z" fill="#EDF5FF"/>
<path d="M19.7969 47.7969C19.7969 48.7155 19.0751 49.4375 18.1562 49.4375H14.875C13.9561 49.4375 13.2344 48.7155 13.2344 47.7969C13.2344 46.878 13.9561 46.1562 14.875 46.1562H18.1562C19.0751 46.1562 19.7969 46.878 19.7969 47.7969Z" fill="#EDF5FF"/>
<path d="M16.5156 9.84375V6.5625C17.4345 6.5625 18.1562 7.28427 18.1562 8.20312C18.1562 9.12177 17.4345 9.84375 16.5156 9.84375Z" fill="#D5E8FE"/>
<path d="M19.7969 47.7969C19.7969 48.7155 19.0751 49.4375 18.1562 49.4375H16.5156V46.1562H18.1562C19.0751 46.1562 19.7969 46.878 19.7969 47.7969Z" fill="#D5E8FE"/>
<path d="M44.4062 13.2344H31.2812C24.9484 13.2344 19.7969 18.3859 19.7969 24.7187C19.7969 27.6718 20.9781 30.5264 23.0781 32.6922V37.8437C23.0781 38.5 23.4719 39.0906 24.0953 39.353C24.6859 39.6156 25.4079 39.4844 25.8671 38.9921L28.9515 35.9405C29.7718 36.1046 30.5266 36.2031 31.2812 36.2031H44.4062C50.7391 36.2031 56 31.0516 56 24.7187C56 18.3859 50.7391 13.2344 44.4062 13.2344Z" fill="#FFDE46"/>
<path d="M56 24.7188C56 31.0516 50.7391 36.2031 44.4062 36.2031H37.8438V13.2344H44.4062C50.7391 13.2344 56 18.3859 56 24.7188Z" fill="#FABE2C"/>
<path d="M31.2812 26.3594C32.1873 26.3594 32.9219 25.6248 32.9219 24.7188C32.9219 23.8127 32.1873 23.0781 31.2812 23.0781C30.3752 23.0781 29.6406 23.8127 29.6406 24.7188C29.6406 25.6248 30.3752 26.3594 31.2812 26.3594Z" fill="#47568C"/>
<path d="M37.8438 26.3594C38.7498 26.3594 39.4844 25.6248 39.4844 24.7188C39.4844 23.8127 38.7498 23.0781 37.8438 23.0781C36.9377 23.0781 36.2031 23.8127 36.2031 24.7188C36.2031 25.6248 36.9377 26.3594 37.8438 26.3594Z" fill="#47568C"/>
<path d="M44.4062 26.3594C45.3123 26.3594 46.0469 25.6248 46.0469 24.7188C46.0469 23.8127 45.3123 23.0781 44.4062 23.0781C43.5002 23.0781 42.7656 23.8127 42.7656 24.7188C42.7656 25.6248 43.5002 26.3594 44.4062 26.3594Z" fill="#29376D"/>
<path d="M39.4844 24.7188C39.4844 25.6374 38.7626 26.3594 37.8438 26.3594V23.0781C38.7626 23.0781 39.4844 23.7999 39.4844 24.7188Z" fill="#29376D"/>
</svg>
