<svg width="10" height="10" viewBox="0 0 10 10" fill="none" xmlns="http://www.w3.org/2000/svg">
<path d="M2.72344 6.76328C3.68174 6.76328 4.4586 5.98643 4.4586 5.02813C4.4586 4.06982 3.68174 3.29297 2.72344 3.29297C1.76514 3.29297 0.988281 4.06982 0.988281 5.02813C0.988281 5.98643 1.76514 6.76328 2.72344 6.76328Z" fill="white"/>
<path d="M8.02031 3.6793C8.97861 3.6793 9.75547 2.90244 9.75547 1.94414C9.75547 0.985841 8.97861 0.208984 8.02031 0.208984C7.06201 0.208984 6.28516 0.985841 6.28516 1.94414C6.28516 2.90244 7.06201 3.6793 8.02031 3.6793Z" fill="white"/>
<path d="M8.02031 9.79063C8.97861 9.79063 9.75547 9.01377 9.75547 8.05547C9.75547 7.09717 8.97861 6.32031 8.02031 6.32031C7.06201 6.32031 6.28516 7.09717 6.28516 8.05547C6.28516 9.01377 7.06201 9.79063 8.02031 9.79063Z" fill="white"/>
<path d="M2.48949 4.56673L2.95898 5.37305L8.2559 2.2888L7.7864 1.48248L2.48949 4.56673Z" fill="white"/>
<path d="M2.48824 5.37278L7.78516 8.45703L8.25465 7.65071L2.95774 4.56646L2.48824 5.37278Z" fill="white"/>
</svg>
