<svg width="25" height="24" viewBox="0 0 25 24" fill="none" xmlns="http://www.w3.org/2000/svg">
<path fill-rule="evenodd" clip-rule="evenodd" d="M21.4263 12.8722L2.46188 19.8996C2.16244 20.1004 1.66338 20 1.36394 19.5984C1.26413 19.498 1.16431 19.1969 1.16431 18.9961C1.16431 18.7953 1.16431 18.6949 1.26413 18.4941L4.9572 11.9686L1.26413 5.44314C1.0645 5.14196 1.0645 4.64 1.36394 4.33882C1.66338 4.03765 2.06263 3.93725 2.46188 4.03765L21.4263 11.0651C21.8256 11.1655 22.125 11.5671 22.125 11.9686C22.125 12.3702 21.8256 12.7718 21.4263 12.8722ZM7.15308 11.9686C7.15308 12.1694 7.15308 12.2698 7.05327 12.4706L4.35832 17.0886L18.2323 11.9686L4.45814 6.84863L7.05327 11.4667C7.15308 11.6675 7.15308 11.7678 7.15308 11.9686Z" fill="black"/>
<mask id="mask0_12275_165401" style="mask-type:alpha" maskUnits="userSpaceOnUse" x="1" y="4" width="22" height="16">
<path fill-rule="evenodd" clip-rule="evenodd" d="M21.4263 12.8722L2.46188 19.8996C2.16244 20.1004 1.66338 20 1.36394 19.5984C1.26413 19.498 1.16431 19.1969 1.16431 18.9961C1.16431 18.7953 1.16431 18.6949 1.26413 18.4941L4.9572 11.9686L1.26413 5.44314C1.0645 5.14196 1.0645 4.64 1.36394 4.33882C1.66338 4.03765 2.06263 3.93725 2.46188 4.03765L21.4263 11.0651C21.8256 11.1655 22.125 11.5671 22.125 11.9686C22.125 12.3702 21.8256 12.7718 21.4263 12.8722ZM7.15308 11.9686C7.15308 12.1694 7.15308 12.2698 7.05327 12.4706L4.35832 17.0886L18.2323 11.9686L4.45814 6.84863L7.05327 11.4667C7.15308 11.6675 7.15308 11.7678 7.15308 11.9686Z" fill="white"/>
</mask>
<g mask="url(#mask0_12275_165401)">
<rect x="24.125" width="48" height="48" transform="rotate(90 24.125 0)" fill="#9B8DFF"/>
</g>
</svg>
