<svg width="15" height="14" viewBox="0 0 15 14" fill="none" xmlns="http://www.w3.org/2000/svg">
<path d="M13.7909 0.721485C13.4574 0.379228 12.9639 0.251721 12.5037 0.385939L1.77265 3.50651C1.28712 3.6414 0.942976 4.02862 0.850271 4.52053C0.755566 5.02116 1.08637 5.65669 1.51854 5.92244L4.87392 7.9847C5.21806 8.1961 5.66224 8.14308 5.94702 7.85585L9.78926 3.9897C9.98268 3.78837 10.3028 3.78837 10.4962 3.9897C10.6896 4.18431 10.6896 4.49973 10.4962 4.70105L6.64731 8.56788C6.36186 8.85444 6.30851 9.30071 6.51859 9.64699L8.56876 13.036C8.80886 13.4387 9.22237 13.6668 9.67588 13.6668C9.72924 13.6668 9.78926 13.6668 9.84262 13.6601C10.3628 13.593 10.7763 13.2373 10.9297 12.734L14.111 2.01669C14.2511 1.56035 14.1244 1.06374 13.7909 0.721485Z" fill="#7966FF"/>
</svg>
