<svg width="20" height="20" viewBox="0 0 20 20" fill="none" xmlns="http://www.w3.org/2000/svg">
<path fill-rule="evenodd" clip-rule="evenodd" d="M8.42 18.4023C8.23 18.76 7.93 19.036 7.63 19.2301C7.01 19.6083 6.25 19.5776 5.58 19.2097L4.38 18.4943C3.74 18.1162 3.34 17.411 3.34 16.6855C3.34 16.3278 3.44 15.9292 3.64 15.6022C3.81 15.3365 3.87 15.0299 3.87 14.7029C3.87 13.6911 3.04 12.8429 2.05 12.8122C0.899999 12.8122 -4.97088e-07 11.872 -4.45716e-07 10.6968L-3.84963e-07 9.30692C-3.33144e-07 8.12145 0.899999 7.18125 2.05 7.18125C3.04 7.16081 3.87 6.31259 3.87 5.30085C3.87 4.96361 3.81 4.65702 3.64 4.40153C3.44 4.0745 3.34 3.66572 3.34 3.31825C3.34 2.58244 3.74 1.87729 4.38 1.49917L5.58 0.794019C6.23 0.415895 7.01 0.395456 7.63 0.77358C7.93 0.937093 8.23 1.24368 8.42 1.59115C8.56 1.87729 8.79 2.06125 9.06 2.23498C9.92 2.74596 11.05 2.43937 11.56 1.57071C12.13 0.558969 13.4 0.231943 14.39 0.814459L15.57 1.49917C16.56 2.09191 16.91 3.35913 16.33 4.38109C15.85 5.27019 16.17 6.425 17.02 6.9462C17.3 7.10972 17.6 7.20169 17.9 7.18125C18.29 7.16081 18.66 7.27323 18.96 7.4674C19.58 7.84553 19.98 8.53024 20 9.27627L20 10.7172C20 11.4735 19.58 12.1582 18.96 12.5363C18.66 12.7203 18.29 12.8429 17.9 12.8122C17.6 12.7918 17.3 12.8838 17.02 13.0473C16.17 13.5685 15.85 14.7233 16.33 15.6226C16.91 16.6344 16.56 17.9118 15.57 18.4943L14.39 19.179C13.4 19.7718 12.13 19.4447 11.56 18.4228C11.05 17.5541 9.92 17.2475 9.06 17.7687C8.79 17.9322 8.56 18.1162 8.42 18.4023ZM9.99 7.10972C8.42 7.10972 7.17 8.4076 7.17 10.0121C7.17 11.6165 8.42 12.8838 9.99 12.8838C11.56 12.8838 12.82 11.6165 12.82 10.0121C12.82 8.4076 11.56 7.10972 9.99 7.10972Z" fill="#A2AEBD"/>
</svg>
