<svg width="24" height="24" viewBox="0 0 24 24" fill="none" xmlns="http://www.w3.org/2000/svg">
<path fill-rule="evenodd" clip-rule="evenodd" d="M21.3013 12.8722L2.33688 19.8996C2.03744 20.1004 1.53838 20 1.23894 19.5984C1.13913 19.498 1.03931 19.1969 1.03931 18.9961C1.03931 18.7953 1.03931 18.6949 1.13913 18.4941L4.8322 11.9686L1.13913 5.44314C0.939501 5.14196 0.939501 4.64 1.23894 4.33882C1.53838 4.03765 1.93763 3.93725 2.33688 4.03765L21.3013 11.0651C21.7006 11.1655 22 11.5671 22 11.9686C22 12.3702 21.7006 12.7718 21.3013 12.8722ZM7.02808 11.9686C7.02808 12.1694 7.02808 12.2698 6.92827 12.4706L4.23332 17.0886L18.1073 11.9686L4.33314 6.84863L6.92827 11.4667C7.02808 11.6675 7.02808 11.7678 7.02808 11.9686Z" fill="black"/>
<mask id="mask0_12275_165285" style="mask-type:alpha" maskUnits="userSpaceOnUse" x="1" y="4" width="21" height="16">
<path fill-rule="evenodd" clip-rule="evenodd" d="M21.3013 12.8722L2.33688 19.8996C2.03744 20.1004 1.53838 20 1.23894 19.5984C1.13913 19.498 1.03931 19.1969 1.03931 18.9961C1.03931 18.7953 1.03931 18.6949 1.13913 18.4941L4.8322 11.9686L1.13913 5.44314C0.939501 5.14196 0.939501 4.64 1.23894 4.33882C1.53838 4.03765 1.93763 3.93725 2.33688 4.03765L21.3013 11.0651C21.7006 11.1655 22 11.5671 22 11.9686C22 12.3702 21.7006 12.7718 21.3013 12.8722ZM7.02808 11.9686C7.02808 12.1694 7.02808 12.2698 6.92827 12.4706L4.23332 17.0886L18.1073 11.9686L4.33314 6.84863L6.92827 11.4667C7.02808 11.6675 7.02808 11.7678 7.02808 11.9686Z" fill="white"/>
</mask>
<g mask="url(#mask0_12275_165285)">
<rect x="24" width="48" height="48" transform="rotate(90 24 0)" fill="#9B8DFF"/>
</g>
</svg>
