<svg width="16" height="18" viewBox="0 0 16 18" fill="none" xmlns="http://www.w3.org/2000/svg">
<path fill-rule="evenodd" clip-rule="evenodd" d="M9.7114 11.717C9.95067 11.4753 9.95067 11.0837 9.7114 10.842L8.70479 9.82533L9.7114 8.80866C9.95067 8.56699 9.95067 8.17533 9.7114 7.93366C9.47212 7.68366 9.07608 7.68366 8.83681 7.93366L7.83021 8.95033L6.82361 7.93366C6.58433 7.68366 6.19654 7.68366 5.95727 7.93366C5.718 8.17533 5.718 8.56699 5.95727 8.80866L6.96387 9.82533L5.95727 10.842C5.718 11.0837 5.718 11.4753 5.95727 11.717C6.07278 11.842 6.22955 11.9003 6.38631 11.9003C6.54308 11.9003 6.7081 11.842 6.82361 11.717L7.83021 10.7003L8.83681 11.717C8.96057 11.842 9.11734 11.9003 9.2741 11.9003C9.43087 11.9003 9.58763 11.842 9.7114 11.717ZM14.1121 6.52163C14.3065 6.5194 14.5167 6.51699 14.7031 6.51699C14.9177 6.51699 15.0827 6.68366 15.0827 6.89199V13.592C15.0827 15.6587 13.4243 17.3337 11.3698 17.3337H4.81041C2.65694 17.3337 0.916016 15.5753 0.916016 13.4087V4.42533C0.916016 2.35866 2.58268 0.666992 4.63714 0.666992H9.04308C9.24935 0.666992 9.42262 0.841992 9.42262 1.05033V3.73366C9.42262 5.25866 10.6685 6.50866 12.1784 6.51699C12.5271 6.51699 12.8391 6.51964 13.1115 6.52195C13.3225 6.52374 13.5097 6.52533 13.6718 6.52533C13.79 6.52533 13.9452 6.52355 14.1121 6.52163ZM14.3374 5.30549C13.6592 5.30799 12.8605 5.30549 12.2854 5.29966C11.3729 5.29966 10.6212 4.54049 10.6212 3.61883V1.42216C10.6212 1.06299 11.0527 0.884659 11.2986 1.14383C11.9339 1.81041 12.9065 2.83193 13.7285 3.69539C14.0616 4.04525 14.37 4.36916 14.6212 4.63299C14.8613 4.88549 14.6856 5.30466 14.3374 5.30549Z" fill="#A2AEBD"/>
</svg>
