<svg width="18" height="18" viewBox="0 0 18 18" fill="none" xmlns="http://www.w3.org/2000/svg">
<g>
<path d="M5.78572 12.8265V14.3571C5.78572 15.5051 4.86735 16.5 3.64286 16.5C2.41837 16.5 1.5 15.5051 1.5 14.3571V12.8265C1.5 11.6786 2.41837 10.6837 3.64286 10.6837C4.86735 10.6837 5.78572 11.6786 5.78572 12.8265Z" fill="white"/>
<path d="M11.1429 8.23469V14.3571C11.1429 15.5051 10.2245 16.5 9 16.5C7.77551 16.5 6.85714 15.5051 6.85714 14.3571V8.23469C6.85714 7.08674 7.77551 6.09184 9 6.09184C10.2245 6.09184 11.1429 7.08674 11.1429 8.23469Z" fill="white"/>
<path d="M16.5 3.64286V14.3571C16.5 15.5051 15.5816 16.5 14.3571 16.5C13.1327 16.5 12.2143 15.5816 12.2143 14.3571V3.64286C12.2143 2.4949 13.1327 1.5 14.3571 1.5C15.5816 1.5 16.5 2.4949 16.5 3.64286Z" fill="white"/>
</g>
</svg>
