<svg width="56" height="56" viewBox="0 0 56 56" fill="none" xmlns="http://www.w3.org/2000/svg">
<rect opacity="0.1" width="56" height="56" rx="6" fill="#7966FF"/>
<path d="M28.0007 20.3478C29.9257 20.3478 31.4917 18.7743 31.4917 16.8404C31.4917 14.9065 29.9257 13.333 28.0007 13.333C26.0758 13.333 24.5098 14.9065 24.5098 16.8404C24.5098 18.7743 26.0758 20.3478 28.0007 20.3478Z" fill="#7966FF"/>
<path d="M28.7356 21.4822C28.658 21.3973 28.5445 21.3545 28.4297 21.3545H27.5734C27.4586 21.3545 27.3452 21.3973 27.2675 21.4822C27.1473 21.6138 27.13 21.8038 27.2152 21.9524L27.6729 22.6457L27.4586 24.4618L27.8805 25.5895C27.9217 25.703 28.0813 25.703 28.1225 25.5895L28.5444 24.4618L28.3301 22.6457L28.7877 21.9524C28.8733 21.8038 28.8558 21.6137 28.7356 21.4822Z" fill="#7966FF"/>
<path d="M22.6241 29.5841H33.3757C33.6499 29.5841 33.873 29.3599 33.873 29.0844V24.584C33.873 23.2728 33.027 22.1084 31.7677 21.6868L30.786 21.384C30.6064 21.3283 30.415 21.4241 30.3505 21.6018L28 28.0811L25.6496 21.6017C25.5975 21.4582 25.4627 21.3682 25.3182 21.3682C25.2838 21.3682 25.2488 21.3732 25.2145 21.3839L24.2402 21.6842C22.973 22.1085 22.127 23.2728 22.127 24.584V29.0844C22.127 29.3599 22.3501 29.5841 22.6241 29.5841Z" fill="#7966FF"/>
<path d="M16.8248 22.1407C18.7498 22.1407 20.3158 20.5673 20.3158 18.6334C20.3158 16.6994 18.7497 15.126 16.8248 15.126C14.9 15.126 13.334 16.6995 13.334 18.6334C13.334 20.5674 14.9 22.1407 16.8248 22.1407Z" fill="#7966FF"/>
<path d="M22.7681 31.7824H19.9876V26.2647C19.9876 24.5102 18.572 23.0879 16.8258 23.0879C15.0797 23.0879 13.6641 24.5102 13.6641 26.2646V33.7599C13.6641 35.4444 15.0232 36.8099 16.6997 36.8099H20.3073V41.8044C20.3073 42.2806 20.6914 42.6665 21.1653 42.6665H24.4962C24.97 42.6665 25.3541 42.2806 25.3541 41.8044V34.3806C25.3541 32.9456 24.1963 31.7824 22.7681 31.7824Z" fill="#7966FF"/>
<path d="M39.1765 22.1407C41.1014 22.1407 42.6674 20.5673 42.6674 18.6334C42.6674 16.6994 41.1013 15.126 39.1765 15.126C37.2517 15.126 35.6855 16.6995 35.6855 18.6334C35.6854 20.5674 37.2516 22.1407 39.1765 22.1407Z" fill="#7966FF"/>
<path d="M39.1766 23.0879C37.4304 23.0879 36.0149 24.5102 36.0149 26.2646V31.7823H33.2345C31.8063 31.7823 30.6484 32.9455 30.6484 34.3805V41.8043C30.6484 42.2805 31.0325 42.6664 31.5064 42.6664H34.8373C35.3112 42.6664 35.6953 42.2805 35.6953 41.8043V36.8098H39.3029C40.9794 36.8098 42.3385 35.4443 42.3385 33.7598V26.2645C42.3385 24.5102 40.9229 23.0879 39.1766 23.0879Z" fill="#7966FF"/>
</svg>
