<svg width="21" height="5" viewBox="0 0 21 5" fill="none" xmlns="http://www.w3.org/2000/svg">
<path d="M16.0555 2.22224C16.0555 3.44955 17.0505 4.44448 18.2778 4.44448C19.5051 4.44448 20.5 3.44955 20.5 2.22224C20.5 0.994931 19.5051 -4.34898e-08 18.2778 -9.71372e-08C17.0505 -1.50785e-07 16.0555 0.994931 16.0555 2.22224Z" fill="#A2AEBD"/>
<path d="M8.27818 2.22224C8.27818 3.44955 9.27311 4.44448 10.5004 4.44448C11.7277 4.44448 12.7227 3.44955 12.7227 2.22224C12.7227 0.994931 11.7277 -4.34898e-08 10.5004 -9.71372e-08C9.27311 -1.50785e-07 8.27818 0.994931 8.27818 2.22224Z" fill="#A2AEBD"/>
<path d="M0.500832 2.22224C0.500832 3.44955 1.49576 4.44448 2.72307 4.44448C3.95038 4.44448 4.94531 3.44955 4.94531 2.22224C4.94531 0.994931 3.95038 -4.34898e-08 2.72307 -9.71372e-08C1.49576 -1.50785e-07 0.500833 0.994931 0.500832 2.22224Z" fill="#A2AEBD"/>
</svg>
