<svg width="21" height="20" viewBox="0 0 21 20" fill="none" xmlns="http://www.w3.org/2000/svg">
<path fill-rule="evenodd" clip-rule="evenodd" d="M15.2122 4.1665H18.1289C19.5456 4.1665 20.6289 5.24984 20.6289 6.6665V15.8332C20.6289 17.2498 19.5456 18.3332 18.1289 18.3332H3.12891C1.71224 18.3332 0.628906 17.2498 0.628906 15.8332V6.6665C0.628906 5.24984 1.71224 4.1665 3.12891 4.1665H6.04557L7.46224 1.99984C7.62891 1.83317 7.87891 1.6665 8.12891 1.6665H13.1289C13.3789 1.6665 13.6289 1.83317 13.7956 1.99984L15.2122 4.1665ZM18.1289 16.6665C18.6289 16.6665 18.9622 16.3332 18.9622 15.8332V6.6665C18.9622 6.1665 18.6289 5.83317 18.1289 5.83317H14.7956C14.5456 5.83317 14.2956 5.6665 14.0456 5.49984L12.6289 3.33317H8.54557L7.12891 5.49984C6.96224 5.6665 6.71224 5.83317 6.46224 5.83317H3.12891C2.62891 5.83317 2.29557 6.1665 2.29557 6.6665V15.8332C2.29557 16.3332 2.62891 16.6665 3.12891 16.6665H18.1289ZM10.6289 6.6665C8.29557 6.6665 6.46224 8.49984 6.46224 10.8332C6.46224 13.1665 8.29557 14.9998 10.6289 14.9998C12.9622 14.9998 14.7956 13.1665 14.7956 10.8332C14.7956 8.49984 12.9622 6.6665 10.6289 6.6665ZM8.12891 10.8332C8.12891 12.2498 9.21224 13.3332 10.6289 13.3332C12.0456 13.3332 13.1289 12.2498 13.1289 10.8332C13.1289 9.4165 12.0456 8.33317 10.6289 8.33317C9.21224 8.33317 8.12891 9.4165 8.12891 10.8332Z" fill="black"/>
<mask id="mask0_12275_165284" style="mask-type:alpha" maskUnits="userSpaceOnUse" x="0" y="1" width="21" height="18">
<path fill-rule="evenodd" clip-rule="evenodd" d="M15.2122 4.1665H18.1289C19.5456 4.1665 20.6289 5.24984 20.6289 6.6665V15.8332C20.6289 17.2498 19.5456 18.3332 18.1289 18.3332H3.12891C1.71224 18.3332 0.628906 17.2498 0.628906 15.8332V6.6665C0.628906 5.24984 1.71224 4.1665 3.12891 4.1665H6.04557L7.46224 1.99984C7.62891 1.83317 7.87891 1.6665 8.12891 1.6665H13.1289C13.3789 1.6665 13.6289 1.83317 13.7956 1.99984L15.2122 4.1665ZM18.1289 16.6665C18.6289 16.6665 18.9622 16.3332 18.9622 15.8332V6.6665C18.9622 6.1665 18.6289 5.83317 18.1289 5.83317H14.7956C14.5456 5.83317 14.2956 5.6665 14.0456 5.49984L12.6289 3.33317H8.54557L7.12891 5.49984C6.96224 5.6665 6.71224 5.83317 6.46224 5.83317H3.12891C2.62891 5.83317 2.29557 6.1665 2.29557 6.6665V15.8332C2.29557 16.3332 2.62891 16.6665 3.12891 16.6665H18.1289ZM10.6289 6.6665C8.29557 6.6665 6.46224 8.49984 6.46224 10.8332C6.46224 13.1665 8.29557 14.9998 10.6289 14.9998C12.9622 14.9998 14.7956 13.1665 14.7956 10.8332C14.7956 8.49984 12.9622 6.6665 10.6289 6.6665ZM8.12891 10.8332C8.12891 12.2498 9.21224 13.3332 10.6289 13.3332C12.0456 13.3332 13.1289 12.2498 13.1289 10.8332C13.1289 9.4165 12.0456 8.33317 10.6289 8.33317C9.21224 8.33317 8.12891 9.4165 8.12891 10.8332Z" fill="white"/>
</mask>
<g mask="url(#mask0_12275_165284)">
<rect x="0.628906" width="20" height="20" fill="#A2AEBD"/>
</g>
</svg>
