<svg width="24" height="24" viewBox="0 0 24 24" fill="none" xmlns="http://www.w3.org/2000/svg">
<rect width="24" height="24" rx="12" fill="#7966FF"/>
<path fill-rule="evenodd" clip-rule="evenodd" d="M5.3334 11.9987C5.3334 8.31936 8.32007 5.33203 12.0001 5.33203C15.6867 5.33203 18.6667 8.31936 18.6667 11.9987C18.6667 15.6794 15.6867 18.6654 12.0001 18.6654C8.32007 18.6654 5.3334 15.6794 5.3334 11.9987ZM11.4134 9.47203C11.4134 9.1527 11.6801 8.88536 12.0001 8.88536C12.3201 8.88536 12.5801 9.1527 12.5801 9.47203V12.4187C12.5801 12.7394 12.3201 12.9987 12.0001 12.9987C11.6801 12.9987 11.4134 12.7394 11.4134 12.4187V9.47203ZM12.0067 15.1194C11.6801 15.1194 11.4201 14.8527 11.4201 14.5327C11.4201 14.2127 11.6801 13.9527 12.0001 13.9527C12.3267 13.9527 12.5867 14.2127 12.5867 14.5327C12.5867 14.8527 12.3267 15.1194 12.0067 15.1194Z" fill="white"/>
</svg>
