<svg width="16" height="16" viewBox="0 0 16 16" fill="none" xmlns="http://www.w3.org/2000/svg">
<path fill-rule="evenodd" clip-rule="evenodd" d="M8.00065 14.6663C4.32065 14.6663 1.33398 11.6863 1.33398 7.99967C1.33398 4.31967 4.32065 1.33301 8.00065 1.33301C11.6873 1.33301 14.6673 4.31967 14.6673 7.99967C14.6673 11.6863 11.6873 14.6663 8.00065 14.6663ZM10.1273 10.473C10.2073 10.5197 10.294 10.5463 10.3873 10.5463C10.554 10.5463 10.7207 10.4597 10.814 10.2997C10.954 10.0663 10.8807 9.75967 10.6407 9.61301L8.26732 8.19967V5.11967C8.26732 4.83967 8.04065 4.61967 7.76732 4.61967C7.49398 4.61967 7.26732 4.83967 7.26732 5.11967V8.48634C7.26732 8.65967 7.36065 8.81967 7.51398 8.91301L10.1273 10.473Z" fill="#A2AEBD"/>
</svg>
