<svg width="32" height="32" viewBox="0 0 32 32" fill="none" xmlns="http://www.w3.org/2000/svg">
<path d="M16.0007 8.34782C17.9257 8.34782 19.4917 6.77432 19.4917 4.84041C19.4917 2.90651 17.9257 1.33301 16.0007 1.33301C14.0758 1.33301 12.5098 2.90651 12.5098 4.84041C12.5098 6.77432 14.0758 8.34782 16.0007 8.34782Z" fill="#7966FF"/>
<path d="M16.7356 9.4822C16.658 9.39726 16.5445 9.35449 16.4297 9.35449H15.5734C15.4586 9.35449 15.3452 9.39726 15.2675 9.4822C15.1473 9.61378 15.13 9.80381 15.2152 9.95236L15.6729 10.6457L15.4586 12.4618L15.8805 13.5895C15.9217 13.703 16.0813 13.703 16.1225 13.5895L16.5444 12.4618L16.3301 10.6457L16.7877 9.95236C16.8733 9.80381 16.8558 9.61368 16.7356 9.4822Z" fill="#7966FF"/>
<path d="M10.6241 17.5841H21.3757C21.6499 17.5841 21.873 17.3599 21.873 17.0844V12.584C21.873 11.2728 21.027 10.1084 19.7677 9.68679L18.786 9.38404C18.6064 9.32827 18.415 9.42413 18.3505 9.60175L16 16.0811L13.6496 9.60165C13.5975 9.45817 13.4627 9.36816 13.3182 9.36816C13.2838 9.36816 13.2488 9.37323 13.2145 9.38394L12.2402 9.68421C10.973 10.1085 10.127 11.2728 10.127 12.584V17.0844C10.127 17.3599 10.3501 17.5841 10.6241 17.5841Z" fill="#7966FF"/>
<path d="M4.82485 10.1407C6.74978 10.1407 8.31581 8.56729 8.31581 6.63338C8.31581 4.69938 6.74969 3.12598 4.82485 3.12598C2.90001 3.12598 1.33398 4.69948 1.33398 6.63338C1.33398 8.56738 2.90001 10.1407 4.82485 10.1407Z" fill="#7966FF"/>
<path d="M10.7681 19.7824H7.98761V14.2647C7.98761 12.5102 6.57201 11.0879 4.82584 11.0879C3.07967 11.0879 1.66406 12.5102 1.66406 14.2646V21.7599C1.66406 23.4444 3.02317 24.8099 4.69971 24.8099H8.30732V29.8044C8.30732 30.2806 8.69142 30.6665 9.16529 30.6665H12.4962C12.97 30.6665 13.3541 30.2806 13.3541 29.8044V22.3806C13.3541 20.9456 12.1963 19.7824 10.7681 19.7824Z" fill="#7966FF"/>
<path d="M27.1765 10.1407C29.1014 10.1407 30.6674 8.56729 30.6674 6.63338C30.6674 4.69938 29.1013 3.12598 27.1765 3.12598C25.2517 3.12598 23.6855 4.69948 23.6855 6.63338C23.6854 8.56738 25.2516 10.1407 27.1765 10.1407Z" fill="#7966FF"/>
<path d="M27.1766 11.0879C25.4304 11.0879 24.0149 12.5102 24.0149 14.2646V19.7823H21.2345C19.8063 19.7823 18.6484 20.9455 18.6484 22.3805V29.8043C18.6484 30.2805 19.0325 30.6664 19.5064 30.6664H22.8373C23.3112 30.6664 23.6953 30.2805 23.6953 29.8043V24.8098H27.3029C28.9794 24.8098 30.3385 23.4443 30.3385 21.7598V14.2645C30.3385 12.5102 28.9229 11.0879 27.1766 11.0879Z" fill="#7966FF"/>
</svg>
