<svg width="40" height="30" viewBox="0 0 40 30" fill="none" xmlns="http://www.w3.org/2000/svg">
<path d="M31.2546 29.5542H24.7895H23.0486H22.6727V20.8824H25.5088C26.228 20.8824 26.653 20.0651 26.228 19.4766L20.7111 11.8428C20.3596 11.3524 19.6322 11.3524 19.2808 11.8428L13.7638 19.4766C13.3388 20.0651 13.7556 20.8824 14.483 20.8824H17.3192V29.5542H16.9432H15.2023H7.7074C3.41643 29.3172 0 25.3041 0 20.956C0 17.9564 1.62648 15.3409 4.0376 13.9269C3.81692 13.3303 3.70249 12.6928 3.70249 12.0226C3.70249 8.9576 6.17899 6.48109 9.24397 6.48109C9.90601 6.48109 10.5435 6.59552 11.1402 6.8162C12.9138 3.05649 16.7389 0.449219 21.1851 0.449219C26.9391 0.457392 31.6796 4.86279 32.219 10.4778C36.6408 11.2379 40 15.3328 40 19.967C40 24.92 36.1422 29.211 31.2546 29.5542Z" fill="#A2AEBD"/>
</svg>
