<svg width="54" height="56" viewBox="0 0 54 56" fill="none" xmlns="http://www.w3.org/2000/svg">
<path d="M49.9857 44.8294C49.0316 45.3065 48.0775 45.7984 47.1384 46.3202C44.6637 47.6619 42.2337 49.093 39.8485 50.6136C39.282 50.9515 38.7155 51.3093 38.149 51.687C37.928 51.8402 37.7187 52.0097 37.5228 52.1939H0V50.6882C0.000206429 44.8416 2.02186 39.1749 5.72235 34.6485C9.42284 30.1221 14.5745 27.0143 20.3044 25.8518C17.4193 24.6828 15.0305 22.5468 13.5472 19.81C12.0639 17.0731 11.5785 13.9056 12.174 10.8502C12.7696 7.7947 14.4091 5.0414 16.8116 3.06193C19.2141 1.08245 22.2302 0 25.3432 0C28.4562 0 31.4723 1.08245 33.8748 3.06193C36.2774 5.0414 37.9168 7.7947 38.5124 10.8502C39.1079 13.9056 38.6225 17.0731 37.1392 19.81C35.6559 22.5468 33.2671 24.6828 30.382 25.8518C35.1194 26.8158 39.4822 29.1148 42.9557 32.4773C46.4293 35.8399 48.8685 40.1258 49.9857 44.8294Z" fill="#505078"/>
<path d="M41.7434 31.4414C39.3848 31.7548 37.1171 32.555 35.084 33.791C33.051 35.0271 31.297 36.6721 29.9332 38.6217C28.5694 40.5714 27.6256 42.7832 27.1617 45.1168C26.6977 47.4505 26.7238 49.8551 27.2381 52.1781H37.5245C37.7183 51.9992 47.14 46.3045 47.14 46.3045C48.0792 45.7976 49.0333 45.3056 49.9874 44.8137C48.7194 39.598 45.8337 34.9172 41.7434 31.4414Z" fill="#323250"/>
<path d="M41.7415 52.1784C46.6815 52.1784 50.6862 48.1737 50.6862 43.2337C50.6862 38.2937 46.6815 34.2891 41.7415 34.2891C36.8015 34.2891 32.7969 38.2937 32.7969 43.2337C32.7969 48.1737 36.8015 52.1784 41.7415 52.1784Z" fill="#640000"/>
<path d="M41.7426 31.3086C39.3838 31.3086 37.078 32.0081 35.1168 33.3185C33.1555 34.629 31.6269 36.4916 30.7242 38.6708C29.8216 40.8501 29.5854 43.248 30.0456 45.5615C30.5057 47.875 31.6416 50 33.3095 51.6679C34.9774 53.3358 37.1025 54.4717 39.4159 54.9319C41.7294 55.392 44.1274 55.1559 46.3066 54.2532C48.4858 53.3505 50.3484 51.8219 51.6589 49.8607C52.9694 47.8994 53.6688 45.5936 53.6688 43.2348C53.6688 40.0718 52.4123 37.0383 50.1757 34.8017C47.9391 32.5651 44.9057 31.3086 41.7426 31.3086ZM46.528 45.9033C46.6677 46.0419 46.7786 46.2068 46.8543 46.3884C46.93 46.5701 46.969 46.7649 46.969 46.9617C46.969 47.1585 46.93 47.3534 46.8543 47.5351C46.7786 47.7167 46.6677 47.8816 46.528 48.0202C46.3894 48.1599 46.2245 48.2708 46.0429 48.3465C45.8612 48.4222 45.6664 48.4612 45.4696 48.4612C45.2728 48.4612 45.0779 48.4222 44.8963 48.3465C44.7146 48.2708 44.5497 48.1599 44.4111 48.0202L41.7426 45.3368L39.0741 48.0202C38.9355 48.1599 38.7707 48.2708 38.589 48.3465C38.4073 48.4222 38.2125 48.4612 38.0157 48.4612C37.8189 48.4612 37.624 48.4222 37.4424 48.3465C37.2607 48.2708 37.0958 48.1599 36.9572 48.0202C36.8175 47.8816 36.7066 47.7167 36.6309 47.5351C36.5552 47.3534 36.5163 47.1585 36.5163 46.9617C36.5163 46.7649 36.5552 46.5701 36.6309 46.3884C36.7066 46.2068 36.8175 46.0419 36.9572 45.9033L39.6406 43.2348L36.9572 40.5663C36.8182 40.4273 36.708 40.2623 36.6327 40.0807C36.5575 39.8991 36.5188 39.7044 36.5188 39.5079C36.5188 39.3113 36.5575 39.1166 36.6327 38.935C36.708 38.7534 36.8182 38.5884 36.9572 38.4494C37.0962 38.3104 37.2612 38.2002 37.4429 38.1249C37.6245 38.0497 37.8191 38.011 38.0157 38.011C38.2123 38.011 38.4069 38.0497 38.5885 38.1249C38.7701 38.2002 38.9351 38.3104 39.0741 38.4494L41.7426 41.1328L44.4111 38.4494C44.5501 38.3104 44.7151 38.2002 44.8967 38.1249C45.0783 38.0497 45.273 38.011 45.4696 38.011C45.6661 38.011 45.8608 38.0497 46.0424 38.1249C46.224 38.2002 46.389 38.3104 46.528 38.4494C46.667 38.5884 46.7773 38.7534 46.8525 38.935C46.9277 39.1166 46.9664 39.3113 46.9664 39.5079C46.9664 39.7044 46.9277 39.8991 46.8525 40.0807C46.7773 40.2623 46.667 40.4273 46.528 40.5663L43.8446 43.2348L46.528 45.9033Z" fill="#E0699A"/>
</svg>
