<svg width="56" height="48" viewBox="0 0 56 48" fill="none" xmlns="http://www.w3.org/2000/svg">
<path d="M26.3179 47.1316C26.3174 47.1316 26.3181 47.1316 26.3176 47.1316C19.0566 47.1316 12.9475 46.7909 8.18771 46.3734C5.25373 46.116 3.41666 43.0787 4.54148 40.3567C7.66151 32.806 11.5136 25.347 16.0325 18.113C19.1085 13.1888 22.0779 9.03835 24.5889 5.77285C26.3401 3.49544 29.7661 3.49479 31.5174 5.77208C34.016 9.02129 36.9695 13.1482 40.0302 18.0421C44.526 25.2308 48.3637 32.6428 51.4785 40.147C52.6095 42.8714 50.7653 45.9132 47.8268 46.1715C40.5707 46.8092 33.3596 47.1316 26.3179 47.1316Z" fill="#DD636E"/>
<path d="M29.0792 4.18549C28.2272 4.40949 27.4296 4.94379 26.8399 5.78718C24.5364 9.08156 21.8126 13.2692 18.9911 18.2371C14.8456 25.5354 11.3118 33.0605 8.45024 40.6775C7.51486 43.1658 8.81118 45.9153 11.0658 46.6028C10.0577 46.53 9.0984 46.4525 8.18785 46.373C5.25343 46.1154 3.41713 43.0786 4.54118 40.3557C7.66132 32.8059 11.5139 25.3468 16.0329 18.1126C19.1089 13.1888 22.0779 9.03748 24.5892 5.77285C25.6977 4.33096 27.4785 3.80159 29.0792 4.18549Z" fill="#DA4A54"/>
<path d="M48.3262 25.7556V25.439C48.3262 24.3225 49.1907 23.3967 50.3047 23.3202L53.731 23.0852C54.9583 23.0009 56.0001 23.9738 56.0001 25.204V25.9906C56.0001 27.2207 54.9582 28.1936 53.731 28.1094L50.3047 27.8744C49.1908 27.798 48.3262 26.8722 48.3262 25.7556Z" fill="#DD636E"/>
<path d="M45.6813 15.5722L45.523 15.298C44.9648 14.3311 45.2506 13.097 46.177 12.4739L49.0268 10.5572C50.0475 9.87064 51.4362 10.1922 52.0513 11.2575L52.4446 11.9388C53.0597 13.0041 52.6438 14.3676 51.5389 14.9083L48.4541 16.4179C47.4512 16.9088 46.2395 16.5392 45.6813 15.5722Z" fill="#DD636E"/>
<path d="M38.2993 8.07378L38.0251 7.91551C37.0581 7.35726 36.6886 6.14561 37.1794 5.14275L38.689 2.05793C39.2298 0.953028 40.5932 0.537184 41.6585 1.1522L42.3398 1.54551C43.4052 2.16064 43.7267 3.54926 43.0402 4.57006L41.1235 7.41983C40.5004 8.34623 39.2663 8.63203 38.2993 8.07378Z" fill="#DD636E"/>
<path d="M7.67397 25.7556V25.439C7.67397 24.3225 6.80947 23.3967 5.69548 23.3202L2.26909 23.0852C1.04191 23.0009 0 23.9738 0 25.204V25.9906C0 27.2207 1.04191 28.1936 2.26909 28.1094L5.69548 27.8744C6.80936 27.798 7.67397 26.8722 7.67397 25.7556Z" fill="#DD636E"/>
<path d="M10.3179 15.5722L10.4762 15.298C11.0344 14.3311 10.7486 13.097 9.82222 12.4739L6.97245 10.5572C5.95166 9.87064 4.56303 10.1922 3.9479 11.2575L3.55459 11.9388C2.93947 13.0041 3.35542 14.3676 4.46033 14.9083L7.54514 16.4179C8.548 16.9088 9.75966 16.5392 10.3179 15.5722Z" fill="#DD636E"/>
<path d="M17.7004 8.07378L17.9746 7.91551C18.9416 7.35726 19.311 6.14561 18.8203 5.14275L17.3107 2.05793C16.7699 0.953028 15.4065 0.537184 14.3412 1.1522L13.6599 1.54551C12.5945 2.16064 12.273 3.54926 12.9595 4.57006L14.8762 7.41983C15.4993 8.34623 16.7334 8.63203 17.7004 8.07378Z" fill="#DD636E"/>
<path d="M26.7867 15.7003C27.6037 15.6181 28.4208 15.6181 29.2378 15.7003C30.2715 15.8043 31.0628 16.6676 31.101 17.7058C31.2256 21.1018 31.2256 24.4978 31.101 27.8937C31.063 28.9319 30.2715 29.7953 29.2378 29.8992C28.4208 29.9814 27.6037 29.9814 26.7867 29.8992C25.753 29.7952 24.9617 28.9319 24.9235 27.8937C24.7989 24.4978 24.7989 21.1018 24.9235 17.7058C24.9617 16.6675 25.753 15.8042 26.7867 15.7003Z" fill="white"/>
<path d="M26.8459 33.6255C27.6234 33.5884 28.401 33.5884 29.1785 33.6255C30.2501 33.6768 31.1106 34.5394 31.159 35.611C31.2061 36.6558 31.2061 37.7005 31.159 38.7454C31.1106 39.817 30.2501 40.6796 29.1785 40.7309C28.401 40.7681 27.6234 40.7681 26.8459 40.7309C25.7743 40.6796 24.9138 39.817 24.8654 38.7454C24.8183 37.7006 24.8183 36.6559 24.8654 35.611C24.9138 34.5394 25.7743 33.6768 26.8459 33.6255Z" fill="white"/>
</svg>
