<svg width="39" height="56" viewBox="0 0 39 56" fill="none" xmlns="http://www.w3.org/2000/svg">
<path d="M32.6866 55.9707H6.32846C4.85213 55.9707 3.63892 54.806 3.57837 53.331L2.03516 15.6582H36.9799L35.4367 53.331C35.3762 54.806 34.1629 55.9707 32.6866 55.9707Z" fill="#E6E7E8"/>
<path d="M5.03331 49.3072C4.73606 49.3072 4.49689 49.076 4.48285 48.7815C4.47735 48.6329 4.52964 48.4925 4.62872 48.3851C4.72781 48.2778 4.86542 48.2145 5.01129 48.209C5.31432 48.1952 5.57276 48.4319 5.58377 48.7347C5.58955 48.8833 5.54001 49.0237 5.43817 49.131C5.33909 49.2384 5.20395 49.3017 5.05533 49.3072C5.04734 49.3072 5.04184 49.3072 5.03331 49.3072ZM4.94551 47.1081C4.64827 47.1081 4.40606 46.8769 4.39506 46.5796L3.23084 18.209C3.21983 17.9063 3.45652 17.6503 3.75928 17.6365C4.07028 17.62 4.32074 17.8622 4.33175 18.165L5.49322 46.5356C5.50725 46.8384 5.27028 47.0943 4.9678 47.1081C4.95927 47.1081 4.95102 47.1081 4.94551 47.1081Z" fill="white"/>
<path d="M34.1111 15.6582L32.6808 50.5787C32.6202 52.0537 31.407 53.2185 29.9307 53.2185H3.57251C3.57169 53.2185 3.57086 53.2185 3.57031 53.2185L3.57499 53.331C3.63527 54.806 4.84875 55.9707 6.32508 55.9707H32.6832C34.1596 55.9707 35.3728 54.806 35.4333 53.331L36.9765 15.6582H34.1111Z" fill="#D1D3D4"/>
<path d="M28.3483 7.1592H26.0879V3.95663C26.0879 3.02168 25.3274 2.26122 24.3925 2.26122H14.5965C13.6615 2.26122 12.9011 3.02168 12.9011 3.95663V7.1592H10.6406V3.95663C10.6406 1.77517 12.4153 0.000488281 14.5965 0.000488281H24.3925C26.5736 0.000488281 28.3486 1.77517 28.3486 3.95663V7.1592H28.3483Z" fill="#939598"/>
<path d="M26.421 0.557129C26.7747 1.14942 26.9783 1.84135 26.9783 2.57979V5.78236H26.0938V7.1585H28.3545V3.95593C28.3542 2.51318 27.5778 1.24823 26.421 0.557129Z" fill="#808285"/>
<path d="M38.435 15.6221H0.565045C0.252935 15.6221 0 15.3692 0 15.0571V9.98545C0 8.4249 1.26523 7.15967 2.82578 7.15967H36.1742C37.7348 7.15967 39 8.4249 39 9.98545V15.0568C39 15.3689 38.7471 15.6221 38.435 15.6221Z" fill="#808285"/>
<path d="M36.2469 7.15918C36.2474 7.1834 36.2477 7.20734 36.2477 7.23157V12.3029C36.2477 12.615 35.9948 12.868 35.6827 12.868H0V15.0552C0 15.3673 0.252935 15.6203 0.565045 15.6203H38.4347C38.7468 15.6203 38.9997 15.3673 38.9997 15.0552V9.98386C39 8.44753 37.7738 7.19771 36.2469 7.15918Z" fill="#58595B"/>
<path d="M37.3624 7.41846C37.53 7.77983 37.6238 8.18222 37.6238 8.60662V13.678C37.6238 13.9901 37.3709 14.243 37.0588 14.243H0V15.0541C0 15.3663 0.252935 15.6192 0.565045 15.6192H38.4347C38.7468 15.6192 38.9997 15.3663 38.9997 15.0541V9.98277C39 8.84662 38.3293 7.86736 37.3624 7.41846Z" fill="#414042"/>
<path d="M19.4911 46.3114C26.5861 46.3114 32.3377 40.5597 32.3377 33.4648C32.3377 26.3698 26.5861 20.6182 19.4911 20.6182C12.3961 20.6182 6.64453 26.3698 6.64453 33.4648C6.64453 40.5597 12.3961 46.3114 19.4911 46.3114Z" fill="#E63950"/>
<path d="M27.8724 23.7285C29.8047 25.9769 30.9756 28.8987 30.9756 32.0958C30.9756 39.1906 25.2241 44.9424 18.129 44.9424C14.9319 44.9424 12.0098 43.7718 9.76172 41.8391C12.1177 44.5802 15.6073 46.3185 19.5051 46.3185C26.6 46.3185 32.3517 40.567 32.3517 33.4719C32.3517 29.5741 30.6134 26.0845 27.8724 23.7285Z" fill="#D10028"/>
<path d="M25.154 35.983L22.6183 33.4474L25.1061 30.9596C25.9753 30.0904 25.9753 28.6812 25.1061 27.812C24.2369 26.9429 22.8278 26.9429 21.9586 27.812L19.4708 30.2998L17.0312 27.8599C16.162 26.9908 14.7528 26.9908 13.8836 27.8599C13.0145 28.7291 13.0145 30.1383 13.8836 31.0074L16.3233 33.4471L13.8355 35.9349C12.9663 36.8041 12.9663 38.2132 13.8355 39.0824C14.7046 39.9516 16.1138 39.9516 16.983 39.0824L19.4708 36.5946L22.0065 39.1303C22.8757 39.9995 24.2848 39.9995 25.154 39.1303C26.0232 38.2611 26.0232 36.8522 25.154 35.983Z" fill="#FFA91A"/>
<path d="M25.1475 35.9819L22.6118 33.4462L25.0996 30.9584C25.9688 30.0892 25.9688 28.6801 25.0996 27.8109C24.8524 27.5637 24.561 27.3895 24.2513 27.2827C24.5197 28.0622 24.3455 28.9602 23.7234 29.5823L21.2356 32.0701L23.7713 34.6057C24.6405 35.4749 24.6405 36.8841 23.7713 37.7533C22.9022 38.6224 21.493 38.6224 20.6238 37.7533L18.0881 35.2176L15.6003 37.7054C14.9783 38.3274 14.0802 38.5016 13.3008 38.2333C13.4073 38.5429 13.5818 38.8344 13.8287 39.0815C14.6978 39.9507 16.107 39.9507 16.9762 39.0815L19.464 36.5937L21.9997 39.1294C22.8689 39.9986 24.278 39.9986 25.1472 39.1294C26.0164 38.2602 26.0167 36.8511 25.1475 35.9819Z" fill="#F79219"/>
</svg>
