<svg width="56" height="56" viewBox="0 0 56 56" fill="none" xmlns="http://www.w3.org/2000/svg">
<path d="M0 18C0 8.05888 8.05887 0 18 0H38C47.9411 0 56 8.05887 56 18V38C56 47.9411 47.9411 56 38 56H18C8.05888 56 0 47.9411 0 38V18Z" fill="#5A8DEE"/>
<g clip-path="url(#clip0_11954_62768)">
<path d="M15.8959 37.8437C18.3121 37.8437 20.2709 35.885 20.2709 33.4687C20.2709 31.0525 18.3121 29.0938 15.8959 29.0938C13.4796 29.0938 11.5209 31.0525 11.5209 33.4687C11.5209 35.885 13.4796 37.8437 15.8959 37.8437Z" fill="white"/>
<path d="M15.8959 37.8437C12.2773 37.8437 9.33337 40.7877 9.33337 44.4062V45.5C9.33337 46.104 9.82308 46.5937 10.4271 46.5937H21.3646C21.9687 46.5937 22.4584 46.104 22.4584 45.5V44.4062C22.4584 40.7877 19.5144 37.8437 15.8959 37.8437Z" fill="white"/>
<path d="M40.1042 18.0833C42.5205 18.0833 44.4792 16.1246 44.4792 13.7083C44.4792 11.2921 42.5205 9.33333 40.1042 9.33333C37.688 9.33333 35.7292 11.2921 35.7292 13.7083C35.7292 16.1246 37.688 18.0833 40.1042 18.0833Z" fill="white"/>
<path d="M40.1042 18.0833C36.4857 18.0833 33.5417 21.0273 33.5417 24.6458V25.7396C33.5417 26.3436 34.0315 26.8333 34.6355 26.8333H45.573C46.177 26.8333 46.6667 26.3436 46.6667 25.7396V24.6458C46.6667 21.0273 43.7228 18.0833 40.1042 18.0833Z" fill="white"/>
<path d="M9.9839 26.7768C10.1456 26.8634 10.323 26.9062 10.4999 26.9062C10.7121 26.9062 10.9237 26.8446 11.1067 26.7226L14.1124 24.7187H30.1875C30.7915 24.7187 31.2812 24.229 31.2812 23.625V10.4271C31.2812 9.82304 30.7915 9.33333 30.1875 9.33333H10.5C9.89596 9.33333 9.40625 9.82304 9.40625 10.4271V25.8125C9.40625 26.2159 9.62828 26.5865 9.9839 26.7768ZM14.875 13.7812H25.8125C26.4165 13.7812 26.9062 14.271 26.9062 14.875C26.9062 15.479 26.4165 15.9687 25.8125 15.9687H14.875C14.271 15.9687 13.7812 15.479 13.7812 14.875C13.7812 14.271 14.271 13.7812 14.875 13.7812ZM14.875 18.1562H21.4375C22.0415 18.1562 22.5312 18.646 22.5312 19.25C22.5312 19.854 22.0415 20.3437 21.4375 20.3437H14.875C14.271 20.3437 13.7812 19.854 13.7812 19.25C13.7812 18.646 14.271 18.1562 14.875 18.1562Z" fill="white"/>
<path d="M46.0939 29.2258C45.7409 29.0347 45.3116 29.0522 44.9754 29.2714L41.8936 31.2812H25.8125C25.2085 31.2812 24.7188 31.771 24.7188 32.375V45.5729C24.7188 46.177 25.2085 46.6667 25.8125 46.6667H45.5729C46.177 46.6667 46.6667 46.177 46.6667 45.5729V30.1875C46.6667 29.7861 46.4467 29.417 46.0939 29.2258ZM36.75 42.2187H30.1875C29.5835 42.2187 29.0937 41.729 29.0937 41.125C29.0937 40.521 29.5835 40.0312 30.1875 40.0312H36.75C37.354 40.0312 37.8437 40.521 37.8437 41.125C37.8437 41.729 37.354 42.2187 36.75 42.2187ZM41.125 37.8437H30.1875C29.5835 37.8437 29.0937 37.354 29.0937 36.75C29.0937 36.146 29.5835 35.6562 30.1875 35.6562H41.125C41.729 35.6562 42.2187 36.146 42.2187 36.75C42.2187 37.354 41.729 37.8437 41.125 37.8437Z" fill="white"/>
</g>
<defs>
<clipPath id="clip0_11954_62768">
<rect width="37.3333" height="37.3333" fill="white" transform="translate(9.33337 9.33333)"/>
</clipPath>
</defs>
</svg>
