<svg width="56" height="56" viewBox="0 0 56 56" fill="none" xmlns="http://www.w3.org/2000/svg">
<path d="M52.0945 4.1852L51.8142 3.90449C46.6078 -1.3015 38.1667 -1.3015 32.9602 3.90449L22.8755 13.9892C17.6691 19.1956 17.6691 27.6372 22.8755 32.8432L23.1558 33.1239C28.3622 38.3298 36.8037 38.3298 42.0097 33.1239L52.0945 23.0391C57.3009 17.8327 57.3009 9.39162 52.0945 4.1852ZM46.9666 18.1912L37.1622 27.9956C35.939 29.2188 34.3129 29.8926 32.583 29.8926C30.8531 29.8926 29.227 29.2188 28.0038 27.9956C25.4787 25.4706 25.4787 21.3622 28.0038 18.8372L37.8082 9.03273C39.0314 7.80952 40.6575 7.13576 42.3874 7.13576C44.1173 7.13576 45.7434 7.80952 46.9666 9.03273C49.4917 11.5578 49.4917 15.6662 46.9666 18.1912Z" fill="#7E9BCC"/>
<path d="M46.9666 18.191L37.1622 27.9955C35.939 29.2187 34.3129 29.8925 32.583 29.8925C30.853 29.8925 29.2269 29.2187 28.0037 27.9955L23.0156 32.9832L23.1558 33.1237C28.3622 38.3297 36.8037 38.3297 42.0097 33.1237L52.0944 23.039C57.3009 17.8326 57.3009 9.39105 52.0944 4.18506L51.9543 4.04492L46.9666 9.03259C49.4917 11.5576 49.4917 15.666 46.9666 18.191Z" fill="#5877A6"/>
<path d="M28.6266 36.4297C28.4373 36.6861 28.2275 36.9313 27.9955 37.1633L18.1915 46.9673C16.9679 48.1905 15.3418 48.8643 13.6119 48.8643C11.8824 48.8643 10.2558 48.1905 9.03263 46.9673C7.80942 45.7441 7.13565 44.118 7.13565 42.3881C7.13565 40.6582 7.80942 39.0321 9.03263 37.8089L18.8371 28.0044C20.0603 26.7812 21.6864 26.1074 23.4163 26.1074C25.1462 26.1074 26.7727 26.7812 27.9955 28.0044L28.0041 27.9959C29.2273 29.2191 30.8538 29.8928 32.5833 29.8928C33.9872 29.8928 35.3228 29.4489 36.4298 28.6282C35.8099 26.6261 34.7084 24.7415 33.1238 23.1564L32.8435 22.8762C27.6371 17.6702 19.1955 17.6702 13.9895 22.8762L3.90482 32.9609C-1.30161 38.1673 -1.30161 46.6084 3.90482 51.8148L4.18509 52.0951C9.39151 57.3015 17.8326 57.3015 23.039 52.0951L33.1238 42.0108C34.7306 40.404 35.8406 38.4886 36.4554 36.4558C33.9061 37.2274 31.1717 37.2184 28.6266 36.4297Z" fill="#AECEF2"/>
<path d="M28.0039 27.9957C29.2271 29.2189 30.8532 29.8927 32.5831 29.8927C33.9871 29.8927 35.3226 29.4488 36.4296 28.6281C35.8097 26.626 34.7083 24.7414 33.1232 23.1563L32.9835 23.0166L28.0039 27.9957Z" fill="#91B6E3"/>
<path d="M28.6265 36.4297C28.4373 36.686 28.2275 36.9313 27.9955 37.1633L18.1915 46.9673C16.9678 48.1905 15.3417 48.8643 13.6118 48.8643C11.8823 48.8643 10.2558 48.1905 9.03259 46.9673L4.04492 51.9554L4.18506 52.0955C9.39148 57.3019 17.8326 57.3019 23.039 52.0955L33.1237 42.0108C34.7306 40.4039 35.8406 38.489 36.4554 36.4562C33.906 37.2274 31.1716 37.2184 28.6265 36.4297Z" fill="#91B6E3"/>
</svg>
