<svg width="16" height="16" viewBox="0 0 16 16" fill="none" xmlns="http://www.w3.org/2000/svg">
<path d="M6.08173 1.07692V3C6.08173 3.15301 6.02095 3.29975 5.91275 3.40795C5.80456 3.51614 5.65782 3.57692 5.50481 3.57692C5.3518 3.57692 5.20506 3.51614 5.09686 3.40795C4.98867 3.29975 4.92788 3.15301 4.92788 3V1.07692C4.92788 0.923914 4.98867 0.777171 5.09686 0.668977C5.20506 0.560783 5.3518 0.5 5.50481 0.5C5.65782 0.5 5.80456 0.560783 5.91275 0.668977C6.02095 0.777171 6.08173 0.923914 6.08173 1.07692Z" fill="white"/>
<path d="M15.051 3.42308C15.0151 2.9277 14.8015 2.46195 14.4496 2.11145C14.0977 1.76096 13.6311 1.5493 13.1356 1.51538C12.6356 1.47692 12.0663 1.43846 11.4663 1.40769V3C11.4663 3.35702 11.3245 3.69942 11.0721 3.95187C10.8196 4.20433 10.4772 4.34615 10.1202 4.34615C9.76317 4.34615 9.42077 4.20433 9.16832 3.95187C8.91586 3.69942 8.77404 3.35702 8.77404 3V1.26923H6.85096V3C6.85096 3.35702 6.70914 3.69942 6.45668 3.95187C6.20423 4.20433 5.86183 4.34615 5.50481 4.34615C5.14779 4.34615 4.80539 4.20433 4.55293 3.95187C4.30048 3.69942 4.15865 3.35702 4.15865 3V1.40769C3.55865 1.40769 2.98942 1.47692 2.48173 1.51538C1.98677 1.55086 1.52104 1.76303 1.16945 2.11321C0.817857 2.46339 0.603815 2.92826 0.566346 3.42308C0.450962 4.84615 0.3125 6.86154 0.3125 8.38462C0.3125 9.90769 0.450962 11.9308 0.566346 13.3538C0.604021 13.8478 0.818341 14.3118 1.17008 14.6607C1.52181 15.0096 1.98744 15.2202 2.48173 15.2538C4.02019 15.3692 6.18942 15.5 7.8125 15.5C9.43558 15.5 11.5971 15.3692 13.1356 15.2538C13.6304 15.2217 14.0969 15.0117 14.449 14.6624C14.801 14.3132 15.0149 13.8484 15.051 13.3538C15.174 11.9308 15.3125 9.91539 15.3125 8.38462C15.3125 6.85385 15.174 4.84615 15.051 3.42308ZM4.73558 11.1154C4.53156 11.1154 4.33591 11.0343 4.19165 10.8901C4.04739 10.7458 3.96635 10.5502 3.96635 10.3462C3.96635 10.1421 4.04739 9.94649 4.19165 9.80223C4.33591 9.65797 4.53156 9.57692 4.73558 9.57692C4.93959 9.57692 5.13525 9.65797 5.27951 9.80223C5.42376 9.94649 5.50481 10.1421 5.50481 10.3462C5.50481 10.5502 5.42376 10.7458 5.27951 10.8901C5.13525 11.0343 4.93959 11.1154 4.73558 11.1154ZM4.73558 8.03846C4.53156 8.03846 4.33591 7.95742 4.19165 7.81316C4.04739 7.6689 3.96635 7.47324 3.96635 7.26923C3.96635 7.06522 4.04739 6.86956 4.19165 6.7253C4.33591 6.58104 4.53156 6.5 4.73558 6.5C4.93959 6.5 5.13525 6.58104 5.27951 6.7253C5.42376 6.86956 5.50481 7.06522 5.50481 7.26923C5.50481 7.47324 5.42376 7.6689 5.27951 7.81316C5.13525 7.95742 4.93959 8.03846 4.73558 8.03846ZM7.8125 11.1154C7.60849 11.1154 7.41283 11.0343 7.26857 10.8901C7.12431 10.7458 7.04327 10.5502 7.04327 10.3462C7.04327 10.1421 7.12431 9.94649 7.26857 9.80223C7.41283 9.65797 7.60849 9.57692 7.8125 9.57692C8.01651 9.57692 8.21217 9.65797 8.35643 9.80223C8.50069 9.94649 8.58173 10.1421 8.58173 10.3462C8.58173 10.5502 8.50069 10.7458 8.35643 10.8901C8.21217 11.0343 8.01651 11.1154 7.8125 11.1154ZM7.8125 8.03846C7.60849 8.03846 7.41283 7.95742 7.26857 7.81316C7.12431 7.6689 7.04327 7.47324 7.04327 7.26923C7.04327 7.06522 7.12431 6.86956 7.26857 6.7253C7.41283 6.58104 7.60849 6.5 7.8125 6.5C8.01651 6.5 8.21217 6.58104 8.35643 6.7253C8.50069 6.86956 8.58173 7.06522 8.58173 7.26923C8.58173 7.47324 8.50069 7.6689 8.35643 7.81316C8.21217 7.95742 8.01651 8.03846 7.8125 8.03846ZM10.8894 8.03846C10.6854 8.03846 10.4898 7.95742 10.3455 7.81316C10.2012 7.6689 10.1202 7.47324 10.1202 7.26923C10.1202 7.06522 10.2012 6.86956 10.3455 6.7253C10.4898 6.58104 10.6854 6.5 10.8894 6.5C11.0934 6.5 11.2891 6.58104 11.4334 6.7253C11.5776 6.86956 11.6587 7.06522 11.6587 7.26923C11.6587 7.47324 11.5776 7.6689 11.4334 7.81316C11.2891 7.95742 11.0934 8.03846 10.8894 8.03846Z" fill="white"/>
<path d="M10.6971 1.07692V3C10.6971 3.15301 10.6363 3.29975 10.5281 3.40795C10.4199 3.51614 10.2732 3.57692 10.1202 3.57692C9.96718 3.57692 9.82044 3.51614 9.71225 3.40795C9.60405 3.29975 9.54327 3.15301 9.54327 3V1.07692C9.54327 0.923914 9.60405 0.777171 9.71225 0.668977C9.82044 0.560783 9.96718 0.5 10.1202 0.5C10.2732 0.5 10.4199 0.560783 10.5281 0.668977C10.6363 0.777171 10.6971 0.923914 10.6971 1.07692Z" fill="white"/>
</svg>
