<svg width="24" height="24" viewBox="0 0 24 24" fill="none" xmlns="http://www.w3.org/2000/svg">
<rect width="24" height="24" rx="12" fill="#FF9F43"/>
<path fill-rule="evenodd" clip-rule="evenodd" d="M8.07601 7H11.9374C13.5521 7 14.6794 8.11269 14.6794 9.70728V14.2927C14.6794 15.8873 13.5521 17 11.9374 17H8.07601C6.46133 17 5.33398 15.8873 5.33398 14.2927V9.70728C5.33398 8.11269 6.46133 7 8.07601 7ZM17.306 8.58599C17.5986 8.43709 17.942 8.45266 18.2213 8.62863C18.5006 8.80393 18.6673 9.10849 18.6673 9.44149V14.5589C18.6673 14.8926 18.5006 15.1965 18.2213 15.3718C18.0686 15.4672 17.898 15.5159 17.726 15.5159C17.5826 15.5159 17.4393 15.4821 17.3053 15.4137L16.318 14.9156C15.9526 14.7302 15.726 14.3579 15.726 13.9444V10.0554C15.726 9.64115 15.9526 9.2689 16.318 9.08481L17.306 8.58599Z" fill="white"/>
</svg>
