<svg width="52" height="56" viewBox="0 0 52 56" fill="none" xmlns="http://www.w3.org/2000/svg">
<path d="M27.4967 3.01367C26.4075 3.01367 25.3962 3.34562 24.5586 3.91295C24.8619 4.74562 25.0194 5.70441 25.0194 6.78011V8.3212C29.5448 9.32789 32.7276 11.9975 32.7276 17.0622V8.22408C32.7276 5.34642 30.3857 3.01367 27.4967 3.01367Z" fill="#3D5959"/>
<path d="M20.2309 7.84098C21.9693 7.84098 23.6246 8.00012 25.1287 8.34531V6.77983C25.1287 2.48073 22.6563 0 18.3403 0H15.5492C11.2332 0 7.73438 3.48512 7.73438 7.78422V17.062C7.73438 10.3465 13.3291 7.84098 20.2309 7.84098Z" fill="#537982"/>
<path d="M11.2403 10.0361V7.78422C11.2403 3.59417 14.5643 0.178828 18.729 0.00820313C18.601 0.00328125 18.4718 0 18.3402 0H15.5492C11.2332 0 7.73438 3.48512 7.73438 7.78422V17.062C7.73438 13.7815 9.06995 11.506 11.2403 10.0361Z" fill="#3D5959"/>
<path d="M28.517 45.3831C28.517 42.6727 29.5528 40.1987 31.2506 38.333H25.974V38.4424C25.6008 41.2669 23.1535 43.382 20.2306 43.382C17.3078 43.382 14.8603 41.2669 14.487 38.4424V38.333H5.97131C2.92117 38.333 0.439453 40.754 0.439453 43.7296V51.7073C0.439453 52.1031 0.765281 52.4241 1.16723 52.4241H31.2424C29.5495 50.5595 28.517 48.0891 28.517 45.3831Z" fill="#0592FB"/>
<path d="M5.15538 51.7073V43.7296C5.15538 40.754 7.6371 38.333 10.6872 38.333H5.97131C2.92117 38.333 0.439453 40.754 0.439453 43.7296V51.7073C0.439453 52.1031 0.765281 52.4241 1.16723 52.4241H5.88316C5.4812 52.4241 5.15538 52.103 5.15538 51.7073Z" fill="#0181FB"/>
<path d="M23.7217 34.5879C23.0619 34.7097 22.3816 34.7743 21.686 34.7743H18.7744C18.0789 34.7743 17.3987 34.7097 16.7389 34.5879V38.3323H14.3633C14.6831 41.2326 17.1872 43.4907 20.2303 43.4907C23.2732 43.4907 25.7774 41.2326 26.0971 38.3323H23.7217V34.5879Z" fill="#FFAF9D"/>
<path d="M18.7744 34.7743C18.0789 34.7743 17.3987 34.7097 16.7389 34.5879V38.3323H14.3633C14.5105 39.6675 15.1215 40.8657 16.0339 41.771H18.5328C19.155 41.771 19.6595 41.2665 19.6595 40.6442V34.7743H18.7744Z" fill="#F69380"/>
<path d="M7.8437 24.0989V18.5527H6.03103C4.76294 18.5527 3.73438 19.5467 3.73438 20.7729V23.4607C3.73438 24.6869 4.76294 25.6809 6.03103 25.6809H7.9638C7.88505 25.1645 7.8437 24.6364 7.8437 24.0989Z" fill="#FFCDBE"/>
<path d="M34.4311 18.5527H32.6182V24.0989C32.6182 24.6363 32.5769 25.1645 32.498 25.6808H34.4311C35.6997 25.6808 36.7274 24.6868 36.7274 23.4606V20.7728C36.7274 19.5467 35.6997 18.5527 34.4311 18.5527Z" fill="#FFAF9D"/>
<path d="M20.2309 7.72461C13.329 7.72461 7.73438 10.2301 7.73438 16.9456V24.0985C7.73438 30.0548 12.6775 34.8836 18.775 34.8836H21.6867C27.7844 34.8836 32.7275 30.0547 32.7275 24.0985V16.9456C32.7275 10.2301 27.1327 7.72461 20.2309 7.72461Z" fill="#FFCDBE"/>
<path d="M20.2309 7.72461C13.329 7.72461 7.73438 10.2301 7.73438 16.9456V24.0985C7.73438 30.0548 12.6775 34.8836 18.775 34.8836H21.6867C27.7844 34.8836 32.7275 30.0547 32.7275 24.0985V16.9456C32.7275 10.2301 27.1327 7.72461 20.2309 7.72461Z" fill="#FFCDBE"/>
<path d="M11.2403 24.0985V16.9456C11.2403 10.8092 15.9121 8.18847 21.9839 7.78203C21.411 7.74375 20.826 7.72461 20.2309 7.72461C13.329 7.72461 7.73438 10.2301 7.73438 16.9456V24.0985C7.73438 30.0548 12.6775 34.8836 18.775 34.8836H21.6867C21.7861 34.8836 21.8851 34.8822 21.9839 34.8797C16.0237 34.7258 11.2403 29.9577 11.2403 24.0985Z" fill="#FFAF9D"/>
<path d="M21.3798 24.5501H19.8698C19.0294 24.5501 18.3457 23.8741 18.3457 23.0432V19.5469C18.3457 19.0938 18.713 18.7266 19.166 18.7266C19.619 18.7266 19.9863 19.0938 19.9863 19.5469V22.9095H21.3798C21.8328 22.9095 22.2001 23.2768 22.2001 23.7298C22.2001 24.1828 21.8329 24.5501 21.3798 24.5501Z" fill="#AB5E2E"/>
<path d="M13.5371 21.3006C13.0841 21.3006 12.7168 20.9333 12.7168 20.4803V17.998C12.7168 17.545 13.0841 17.1777 13.5371 17.1777C13.9901 17.1777 14.3574 17.545 14.3574 17.998V20.4803C14.3574 20.9333 13.9901 21.3006 13.5371 21.3006Z" fill="#AB5E2E"/>
<path d="M26.9258 21.3006C26.4726 21.3006 26.1055 20.9333 26.1055 20.4803V17.998C26.1055 17.545 26.4726 17.1777 26.9258 17.1777C27.3789 17.1777 27.7461 17.545 27.7461 17.998V20.4803C27.7461 20.9333 27.3789 21.3006 26.9258 21.3006Z" fill="#AB5E2E"/>
<path d="M20.2307 30.7017C18.0594 30.7017 16.0746 29.4278 15.174 27.4563C14.9857 27.0442 15.1672 26.5576 15.5793 26.3692C15.9915 26.1812 16.478 26.3625 16.6663 26.7746C17.3008 28.1635 18.6999 29.061 20.2307 29.061C21.7616 29.061 23.1606 28.1636 23.7949 26.7747C23.9831 26.3625 24.4697 26.1811 24.8819 26.3692C25.294 26.5574 25.4755 27.0441 25.2873 27.4562C24.387 29.4278 22.4021 30.7017 20.2307 30.7017Z" fill="#AB5E2E"/>
<path d="M38.7297 55.9997C44.9823 55.9997 50.0511 50.9507 50.0511 44.7225C50.0511 38.4943 44.9823 33.4453 38.7297 33.4453C32.477 33.4453 27.4082 38.4943 27.4082 44.7225C27.4082 50.9507 32.477 55.9997 38.7297 55.9997Z" fill="#00C184"/>
<path d="M31.1711 44.7224C31.1711 39.1328 35.2541 34.4939 40.6111 33.6012C39.9991 33.4992 39.3706 33.4453 38.7297 33.4453C32.4771 33.4453 27.4082 38.4943 27.4082 44.7225C27.4082 50.9506 32.4771 55.9997 38.7297 55.9997C39.3707 55.9997 39.9992 55.9458 40.6111 55.8438C35.2541 54.951 31.1711 50.3118 31.1711 44.7224Z" fill="#07B17B"/>
<path d="M38.7484 50.6375C38.144 50.6363 37.5647 50.379 37.1585 49.9315L31.2241 43.3964C31.16 43.3259 31.1266 43.233 31.1313 43.1378C31.1359 43.0428 31.178 42.9533 31.2486 42.8893L33.9066 40.4757C33.9753 40.4133 34.0618 40.3825 34.1478 40.3825C34.2455 40.3825 34.343 40.4221 34.4139 40.5002L38.5832 45.0916C38.6284 45.1412 38.6928 45.1699 38.7599 45.17C38.8272 45.17 38.8918 45.1417 38.9369 45.0922L48.7285 34.395C48.7928 34.3247 48.8824 34.2828 48.9775 34.2787C48.983 34.2783 48.9881 34.2783 48.9934 34.2783C49.083 34.2783 49.1695 34.3118 49.2359 34.3725L51.8843 36.7967C52.0307 36.9306 52.0406 37.1577 51.9067 37.3039L40.3421 49.9379C39.9351 50.3826 39.356 50.6376 38.7531 50.6376H38.7484V50.6375Z" fill="#C7EEFD"/>
</svg>
