<svg width="51" height="56" viewBox="0 0 51 56" fill="none" xmlns="http://www.w3.org/2000/svg">
<path d="M27.4928 3.01367C26.4036 3.01367 25.3923 3.34562 24.5547 3.91295C24.858 4.74562 25.0155 5.70441 25.0155 6.78011V8.3212C29.5409 9.32789 32.7237 11.9975 32.7237 17.0622V8.22408C32.7237 5.34642 30.3817 3.01367 27.4928 3.01367Z" fill="#3D5959"/>
<path d="M20.227 7.84098C21.9654 7.84098 23.6207 8.00012 25.1248 8.34531V6.77983C25.1248 2.48073 22.6524 0 18.3363 0H15.5453C11.2293 0 7.73047 3.48512 7.73047 7.78422V17.062C7.73047 10.3465 13.3252 7.84098 20.227 7.84098Z" fill="#537982"/>
<path d="M11.2364 10.0361V7.78422C11.2364 3.59417 14.5604 0.178828 18.7251 0.00820313C18.5971 0.00328125 18.4679 0 18.3363 0H15.5453C11.2293 0 7.73047 3.48512 7.73047 7.78422V17.062C7.73047 13.7815 9.06605 11.506 11.2364 10.0361Z" fill="#3D5959"/>
<path d="M28.515 45.3831C28.515 42.6727 29.5508 40.1987 31.2486 38.333H25.9721V38.4424C25.5989 41.2669 23.1515 43.382 20.2287 43.382C17.3059 43.382 14.8584 41.2669 14.4851 38.4424V38.333H5.96936C2.91922 38.333 0.4375 40.754 0.4375 43.7296V51.7073C0.4375 52.1031 0.763328 52.4241 1.16528 52.4241H31.2404C29.5475 50.5595 28.515 48.0891 28.515 45.3831Z" fill="#0592FB"/>
<path d="M5.15342 51.7073V43.7296C5.15342 40.754 7.63514 38.333 10.6853 38.333H5.96936C2.91922 38.333 0.4375 40.754 0.4375 43.7296V51.7073C0.4375 52.1031 0.763328 52.4241 1.16528 52.4241H5.88121C5.47925 52.4241 5.15342 52.103 5.15342 51.7073Z" fill="#0181FB"/>
<path d="M23.7217 34.5879C23.0619 34.7097 22.3816 34.7743 21.686 34.7743H18.7744C18.0789 34.7743 17.3987 34.7097 16.7389 34.5879V38.3323H14.3633C14.6831 41.2326 17.1872 43.4907 20.2303 43.4907C23.2732 43.4907 25.7774 41.2326 26.0971 38.3323H23.7217V34.5879Z" fill="#FFAF9D"/>
<path d="M18.7744 34.7743C18.0789 34.7743 17.3987 34.7097 16.7389 34.5879V38.3323H14.3633C14.5105 39.6675 15.1215 40.8657 16.0339 41.771H18.5328C19.155 41.771 19.6595 41.2665 19.6595 40.6442V34.7743H18.7744Z" fill="#F69380"/>
<path d="M7.8398 24.0989V18.5527H6.02712C4.75903 18.5527 3.73047 19.5467 3.73047 20.7729V23.4607C3.73047 24.6869 4.75903 25.6809 6.02712 25.6809H7.95989C7.88114 25.1645 7.8398 24.6364 7.8398 24.0989Z" fill="#FFCDBE"/>
<path d="M34.4292 18.5527H32.6163V24.0989C32.6163 24.6363 32.575 25.1645 32.4961 25.6808H34.4292C35.6977 25.6808 36.7254 24.6868 36.7254 23.4606V20.7728C36.7254 19.5467 35.6977 18.5527 34.4292 18.5527Z" fill="#FFAF9D"/>
<path d="M20.227 7.72461C13.3251 7.72461 7.73047 10.2301 7.73047 16.9456V24.0985C7.73047 30.0548 12.6736 34.8836 18.7711 34.8836H21.6828C27.7805 34.8836 32.7236 30.0547 32.7236 24.0985V16.9456C32.7236 10.2301 27.1288 7.72461 20.227 7.72461Z" fill="#FFCDBE"/>
<path d="M20.227 7.72461C13.3251 7.72461 7.73047 10.2301 7.73047 16.9456V24.0985C7.73047 30.0548 12.6736 34.8836 18.7711 34.8836H21.6828C27.7805 34.8836 32.7236 30.0547 32.7236 24.0985V16.9456C32.7236 10.2301 27.1288 7.72461 20.227 7.72461Z" fill="#FFCDBE"/>
<path d="M11.2364 24.0985V16.9456C11.2364 10.8092 15.9082 8.18847 21.98 7.78203C21.407 7.74375 20.8221 7.72461 20.227 7.72461C13.3251 7.72461 7.73047 10.2301 7.73047 16.9456V24.0985C7.73047 30.0548 12.6736 34.8836 18.7711 34.8836H21.6828C21.7822 34.8836 21.8812 34.8822 21.98 34.8797C16.0198 34.7258 11.2364 29.9577 11.2364 24.0985Z" fill="#FFAF9D"/>
<path d="M21.3778 24.5501H19.8679C19.0275 24.5501 18.3438 23.8741 18.3438 23.0432V19.5469C18.3438 19.0938 18.711 18.7266 19.1641 18.7266C19.6171 18.7266 19.9844 19.0938 19.9844 19.5469V22.9095H21.3778C21.8308 22.9095 22.1981 23.2768 22.1981 23.7298C22.1981 24.1828 21.831 24.5501 21.3778 24.5501Z" fill="#AB5E2E"/>
<path d="M13.5352 21.3006C13.0821 21.3006 12.7148 20.9333 12.7148 20.4803V17.998C12.7148 17.545 13.0821 17.1777 13.5352 17.1777C13.9882 17.1777 14.3555 17.545 14.3555 17.998V20.4803C14.3555 20.9333 13.9882 21.3006 13.5352 21.3006Z" fill="#AB5E2E"/>
<path d="M26.9219 21.3006C26.4687 21.3006 26.1016 20.9333 26.1016 20.4803V17.998C26.1016 17.545 26.4687 17.1777 26.9219 17.1777C27.375 17.1777 27.7422 17.545 27.7422 17.998V20.4803C27.7422 20.9333 27.375 21.3006 26.9219 21.3006Z" fill="#AB5E2E"/>
<g clip-path="url(#clip0_2732_57160)">
<path d="M39 56.0001C45.6275 56.0001 51.0001 50.6275 51.0001 44C51.0001 37.3726 45.6275 32 39 32C32.3726 32 27 37.3726 27 44C27 50.6275 32.3726 56.0001 39 56.0001Z" fill="#E24C4B"/>
<path d="M51 44C51 50.6 45.6 56 39 56C35.175 56 31.8 54.275 29.625 51.5C31.65 53.15 34.275 54.125 37.125 54.125C43.725 54.125 49.125 48.725 49.125 42.125C49.125 39.275 48.15 36.65 46.5 34.625C49.275 36.7999 51 40.1749 51 44Z" fill="#D1403F"/>
<path d="M44.475 49.475C44.025 49.9249 43.2749 49.9249 42.825 49.475L39 45.65L35.175 49.475C34.725 49.9249 33.975 49.9249 33.525 49.475C33.075 49.025 33.075 48.2749 33.525 47.825L37.35 44L33.525 40.175C33.075 39.725 33.075 38.975 33.525 38.525C33.975 38.075 34.725 38.075 35.175 38.525L39 42.35L42.825 38.525C43.2749 38.075 44.025 38.075 44.475 38.525C44.9249 38.975 44.9249 39.725 44.475 40.175L40.65 44L44.475 47.825C44.9249 48.2749 44.9249 49.0249 44.475 49.475Z" fill="white"/>
</g>
<path d="M20.2288 30.7017C18.0574 30.7017 16.0726 29.4278 15.172 27.4563C14.9838 27.0442 15.1652 26.5576 15.5774 26.3692C15.9896 26.1812 16.4761 26.3625 16.6643 26.7746C17.2988 28.1635 18.6979 29.061 20.2288 29.061C21.7597 29.061 23.1587 28.1636 23.793 26.7747C23.9812 26.3625 24.4678 26.1811 24.8799 26.3692C25.292 26.5574 25.4735 27.0441 25.2854 27.4562C24.385 29.4278 22.4002 30.7017 20.2288 30.7017Z" fill="#AB5E2E"/>
<defs>
<clipPath id="clip0_2732_57160">
<rect width="24" height="24" fill="white" transform="translate(27 32)"/>
</clipPath>
</defs>
</svg>
