<svg width="24" height="25" viewBox="0 0 24 25" fill="none" xmlns="http://www.w3.org/2000/svg">
<rect y="0.148438" width="24" height="24" rx="12" fill="#18D2A6"/>
<path d="M13.7482 18.2421H5.65862C5.01812 18.2421 4.5 17.723 4.5 17.0835C4.5 14.4307 6.65045 12.2812 9.30225 12.2812H10.1046C12.7574 12.2812 14.9068 14.4317 14.9068 17.0835C14.9068 17.723 14.3887 18.2421 13.7482 18.2421Z" fill="white"/>
<path d="M9.70498 11.2576C11.1417 11.2576 12.3065 10.0929 12.3065 8.65615C12.3065 7.2194 11.1417 6.05469 9.70498 6.05469C8.26823 6.05469 7.10352 7.2194 7.10352 8.65615C7.10352 10.0929 8.26823 11.2576 9.70498 11.2576Z" fill="white"/>
<path d="M19.502 9.57558L18.3463 8.41992L15.5337 11.2326L14.1264 9.82625L12.9707 10.9819L15.5347 13.5449L16.6903 12.3892L16.6893 12.3882L19.502 9.57558Z" fill="white"/>
</svg>
