<svg width="56" height="56" viewBox="0 0 56 56" fill="none" xmlns="http://www.w3.org/2000/svg">
<path d="M0 18C0 8.05888 8.05887 0 18 0H38C47.9411 0 56 8.05887 56 18V38C56 47.9411 47.9411 56 38 56H18C8.05888 56 0 47.9411 0 38V18Z" fill="#FF7777"/>
<path fill-rule="evenodd" clip-rule="evenodd" d="M12.4445 28.0234C12.4445 19.8289 18.9933 12.4444 28.0311 12.4444C36.8667 12.4444 43.5556 19.6886 43.5556 27.9766C43.5556 37.5888 35.7156 43.5556 28 43.5556C25.4489 43.5556 22.6178 42.8701 20.3467 41.5303C19.5533 41.0473 18.8845 40.689 18.0289 40.9694L14.8867 41.9042C14.0933 42.1534 13.3778 41.5303 13.6111 40.689L14.6533 37.1994C14.8245 36.7164 14.7933 36.2023 14.5445 35.7972C13.2067 33.3358 12.4445 30.6406 12.4445 28.0234ZM25.9778 28.0234C25.9778 29.1295 26.8645 30.0175 27.9689 30.033C29.0733 30.033 29.96 29.1295 29.96 28.0389C29.96 26.9328 29.0733 26.0448 27.9689 26.0448C26.88 26.0293 25.9778 26.9328 25.9778 28.0234ZM33.1489 28.0389C33.1489 29.1295 34.0356 30.033 35.14 30.033C36.2445 30.033 37.1311 29.1295 37.1311 28.0389C37.1311 26.9328 36.2445 26.0448 35.14 26.0448C34.0356 26.0448 33.1489 26.9328 33.1489 28.0389ZM20.7978 30.033C19.7089 30.033 18.8067 29.1295 18.8067 28.0389C18.8067 26.9328 19.6933 26.0448 20.7978 26.0448C21.9022 26.0448 22.7889 26.9328 22.7889 28.0389C22.7889 29.1295 21.9022 30.0175 20.7978 30.033Z" fill="white"/>
</svg>
