<svg width="24" height="25" viewBox="0 0 24 25" fill="none" xmlns="http://www.w3.org/2000/svg">
<rect y="0.148438" width="24" height="24" rx="12" fill="#FF7777"/>
<path fill-rule="evenodd" clip-rule="evenodd" d="M5.33398 12.1591C5.33398 8.64717 8.14065 5.48242 12.014 5.48242C15.8007 5.48242 18.6673 8.58708 18.6673 12.1391C18.6673 16.2586 15.3073 18.8158 12.0007 18.8158C10.9073 18.8158 9.69398 18.522 8.72065 17.9478C8.38065 17.7408 8.09398 17.5872 7.72732 17.7074L6.38065 18.108C6.04065 18.2149 5.73398 17.9478 5.83398 17.5872L6.28065 16.0917C6.35398 15.8847 6.34065 15.6644 6.23398 15.4908C5.66065 14.4359 5.33398 13.2808 5.33398 12.1591ZM11.134 12.1591C11.134 12.6331 11.514 13.0137 11.9873 13.0204C12.4607 13.0204 12.8407 12.6331 12.8407 12.1658C12.8407 11.6917 12.4607 11.3112 11.9873 11.3112C11.5207 11.3045 11.134 11.6917 11.134 12.1591ZM14.2073 12.1658C14.2073 12.6331 14.5873 13.0204 15.0607 13.0204C15.534 13.0204 15.914 12.6331 15.914 12.1658C15.914 11.6917 15.534 11.3112 15.0607 11.3112C14.5873 11.3112 14.2073 11.6917 14.2073 12.1658ZM8.91398 13.0204C8.44732 13.0204 8.06065 12.6331 8.06065 12.1658C8.06065 11.6917 8.44065 11.3112 8.91398 11.3112C9.38732 11.3112 9.76732 11.6917 9.76732 12.1658C9.76732 12.6331 9.38732 13.0137 8.91398 13.0204Z" fill="white"/>
</svg>
