<svg width="56" height="56" viewBox="0 0 56 56" fill="none" xmlns="http://www.w3.org/2000/svg">
<path d="M0 18C0 8.05888 8.05887 0 18 0H38C47.9411 0 56 8.05887 56 18V38C56 47.9411 47.9411 56 38 56H18C8.05888 56 0 47.9411 0 38V18Z" fill="#43A5FF"/>
<path fill-rule="evenodd" clip-rule="evenodd" d="M34.8614 13.6401L34.8629 14.8062C39.1479 15.142 41.9785 18.0619 41.9831 22.5396L42 35.6464C42.0061 40.5284 38.939 43.5322 34.0228 43.54L22.014 43.5555C17.1285 43.5617 14.023 40.4864 14.0169 35.5904L14 22.6376C13.9939 18.1303 16.7246 15.2182 21.0096 14.8248L21.0081 13.6587C21.0065 12.9746 21.5134 12.46 22.1891 12.46C22.8649 12.4584 23.3717 12.9715 23.3733 13.6556L23.3748 14.744L32.4977 14.7315L32.4962 13.6432C32.4946 12.9591 33.0015 12.446 33.6772 12.4444C34.3376 12.4429 34.8598 12.956 34.8614 13.6401ZM16.3667 23.118L39.6194 23.0869V22.5427C39.5534 19.2 37.8762 17.4462 34.866 17.185L34.8675 18.3821C34.8675 19.0507 34.3469 19.5809 33.6865 19.5809C33.0107 19.5824 32.5023 19.0538 32.5023 18.3852L32.5008 17.1259L23.3779 17.1383L23.3794 18.3961C23.3794 19.0662 22.8741 19.5949 22.1983 19.5949C21.5226 19.5964 21.0142 19.0694 21.0142 18.3992L21.0127 17.2021C18.0178 17.5021 16.3606 19.2621 16.3652 22.6345L16.3667 23.118ZM33.0399 30.1845V30.2016C33.0552 30.9167 33.6388 31.4594 34.3469 31.4438C35.038 31.4267 35.5894 30.8343 35.574 30.1192C35.5417 29.435 34.9873 28.8769 34.2977 28.8784C33.5912 28.894 33.0383 29.4693 33.0399 30.1845ZM34.3085 37.1654C33.602 37.1499 33.0322 36.5606 33.0306 35.8454C33.0153 35.1302 33.582 34.5378 34.2885 34.5207H34.3039C35.0257 34.5207 35.6109 35.11 35.6109 35.8407C35.6124 36.5715 35.0288 37.1638 34.3085 37.1654ZM26.7122 30.2093C26.7429 30.9245 27.3281 31.4827 28.0345 31.4516C28.7257 31.4189 29.277 30.8281 29.2463 30.1129C29.2294 29.4133 28.6612 28.8691 27.97 28.8707C27.2636 28.9018 26.7107 29.4941 26.7122 30.2093ZM28.0407 37.0954C27.3342 37.1265 26.7506 36.5684 26.7183 35.8532C26.7183 35.138 27.2697 34.5472 27.9762 34.5145C28.6673 34.5129 29.2371 35.0571 29.2525 35.7552C29.2847 36.472 28.7318 37.0628 28.0407 37.0954ZM20.3845 30.2637C20.4152 30.9789 21.0004 31.5387 21.7069 31.506C22.398 31.4749 22.9494 30.8825 22.9171 30.1673C22.9018 29.4677 22.3335 28.9235 21.6408 28.9251C20.9343 28.9562 20.383 29.5485 20.3845 30.2637ZM21.713 37.1032C21.0065 37.1359 20.4229 36.5761 20.3907 35.8609C20.3891 35.1457 20.942 34.5534 21.6485 34.5223C22.3396 34.5207 22.9094 35.0649 22.9248 35.7645C22.9571 36.4797 22.4057 37.0721 21.713 37.1032Z" fill="white"/>
</svg>
