<svg width="24" height="25" viewBox="0 0 24 25" fill="none" xmlns="http://www.w3.org/2000/svg">
<rect y="0.148438" width="24" height="24" rx="12" fill="#5A8DEE"/>
<g clip-path="url(#clip0_14426_8653)">
<path d="M6.8125 16.3672C7.84803 16.3672 8.6875 15.5277 8.6875 14.4922C8.6875 13.4567 7.84803 12.6172 6.8125 12.6172C5.77697 12.6172 4.9375 13.4567 4.9375 14.4922C4.9375 15.5277 5.77697 16.3672 6.8125 16.3672Z" fill="white"/>
<path d="M6.8125 16.3672C5.26169 16.3672 4 17.6289 4 19.1797V19.6484C4 19.9073 4.20987 20.1172 4.46875 20.1172H9.15625C9.41512 20.1172 9.625 19.9073 9.625 19.6484V19.1797C9.625 17.6289 8.36331 16.3672 6.8125 16.3672Z" fill="white"/>
<path d="M17.1875 7.89844C18.223 7.89844 19.0625 7.05897 19.0625 6.02344C19.0625 4.9879 18.223 4.14844 17.1875 4.14844C16.152 4.14844 15.3125 4.9879 15.3125 6.02344C15.3125 7.05897 16.152 7.89844 17.1875 7.89844Z" fill="white"/>
<path d="M17.1875 7.89844C15.6367 7.89844 14.375 9.16013 14.375 10.7109V11.1797C14.375 11.4386 14.5849 11.6484 14.8438 11.6484H19.5312C19.7901 11.6484 20 11.4386 20 11.1797V10.7109C20 9.16013 18.7383 7.89844 17.1875 7.89844Z" fill="white"/>
<path d="M4.27881 11.6242C4.34812 11.6613 4.42412 11.6797 4.49997 11.6797C4.59091 11.6797 4.68159 11.6533 4.76 11.601L6.04819 10.7422H12.9375C13.1964 10.7422 13.4062 10.5323 13.4062 10.2734V4.61719C13.4062 4.35831 13.1964 4.14844 12.9375 4.14844H4.5C4.24112 4.14844 4.03125 4.35831 4.03125 4.61719V11.2109C4.03125 11.3838 4.12641 11.5427 4.27881 11.6242ZM6.375 6.05469H11.0625C11.3214 6.05469 11.5312 6.26456 11.5312 6.52344C11.5312 6.78231 11.3214 6.99219 11.0625 6.99219H6.375C6.11613 6.99219 5.90625 6.78231 5.90625 6.52344C5.90625 6.26456 6.11613 6.05469 6.375 6.05469ZM6.375 7.92969H9.1875C9.44637 7.92969 9.65625 8.13956 9.65625 8.39844C9.65625 8.65731 9.44637 8.86719 9.1875 8.86719H6.375C6.11613 8.86719 5.90625 8.65731 5.90625 8.39844C5.90625 8.13956 6.11613 7.92969 6.375 7.92969Z" fill="white"/>
<path d="M19.7545 12.6738C19.6032 12.5918 19.4192 12.5993 19.2752 12.6933L17.9544 13.5547H11.0625C10.8036 13.5547 10.5938 13.7645 10.5938 14.0234V19.6797C10.5938 19.9385 10.8036 20.1484 11.0625 20.1484H19.5312C19.7901 20.1484 20 19.9385 20 19.6797V13.0859C20 12.9139 19.9057 12.7557 19.7545 12.6738ZM15.75 18.2422H12.9375C12.6786 18.2422 12.4688 18.0323 12.4688 17.7734C12.4688 17.5145 12.6786 17.3047 12.9375 17.3047H15.75C16.0089 17.3047 16.2188 17.5145 16.2188 17.7734C16.2188 18.0323 16.0089 18.2422 15.75 18.2422ZM17.625 16.3672H12.9375C12.6786 16.3672 12.4688 16.1573 12.4688 15.8984C12.4688 15.6395 12.6786 15.4297 12.9375 15.4297H17.625C17.8839 15.4297 18.0938 15.6395 18.0938 15.8984C18.0938 16.1573 17.8839 16.3672 17.625 16.3672Z" fill="white"/>
</g>
<defs>
<clipPath id="clip0_14426_8653">
<rect width="16" height="16" fill="white" transform="translate(4 4.14844)"/>
</clipPath>
</defs>
</svg>
