<svg width="24" height="25" viewBox="0 0 24 25" fill="none" xmlns="http://www.w3.org/2000/svg">
<rect y="0.148438" width="24" height="24" rx="12" fill="#43A5FF"/>
<path fill-rule="evenodd" clip-rule="evenodd" d="M14.9406 5.99484L14.9413 6.49459C16.7777 6.63851 17.9908 7.88989 17.9928 9.80893L18 15.4261C18.0026 17.5184 16.6882 18.8058 14.5812 18.8091L9.4346 18.8157C7.3408 18.8184 6.00988 17.5004 6.00725 15.4021L6.00001 9.8509C5.99738 7.91921 7.16769 6.67116 9.00412 6.50258L9.00346 6.00283C9.0028 5.70965 9.22002 5.48909 9.50963 5.48909C9.79925 5.48842 10.0165 5.70831 10.0171 6.0015L10.0178 6.46793L13.9276 6.4626L13.9269 5.99617C13.9263 5.70298 14.1435 5.48309 14.4331 5.48243C14.7161 5.48176 14.9399 5.70165 14.9406 5.99484ZM7.01432 10.0568L16.9798 10.0435V9.81026C16.9514 8.37764 16.2327 7.62602 14.9426 7.51407L14.9432 8.02715C14.9432 8.31367 14.7201 8.54089 14.4371 8.54089C14.1474 8.54156 13.9296 8.31501 13.9296 8.02848L13.9289 7.48875L10.0191 7.49408L10.0197 8.03315C10.0197 8.32034 9.8032 8.54689 9.51358 8.54689C9.22396 8.54756 9.00609 8.32167 9.00609 8.03448L9.00543 7.5214C7.72191 7.65001 7.01169 8.40429 7.01367 9.84957L7.01432 10.0568ZM14.1599 13.0853V13.0926C14.1665 13.3991 14.4166 13.6317 14.7201 13.625C15.0163 13.6177 15.2526 13.3638 15.246 13.0573C15.2322 12.7641 14.9946 12.5249 14.699 12.5256C14.3962 12.5322 14.1593 12.7788 14.1599 13.0853ZM14.7036 16.0771C14.4009 16.0705 14.1567 15.8179 14.156 15.5114C14.1494 15.2049 14.3923 14.951 14.6951 14.9437H14.7017C15.011 14.9437 15.2618 15.1962 15.2618 15.5094C15.2625 15.8226 15.0123 16.0765 14.7036 16.0771ZM11.4481 13.0959C11.4612 13.4025 11.712 13.6417 12.0148 13.6283C12.311 13.6144 12.5473 13.3611 12.5341 13.0546C12.5269 12.7548 12.2834 12.5216 11.9872 12.5222C11.6844 12.5356 11.4474 12.7894 11.4481 13.0959ZM12.0174 16.0471C11.7147 16.0605 11.4645 15.8212 11.4507 15.5147C11.4507 15.2082 11.687 14.955 11.9898 14.941C12.286 14.9404 12.5302 15.1736 12.5368 15.4728C12.5506 15.7799 12.3136 16.0331 12.0174 16.0471ZM8.73622 13.1193C8.74939 13.4258 9.00017 13.6657 9.30295 13.6517C9.59915 13.6383 9.83545 13.3845 9.82163 13.078C9.81504 12.7781 9.5715 12.5449 9.27465 12.5456C8.97187 12.5589 8.73557 12.8128 8.73622 13.1193ZM9.30558 16.0505C9.0028 16.0645 8.75268 15.8246 8.73886 15.5181C8.7382 15.2116 8.97516 14.9577 9.27794 14.9444C9.57414 14.9437 9.81833 15.1769 9.82492 15.4768C9.83874 15.7833 9.60244 16.0371 9.30558 16.0505Z" fill="white"/>
</svg>
