<svg width="56" height="56" viewBox="0 0 56 56" fill="none" xmlns="http://www.w3.org/2000/svg">
<path d="M0 18C0 8.05888 8.05887 0 18 0H38C47.9411 0 56 8.05887 56 18V38C56 47.9411 47.9411 56 38 56H18C8.05888 56 0 47.9411 0 38V18Z" fill="#7966FF"/>
<path fill-rule="evenodd" clip-rule="evenodd" d="M28.5077 12.7706C28.7561 12.5476 29.0847 12.4307 29.4211 12.4457C36.5312 12.6586 42.4735 17.8201 43.5504 24.7188C43.5573 24.7599 43.5573 24.802 43.5504 24.8431C43.5736 25.1696 43.4633 25.4916 43.2439 25.738C43.0245 25.9844 42.714 26.1349 42.3812 26.1561L30.4353 26.9439C30.0403 26.979 29.6485 26.849 29.3562 26.5859C29.0639 26.3228 28.8982 25.951 28.8998 25.5618L28.0969 13.8278V13.6343C28.1115 13.3043 28.2593 12.9936 28.5077 12.7706ZM27.6884 30.0122L38.0424 29.3488L38.1128 29.3764C38.5574 29.3837 38.9809 29.564 39.29 29.8776C39.5991 30.1913 39.7685 30.6125 39.761 31.0488C39.353 36.9942 34.994 41.9619 29.0621 43.2417C23.1302 44.5215 17.0492 41.8062 14.1366 36.5772C13.2801 35.0711 12.7389 33.4124 12.5447 31.6983C12.4694 31.1905 12.4364 30.6774 12.4461 30.1642C12.4657 23.8421 16.9669 18.3852 23.265 17.0481C24.0274 16.9054 24.7919 17.2861 25.1245 17.9741C25.2073 18.099 25.2736 18.2337 25.3217 18.3749C25.4398 20.1974 25.5623 22.0026 25.6842 23.8001C25.7805 25.2198 25.8765 26.6347 25.9697 28.0496C25.9649 28.3829 26.0173 28.7146 26.1247 29.0309C26.3775 29.6531 27.0066 30.0479 27.6884 30.0122Z" fill="white"/>
</svg>
