<svg width="349" height="134" viewBox="0 0 349 134" fill="none" xmlns="http://www.w3.org/2000/svg">
<path d="M7.14062 12.0703C7.14062 11.8359 7.10417 11.6276 7.03125 11.4453C6.96354 11.263 6.84115 11.0964 6.66406 10.9453C6.48698 10.7943 6.23698 10.6484 5.91406 10.5078C5.59635 10.362 5.1901 10.2135 4.69531 10.0625C4.15365 9.89583 3.65365 9.71094 3.19531 9.50781C2.74219 9.29948 2.34635 9.0599 2.00781 8.78906C1.66927 8.51302 1.40625 8.19792 1.21875 7.84375C1.03125 7.48438 0.9375 7.07031 0.9375 6.60156C0.9375 6.13802 1.03385 5.71615 1.22656 5.33594C1.42448 4.95573 1.70312 4.6276 2.0625 4.35156C2.42708 4.07031 2.85677 3.85417 3.35156 3.70312C3.84635 3.54688 4.39323 3.46875 4.99219 3.46875C5.83594 3.46875 6.5625 3.625 7.17188 3.9375C7.78646 4.25 8.25781 4.66927 8.58594 5.19531C8.91927 5.72135 9.08594 6.30208 9.08594 6.9375H7.14062C7.14062 6.5625 7.0599 6.23177 6.89844 5.94531C6.74219 5.65365 6.5026 5.42448 6.17969 5.25781C5.86198 5.09115 5.45833 5.00781 4.96875 5.00781C4.50521 5.00781 4.11979 5.07812 3.8125 5.21875C3.50521 5.35938 3.27604 5.54948 3.125 5.78906C2.97396 6.02865 2.89844 6.29948 2.89844 6.60156C2.89844 6.8151 2.94792 7.01042 3.04688 7.1875C3.14583 7.35938 3.29688 7.52083 3.5 7.67188C3.70312 7.81771 3.95833 7.95573 4.26562 8.08594C4.57292 8.21615 4.9349 8.34115 5.35156 8.46094C5.98177 8.64844 6.53125 8.85677 7 9.08594C7.46875 9.3099 7.85938 9.5651 8.17188 9.85156C8.48438 10.138 8.71875 10.4635 8.875 10.8281C9.03125 11.1875 9.10938 11.5964 9.10938 12.0547C9.10938 12.5339 9.01302 12.9661 8.82031 13.3516C8.6276 13.7318 8.35156 14.0573 7.99219 14.3281C7.63802 14.5938 7.21094 14.7995 6.71094 14.9453C6.21615 15.0859 5.66406 15.1562 5.05469 15.1562C4.50781 15.1562 3.96875 15.0833 3.4375 14.9375C2.91146 14.7917 2.43229 14.5703 2 14.2734C1.56771 13.9714 1.22396 13.5964 0.96875 13.1484C0.713542 12.6953 0.585938 12.1667 0.585938 11.5625H2.54688C2.54688 11.9323 2.60938 12.2474 2.73438 12.5078C2.86458 12.7682 3.04427 12.9818 3.27344 13.1484C3.5026 13.3099 3.76823 13.4297 4.07031 13.5078C4.3776 13.5859 4.70573 13.625 5.05469 13.625C5.51302 13.625 5.89583 13.5599 6.20312 13.4297C6.51562 13.2995 6.75 13.1172 6.90625 12.8828C7.0625 12.6484 7.14062 12.3776 7.14062 12.0703ZM12.6719 6.54688V15H10.7812V6.54688H12.6719ZM10.6562 4.32812C10.6562 4.04167 10.75 3.80469 10.9375 3.61719C11.1302 3.42448 11.3958 3.32812 11.7344 3.32812C12.0677 3.32812 12.3307 3.42448 12.5234 3.61719C12.7161 3.80469 12.8125 4.04167 12.8125 4.32812C12.8125 4.60938 12.7161 4.84375 12.5234 5.03125C12.3307 5.21875 12.0677 5.3125 11.7344 5.3125C11.3958 5.3125 11.1302 5.21875 10.9375 5.03125C10.75 4.84375 10.6562 4.60938 10.6562 4.32812ZM16.6016 8.35156V15H14.7188V6.54688H16.4922L16.6016 8.35156ZM16.2656 10.4609L15.6562 10.4531C15.6615 9.85417 15.7448 9.30469 15.9062 8.80469C16.0729 8.30469 16.3021 7.875 16.5938 7.51562C16.8906 7.15625 17.2448 6.88021 17.6562 6.6875C18.0677 6.48958 18.526 6.39062 19.0312 6.39062C19.4375 6.39062 19.8047 6.44792 20.1328 6.5625C20.4661 6.67188 20.75 6.85156 20.9844 7.10156C21.224 7.35156 21.4062 7.67708 21.5312 8.07812C21.6562 8.47396 21.7188 8.96094 21.7188 9.53906V15H19.8281V9.53125C19.8281 9.125 19.7682 8.80469 19.6484 8.57031C19.5339 8.33073 19.3646 8.16146 19.1406 8.0625C18.9219 7.95833 18.6484 7.90625 18.3203 7.90625C17.9974 7.90625 17.7083 7.97396 17.4531 8.10938C17.1979 8.24479 16.9818 8.42969 16.8047 8.66406C16.6328 8.89844 16.5 9.16927 16.4062 9.47656C16.3125 9.78385 16.2656 10.112 16.2656 10.4609ZM25.5 3V15H23.625V3H25.5ZM25.1719 10.4609L24.5625 10.4531C24.5677 9.86979 24.6484 9.33073 24.8047 8.83594C24.9661 8.34115 25.1901 7.91146 25.4766 7.54688C25.7682 7.17708 26.1172 6.89323 26.5234 6.69531C26.9297 6.49219 27.3802 6.39062 27.875 6.39062C28.2917 6.39062 28.6667 6.44792 29 6.5625C29.3385 6.67708 29.6302 6.86198 29.875 7.11719C30.1198 7.36719 30.3047 7.69531 30.4297 8.10156C30.5599 8.5026 30.625 8.99219 30.625 9.57031V15H28.7344V9.55469C28.7344 9.14844 28.6745 8.82552 28.5547 8.58594C28.4401 8.34635 28.2708 8.17448 28.0469 8.07031C27.8229 7.96094 27.5495 7.90625 27.2266 7.90625C26.888 7.90625 26.5885 7.97396 26.3281 8.10938C26.0729 8.24479 25.8594 8.42969 25.6875 8.66406C25.5156 8.89844 25.3854 9.16927 25.2969 9.47656C25.2135 9.78385 25.1719 10.112 25.1719 10.4609ZM38.3828 8.35156V15H36.5V6.54688H38.2734L38.3828 8.35156ZM38.0469 10.4609L37.4375 10.4531C37.4427 9.85417 37.526 9.30469 37.6875 8.80469C37.8542 8.30469 38.0833 7.875 38.375 7.51562C38.6719 7.15625 39.026 6.88021 39.4375 6.6875C39.849 6.48958 40.3073 6.39062 40.8125 6.39062C41.2188 6.39062 41.5859 6.44792 41.9141 6.5625C42.2474 6.67188 42.5312 6.85156 42.7656 7.10156C43.0052 7.35156 43.1875 7.67708 43.3125 8.07812C43.4375 8.47396 43.5 8.96094 43.5 9.53906V15H41.6094V9.53125C41.6094 9.125 41.5495 8.80469 41.4297 8.57031C41.3151 8.33073 41.1458 8.16146 40.9219 8.0625C40.7031 7.95833 40.4297 7.90625 40.1016 7.90625C39.7786 7.90625 39.4896 7.97396 39.2344 8.10938C38.9792 8.24479 38.763 8.42969 38.5859 8.66406C38.4141 8.89844 38.2812 9.16927 38.1875 9.47656C38.0938 9.78385 38.0469 10.112 38.0469 10.4609ZM47.2812 3V15H45.4062V3H47.2812ZM46.9531 10.4609L46.3438 10.4531C46.349 9.86979 46.4297 9.33073 46.5859 8.83594C46.7474 8.34115 46.9714 7.91146 47.2578 7.54688C47.5495 7.17708 47.8984 6.89323 48.3047 6.69531C48.7109 6.49219 49.1615 6.39062 49.6562 6.39062C50.0729 6.39062 50.4479 6.44792 50.7812 6.5625C51.1198 6.67708 51.4115 6.86198 51.6562 7.11719C51.901 7.36719 52.0859 7.69531 52.2109 8.10156C52.3411 8.5026 52.4062 8.99219 52.4062 9.57031V15H50.5156V9.55469C50.5156 9.14844 50.4557 8.82552 50.3359 8.58594C50.2214 8.34635 50.0521 8.17448 49.8281 8.07031C49.6042 7.96094 49.3307 7.90625 49.0078 7.90625C48.6693 7.90625 48.3698 7.97396 48.1094 8.10938C47.8542 8.24479 47.6406 8.42969 47.4688 8.66406C47.2969 8.89844 47.1667 9.16927 47.0781 9.47656C46.9948 9.78385 46.9531 10.112 46.9531 10.4609ZM59.0781 13.3047V9.27344C59.0781 8.97135 59.0234 8.71094 58.9141 8.49219C58.8047 8.27344 58.638 8.10417 58.4141 7.98438C58.1953 7.86458 57.9193 7.80469 57.5859 7.80469C57.2786 7.80469 57.013 7.85677 56.7891 7.96094C56.5651 8.0651 56.3906 8.20573 56.2656 8.38281C56.1406 8.5599 56.0781 8.76042 56.0781 8.98438H54.2031C54.2031 8.65104 54.2839 8.32812 54.4453 8.01562C54.6068 7.70312 54.8411 7.42448 55.1484 7.17969C55.4557 6.9349 55.8229 6.74219 56.25 6.60156C56.6771 6.46094 57.1562 6.39062 57.6875 6.39062C58.3229 6.39062 58.8854 6.4974 59.375 6.71094C59.8698 6.92448 60.2578 7.2474 60.5391 7.67969C60.8255 8.10677 60.9688 8.64323 60.9688 9.28906V13.0469C60.9688 13.4323 60.9948 13.7786 61.0469 14.0859C61.1042 14.388 61.1849 14.651 61.2891 14.875V15H59.3594C59.2708 14.7969 59.2005 14.5391 59.1484 14.2266C59.1016 13.9089 59.0781 13.6016 59.0781 13.3047ZM59.3516 9.85938L59.3672 11.0234H58.0156C57.6667 11.0234 57.3594 11.0573 57.0938 11.125C56.8281 11.1875 56.6068 11.2812 56.4297 11.4062C56.2526 11.5312 56.1198 11.6823 56.0312 11.8594C55.9427 12.0365 55.8984 12.237 55.8984 12.4609C55.8984 12.6849 55.9505 12.8906 56.0547 13.0781C56.1589 13.2604 56.3099 13.4036 56.5078 13.5078C56.7109 13.612 56.9557 13.6641 57.2422 13.6641C57.6276 13.6641 57.9635 13.5859 58.25 13.4297C58.5417 13.2682 58.7708 13.0729 58.9375 12.8438C59.1042 12.6094 59.1927 12.388 59.2031 12.1797L59.8125 13.0156C59.75 13.2292 59.6432 13.4583 59.4922 13.7031C59.3411 13.9479 59.1432 14.1823 58.8984 14.4062C58.6589 14.625 58.3698 14.8047 58.0312 14.9453C57.6979 15.0859 57.3125 15.1562 56.875 15.1562C56.3229 15.1562 55.8307 15.0469 55.3984 14.8281C54.9661 14.6042 54.6276 14.3047 54.3828 13.9297C54.138 13.5495 54.0156 13.1198 54.0156 12.6406C54.0156 12.1927 54.099 11.7969 54.2656 11.4531C54.4375 11.1042 54.6875 10.8125 55.0156 10.5781C55.349 10.3438 55.7552 10.1667 56.2344 10.0469C56.7135 9.92188 57.2604 9.85938 57.875 9.85938H59.3516ZM58.3125 3L60.4766 5.15625V5.24219H58.9531L57.7578 4.01562L56.5625 5.24219H55.0703V5.14062L57.2031 3H58.3125ZM56.0547 16.8125C56.0547 16.5417 56.1484 16.3151 56.3359 16.1328C56.5286 15.9505 56.7917 15.8594 57.125 15.8594C57.4583 15.8594 57.7214 15.9505 57.9141 16.1328C58.1068 16.3151 58.2031 16.5417 58.2031 16.8125C58.2031 17.0781 58.1068 17.3021 57.9141 17.4844C57.7214 17.6667 57.4583 17.7578 57.125 17.7578C56.7917 17.7578 56.5286 17.6667 56.3359 17.4844C56.1484 17.3021 56.0547 17.0781 56.0547 16.8125ZM66.8125 6.54688V7.92188H62.0469V6.54688H66.8125ZM63.4219 4.47656H65.3047V12.6641C65.3047 12.9245 65.3411 13.125 65.4141 13.2656C65.4922 13.401 65.599 13.4922 65.7344 13.5391C65.8698 13.5859 66.0286 13.6094 66.2109 13.6094C66.3411 13.6094 66.4661 13.6016 66.5859 13.5859C66.7057 13.5703 66.8021 13.5547 66.875 13.5391L66.8828 14.9766C66.7266 15.0234 66.5443 15.0651 66.3359 15.1016C66.1328 15.138 65.8984 15.1562 65.6328 15.1562C65.2005 15.1562 64.8177 15.0807 64.4844 14.9297C64.151 14.7734 63.8906 14.5208 63.7031 14.1719C63.5156 13.8229 63.4219 13.3594 63.4219 12.7812V4.47656Z" fill="#3D5586"/>
<g opacity="0.5">
<circle cx="341" cy="16" r="2" transform="rotate(90 341 16)" fill="#667793"/>
<circle cx="341" cy="9" r="2" transform="rotate(90 341 9)" fill="#667793"/>
<circle cx="341" cy="2" r="2" transform="rotate(90 341 2)" fill="#667793"/>
</g>
<path d="M6.5625 31.1367V32.0566H1.94531V31.1367H6.5625ZM2.12109 27.4688V36H0.990234V27.4688H2.12109ZM7.54688 27.4688V36H6.42188V27.4688H7.54688ZM9.10547 32.9004V32.7656C9.10547 32.3086 9.17188 31.8848 9.30469 31.4941C9.4375 31.0996 9.62891 30.7578 9.87891 30.4688C10.1289 30.1758 10.4316 29.9492 10.7871 29.7891C11.1426 29.625 11.541 29.543 11.9824 29.543C12.4277 29.543 12.8281 29.625 13.1836 29.7891C13.543 29.9492 13.8477 30.1758 14.0977 30.4688C14.3516 30.7578 14.5449 31.0996 14.6777 31.4941C14.8105 31.8848 14.877 32.3086 14.877 32.7656V32.9004C14.877 33.3574 14.8105 33.7812 14.6777 34.1719C14.5449 34.5625 14.3516 34.9043 14.0977 35.1973C13.8477 35.4863 13.5449 35.7129 13.1895 35.877C12.8379 36.0371 12.4395 36.1172 11.9941 36.1172C11.5488 36.1172 11.1484 36.0371 10.793 35.877C10.4375 35.7129 10.1328 35.4863 9.87891 35.1973C9.62891 34.9043 9.4375 34.5625 9.30469 34.1719C9.17188 33.7812 9.10547 33.3574 9.10547 32.9004ZM10.1895 32.7656V32.9004C10.1895 33.2168 10.2266 33.5156 10.3008 33.7969C10.375 34.0742 10.4863 34.3203 10.6348 34.5352C10.7871 34.75 10.9766 34.9199 11.2031 35.0449C11.4297 35.166 11.6934 35.2266 11.9941 35.2266C12.291 35.2266 12.5508 35.166 12.7734 35.0449C13 34.9199 13.1875 34.75 13.3359 34.5352C13.4844 34.3203 13.5957 34.0742 13.6699 33.7969C13.748 33.5156 13.7871 33.2168 13.7871 32.9004V32.7656C13.7871 32.4531 13.748 32.1582 13.6699 31.8809C13.5957 31.5996 13.4824 31.3516 13.3301 31.1367C13.1816 30.918 12.9941 30.7461 12.7676 30.6211C12.5449 30.4961 12.2832 30.4336 11.9824 30.4336C11.6855 30.4336 11.4238 30.4961 11.1973 30.6211C10.9746 30.7461 10.7871 30.918 10.6348 31.1367C10.4863 31.3516 10.375 31.5996 10.3008 31.8809C10.2266 32.1582 10.1895 32.4531 10.1895 32.7656ZM12.2637 27L13.7168 28.5996V28.6582H12.8145L11.9355 27.668L11.0625 28.6582H10.1719V28.5938L11.6074 27H12.2637ZM17.3145 30.9199V36H16.2246V29.6602H17.2559L17.3145 30.9199ZM17.0918 32.5898L16.5879 32.5723C16.5918 32.1387 16.6484 31.7383 16.7578 31.3711C16.8672 31 17.0293 30.6777 17.2441 30.4043C17.459 30.1309 17.7266 29.9199 18.0469 29.7715C18.3672 29.6191 18.7383 29.543 19.1602 29.543C19.457 29.543 19.7305 29.5859 19.9805 29.6719C20.2305 29.7539 20.4473 29.8848 20.6309 30.0645C20.8145 30.2441 20.957 30.4746 21.0586 30.7559C21.1602 31.0371 21.2109 31.377 21.2109 31.7754V36H20.127V31.8281C20.127 31.4961 20.0703 31.2305 19.957 31.0312C19.8477 30.832 19.6914 30.6875 19.4883 30.5977C19.2852 30.5039 19.0469 30.457 18.7734 30.457C18.4531 30.457 18.1855 30.5137 17.9707 30.627C17.7559 30.7402 17.584 30.8965 17.4551 31.0957C17.3262 31.2949 17.2324 31.5234 17.1738 31.7812C17.1191 32.0352 17.0918 32.3047 17.0918 32.5898ZM21.1992 31.9922L20.4727 32.2148C20.4766 31.8672 20.5332 31.5332 20.6426 31.2129C20.7559 30.8926 20.918 30.6074 21.1289 30.3574C21.3438 30.1074 21.6074 29.9102 21.9199 29.7656C22.2324 29.6172 22.5898 29.543 22.9922 29.543C23.332 29.543 23.6328 29.5879 23.8945 29.6777C24.1602 29.7676 24.3828 29.9062 24.5625 30.0938C24.7461 30.2773 24.8848 30.5137 24.9785 30.8027C25.0723 31.0918 25.1191 31.4355 25.1191 31.834V36H24.0293V31.8223C24.0293 31.4668 23.9727 31.1914 23.8594 30.9961C23.75 30.7969 23.5938 30.6582 23.3906 30.5801C23.1914 30.498 22.9531 30.457 22.6758 30.457C22.4375 30.457 22.2266 30.498 22.043 30.5801C21.8594 30.6621 21.7051 30.7754 21.5801 30.9199C21.4551 31.0605 21.3594 31.2227 21.293 31.4062C21.2305 31.5898 21.1992 31.7852 21.1992 31.9922ZM30.8203 31.0137V36H29.7363V29.6602H30.7617L30.8203 31.0137ZM30.5625 32.5898L30.1113 32.5723C30.1152 32.1387 30.1797 31.7383 30.3047 31.3711C30.4297 31 30.6055 30.6777 30.832 30.4043C31.0586 30.1309 31.3281 29.9199 31.6406 29.7715C31.957 29.6191 32.3066 29.543 32.6895 29.543C33.002 29.543 33.2832 29.5859 33.5332 29.6719C33.7832 29.7539 33.9961 29.8867 34.1719 30.0703C34.3516 30.2539 34.4883 30.4922 34.582 30.7852C34.6758 31.0742 34.7227 31.4277 34.7227 31.8457V36H33.6328V31.834C33.6328 31.502 33.584 31.2363 33.4863 31.0371C33.3887 30.834 33.2461 30.6875 33.0586 30.5977C32.8711 30.5039 32.6406 30.457 32.3672 30.457C32.0977 30.457 31.8516 30.5137 31.6289 30.627C31.4102 30.7402 31.2207 30.8965 31.0605 31.0957C30.9043 31.2949 30.7812 31.5234 30.6914 31.7812C30.6055 32.0352 30.5625 32.3047 30.5625 32.5898ZM40.1074 34.916V31.6523C40.1074 31.4023 40.0566 31.1855 39.9551 31.002C39.8574 30.8145 39.709 30.6699 39.5098 30.5684C39.3105 30.4668 39.0645 30.416 38.7715 30.416C38.498 30.416 38.2578 30.4629 38.0508 30.5566C37.8477 30.6504 37.6875 30.7734 37.5703 30.9258C37.457 31.0781 37.4004 31.2422 37.4004 31.418H36.3164C36.3164 31.1914 36.375 30.9668 36.4922 30.7441C36.6094 30.5215 36.7773 30.3203 36.9961 30.1406C37.2188 29.957 37.4844 29.8125 37.793 29.707C38.1055 29.5977 38.4531 29.543 38.8359 29.543C39.2969 29.543 39.7031 29.6211 40.0547 29.7773C40.4102 29.9336 40.6875 30.1699 40.8867 30.4863C41.0898 30.7988 41.1914 31.1914 41.1914 31.6641V34.6172C41.1914 34.8281 41.209 35.0527 41.2441 35.291C41.2832 35.5293 41.3398 35.7344 41.4141 35.9062V36H40.2832C40.2285 35.875 40.1855 35.709 40.1543 35.502C40.123 35.291 40.1074 35.0957 40.1074 34.916ZM40.2949 32.1562L40.3066 32.918H39.2109C38.9023 32.918 38.627 32.9434 38.3848 32.9941C38.1426 33.041 37.9395 33.1133 37.7754 33.2109C37.6113 33.3086 37.4863 33.4316 37.4004 33.5801C37.3145 33.7246 37.2715 33.8945 37.2715 34.0898C37.2715 34.2891 37.3164 34.4707 37.4062 34.6348C37.4961 34.7988 37.6309 34.9297 37.8105 35.0273C37.9941 35.1211 38.2188 35.168 38.4844 35.168C38.8164 35.168 39.1094 35.0977 39.3633 34.957C39.6172 34.8164 39.8184 34.6445 39.9668 34.4414C40.1191 34.2383 40.2012 34.041 40.2129 33.8496L40.6758 34.3711C40.6484 34.5352 40.5742 34.7168 40.4531 34.916C40.332 35.1152 40.1699 35.3066 39.9668 35.4902C39.7676 35.6699 39.5293 35.8203 39.252 35.9414C38.9785 36.0586 38.6699 36.1172 38.3262 36.1172C37.8965 36.1172 37.5195 36.0332 37.1953 35.8652C36.875 35.6973 36.625 35.4727 36.4453 35.1914C36.2695 34.9062 36.1816 34.5879 36.1816 34.2363C36.1816 33.8965 36.248 33.5977 36.3809 33.3398C36.5137 33.0781 36.7051 32.8613 36.9551 32.6895C37.2051 32.5137 37.5059 32.3809 37.8574 32.291C38.209 32.2012 38.6016 32.1562 39.0352 32.1562H40.2949ZM44.584 35.3438L46.3477 29.6602H47.5078L44.9648 36.9785C44.9062 37.1348 44.8281 37.3027 44.7305 37.4824C44.6367 37.666 44.5156 37.8398 44.3672 38.0039C44.2188 38.168 44.0391 38.3008 43.8281 38.4023C43.6211 38.5078 43.373 38.5605 43.084 38.5605C42.998 38.5605 42.8887 38.5488 42.7559 38.5254C42.623 38.502 42.5293 38.4824 42.4746 38.4668L42.4688 37.5879C42.5 37.5918 42.5488 37.5957 42.6152 37.5996C42.6855 37.6074 42.7344 37.6113 42.7617 37.6113C43.0078 37.6113 43.2168 37.5781 43.3887 37.5117C43.5605 37.4492 43.7051 37.3418 43.8223 37.1895C43.9434 37.041 44.0469 36.8359 44.1328 36.5742L44.584 35.3438ZM43.2891 29.6602L44.9355 34.582L45.2168 35.7246L44.4375 36.123L42.1055 29.6602H43.2891Z" fill="#A2AEBD"/>
<circle cx="14" cy="63" r="4" fill="#D4DAE3"/>
<path d="M38.46 65.4844C38.46 65.252 38.4235 65.0469 38.3506 64.8691C38.2822 64.6868 38.1592 64.5228 37.9814 64.377C37.8083 64.2311 37.5667 64.0921 37.2568 63.96C36.9515 63.8278 36.5641 63.6934 36.0947 63.5566C35.6025 63.4108 35.1582 63.249 34.7617 63.0713C34.3652 62.889 34.0257 62.6816 33.7432 62.4492C33.4606 62.2168 33.2441 61.9502 33.0938 61.6494C32.9434 61.3486 32.8682 61.0046 32.8682 60.6172C32.8682 60.2298 32.9479 59.8721 33.1074 59.5439C33.2669 59.2158 33.4948 58.931 33.791 58.6895C34.0918 58.4434 34.4495 58.252 34.8643 58.1152C35.279 57.9785 35.7415 57.9102 36.252 57.9102C36.9993 57.9102 37.6328 58.0537 38.1523 58.3408C38.6764 58.6234 39.0752 58.9948 39.3486 59.4551C39.6221 59.9108 39.7588 60.3984 39.7588 60.918H38.4463C38.4463 60.5443 38.3665 60.2139 38.207 59.9268C38.0475 59.6351 37.806 59.4072 37.4824 59.2432C37.1589 59.0745 36.7487 58.9902 36.252 58.9902C35.7826 58.9902 35.3952 59.0609 35.0898 59.2021C34.7845 59.3434 34.5566 59.5348 34.4062 59.7764C34.2604 60.0179 34.1875 60.2936 34.1875 60.6035C34.1875 60.8132 34.2308 61.0046 34.3174 61.1777C34.4085 61.3464 34.5475 61.5036 34.7344 61.6494C34.9258 61.7952 35.1673 61.9297 35.459 62.0527C35.7552 62.1758 36.1084 62.2943 36.5186 62.4082C37.0837 62.5677 37.5713 62.7454 37.9814 62.9414C38.3916 63.1374 38.7288 63.3584 38.9932 63.6045C39.262 63.846 39.4603 64.1217 39.5879 64.4316C39.7201 64.737 39.7861 65.0833 39.7861 65.4707C39.7861 65.8763 39.7041 66.2432 39.54 66.5713C39.376 66.8994 39.1413 67.1797 38.8359 67.4121C38.5306 67.6445 38.1637 67.8245 37.7354 67.9521C37.3115 68.0752 36.8376 68.1367 36.3135 68.1367C35.8532 68.1367 35.3997 68.0729 34.9531 67.9453C34.5111 67.8177 34.1077 67.6263 33.7432 67.3711C33.3831 67.1159 33.0938 66.8014 32.875 66.4277C32.6608 66.0495 32.5537 65.612 32.5537 65.1152H33.8662C33.8662 65.457 33.9323 65.751 34.0645 65.9971C34.1966 66.2386 34.3766 66.4391 34.6045 66.5986C34.8369 66.7581 35.099 66.8766 35.3906 66.9541C35.6868 67.027 35.9945 67.0635 36.3135 67.0635C36.7738 67.0635 37.1634 66.9997 37.4824 66.8721C37.8014 66.7445 38.043 66.5622 38.207 66.3252C38.3757 66.0882 38.46 65.8079 38.46 65.4844ZM42.6504 60.6035V68H41.3789V60.6035H42.6504ZM41.2832 58.6416C41.2832 58.4365 41.3447 58.2633 41.4678 58.1221C41.5954 57.9808 41.7822 57.9102 42.0283 57.9102C42.2699 57.9102 42.4544 57.9808 42.582 58.1221C42.7142 58.2633 42.7803 58.4365 42.7803 58.6416C42.7803 58.8376 42.7142 59.0062 42.582 59.1475C42.4544 59.2842 42.2699 59.3525 42.0283 59.3525C41.7822 59.3525 41.5954 59.2842 41.4678 59.1475C41.3447 59.0062 41.2832 58.8376 41.2832 58.6416ZM45.9453 62.1826V68H44.6807V60.6035H45.877L45.9453 62.1826ZM45.6445 64.0215L45.1182 64.001C45.1227 63.4951 45.1979 63.028 45.3438 62.5996C45.4896 62.1667 45.6947 61.7907 45.959 61.4717C46.2233 61.1527 46.5378 60.9066 46.9023 60.7334C47.2715 60.5557 47.6794 60.4668 48.126 60.4668C48.4906 60.4668 48.8187 60.5169 49.1104 60.6172C49.402 60.7129 49.6504 60.8678 49.8555 61.082C50.0651 61.2962 50.2246 61.5742 50.334 61.916C50.4434 62.2533 50.498 62.6657 50.498 63.1533V68H49.2266V63.1396C49.2266 62.7523 49.1696 62.4424 49.0557 62.21C48.9417 61.973 48.7754 61.8021 48.5566 61.6973C48.3379 61.5879 48.069 61.5332 47.75 61.5332C47.4355 61.5332 47.1484 61.5993 46.8887 61.7314C46.6335 61.8636 46.4124 62.0459 46.2256 62.2783C46.0433 62.5107 45.8997 62.7773 45.7949 63.0781C45.6947 63.3743 45.6445 63.6888 45.6445 64.0215ZM53.6836 57.5V68H52.4189V57.5H53.6836ZM53.3828 64.0215L52.8564 64.001C52.861 63.4951 52.9362 63.028 53.082 62.5996C53.2279 62.1667 53.4329 61.7907 53.6973 61.4717C53.9616 61.1527 54.276 60.9066 54.6406 60.7334C55.0098 60.5557 55.4176 60.4668 55.8643 60.4668C56.2288 60.4668 56.557 60.5169 56.8486 60.6172C57.1403 60.7129 57.3887 60.8678 57.5938 61.082C57.8034 61.2962 57.9629 61.5742 58.0723 61.916C58.1816 62.2533 58.2363 62.6657 58.2363 63.1533V68H56.9648V63.1396C56.9648 62.7523 56.9079 62.4424 56.7939 62.21C56.68 61.973 56.5137 61.8021 56.2949 61.6973C56.0762 61.5879 55.8073 61.5332 55.4883 61.5332C55.1738 61.5332 54.8867 61.5993 54.627 61.7314C54.3717 61.8636 54.1507 62.0459 53.9639 62.2783C53.7816 62.5107 53.638 62.7773 53.5332 63.0781C53.4329 63.3743 53.3828 63.6888 53.3828 64.0215ZM64.8672 62.1826V68H63.6025V60.6035H64.7988L64.8672 62.1826ZM64.5664 64.0215L64.04 64.001C64.0446 63.4951 64.1198 63.028 64.2656 62.5996C64.4115 62.1667 64.6165 61.7907 64.8809 61.4717C65.1452 61.1527 65.4596 60.9066 65.8242 60.7334C66.1934 60.5557 66.6012 60.4668 67.0479 60.4668C67.4124 60.4668 67.7406 60.5169 68.0322 60.6172C68.3239 60.7129 68.5723 60.8678 68.7773 61.082C68.987 61.2962 69.1465 61.5742 69.2559 61.916C69.3652 62.2533 69.4199 62.6657 69.4199 63.1533V68H68.1484V63.1396C68.1484 62.7523 68.0915 62.4424 67.9775 62.21C67.8636 61.973 67.6973 61.8021 67.4785 61.6973C67.2598 61.5879 66.9909 61.5332 66.6719 61.5332C66.3574 61.5332 66.0703 61.5993 65.8105 61.7314C65.5553 61.8636 65.3343 62.0459 65.1475 62.2783C64.9652 62.5107 64.8216 62.7773 64.7168 63.0781C64.6165 63.3743 64.5664 63.6888 64.5664 64.0215ZM72.6055 57.5V68H71.3408V57.5H72.6055ZM72.3047 64.0215L71.7783 64.001C71.7829 63.4951 71.8581 63.028 72.0039 62.5996C72.1497 62.1667 72.3548 61.7907 72.6191 61.4717C72.8835 61.1527 73.1979 60.9066 73.5625 60.7334C73.9316 60.5557 74.3395 60.4668 74.7861 60.4668C75.1507 60.4668 75.4788 60.5169 75.7705 60.6172C76.0622 60.7129 76.3105 60.8678 76.5156 61.082C76.7253 61.2962 76.8848 61.5742 76.9941 61.916C77.1035 62.2533 77.1582 62.6657 77.1582 63.1533V68H75.8867V63.1396C75.8867 62.7523 75.8298 62.4424 75.7158 62.21C75.6019 61.973 75.4355 61.8021 75.2168 61.6973C74.998 61.5879 74.7292 61.5332 74.4102 61.5332C74.0957 61.5332 73.8086 61.5993 73.5488 61.7314C73.2936 61.8636 73.0726 62.0459 72.8857 62.2783C72.7035 62.5107 72.5599 62.7773 72.4551 63.0781C72.3548 63.3743 72.3047 63.6888 72.3047 64.0215ZM83.4131 66.7354V62.9277C83.4131 62.6361 83.3538 62.3831 83.2354 62.1689C83.1214 61.9502 82.9482 61.7816 82.7158 61.6631C82.4834 61.5446 82.1963 61.4854 81.8545 61.4854C81.5355 61.4854 81.2552 61.54 81.0137 61.6494C80.7767 61.7588 80.5898 61.9023 80.4531 62.0801C80.321 62.2578 80.2549 62.4492 80.2549 62.6543H78.9902C78.9902 62.39 79.0586 62.1279 79.1953 61.8682C79.332 61.6084 79.528 61.3737 79.7832 61.1641C80.043 60.9499 80.3529 60.7812 80.7129 60.6582C81.0775 60.5306 81.4831 60.4668 81.9297 60.4668C82.4674 60.4668 82.9414 60.5579 83.3516 60.7402C83.7663 60.9225 84.0898 61.1982 84.3223 61.5674C84.5592 61.932 84.6777 62.39 84.6777 62.9414V66.3867C84.6777 66.6328 84.6982 66.8949 84.7393 67.1729C84.7848 67.4508 84.8509 67.6901 84.9375 67.8906V68H83.6182C83.5544 67.8542 83.5042 67.6605 83.4678 67.4189C83.4313 67.1729 83.4131 66.945 83.4131 66.7354ZM83.6318 63.5156L83.6455 64.4043H82.3672C82.0072 64.4043 81.6859 64.4339 81.4033 64.4932C81.1208 64.5479 80.8838 64.6322 80.6924 64.7461C80.501 64.86 80.3551 65.0036 80.2549 65.1768C80.1546 65.3454 80.1045 65.5436 80.1045 65.7715C80.1045 66.0039 80.1569 66.2158 80.2617 66.4072C80.3665 66.5986 80.5238 66.7513 80.7334 66.8652C80.9476 66.9746 81.2096 67.0293 81.5195 67.0293C81.9069 67.0293 82.2487 66.9473 82.5449 66.7832C82.8411 66.6191 83.0758 66.4186 83.249 66.1816C83.4268 65.9447 83.5225 65.7145 83.5361 65.4912L84.0762 66.0996C84.0443 66.291 83.9577 66.5029 83.8164 66.7354C83.6751 66.9678 83.486 67.1911 83.249 67.4053C83.0166 67.6149 82.7386 67.7904 82.415 67.9316C82.096 68.0684 81.736 68.1367 81.335 68.1367C80.8337 68.1367 80.3939 68.0387 80.0156 67.8428C79.6419 67.6468 79.3503 67.3848 79.1406 67.0566C78.9355 66.724 78.833 66.3525 78.833 65.9424C78.833 65.5459 78.9105 65.1973 79.0654 64.8965C79.2204 64.5911 79.4437 64.3382 79.7354 64.1377C80.027 63.9326 80.3779 63.7777 80.7881 63.6729C81.1982 63.568 81.6562 63.5156 82.1621 63.5156H83.6318ZM82.4492 57.5L84.1445 59.3662V59.4346H83.0918L82.0664 58.2793L81.0479 59.4346H80.0088V59.3594L81.6836 57.5H82.4492ZM80.7334 69.6816C80.7334 69.4766 80.7949 69.3034 80.918 69.1621C81.0456 69.0208 81.2324 68.9502 81.4785 68.9502C81.7201 68.9502 81.9046 69.0208 82.0322 69.1621C82.1644 69.3034 82.2305 69.4766 82.2305 69.6816C82.2305 69.8776 82.1644 70.0439 82.0322 70.1807C81.9046 70.3219 81.7201 70.3926 81.4785 70.3926C81.2324 70.3926 81.0456 70.3219 80.918 70.1807C80.7949 70.0439 80.7334 69.8776 80.7334 69.6816ZM89.7637 60.6035V61.5742H85.7646V60.6035H89.7637ZM87.1182 58.8057H88.3828V66.168C88.3828 66.4186 88.4215 66.6077 88.499 66.7354C88.5765 66.863 88.6768 66.9473 88.7998 66.9883C88.9229 67.0293 89.055 67.0498 89.1963 67.0498C89.3011 67.0498 89.4105 67.0407 89.5244 67.0225C89.6429 66.9997 89.7318 66.9814 89.791 66.9678L89.7979 68C89.6976 68.0319 89.5654 68.0615 89.4014 68.0889C89.2419 68.1208 89.0482 68.1367 88.8203 68.1367C88.5104 68.1367 88.2256 68.0752 87.9658 67.9521C87.7061 67.8291 87.4987 67.624 87.3438 67.3369C87.1934 67.0452 87.1182 66.6533 87.1182 66.1611V58.8057ZM102.574 62.709V63.3379C102.574 64.0853 102.481 64.7552 102.294 65.3477C102.107 65.9401 101.838 66.4437 101.487 66.8584C101.136 67.2731 100.715 67.5898 100.223 67.8086C99.735 68.0273 99.1882 68.1367 98.582 68.1367C97.9941 68.1367 97.4541 68.0273 96.9619 67.8086C96.4743 67.5898 96.0505 67.2731 95.6904 66.8584C95.335 66.4437 95.0592 65.9401 94.8633 65.3477C94.6673 64.7552 94.5693 64.0853 94.5693 63.3379V62.709C94.5693 61.9616 94.665 61.2939 94.8564 60.7061C95.0524 60.1136 95.3281 59.61 95.6836 59.1953C96.0391 58.776 96.4606 58.457 96.9482 58.2383C97.4404 58.0195 97.9805 57.9102 98.5684 57.9102C99.1745 57.9102 99.7214 58.0195 100.209 58.2383C100.701 58.457 101.123 58.776 101.474 59.1953C101.829 59.61 102.1 60.1136 102.287 60.7061C102.479 61.2939 102.574 61.9616 102.574 62.709ZM101.269 63.3379V62.6953C101.269 62.1029 101.207 61.5788 101.084 61.123C100.965 60.6673 100.79 60.2845 100.558 59.9746C100.325 59.6647 100.04 59.43 99.7031 59.2705C99.3704 59.111 98.9922 59.0312 98.5684 59.0312C98.1582 59.0312 97.7868 59.111 97.4541 59.2705C97.126 59.43 96.8434 59.6647 96.6064 59.9746C96.374 60.2845 96.194 60.6673 96.0664 61.123C95.9388 61.5788 95.875 62.1029 95.875 62.6953V63.3379C95.875 63.9349 95.9388 64.4635 96.0664 64.9238C96.194 65.3796 96.3763 65.7646 96.6133 66.0791C96.8548 66.389 97.1396 66.6237 97.4678 66.7832C97.8005 66.9427 98.1719 67.0225 98.582 67.0225C99.0104 67.0225 99.391 66.9427 99.7236 66.7832C100.056 66.6237 100.337 66.389 100.564 66.0791C100.797 65.7646 100.972 65.3796 101.091 64.9238C101.209 64.4635 101.269 63.9349 101.269 63.3379ZM98.9717 55.3604L100.667 57.2266V57.2949H99.6143L98.5889 56.1396L97.5703 57.2949H96.5312V57.2197L98.2061 55.3604H98.9717ZM105.623 62.1826V68H104.358V60.6035H105.555L105.623 62.1826ZM105.322 64.0215L104.796 64.001C104.8 63.4951 104.876 63.028 105.021 62.5996C105.167 62.1667 105.372 61.7907 105.637 61.4717C105.901 61.1527 106.215 60.9066 106.58 60.7334C106.949 60.5557 107.357 60.4668 107.804 60.4668C108.168 60.4668 108.496 60.5169 108.788 60.6172C109.08 60.7129 109.328 60.8678 109.533 61.082C109.743 61.2962 109.902 61.5742 110.012 61.916C110.121 62.2533 110.176 62.6657 110.176 63.1533V68H108.904V63.1396C108.904 62.7523 108.847 62.4424 108.733 62.21C108.619 61.973 108.453 61.8021 108.234 61.6973C108.016 61.5879 107.747 61.5332 107.428 61.5332C107.113 61.5332 106.826 61.5993 106.566 61.7314C106.311 61.8636 106.09 62.0459 105.903 62.2783C105.721 62.5107 105.577 62.7773 105.473 63.0781C105.372 63.3743 105.322 63.6888 105.322 64.0215ZM116.889 60.6035H118.037V67.8428C118.037 68.4945 117.905 69.0505 117.641 69.5107C117.376 69.971 117.007 70.3197 116.533 70.5566C116.064 70.7982 115.521 70.9189 114.906 70.9189C114.651 70.9189 114.35 70.8779 114.004 70.7959C113.662 70.7184 113.325 70.584 112.992 70.3926C112.664 70.2057 112.388 69.9528 112.165 69.6338L112.828 68.8818C113.138 69.2555 113.462 69.5153 113.799 69.6611C114.141 69.807 114.478 69.8799 114.811 69.8799C115.212 69.8799 115.558 69.8047 115.85 69.6543C116.141 69.5039 116.367 69.2806 116.526 68.9844C116.69 68.6927 116.772 68.3327 116.772 67.9043V62.2305L116.889 60.6035ZM111.796 64.3838V64.2402C111.796 63.6751 111.862 63.1624 111.994 62.7021C112.131 62.2373 112.325 61.8385 112.575 61.5059C112.83 61.1732 113.138 60.918 113.498 60.7402C113.858 60.5579 114.264 60.4668 114.715 60.4668C115.18 60.4668 115.585 60.5488 115.932 60.7129C116.283 60.8724 116.579 61.1071 116.82 61.417C117.066 61.7223 117.26 62.0915 117.401 62.5244C117.543 62.9574 117.641 63.4473 117.695 63.9941V64.623C117.645 65.1654 117.547 65.653 117.401 66.0859C117.26 66.5189 117.066 66.888 116.82 67.1934C116.579 67.4987 116.283 67.7334 115.932 67.8975C115.581 68.057 115.171 68.1367 114.701 68.1367C114.259 68.1367 113.858 68.0433 113.498 67.8564C113.143 67.6696 112.837 67.4076 112.582 67.0703C112.327 66.7331 112.131 66.3366 111.994 65.8809C111.862 65.4206 111.796 64.9215 111.796 64.3838ZM113.061 64.2402V64.3838C113.061 64.7529 113.097 65.0993 113.17 65.4229C113.247 65.7464 113.364 66.0312 113.519 66.2773C113.678 66.5234 113.881 66.7171 114.127 66.8584C114.373 66.9951 114.667 67.0635 115.009 67.0635C115.428 67.0635 115.774 66.9746 116.048 66.7969C116.321 66.6191 116.538 66.3844 116.697 66.0928C116.861 65.8011 116.989 65.4844 117.08 65.1426V63.4951C117.03 63.2445 116.952 63.0029 116.848 62.7705C116.747 62.5335 116.615 62.3239 116.451 62.1416C116.292 61.9548 116.093 61.8066 115.856 61.6973C115.619 61.5879 115.341 61.5332 115.022 61.5332C114.676 61.5332 114.378 61.6061 114.127 61.752C113.881 61.8932 113.678 62.0892 113.519 62.3398C113.364 62.5859 113.247 62.873 113.17 63.2012C113.097 63.5247 113.061 63.8711 113.061 64.2402ZM131.278 58.0469V68H129.952L124.941 60.3232V68H123.622V58.0469H124.941L129.973 65.7441V58.0469H131.278ZM138.217 60.6035H139.365V67.8428C139.365 68.4945 139.233 69.0505 138.969 69.5107C138.704 69.971 138.335 70.3197 137.861 70.5566C137.392 70.7982 136.85 70.9189 136.234 70.9189C135.979 70.9189 135.678 70.8779 135.332 70.7959C134.99 70.7184 134.653 70.584 134.32 70.3926C133.992 70.2057 133.716 69.9528 133.493 69.6338L134.156 68.8818C134.466 69.2555 134.79 69.5153 135.127 69.6611C135.469 69.807 135.806 69.8799 136.139 69.8799C136.54 69.8799 136.886 69.8047 137.178 69.6543C137.469 69.5039 137.695 69.2806 137.854 68.9844C138.019 68.6927 138.101 68.3327 138.101 67.9043V62.2305L138.217 60.6035ZM133.124 64.3838V64.2402C133.124 63.6751 133.19 63.1624 133.322 62.7021C133.459 62.2373 133.653 61.8385 133.903 61.5059C134.159 61.1732 134.466 60.918 134.826 60.7402C135.186 60.5579 135.592 60.4668 136.043 60.4668C136.508 60.4668 136.913 60.5488 137.26 60.7129C137.611 60.8724 137.907 61.1071 138.148 61.417C138.395 61.7223 138.588 62.0915 138.729 62.5244C138.871 62.9574 138.969 63.4473 139.023 63.9941V64.623C138.973 65.1654 138.875 65.653 138.729 66.0859C138.588 66.5189 138.395 66.888 138.148 67.1934C137.907 67.4987 137.611 67.7334 137.26 67.8975C136.909 68.057 136.499 68.1367 136.029 68.1367C135.587 68.1367 135.186 68.0433 134.826 67.8564C134.471 67.6696 134.165 67.4076 133.91 67.0703C133.655 66.7331 133.459 66.3366 133.322 65.8809C133.19 65.4206 133.124 64.9215 133.124 64.3838ZM134.389 64.2402V64.3838C134.389 64.7529 134.425 65.0993 134.498 65.4229C134.576 65.7464 134.692 66.0312 134.847 66.2773C135.006 66.5234 135.209 66.7171 135.455 66.8584C135.701 66.9951 135.995 67.0635 136.337 67.0635C136.756 67.0635 137.103 66.9746 137.376 66.7969C137.649 66.6191 137.866 66.3844 138.025 66.0928C138.189 65.8011 138.317 65.4844 138.408 65.1426V63.4951C138.358 63.2445 138.281 63.0029 138.176 62.7705C138.076 62.5335 137.943 62.3239 137.779 62.1416C137.62 61.9548 137.422 61.8066 137.185 61.6973C136.948 61.5879 136.67 61.5332 136.351 61.5332C136.004 61.5332 135.706 61.6061 135.455 61.752C135.209 61.8932 135.006 62.0892 134.847 62.3398C134.692 62.5859 134.576 62.873 134.498 63.2012C134.425 63.5247 134.389 63.8711 134.389 64.2402ZM145.812 66.291V60.6035H147.083V68H145.873L145.812 66.291ZM146.051 64.7324L146.577 64.7188C146.577 65.2109 146.525 65.6667 146.42 66.0859C146.32 66.5007 146.156 66.8607 145.928 67.166C145.7 67.4714 145.401 67.7106 145.032 67.8838C144.663 68.0524 144.214 68.1367 143.686 68.1367C143.326 68.1367 142.995 68.0843 142.694 67.9795C142.398 67.8747 142.143 67.7129 141.929 67.4941C141.715 67.2754 141.548 66.9906 141.43 66.6396C141.316 66.2887 141.259 65.8672 141.259 65.375V60.6035H142.523V65.3887C142.523 65.7214 142.56 65.9971 142.633 66.2158C142.71 66.43 142.813 66.6009 142.94 66.7285C143.073 66.8516 143.218 66.9382 143.378 66.9883C143.542 67.0384 143.711 67.0635 143.884 67.0635C144.422 67.0635 144.848 66.9609 145.162 66.7559C145.477 66.5462 145.702 66.266 145.839 65.915C145.98 65.5596 146.051 65.1654 146.051 64.7324ZM151.089 67.2344L153.146 60.6035H154.5L151.533 69.1416C151.465 69.3239 151.374 69.5199 151.26 69.7295C151.15 69.9437 151.009 70.1465 150.836 70.3379C150.663 70.5293 150.453 70.6842 150.207 70.8027C149.965 70.9258 149.676 70.9873 149.339 70.9873C149.239 70.9873 149.111 70.9736 148.956 70.9463C148.801 70.9189 148.692 70.8962 148.628 70.8779L148.621 69.8525C148.658 69.8571 148.715 69.8617 148.792 69.8662C148.874 69.8753 148.931 69.8799 148.963 69.8799C149.25 69.8799 149.494 69.8411 149.694 69.7637C149.895 69.6908 150.063 69.5654 150.2 69.3877C150.341 69.2145 150.462 68.9753 150.562 68.6699L151.089 67.2344ZM149.578 60.6035L151.499 66.3457L151.827 67.6787L150.918 68.1436L148.197 60.6035H149.578ZM158.615 68.1367C158.1 68.1367 157.633 68.0501 157.214 67.877C156.799 67.6992 156.441 67.4508 156.141 67.1318C155.844 66.8128 155.617 66.4346 155.457 65.9971C155.298 65.5596 155.218 65.0811 155.218 64.5615V64.2744C155.218 63.6729 155.307 63.1374 155.484 62.668C155.662 62.194 155.904 61.793 156.209 61.4648C156.514 61.1367 156.861 60.8883 157.248 60.7197C157.635 60.5511 158.036 60.4668 158.451 60.4668C158.98 60.4668 159.436 60.5579 159.818 60.7402C160.206 60.9225 160.522 61.1777 160.769 61.5059C161.015 61.8294 161.197 62.2122 161.315 62.6543C161.434 63.0918 161.493 63.5703 161.493 64.0898V64.6572H155.97V63.625H160.229V63.5293C160.21 63.2012 160.142 62.8822 160.023 62.5723C159.91 62.2624 159.727 62.0072 159.477 61.8066C159.226 61.6061 158.884 61.5059 158.451 61.5059C158.164 61.5059 157.9 61.5674 157.658 61.6904C157.417 61.8089 157.209 61.9867 157.036 62.2236C156.863 62.4606 156.729 62.75 156.633 63.0918C156.537 63.4336 156.489 63.8278 156.489 64.2744V64.5615C156.489 64.9124 156.537 65.2428 156.633 65.5527C156.733 65.8581 156.877 66.127 157.063 66.3594C157.255 66.5918 157.485 66.7741 157.754 66.9062C158.027 67.0384 158.337 67.1045 158.684 67.1045C159.13 67.1045 159.508 67.0133 159.818 66.8311C160.128 66.6488 160.399 66.4049 160.632 66.0996L161.397 66.708C161.238 66.9495 161.035 67.1797 160.789 67.3984C160.543 67.6172 160.24 67.7949 159.88 67.9316C159.524 68.0684 159.103 68.1367 158.615 68.1367ZM158.882 58.1084L160.946 59.7764H159.777L158.431 58.6963L157.091 59.7764H155.929L157.986 58.1084H158.882ZM159.688 56.3857L160.215 56.5361C160.215 56.7184 160.165 56.8916 160.064 57.0557C159.969 57.2197 159.839 57.3542 159.675 57.459C159.511 57.5592 159.326 57.6094 159.121 57.6094C158.893 57.6094 158.711 57.5684 158.574 57.4863C158.438 57.4043 158.308 57.3223 158.185 57.2402C158.066 57.1582 157.913 57.1172 157.727 57.1172C157.585 57.1172 157.455 57.1719 157.337 57.2812C157.218 57.3861 157.159 57.5023 157.159 57.6299L156.633 57.5C156.633 57.3177 156.681 57.1445 156.776 56.9805C156.877 56.8118 157.009 56.6751 157.173 56.5703C157.341 56.4609 157.526 56.4062 157.727 56.4062C157.918 56.4062 158.084 56.4473 158.226 56.5293C158.367 56.6068 158.506 56.6865 158.643 56.7686C158.784 56.846 158.943 56.8848 159.121 56.8848C159.262 56.8848 159.392 56.8346 159.511 56.7344C159.629 56.6296 159.688 56.5133 159.688 56.3857ZM164.234 62.1826V68H162.97V60.6035H164.166L164.234 62.1826ZM163.934 64.0215L163.407 64.001C163.412 63.4951 163.487 63.028 163.633 62.5996C163.779 62.1667 163.984 61.7907 164.248 61.4717C164.512 61.1527 164.827 60.9066 165.191 60.7334C165.561 60.5557 165.968 60.4668 166.415 60.4668C166.78 60.4668 167.108 60.5169 167.399 60.6172C167.691 60.7129 167.939 60.8678 168.145 61.082C168.354 61.2962 168.514 61.5742 168.623 61.916C168.732 62.2533 168.787 62.6657 168.787 63.1533V68H167.516V63.1396C167.516 62.7523 167.459 62.4424 167.345 62.21C167.231 61.973 167.064 61.8021 166.846 61.6973C166.627 61.5879 166.358 61.5332 166.039 61.5332C165.725 61.5332 165.438 61.5993 165.178 61.7314C164.923 61.8636 164.701 62.0459 164.515 62.2783C164.332 62.5107 164.189 62.7773 164.084 63.0781C163.984 63.3743 163.934 63.6888 163.934 64.0215ZM177.585 66.4893L180.518 58.0469H181.946L178.262 68H177.243L177.585 66.4893ZM174.844 58.0469L177.749 66.4893L178.111 68H177.093L173.415 58.0469H174.844ZM187.142 66.7354V62.9277C187.142 62.6361 187.082 62.3831 186.964 62.1689C186.85 61.9502 186.677 61.7816 186.444 61.6631C186.212 61.5446 185.925 61.4854 185.583 61.4854C185.264 61.4854 184.984 61.54 184.742 61.6494C184.505 61.7588 184.318 61.9023 184.182 62.0801C184.049 62.2578 183.983 62.4492 183.983 62.6543H182.719C182.719 62.39 182.787 62.1279 182.924 61.8682C183.061 61.6084 183.257 61.3737 183.512 61.1641C183.771 60.9499 184.081 60.7812 184.441 60.6582C184.806 60.5306 185.212 60.4668 185.658 60.4668C186.196 60.4668 186.67 60.5579 187.08 60.7402C187.495 60.9225 187.818 61.1982 188.051 61.5674C188.288 61.932 188.406 62.39 188.406 62.9414V66.3867C188.406 66.6328 188.427 66.8949 188.468 67.1729C188.513 67.4508 188.579 67.6901 188.666 67.8906V68H187.347C187.283 67.8542 187.233 67.6605 187.196 67.4189C187.16 67.1729 187.142 66.945 187.142 66.7354ZM187.36 63.5156L187.374 64.4043H186.096C185.736 64.4043 185.414 64.4339 185.132 64.4932C184.849 64.5479 184.612 64.6322 184.421 64.7461C184.229 64.86 184.084 65.0036 183.983 65.1768C183.883 65.3454 183.833 65.5436 183.833 65.7715C183.833 66.0039 183.885 66.2158 183.99 66.4072C184.095 66.5986 184.252 66.7513 184.462 66.8652C184.676 66.9746 184.938 67.0293 185.248 67.0293C185.635 67.0293 185.977 66.9473 186.273 66.7832C186.57 66.6191 186.804 66.4186 186.978 66.1816C187.155 65.9447 187.251 65.7145 187.265 65.4912L187.805 66.0996C187.773 66.291 187.686 66.5029 187.545 66.7354C187.404 66.9678 187.215 67.1911 186.978 67.4053C186.745 67.6149 186.467 67.7904 186.144 67.9316C185.825 68.0684 185.465 68.1367 185.063 68.1367C184.562 68.1367 184.122 68.0387 183.744 67.8428C183.37 67.6468 183.079 67.3848 182.869 67.0566C182.664 66.724 182.562 66.3525 182.562 65.9424C182.562 65.5459 182.639 65.1973 182.794 64.8965C182.949 64.5911 183.172 64.3382 183.464 64.1377C183.756 63.9326 184.106 63.7777 184.517 63.6729C184.927 63.568 185.385 63.5156 185.891 63.5156H187.36ZM186.813 57.7803H187.839C187.839 58.1357 187.757 58.4525 187.593 58.7305C187.429 59.0039 187.194 59.2181 186.889 59.373C186.583 59.528 186.221 59.6055 185.802 59.6055C185.168 59.6055 184.667 59.4368 184.298 59.0996C183.933 58.7578 183.751 58.318 183.751 57.7803H184.776C184.776 58.0492 184.854 58.2861 185.009 58.4912C185.164 58.6963 185.428 58.7988 185.802 58.7988C186.166 58.7988 186.426 58.6963 186.581 58.4912C186.736 58.2861 186.813 58.0492 186.813 57.7803ZM191.66 62.1826V68H190.396V60.6035H191.592L191.66 62.1826ZM191.359 64.0215L190.833 64.001C190.838 63.4951 190.913 63.028 191.059 62.5996C191.204 62.1667 191.41 61.7907 191.674 61.4717C191.938 61.1527 192.253 60.9066 192.617 60.7334C192.986 60.5557 193.394 60.4668 193.841 60.4668C194.205 60.4668 194.534 60.5169 194.825 60.6172C195.117 60.7129 195.365 60.8678 195.57 61.082C195.78 61.2962 195.939 61.5742 196.049 61.916C196.158 62.2533 196.213 62.6657 196.213 63.1533V68H194.941V63.1396C194.941 62.7523 194.884 62.4424 194.771 62.21C194.657 61.973 194.49 61.8021 194.271 61.6973C194.053 61.5879 193.784 61.5332 193.465 61.5332C193.15 61.5332 192.863 61.5993 192.604 61.7314C192.348 61.8636 192.127 62.0459 191.94 62.2783C191.758 62.5107 191.615 62.7773 191.51 63.0781C191.41 63.3743 191.359 63.6888 191.359 64.0215ZM208.299 62.3262V63.3994H202.912V62.3262H208.299ZM203.117 58.0469V68H201.798V58.0469H203.117ZM209.447 58.0469V68H208.135V58.0469H209.447ZM218.525 60.0088H219.496C219.496 60.5055 219.43 60.9225 219.298 61.2598C219.17 61.597 218.945 61.8499 218.621 62.0186C218.298 62.1872 217.842 62.2715 217.254 62.2715V61.4922C217.664 61.4922 217.958 61.4421 218.136 61.3418C218.313 61.237 218.423 61.0752 218.464 60.8564C218.505 60.6377 218.525 60.3551 218.525 60.0088ZM216.126 66.291V60.6035H217.397V68H216.188L216.126 66.291ZM216.365 64.7324L216.892 64.7188C216.892 65.2109 216.839 65.6667 216.734 66.0859C216.634 66.5007 216.47 66.8607 216.242 67.166C216.014 67.4714 215.716 67.7106 215.347 67.8838C214.978 68.0524 214.529 68.1367 214 68.1367C213.64 68.1367 213.31 68.0843 213.009 67.9795C212.713 67.8747 212.457 67.7129 212.243 67.4941C212.029 67.2754 211.863 66.9906 211.744 66.6396C211.63 66.2887 211.573 65.8672 211.573 65.375V60.6035H212.838V65.3887C212.838 65.7214 212.874 65.9971 212.947 66.2158C213.025 66.43 213.127 66.6009 213.255 66.7285C213.387 66.8516 213.533 66.9382 213.692 66.9883C213.856 67.0384 214.025 67.0635 214.198 67.0635C214.736 67.0635 215.162 66.9609 215.477 66.7559C215.791 66.5462 216.017 66.266 216.153 65.915C216.295 65.5596 216.365 65.1654 216.365 64.7324ZM221.533 62.1826V68H220.269V60.6035H221.465L221.533 62.1826ZM221.232 64.0215L220.706 64.001C220.711 63.4951 220.786 63.028 220.932 62.5996C221.077 62.1667 221.283 61.7907 221.547 61.4717C221.811 61.1527 222.126 60.9066 222.49 60.7334C222.859 60.5557 223.267 60.4668 223.714 60.4668C224.078 60.4668 224.407 60.5169 224.698 60.6172C224.99 60.7129 225.238 60.8678 225.443 61.082C225.653 61.2962 225.812 61.5742 225.922 61.916C226.031 62.2533 226.086 62.6657 226.086 63.1533V68H224.814V63.1396C224.814 62.7523 224.757 62.4424 224.644 62.21C224.53 61.973 224.363 61.8021 224.145 61.6973C223.926 61.5879 223.657 61.5332 223.338 61.5332C223.023 61.5332 222.736 61.5993 222.477 61.7314C222.221 61.8636 222 62.0459 221.813 62.2783C221.631 62.5107 221.488 62.7773 221.383 63.0781C221.283 63.3743 221.232 63.6888 221.232 64.0215ZM232.799 60.6035H233.947V67.8428C233.947 68.4945 233.815 69.0505 233.551 69.5107C233.286 69.971 232.917 70.3197 232.443 70.5566C231.974 70.7982 231.432 70.9189 230.816 70.9189C230.561 70.9189 230.26 70.8779 229.914 70.7959C229.572 70.7184 229.235 70.584 228.902 70.3926C228.574 70.2057 228.299 69.9528 228.075 69.6338L228.738 68.8818C229.048 69.2555 229.372 69.5153 229.709 69.6611C230.051 69.807 230.388 69.8799 230.721 69.8799C231.122 69.8799 231.468 69.8047 231.76 69.6543C232.051 69.5039 232.277 69.2806 232.437 68.9844C232.601 68.6927 232.683 68.3327 232.683 67.9043V62.2305L232.799 60.6035ZM227.706 64.3838V64.2402C227.706 63.6751 227.772 63.1624 227.904 62.7021C228.041 62.2373 228.235 61.8385 228.485 61.5059C228.741 61.1732 229.048 60.918 229.408 60.7402C229.768 60.5579 230.174 60.4668 230.625 60.4668C231.09 60.4668 231.495 60.5488 231.842 60.7129C232.193 60.8724 232.489 61.1071 232.73 61.417C232.977 61.7223 233.17 62.0915 233.312 62.5244C233.453 62.9574 233.551 63.4473 233.605 63.9941V64.623C233.555 65.1654 233.457 65.653 233.312 66.0859C233.17 66.5189 232.977 66.888 232.73 67.1934C232.489 67.4987 232.193 67.7334 231.842 67.8975C231.491 68.057 231.081 68.1367 230.611 68.1367C230.169 68.1367 229.768 68.0433 229.408 67.8564C229.053 67.6696 228.747 67.4076 228.492 67.0703C228.237 66.7331 228.041 66.3366 227.904 65.8809C227.772 65.4206 227.706 64.9215 227.706 64.3838ZM228.971 64.2402V64.3838C228.971 64.7529 229.007 65.0993 229.08 65.4229C229.158 65.7464 229.274 66.0312 229.429 66.2773C229.588 66.5234 229.791 66.7171 230.037 66.8584C230.283 66.9951 230.577 67.0635 230.919 67.0635C231.338 67.0635 231.685 66.9746 231.958 66.7969C232.231 66.6191 232.448 66.3844 232.607 66.0928C232.771 65.8011 232.899 65.4844 232.99 65.1426V63.4951C232.94 63.2445 232.863 63.0029 232.758 62.7705C232.658 62.5335 232.525 62.3239 232.361 62.1416C232.202 61.9548 232.004 61.8066 231.767 61.6973C231.53 61.5879 231.252 61.5332 230.933 61.5332C230.586 61.5332 230.288 61.6061 230.037 61.752C229.791 61.8932 229.588 62.0892 229.429 62.3398C229.274 62.5859 229.158 62.873 229.08 63.2012C229.007 63.5247 228.971 63.8711 228.971 64.2402Z" fill="#667793"/>
<circle cx="14" cy="93" r="4" fill="#D4DAE3"/>
<path d="M38.46 95.4844C38.46 95.252 38.4235 95.0469 38.3506 94.8691C38.2822 94.6868 38.1592 94.5228 37.9814 94.377C37.8083 94.2311 37.5667 94.0921 37.2568 93.96C36.9515 93.8278 36.5641 93.6934 36.0947 93.5566C35.6025 93.4108 35.1582 93.249 34.7617 93.0713C34.3652 92.889 34.0257 92.6816 33.7432 92.4492C33.4606 92.2168 33.2441 91.9502 33.0938 91.6494C32.9434 91.3486 32.8682 91.0046 32.8682 90.6172C32.8682 90.2298 32.9479 89.8721 33.1074 89.5439C33.2669 89.2158 33.4948 88.931 33.791 88.6895C34.0918 88.4434 34.4495 88.252 34.8643 88.1152C35.279 87.9785 35.7415 87.9102 36.252 87.9102C36.9993 87.9102 37.6328 88.0537 38.1523 88.3408C38.6764 88.6234 39.0752 88.9948 39.3486 89.4551C39.6221 89.9108 39.7588 90.3984 39.7588 90.918H38.4463C38.4463 90.5443 38.3665 90.2139 38.207 89.9268C38.0475 89.6351 37.806 89.4072 37.4824 89.2432C37.1589 89.0745 36.7487 88.9902 36.252 88.9902C35.7826 88.9902 35.3952 89.0609 35.0898 89.2021C34.7845 89.3434 34.5566 89.5348 34.4062 89.7764C34.2604 90.0179 34.1875 90.2936 34.1875 90.6035C34.1875 90.8132 34.2308 91.0046 34.3174 91.1777C34.4085 91.3464 34.5475 91.5036 34.7344 91.6494C34.9258 91.7952 35.1673 91.9297 35.459 92.0527C35.7552 92.1758 36.1084 92.2943 36.5186 92.4082C37.0837 92.5677 37.5713 92.7454 37.9814 92.9414C38.3916 93.1374 38.7288 93.3584 38.9932 93.6045C39.262 93.846 39.4603 94.1217 39.5879 94.4316C39.7201 94.737 39.7861 95.0833 39.7861 95.4707C39.7861 95.8763 39.7041 96.2432 39.54 96.5713C39.376 96.8994 39.1413 97.1797 38.8359 97.4121C38.5306 97.6445 38.1637 97.8245 37.7354 97.9521C37.3115 98.0752 36.8376 98.1367 36.3135 98.1367C35.8532 98.1367 35.3997 98.0729 34.9531 97.9453C34.5111 97.8177 34.1077 97.6263 33.7432 97.3711C33.3831 97.1159 33.0938 96.8014 32.875 96.4277C32.6608 96.0495 32.5537 95.612 32.5537 95.1152H33.8662C33.8662 95.457 33.9323 95.751 34.0645 95.9971C34.1966 96.2386 34.3766 96.4391 34.6045 96.5986C34.8369 96.7581 35.099 96.8766 35.3906 96.9541C35.6868 97.027 35.9945 97.0635 36.3135 97.0635C36.7738 97.0635 37.1634 96.9997 37.4824 96.8721C37.8014 96.7445 38.043 96.5622 38.207 96.3252C38.3757 96.0882 38.46 95.8079 38.46 95.4844ZM42.6504 90.6035V98H41.3789V90.6035H42.6504ZM41.2832 88.6416C41.2832 88.4365 41.3447 88.2633 41.4678 88.1221C41.5954 87.9808 41.7822 87.9102 42.0283 87.9102C42.2699 87.9102 42.4544 87.9808 42.582 88.1221C42.7142 88.2633 42.7803 88.4365 42.7803 88.6416C42.7803 88.8376 42.7142 89.0062 42.582 89.1475C42.4544 89.2842 42.2699 89.3525 42.0283 89.3525C41.7822 89.3525 41.5954 89.2842 41.4678 89.1475C41.3447 89.0062 41.2832 88.8376 41.2832 88.6416ZM45.9453 92.1826V98H44.6807V90.6035H45.877L45.9453 92.1826ZM45.6445 94.0215L45.1182 94.001C45.1227 93.4951 45.1979 93.028 45.3438 92.5996C45.4896 92.1667 45.6947 91.7907 45.959 91.4717C46.2233 91.1527 46.5378 90.9066 46.9023 90.7334C47.2715 90.5557 47.6794 90.4668 48.126 90.4668C48.4906 90.4668 48.8187 90.5169 49.1104 90.6172C49.402 90.7129 49.6504 90.8678 49.8555 91.082C50.0651 91.2962 50.2246 91.5742 50.334 91.916C50.4434 92.2533 50.498 92.6657 50.498 93.1533V98H49.2266V93.1396C49.2266 92.7523 49.1696 92.4424 49.0557 92.21C48.9417 91.973 48.7754 91.8021 48.5566 91.6973C48.3379 91.5879 48.069 91.5332 47.75 91.5332C47.4355 91.5332 47.1484 91.5993 46.8887 91.7314C46.6335 91.8636 46.4124 92.0459 46.2256 92.2783C46.0433 92.5107 45.8997 92.7773 45.7949 93.0781C45.6947 93.3743 45.6445 93.6888 45.6445 94.0215ZM53.6836 87.5V98H52.4189V87.5H53.6836ZM53.3828 94.0215L52.8564 94.001C52.861 93.4951 52.9362 93.028 53.082 92.5996C53.2279 92.1667 53.4329 91.7907 53.6973 91.4717C53.9616 91.1527 54.276 90.9066 54.6406 90.7334C55.0098 90.5557 55.4176 90.4668 55.8643 90.4668C56.2288 90.4668 56.557 90.5169 56.8486 90.6172C57.1403 90.7129 57.3887 90.8678 57.5938 91.082C57.8034 91.2962 57.9629 91.5742 58.0723 91.916C58.1816 92.2533 58.2363 92.6657 58.2363 93.1533V98H56.9648V93.1396C56.9648 92.7523 56.9079 92.4424 56.7939 92.21C56.68 91.973 56.5137 91.8021 56.2949 91.6973C56.0762 91.5879 55.8073 91.5332 55.4883 91.5332C55.1738 91.5332 54.8867 91.5993 54.627 91.7314C54.3717 91.8636 54.1507 92.0459 53.9639 92.2783C53.7816 92.5107 53.638 92.7773 53.5332 93.0781C53.4329 93.3743 53.3828 93.6888 53.3828 94.0215ZM64.8672 92.1826V98H63.6025V90.6035H64.7988L64.8672 92.1826ZM64.5664 94.0215L64.04 94.001C64.0446 93.4951 64.1198 93.028 64.2656 92.5996C64.4115 92.1667 64.6165 91.7907 64.8809 91.4717C65.1452 91.1527 65.4596 90.9066 65.8242 90.7334C66.1934 90.5557 66.6012 90.4668 67.0479 90.4668C67.4124 90.4668 67.7406 90.5169 68.0322 90.6172C68.3239 90.7129 68.5723 90.8678 68.7773 91.082C68.987 91.2962 69.1465 91.5742 69.2559 91.916C69.3652 92.2533 69.4199 92.6657 69.4199 93.1533V98H68.1484V93.1396C68.1484 92.7523 68.0915 92.4424 67.9775 92.21C67.8636 91.973 67.6973 91.8021 67.4785 91.6973C67.2598 91.5879 66.9909 91.5332 66.6719 91.5332C66.3574 91.5332 66.0703 91.5993 65.8105 91.7314C65.5553 91.8636 65.3343 92.0459 65.1475 92.2783C64.9652 92.5107 64.8216 92.7773 64.7168 93.0781C64.6165 93.3743 64.5664 93.6888 64.5664 94.0215ZM72.6055 87.5V98H71.3408V87.5H72.6055ZM72.3047 94.0215L71.7783 94.001C71.7829 93.4951 71.8581 93.028 72.0039 92.5996C72.1497 92.1667 72.3548 91.7907 72.6191 91.4717C72.8835 91.1527 73.1979 90.9066 73.5625 90.7334C73.9316 90.5557 74.3395 90.4668 74.7861 90.4668C75.1507 90.4668 75.4788 90.5169 75.7705 90.6172C76.0622 90.7129 76.3105 90.8678 76.5156 91.082C76.7253 91.2962 76.8848 91.5742 76.9941 91.916C77.1035 92.2533 77.1582 92.6657 77.1582 93.1533V98H75.8867V93.1396C75.8867 92.7523 75.8298 92.4424 75.7158 92.21C75.6019 91.973 75.4355 91.8021 75.2168 91.6973C74.998 91.5879 74.7292 91.5332 74.4102 91.5332C74.0957 91.5332 73.8086 91.5993 73.5488 91.7314C73.2936 91.8636 73.0726 92.0459 72.8857 92.2783C72.7035 92.5107 72.5599 92.7773 72.4551 93.0781C72.3548 93.3743 72.3047 93.6888 72.3047 94.0215ZM83.4131 96.7354V92.9277C83.4131 92.6361 83.3538 92.3831 83.2354 92.1689C83.1214 91.9502 82.9482 91.7816 82.7158 91.6631C82.4834 91.5446 82.1963 91.4854 81.8545 91.4854C81.5355 91.4854 81.2552 91.54 81.0137 91.6494C80.7767 91.7588 80.5898 91.9023 80.4531 92.0801C80.321 92.2578 80.2549 92.4492 80.2549 92.6543H78.9902C78.9902 92.39 79.0586 92.1279 79.1953 91.8682C79.332 91.6084 79.528 91.3737 79.7832 91.1641C80.043 90.9499 80.3529 90.7812 80.7129 90.6582C81.0775 90.5306 81.4831 90.4668 81.9297 90.4668C82.4674 90.4668 82.9414 90.5579 83.3516 90.7402C83.7663 90.9225 84.0898 91.1982 84.3223 91.5674C84.5592 91.932 84.6777 92.39 84.6777 92.9414V96.3867C84.6777 96.6328 84.6982 96.8949 84.7393 97.1729C84.7848 97.4508 84.8509 97.6901 84.9375 97.8906V98H83.6182C83.5544 97.8542 83.5042 97.6605 83.4678 97.4189C83.4313 97.1729 83.4131 96.945 83.4131 96.7354ZM83.6318 93.5156L83.6455 94.4043H82.3672C82.0072 94.4043 81.6859 94.4339 81.4033 94.4932C81.1208 94.5479 80.8838 94.6322 80.6924 94.7461C80.501 94.86 80.3551 95.0036 80.2549 95.1768C80.1546 95.3454 80.1045 95.5436 80.1045 95.7715C80.1045 96.0039 80.1569 96.2158 80.2617 96.4072C80.3665 96.5986 80.5238 96.7513 80.7334 96.8652C80.9476 96.9746 81.2096 97.0293 81.5195 97.0293C81.9069 97.0293 82.2487 96.9473 82.5449 96.7832C82.8411 96.6191 83.0758 96.4186 83.249 96.1816C83.4268 95.9447 83.5225 95.7145 83.5361 95.4912L84.0762 96.0996C84.0443 96.291 83.9577 96.5029 83.8164 96.7354C83.6751 96.9678 83.486 97.1911 83.249 97.4053C83.0166 97.6149 82.7386 97.7904 82.415 97.9316C82.096 98.0684 81.736 98.1367 81.335 98.1367C80.8337 98.1367 80.3939 98.0387 80.0156 97.8428C79.6419 97.6468 79.3503 97.3848 79.1406 97.0566C78.9355 96.724 78.833 96.3525 78.833 95.9424C78.833 95.5459 78.9105 95.1973 79.0654 94.8965C79.2204 94.5911 79.4437 94.3382 79.7354 94.1377C80.027 93.9326 80.3779 93.7777 80.7881 93.6729C81.1982 93.568 81.6562 93.5156 82.1621 93.5156H83.6318ZM82.4492 87.5L84.1445 89.3662V89.4346H83.0918L82.0664 88.2793L81.0479 89.4346H80.0088V89.3594L81.6836 87.5H82.4492ZM80.7334 99.6816C80.7334 99.4766 80.7949 99.3034 80.918 99.1621C81.0456 99.0208 81.2324 98.9502 81.4785 98.9502C81.7201 98.9502 81.9046 99.0208 82.0322 99.1621C82.1644 99.3034 82.2305 99.4766 82.2305 99.6816C82.2305 99.8776 82.1644 100.044 82.0322 100.181C81.9046 100.322 81.7201 100.393 81.4785 100.393C81.2324 100.393 81.0456 100.322 80.918 100.181C80.7949 100.044 80.7334 99.8776 80.7334 99.6816ZM89.7637 90.6035V91.5742H85.7646V90.6035H89.7637ZM87.1182 88.8057H88.3828V96.168C88.3828 96.4186 88.4215 96.6077 88.499 96.7354C88.5765 96.863 88.6768 96.9473 88.7998 96.9883C88.9229 97.0293 89.055 97.0498 89.1963 97.0498C89.3011 97.0498 89.4105 97.0407 89.5244 97.0225C89.6429 96.9997 89.7318 96.9814 89.791 96.9678L89.7979 98C89.6976 98.0319 89.5654 98.0615 89.4014 98.0889C89.2419 98.1208 89.0482 98.1367 88.8203 98.1367C88.5104 98.1367 88.2256 98.0752 87.9658 97.9521C87.7061 97.8291 87.4987 97.624 87.3438 97.3369C87.1934 97.0452 87.1182 96.6533 87.1182 96.1611V88.8057ZM98.459 93.3447H95.9365L95.9229 92.2852H98.2129C98.5911 92.2852 98.9215 92.2214 99.2041 92.0938C99.4867 91.9661 99.7054 91.7839 99.8604 91.5469C100.02 91.3053 100.1 91.0182 100.1 90.6855C100.1 90.321 100.029 90.0247 99.8877 89.7969C99.751 89.5645 99.5391 89.3958 99.252 89.291C98.9694 89.1816 98.6094 89.127 98.1719 89.127H96.2305V98H94.9111V88.0469H98.1719C98.6823 88.0469 99.138 88.0993 99.5391 88.2041C99.9401 88.3044 100.28 88.4639 100.558 88.6826C100.84 88.8968 101.054 89.1702 101.2 89.5029C101.346 89.8356 101.419 90.2344 101.419 90.6992C101.419 91.1094 101.314 91.4808 101.104 91.8135C100.895 92.1416 100.603 92.4105 100.229 92.6201C99.8604 92.8298 99.4274 92.9642 98.9307 93.0234L98.459 93.3447ZM98.3975 98H95.417L96.1621 96.9268H98.3975C98.8167 96.9268 99.1722 96.8538 99.4639 96.708C99.7601 96.5622 99.9857 96.3571 100.141 96.0928C100.296 95.8239 100.373 95.5072 100.373 95.1426C100.373 94.7734 100.307 94.4544 100.175 94.1855C100.043 93.9167 99.8353 93.7093 99.5527 93.5635C99.2702 93.4176 98.9056 93.3447 98.459 93.3447H96.5791L96.5928 92.2852H99.1631L99.4434 92.668C99.9219 92.709 100.327 92.8457 100.66 93.0781C100.993 93.306 101.246 93.5977 101.419 93.9531C101.597 94.3086 101.686 94.7005 101.686 95.1289C101.686 95.7487 101.549 96.2728 101.275 96.7012C101.007 97.125 100.626 97.4486 100.134 97.6719C99.6416 97.8906 99.0628 98 98.3975 98ZM107.804 96.7354V92.9277C107.804 92.6361 107.744 92.3831 107.626 92.1689C107.512 91.9502 107.339 91.7816 107.106 91.6631C106.874 91.5446 106.587 91.4854 106.245 91.4854C105.926 91.4854 105.646 91.54 105.404 91.6494C105.167 91.7588 104.98 91.9023 104.844 92.0801C104.712 92.2578 104.646 92.4492 104.646 92.6543H103.381C103.381 92.39 103.449 92.1279 103.586 91.8682C103.723 91.6084 103.919 91.3737 104.174 91.1641C104.434 90.9499 104.743 90.7812 105.104 90.6582C105.468 90.5306 105.874 90.4668 106.32 90.4668C106.858 90.4668 107.332 90.5579 107.742 90.7402C108.157 90.9225 108.48 91.1982 108.713 91.5674C108.95 91.932 109.068 92.39 109.068 92.9414V96.3867C109.068 96.6328 109.089 96.8949 109.13 97.1729C109.175 97.4508 109.242 97.6901 109.328 97.8906V98H108.009C107.945 97.8542 107.895 97.6605 107.858 97.4189C107.822 97.1729 107.804 96.945 107.804 96.7354ZM108.022 93.5156L108.036 94.4043H106.758C106.398 94.4043 106.076 94.4339 105.794 94.4932C105.511 94.5479 105.274 94.6322 105.083 94.7461C104.892 94.86 104.746 95.0036 104.646 95.1768C104.545 95.3454 104.495 95.5436 104.495 95.7715C104.495 96.0039 104.548 96.2158 104.652 96.4072C104.757 96.5986 104.914 96.7513 105.124 96.8652C105.338 96.9746 105.6 97.0293 105.91 97.0293C106.298 97.0293 106.639 96.9473 106.936 96.7832C107.232 96.6191 107.466 96.4186 107.64 96.1816C107.817 95.9447 107.913 95.7145 107.927 95.4912L108.467 96.0996C108.435 96.291 108.348 96.5029 108.207 96.7354C108.066 96.9678 107.877 97.1911 107.64 97.4053C107.407 97.6149 107.129 97.7904 106.806 97.9316C106.487 98.0684 106.127 98.1367 105.726 98.1367C105.224 98.1367 104.785 98.0387 104.406 97.8428C104.033 97.6468 103.741 97.3848 103.531 97.0566C103.326 96.724 103.224 96.3525 103.224 95.9424C103.224 95.5459 103.301 95.1973 103.456 94.8965C103.611 94.5911 103.834 94.3382 104.126 94.1377C104.418 93.9326 104.769 93.7777 105.179 93.6729C105.589 93.568 106.047 93.5156 106.553 93.5156H108.022ZM105.855 87.5L107.175 89.5098H106.088L104.324 87.5H105.855ZM121.223 92.3262V93.3994H115.836V92.3262H121.223ZM116.041 88.0469V98H114.722V88.0469H116.041ZM122.371 88.0469V98H121.059V88.0469H122.371ZM128.886 96.7354V92.9277C128.886 92.6361 128.826 92.3831 128.708 92.1689C128.594 91.9502 128.421 91.7816 128.188 91.6631C127.956 91.5446 127.669 91.4854 127.327 91.4854C127.008 91.4854 126.728 91.54 126.486 91.6494C126.249 91.7588 126.062 91.9023 125.926 92.0801C125.794 92.2578 125.728 92.4492 125.728 92.6543H124.463C124.463 92.39 124.531 92.1279 124.668 91.8682C124.805 91.6084 125.001 91.3737 125.256 91.1641C125.516 90.9499 125.826 90.7812 126.186 90.6582C126.55 90.5306 126.956 90.4668 127.402 90.4668C127.94 90.4668 128.414 90.5579 128.824 90.7402C129.239 90.9225 129.562 91.1982 129.795 91.5674C130.032 91.932 130.15 92.39 130.15 92.9414V96.3867C130.15 96.6328 130.171 96.8949 130.212 97.1729C130.257 97.4508 130.324 97.6901 130.41 97.8906V98H129.091C129.027 97.8542 128.977 97.6605 128.94 97.4189C128.904 97.1729 128.886 96.945 128.886 96.7354ZM129.104 93.5156L129.118 94.4043H127.84C127.48 94.4043 127.159 94.4339 126.876 94.4932C126.593 94.5479 126.356 94.6322 126.165 94.7461C125.974 94.86 125.828 95.0036 125.728 95.1768C125.627 95.3454 125.577 95.5436 125.577 95.7715C125.577 96.0039 125.63 96.2158 125.734 96.4072C125.839 96.5986 125.996 96.7513 126.206 96.8652C126.42 96.9746 126.682 97.0293 126.992 97.0293C127.38 97.0293 127.721 96.9473 128.018 96.7832C128.314 96.6191 128.549 96.4186 128.722 96.1816C128.899 95.9447 128.995 95.7145 129.009 95.4912L129.549 96.0996C129.517 96.291 129.43 96.5029 129.289 96.7354C129.148 96.9678 128.959 97.1911 128.722 97.4053C128.489 97.6149 128.211 97.7904 127.888 97.9316C127.569 98.0684 127.209 98.1367 126.808 98.1367C126.306 98.1367 125.867 98.0387 125.488 97.8428C125.115 97.6468 124.823 97.3848 124.613 97.0566C124.408 96.724 124.306 96.3525 124.306 95.9424C124.306 95.5459 124.383 95.1973 124.538 94.8965C124.693 94.5911 124.916 94.3382 125.208 94.1377C125.5 93.9326 125.851 93.7777 126.261 93.6729C126.671 93.568 127.129 93.5156 127.635 93.5156H129.104ZM126.938 87.5L128.257 89.5098H127.17L125.406 87.5H126.938ZM137.123 88.0469V98H135.804V88.0469H137.123ZM143.132 88.0469L138.996 92.6885L136.672 95.1016L136.453 93.6934L138.203 91.7656L141.546 88.0469H143.132ZM141.86 98L138.176 93.1465L138.962 92.1006L143.433 98H141.86ZM145.777 90.6035V98H144.506V90.6035H145.777ZM144.41 88.6416C144.41 88.4365 144.472 88.2633 144.595 88.1221C144.722 87.9808 144.909 87.9102 145.155 87.9102C145.397 87.9102 145.581 87.9808 145.709 88.1221C145.841 88.2633 145.907 88.4365 145.907 88.6416C145.907 88.8376 145.841 89.0062 145.709 89.1475C145.581 89.2842 145.397 89.3525 145.155 89.3525C144.909 89.3525 144.722 89.2842 144.595 89.1475C144.472 89.0062 144.41 88.8376 144.41 88.6416ZM150.877 98.1367C150.362 98.1367 149.895 98.0501 149.476 97.877C149.061 97.6992 148.703 97.4508 148.402 97.1318C148.106 96.8128 147.878 96.4346 147.719 95.9971C147.559 95.5596 147.479 95.0811 147.479 94.5615V94.2744C147.479 93.6729 147.568 93.1374 147.746 92.668C147.924 92.194 148.165 91.793 148.471 91.4648C148.776 91.1367 149.122 90.8883 149.51 90.7197C149.897 90.5511 150.298 90.4668 150.713 90.4668C151.242 90.4668 151.697 90.5579 152.08 90.7402C152.467 90.9225 152.784 91.1777 153.03 91.5059C153.276 91.8294 153.459 92.2122 153.577 92.6543C153.696 93.0918 153.755 93.5703 153.755 94.0898V94.6572H148.231V93.625H152.49V93.5293C152.472 93.2012 152.404 92.8822 152.285 92.5723C152.171 92.2624 151.989 92.0072 151.738 91.8066C151.488 91.6061 151.146 91.5059 150.713 91.5059C150.426 91.5059 150.161 91.5674 149.92 91.6904C149.678 91.8089 149.471 91.9867 149.298 92.2236C149.125 92.4606 148.99 92.75 148.895 93.0918C148.799 93.4336 148.751 93.8278 148.751 94.2744V94.5615C148.751 94.9124 148.799 95.2428 148.895 95.5527C148.995 95.8581 149.138 96.127 149.325 96.3594C149.517 96.5918 149.747 96.7741 150.016 96.9062C150.289 97.0384 150.599 97.1045 150.945 97.1045C151.392 97.1045 151.77 97.0133 152.08 96.8311C152.39 96.6488 152.661 96.4049 152.894 96.0996L153.659 96.708C153.5 96.9495 153.297 97.1797 153.051 97.3984C152.805 97.6172 152.502 97.7949 152.142 97.9316C151.786 98.0684 151.365 98.1367 150.877 98.1367ZM151.205 87.7461L153.201 89.5439H151.848L150.686 88.457L149.53 89.5439H148.184L150.166 87.7461H151.205ZM147.719 86.5635L148.689 88.3271H147.726L146.352 86.5635H147.719ZM159.757 96.291V90.6035H161.028V98H159.818L159.757 96.291ZM159.996 94.7324L160.522 94.7188C160.522 95.2109 160.47 95.6667 160.365 96.0859C160.265 96.5007 160.101 96.8607 159.873 97.166C159.645 97.4714 159.347 97.7106 158.978 97.8838C158.608 98.0524 158.16 98.1367 157.631 98.1367C157.271 98.1367 156.94 98.0843 156.64 97.9795C156.343 97.8747 156.088 97.7129 155.874 97.4941C155.66 97.2754 155.493 96.9906 155.375 96.6396C155.261 96.2887 155.204 95.8672 155.204 95.375V90.6035H156.469V95.3887C156.469 95.7214 156.505 95.9971 156.578 96.2158C156.656 96.43 156.758 96.6009 156.886 96.7285C157.018 96.8516 157.164 96.9382 157.323 96.9883C157.487 97.0384 157.656 97.0635 157.829 97.0635C158.367 97.0635 158.793 96.9609 159.107 96.7559C159.422 96.5462 159.647 96.266 159.784 95.915C159.925 95.5596 159.996 95.1654 159.996 94.7324ZM170.305 88.9287L167.01 98H165.663L169.457 88.0469H170.325L170.305 88.9287ZM173.066 98L169.765 88.9287L169.744 88.0469H170.612L174.42 98H173.066ZM172.896 94.3154V95.3955H167.304V94.3154H172.896ZM176.826 92.1826V98H175.562V90.6035H176.758L176.826 92.1826ZM176.525 94.0215L175.999 94.001C176.004 93.4951 176.079 93.028 176.225 92.5996C176.37 92.1667 176.576 91.7907 176.84 91.4717C177.104 91.1527 177.419 90.9066 177.783 90.7334C178.152 90.5557 178.56 90.4668 179.007 90.4668C179.371 90.4668 179.7 90.5169 179.991 90.6172C180.283 90.7129 180.531 90.8678 180.736 91.082C180.946 91.2962 181.105 91.5742 181.215 91.916C181.324 92.2533 181.379 92.6657 181.379 93.1533V98H180.107V93.1396C180.107 92.7523 180.05 92.4424 179.937 92.21C179.823 91.973 179.656 91.8021 179.438 91.6973C179.219 91.5879 178.95 91.5332 178.631 91.5332C178.316 91.5332 178.029 91.5993 177.77 91.7314C177.514 91.8636 177.293 92.0459 177.106 92.2783C176.924 92.5107 176.781 92.7773 176.676 93.0781C176.576 93.3743 176.525 93.6888 176.525 94.0215ZM184.564 87.5V98H183.3V87.5H184.564ZM184.264 94.0215L183.737 94.001C183.742 93.4951 183.817 93.028 183.963 92.5996C184.109 92.1667 184.314 91.7907 184.578 91.4717C184.842 91.1527 185.157 90.9066 185.521 90.7334C185.891 90.5557 186.299 90.4668 186.745 90.4668C187.11 90.4668 187.438 90.5169 187.729 90.6172C188.021 90.7129 188.27 90.8678 188.475 91.082C188.684 91.2962 188.844 91.5742 188.953 91.916C189.062 92.2533 189.117 92.6657 189.117 93.1533V98H187.846V93.1396C187.846 92.7523 187.789 92.4424 187.675 92.21C187.561 91.973 187.395 91.8021 187.176 91.6973C186.957 91.5879 186.688 91.5332 186.369 91.5332C186.055 91.5332 185.768 91.5993 185.508 91.7314C185.253 91.8636 185.032 92.0459 184.845 92.2783C184.662 92.5107 184.519 92.7773 184.414 93.0781C184.314 93.3743 184.264 93.6888 184.264 94.0215Z" fill="#667793"/>
<circle cx="14" cy="123" r="4" fill="#D4DAE3"/>
<path d="M38.46 125.484C38.46 125.252 38.4235 125.047 38.3506 124.869C38.2822 124.687 38.1592 124.523 37.9814 124.377C37.8083 124.231 37.5667 124.092 37.2568 123.96C36.9515 123.828 36.5641 123.693 36.0947 123.557C35.6025 123.411 35.1582 123.249 34.7617 123.071C34.3652 122.889 34.0257 122.682 33.7432 122.449C33.4606 122.217 33.2441 121.95 33.0938 121.649C32.9434 121.349 32.8682 121.005 32.8682 120.617C32.8682 120.23 32.9479 119.872 33.1074 119.544C33.2669 119.216 33.4948 118.931 33.791 118.689C34.0918 118.443 34.4495 118.252 34.8643 118.115C35.279 117.979 35.7415 117.91 36.252 117.91C36.9993 117.91 37.6328 118.054 38.1523 118.341C38.6764 118.623 39.0752 118.995 39.3486 119.455C39.6221 119.911 39.7588 120.398 39.7588 120.918H38.4463C38.4463 120.544 38.3665 120.214 38.207 119.927C38.0475 119.635 37.806 119.407 37.4824 119.243C37.1589 119.075 36.7487 118.99 36.252 118.99C35.7826 118.99 35.3952 119.061 35.0898 119.202C34.7845 119.343 34.5566 119.535 34.4062 119.776C34.2604 120.018 34.1875 120.294 34.1875 120.604C34.1875 120.813 34.2308 121.005 34.3174 121.178C34.4085 121.346 34.5475 121.504 34.7344 121.649C34.9258 121.795 35.1673 121.93 35.459 122.053C35.7552 122.176 36.1084 122.294 36.5186 122.408C37.0837 122.568 37.5713 122.745 37.9814 122.941C38.3916 123.137 38.7288 123.358 38.9932 123.604C39.262 123.846 39.4603 124.122 39.5879 124.432C39.7201 124.737 39.7861 125.083 39.7861 125.471C39.7861 125.876 39.7041 126.243 39.54 126.571C39.376 126.899 39.1413 127.18 38.8359 127.412C38.5306 127.645 38.1637 127.825 37.7354 127.952C37.3115 128.075 36.8376 128.137 36.3135 128.137C35.8532 128.137 35.3997 128.073 34.9531 127.945C34.5111 127.818 34.1077 127.626 33.7432 127.371C33.3831 127.116 33.0938 126.801 32.875 126.428C32.6608 126.049 32.5537 125.612 32.5537 125.115H33.8662C33.8662 125.457 33.9323 125.751 34.0645 125.997C34.1966 126.239 34.3766 126.439 34.6045 126.599C34.8369 126.758 35.099 126.877 35.3906 126.954C35.6868 127.027 35.9945 127.063 36.3135 127.063C36.7738 127.063 37.1634 127 37.4824 126.872C37.8014 126.744 38.043 126.562 38.207 126.325C38.3757 126.088 38.46 125.808 38.46 125.484ZM42.6504 120.604V128H41.3789V120.604H42.6504ZM41.2832 118.642C41.2832 118.437 41.3447 118.263 41.4678 118.122C41.5954 117.981 41.7822 117.91 42.0283 117.91C42.2699 117.91 42.4544 117.981 42.582 118.122C42.7142 118.263 42.7803 118.437 42.7803 118.642C42.7803 118.838 42.7142 119.006 42.582 119.147C42.4544 119.284 42.2699 119.353 42.0283 119.353C41.7822 119.353 41.5954 119.284 41.4678 119.147C41.3447 119.006 41.2832 118.838 41.2832 118.642ZM45.9453 122.183V128H44.6807V120.604H45.877L45.9453 122.183ZM45.6445 124.021L45.1182 124.001C45.1227 123.495 45.1979 123.028 45.3438 122.6C45.4896 122.167 45.6947 121.791 45.959 121.472C46.2233 121.153 46.5378 120.907 46.9023 120.733C47.2715 120.556 47.6794 120.467 48.126 120.467C48.4906 120.467 48.8187 120.517 49.1104 120.617C49.402 120.713 49.6504 120.868 49.8555 121.082C50.0651 121.296 50.2246 121.574 50.334 121.916C50.4434 122.253 50.498 122.666 50.498 123.153V128H49.2266V123.14C49.2266 122.752 49.1696 122.442 49.0557 122.21C48.9417 121.973 48.7754 121.802 48.5566 121.697C48.3379 121.588 48.069 121.533 47.75 121.533C47.4355 121.533 47.1484 121.599 46.8887 121.731C46.6335 121.864 46.4124 122.046 46.2256 122.278C46.0433 122.511 45.8997 122.777 45.7949 123.078C45.6947 123.374 45.6445 123.689 45.6445 124.021ZM53.6836 117.5V128H52.4189V117.5H53.6836ZM53.3828 124.021L52.8564 124.001C52.861 123.495 52.9362 123.028 53.082 122.6C53.2279 122.167 53.4329 121.791 53.6973 121.472C53.9616 121.153 54.276 120.907 54.6406 120.733C55.0098 120.556 55.4176 120.467 55.8643 120.467C56.2288 120.467 56.557 120.517 56.8486 120.617C57.1403 120.713 57.3887 120.868 57.5938 121.082C57.8034 121.296 57.9629 121.574 58.0723 121.916C58.1816 122.253 58.2363 122.666 58.2363 123.153V128H56.9648V123.14C56.9648 122.752 56.9079 122.442 56.7939 122.21C56.68 121.973 56.5137 121.802 56.2949 121.697C56.0762 121.588 55.8073 121.533 55.4883 121.533C55.1738 121.533 54.8867 121.599 54.627 121.731C54.3717 121.864 54.1507 122.046 53.9639 122.278C53.7816 122.511 53.638 122.777 53.5332 123.078C53.4329 123.374 53.3828 123.689 53.3828 124.021ZM64.8672 122.183V128H63.6025V120.604H64.7988L64.8672 122.183ZM64.5664 124.021L64.04 124.001C64.0446 123.495 64.1198 123.028 64.2656 122.6C64.4115 122.167 64.6165 121.791 64.8809 121.472C65.1452 121.153 65.4596 120.907 65.8242 120.733C66.1934 120.556 66.6012 120.467 67.0479 120.467C67.4124 120.467 67.7406 120.517 68.0322 120.617C68.3239 120.713 68.5723 120.868 68.7773 121.082C68.987 121.296 69.1465 121.574 69.2559 121.916C69.3652 122.253 69.4199 122.666 69.4199 123.153V128H68.1484V123.14C68.1484 122.752 68.0915 122.442 67.9775 122.21C67.8636 121.973 67.6973 121.802 67.4785 121.697C67.2598 121.588 66.9909 121.533 66.6719 121.533C66.3574 121.533 66.0703 121.599 65.8105 121.731C65.5553 121.864 65.3343 122.046 65.1475 122.278C64.9652 122.511 64.8216 122.777 64.7168 123.078C64.6165 123.374 64.5664 123.689 64.5664 124.021ZM72.6055 117.5V128H71.3408V117.5H72.6055ZM72.3047 124.021L71.7783 124.001C71.7829 123.495 71.8581 123.028 72.0039 122.6C72.1497 122.167 72.3548 121.791 72.6191 121.472C72.8835 121.153 73.1979 120.907 73.5625 120.733C73.9316 120.556 74.3395 120.467 74.7861 120.467C75.1507 120.467 75.4788 120.517 75.7705 120.617C76.0622 120.713 76.3105 120.868 76.5156 121.082C76.7253 121.296 76.8848 121.574 76.9941 121.916C77.1035 122.253 77.1582 122.666 77.1582 123.153V128H75.8867V123.14C75.8867 122.752 75.8298 122.442 75.7158 122.21C75.6019 121.973 75.4355 121.802 75.2168 121.697C74.998 121.588 74.7292 121.533 74.4102 121.533C74.0957 121.533 73.8086 121.599 73.5488 121.731C73.2936 121.864 73.0726 122.046 72.8857 122.278C72.7035 122.511 72.5599 122.777 72.4551 123.078C72.3548 123.374 72.3047 123.689 72.3047 124.021ZM83.4131 126.735V122.928C83.4131 122.636 83.3538 122.383 83.2354 122.169C83.1214 121.95 82.9482 121.782 82.7158 121.663C82.4834 121.545 82.1963 121.485 81.8545 121.485C81.5355 121.485 81.2552 121.54 81.0137 121.649C80.7767 121.759 80.5898 121.902 80.4531 122.08C80.321 122.258 80.2549 122.449 80.2549 122.654H78.9902C78.9902 122.39 79.0586 122.128 79.1953 121.868C79.332 121.608 79.528 121.374 79.7832 121.164C80.043 120.95 80.3529 120.781 80.7129 120.658C81.0775 120.531 81.4831 120.467 81.9297 120.467C82.4674 120.467 82.9414 120.558 83.3516 120.74C83.7663 120.923 84.0898 121.198 84.3223 121.567C84.5592 121.932 84.6777 122.39 84.6777 122.941V126.387C84.6777 126.633 84.6982 126.895 84.7393 127.173C84.7848 127.451 84.8509 127.69 84.9375 127.891V128H83.6182C83.5544 127.854 83.5042 127.66 83.4678 127.419C83.4313 127.173 83.4131 126.945 83.4131 126.735ZM83.6318 123.516L83.6455 124.404H82.3672C82.0072 124.404 81.6859 124.434 81.4033 124.493C81.1208 124.548 80.8838 124.632 80.6924 124.746C80.501 124.86 80.3551 125.004 80.2549 125.177C80.1546 125.345 80.1045 125.544 80.1045 125.771C80.1045 126.004 80.1569 126.216 80.2617 126.407C80.3665 126.599 80.5238 126.751 80.7334 126.865C80.9476 126.975 81.2096 127.029 81.5195 127.029C81.9069 127.029 82.2487 126.947 82.5449 126.783C82.8411 126.619 83.0758 126.419 83.249 126.182C83.4268 125.945 83.5225 125.715 83.5361 125.491L84.0762 126.1C84.0443 126.291 83.9577 126.503 83.8164 126.735C83.6751 126.968 83.486 127.191 83.249 127.405C83.0166 127.615 82.7386 127.79 82.415 127.932C82.096 128.068 81.736 128.137 81.335 128.137C80.8337 128.137 80.3939 128.039 80.0156 127.843C79.6419 127.647 79.3503 127.385 79.1406 127.057C78.9355 126.724 78.833 126.353 78.833 125.942C78.833 125.546 78.9105 125.197 79.0654 124.896C79.2204 124.591 79.4437 124.338 79.7354 124.138C80.027 123.933 80.3779 123.778 80.7881 123.673C81.1982 123.568 81.6562 123.516 82.1621 123.516H83.6318ZM82.4492 117.5L84.1445 119.366V119.435H83.0918L82.0664 118.279L81.0479 119.435H80.0088V119.359L81.6836 117.5H82.4492ZM80.7334 129.682C80.7334 129.477 80.7949 129.303 80.918 129.162C81.0456 129.021 81.2324 128.95 81.4785 128.95C81.7201 128.95 81.9046 129.021 82.0322 129.162C82.1644 129.303 82.2305 129.477 82.2305 129.682C82.2305 129.878 82.1644 130.044 82.0322 130.181C81.9046 130.322 81.7201 130.393 81.4785 130.393C81.2324 130.393 81.0456 130.322 80.918 130.181C80.7949 130.044 80.7334 129.878 80.7334 129.682ZM89.7637 120.604V121.574H85.7646V120.604H89.7637ZM87.1182 118.806H88.3828V126.168C88.3828 126.419 88.4215 126.608 88.499 126.735C88.5765 126.863 88.6768 126.947 88.7998 126.988C88.9229 127.029 89.055 127.05 89.1963 127.05C89.3011 127.05 89.4105 127.041 89.5244 127.022C89.6429 127 89.7318 126.981 89.791 126.968L89.7979 128C89.6976 128.032 89.5654 128.062 89.4014 128.089C89.2419 128.121 89.0482 128.137 88.8203 128.137C88.5104 128.137 88.2256 128.075 87.9658 127.952C87.7061 127.829 87.4987 127.624 87.3438 127.337C87.1934 127.045 87.1182 126.653 87.1182 126.161V118.806ZM102.574 122.709V123.338C102.574 124.085 102.481 124.755 102.294 125.348C102.107 125.94 101.838 126.444 101.487 126.858C101.136 127.273 100.715 127.59 100.223 127.809C99.735 128.027 99.1882 128.137 98.582 128.137C97.9941 128.137 97.4541 128.027 96.9619 127.809C96.4743 127.59 96.0505 127.273 95.6904 126.858C95.335 126.444 95.0592 125.94 94.8633 125.348C94.6673 124.755 94.5693 124.085 94.5693 123.338V122.709C94.5693 121.962 94.665 121.294 94.8564 120.706C95.0524 120.114 95.3281 119.61 95.6836 119.195C96.0391 118.776 96.4606 118.457 96.9482 118.238C97.4404 118.02 97.9805 117.91 98.5684 117.91C99.1745 117.91 99.7214 118.02 100.209 118.238C100.701 118.457 101.123 118.776 101.474 119.195C101.829 119.61 102.1 120.114 102.287 120.706C102.479 121.294 102.574 121.962 102.574 122.709ZM101.269 123.338V122.695C101.269 122.103 101.207 121.579 101.084 121.123C100.965 120.667 100.79 120.285 100.558 119.975C100.325 119.665 100.04 119.43 99.7031 119.271C99.3704 119.111 98.9922 119.031 98.5684 119.031C98.1582 119.031 97.7868 119.111 97.4541 119.271C97.126 119.43 96.8434 119.665 96.6064 119.975C96.374 120.285 96.194 120.667 96.0664 121.123C95.9388 121.579 95.875 122.103 95.875 122.695V123.338C95.875 123.935 95.9388 124.464 96.0664 124.924C96.194 125.38 96.3763 125.765 96.6133 126.079C96.8548 126.389 97.1396 126.624 97.4678 126.783C97.8005 126.943 98.1719 127.022 98.582 127.022C99.0104 127.022 99.391 126.943 99.7236 126.783C100.056 126.624 100.337 126.389 100.564 126.079C100.797 125.765 100.972 125.38 101.091 124.924C101.209 124.464 101.269 123.935 101.269 123.338ZM98.9717 115.36L100.667 117.227V117.295H99.6143L98.5889 116.14L97.5703 117.295H96.5312V117.22L98.2061 115.36H98.9717ZM105.623 122.183V128H104.358V120.604H105.555L105.623 122.183ZM105.322 124.021L104.796 124.001C104.8 123.495 104.876 123.028 105.021 122.6C105.167 122.167 105.372 121.791 105.637 121.472C105.901 121.153 106.215 120.907 106.58 120.733C106.949 120.556 107.357 120.467 107.804 120.467C108.168 120.467 108.496 120.517 108.788 120.617C109.08 120.713 109.328 120.868 109.533 121.082C109.743 121.296 109.902 121.574 110.012 121.916C110.121 122.253 110.176 122.666 110.176 123.153V128H108.904V123.14C108.904 122.752 108.847 122.442 108.733 122.21C108.619 121.973 108.453 121.802 108.234 121.697C108.016 121.588 107.747 121.533 107.428 121.533C107.113 121.533 106.826 121.599 106.566 121.731C106.311 121.864 106.09 122.046 105.903 122.278C105.721 122.511 105.577 122.777 105.473 123.078C105.372 123.374 105.322 123.689 105.322 124.021ZM116.889 120.604H118.037V127.843C118.037 128.494 117.905 129.05 117.641 129.511C117.376 129.971 117.007 130.32 116.533 130.557C116.064 130.798 115.521 130.919 114.906 130.919C114.651 130.919 114.35 130.878 114.004 130.796C113.662 130.718 113.325 130.584 112.992 130.393C112.664 130.206 112.388 129.953 112.165 129.634L112.828 128.882C113.138 129.256 113.462 129.515 113.799 129.661C114.141 129.807 114.478 129.88 114.811 129.88C115.212 129.88 115.558 129.805 115.85 129.654C116.141 129.504 116.367 129.281 116.526 128.984C116.69 128.693 116.772 128.333 116.772 127.904V122.23L116.889 120.604ZM111.796 124.384V124.24C111.796 123.675 111.862 123.162 111.994 122.702C112.131 122.237 112.325 121.839 112.575 121.506C112.83 121.173 113.138 120.918 113.498 120.74C113.858 120.558 114.264 120.467 114.715 120.467C115.18 120.467 115.585 120.549 115.932 120.713C116.283 120.872 116.579 121.107 116.82 121.417C117.066 121.722 117.26 122.091 117.401 122.524C117.543 122.957 117.641 123.447 117.695 123.994V124.623C117.645 125.165 117.547 125.653 117.401 126.086C117.26 126.519 117.066 126.888 116.82 127.193C116.579 127.499 116.283 127.733 115.932 127.897C115.581 128.057 115.171 128.137 114.701 128.137C114.259 128.137 113.858 128.043 113.498 127.856C113.143 127.67 112.837 127.408 112.582 127.07C112.327 126.733 112.131 126.337 111.994 125.881C111.862 125.421 111.796 124.922 111.796 124.384ZM113.061 124.24V124.384C113.061 124.753 113.097 125.099 113.17 125.423C113.247 125.746 113.364 126.031 113.519 126.277C113.678 126.523 113.881 126.717 114.127 126.858C114.373 126.995 114.667 127.063 115.009 127.063C115.428 127.063 115.774 126.975 116.048 126.797C116.321 126.619 116.538 126.384 116.697 126.093C116.861 125.801 116.989 125.484 117.08 125.143V123.495C117.03 123.244 116.952 123.003 116.848 122.771C116.747 122.534 116.615 122.324 116.451 122.142C116.292 121.955 116.093 121.807 115.856 121.697C115.619 121.588 115.341 121.533 115.022 121.533C114.676 121.533 114.378 121.606 114.127 121.752C113.881 121.893 113.678 122.089 113.519 122.34C113.364 122.586 113.247 122.873 113.17 123.201C113.097 123.525 113.061 123.871 113.061 124.24ZM130.123 122.326V123.399H124.736V122.326H130.123ZM124.941 118.047V128H123.622V118.047H124.941ZM131.271 118.047V128H129.959V118.047H131.271ZM133.09 124.384V124.227C133.09 123.693 133.167 123.199 133.322 122.743C133.477 122.283 133.701 121.884 133.992 121.547C134.284 121.205 134.637 120.941 135.052 120.754C135.466 120.562 135.931 120.467 136.446 120.467C136.966 120.467 137.433 120.562 137.848 120.754C138.267 120.941 138.622 121.205 138.914 121.547C139.21 121.884 139.436 122.283 139.591 122.743C139.746 123.199 139.823 123.693 139.823 124.227V124.384C139.823 124.917 139.746 125.411 139.591 125.867C139.436 126.323 139.21 126.722 138.914 127.063C138.622 127.401 138.269 127.665 137.854 127.856C137.444 128.043 136.979 128.137 136.46 128.137C135.94 128.137 135.473 128.043 135.059 127.856C134.644 127.665 134.288 127.401 133.992 127.063C133.701 126.722 133.477 126.323 133.322 125.867C133.167 125.411 133.09 124.917 133.09 124.384ZM134.354 124.227V124.384C134.354 124.753 134.398 125.102 134.484 125.43C134.571 125.753 134.701 126.04 134.874 126.291C135.052 126.542 135.273 126.74 135.537 126.886C135.801 127.027 136.109 127.098 136.46 127.098C136.806 127.098 137.109 127.027 137.369 126.886C137.633 126.74 137.852 126.542 138.025 126.291C138.199 126.04 138.328 125.753 138.415 125.43C138.506 125.102 138.552 124.753 138.552 124.384V124.227C138.552 123.862 138.506 123.518 138.415 123.194C138.328 122.866 138.196 122.577 138.019 122.326C137.845 122.071 137.627 121.87 137.362 121.725C137.103 121.579 136.797 121.506 136.446 121.506C136.1 121.506 135.795 121.579 135.53 121.725C135.271 121.87 135.052 122.071 134.874 122.326C134.701 122.577 134.571 122.866 134.484 123.194C134.398 123.518 134.354 123.862 134.354 124.227ZM145.771 126.735V122.928C145.771 122.636 145.711 122.383 145.593 122.169C145.479 121.95 145.306 121.782 145.073 121.663C144.841 121.545 144.554 121.485 144.212 121.485C143.893 121.485 143.613 121.54 143.371 121.649C143.134 121.759 142.947 121.902 142.811 122.08C142.678 122.258 142.612 122.449 142.612 122.654H141.348C141.348 122.39 141.416 122.128 141.553 121.868C141.689 121.608 141.885 121.374 142.141 121.164C142.4 120.95 142.71 120.781 143.07 120.658C143.435 120.531 143.84 120.467 144.287 120.467C144.825 120.467 145.299 120.558 145.709 120.74C146.124 120.923 146.447 121.198 146.68 121.567C146.917 121.932 147.035 122.39 147.035 122.941V126.387C147.035 126.633 147.056 126.895 147.097 127.173C147.142 127.451 147.208 127.69 147.295 127.891V128H145.976C145.912 127.854 145.862 127.66 145.825 127.419C145.789 127.173 145.771 126.945 145.771 126.735ZM145.989 123.516L146.003 124.404H144.725C144.365 124.404 144.043 124.434 143.761 124.493C143.478 124.548 143.241 124.632 143.05 124.746C142.858 124.86 142.713 125.004 142.612 125.177C142.512 125.345 142.462 125.544 142.462 125.771C142.462 126.004 142.514 126.216 142.619 126.407C142.724 126.599 142.881 126.751 143.091 126.865C143.305 126.975 143.567 127.029 143.877 127.029C144.264 127.029 144.606 126.947 144.902 126.783C145.199 126.619 145.433 126.419 145.606 126.182C145.784 125.945 145.88 125.715 145.894 125.491L146.434 126.1C146.402 126.291 146.315 126.503 146.174 126.735C146.033 126.968 145.843 127.191 145.606 127.405C145.374 127.615 145.096 127.79 144.772 127.932C144.453 128.068 144.093 128.137 143.692 128.137C143.191 128.137 142.751 128.039 142.373 127.843C141.999 127.647 141.708 127.385 141.498 127.057C141.293 126.724 141.19 126.353 141.19 125.942C141.19 125.546 141.268 125.197 141.423 124.896C141.578 124.591 141.801 124.338 142.093 124.138C142.384 123.933 142.735 123.778 143.146 123.673C143.556 123.568 144.014 123.516 144.52 123.516H145.989ZM143.822 117.5L145.142 119.51H144.055L142.291 117.5H143.822ZM150.289 122.183V128H149.024V120.604H150.221L150.289 122.183ZM149.988 124.021L149.462 124.001C149.466 123.495 149.542 123.028 149.688 122.6C149.833 122.167 150.038 121.791 150.303 121.472C150.567 121.153 150.882 120.907 151.246 120.733C151.615 120.556 152.023 120.467 152.47 120.467C152.834 120.467 153.162 120.517 153.454 120.617C153.746 120.713 153.994 120.868 154.199 121.082C154.409 121.296 154.568 121.574 154.678 121.916C154.787 122.253 154.842 122.666 154.842 123.153V128H153.57V123.14C153.57 122.752 153.513 122.442 153.399 122.21C153.285 121.973 153.119 121.802 152.9 121.697C152.682 121.588 152.413 121.533 152.094 121.533C151.779 121.533 151.492 121.599 151.232 121.731C150.977 121.864 150.756 122.046 150.569 122.278C150.387 122.511 150.243 122.777 150.139 123.078C150.038 123.374 149.988 123.689 149.988 124.021ZM161.555 120.604H162.703V127.843C162.703 128.494 162.571 129.05 162.307 129.511C162.042 129.971 161.673 130.32 161.199 130.557C160.73 130.798 160.188 130.919 159.572 130.919C159.317 130.919 159.016 130.878 158.67 130.796C158.328 130.718 157.991 130.584 157.658 130.393C157.33 130.206 157.054 129.953 156.831 129.634L157.494 128.882C157.804 129.256 158.128 129.515 158.465 129.661C158.807 129.807 159.144 129.88 159.477 129.88C159.878 129.88 160.224 129.805 160.516 129.654C160.807 129.504 161.033 129.281 161.192 128.984C161.356 128.693 161.438 128.333 161.438 127.904V122.23L161.555 120.604ZM156.462 124.384V124.24C156.462 123.675 156.528 123.162 156.66 122.702C156.797 122.237 156.991 121.839 157.241 121.506C157.496 121.173 157.804 120.918 158.164 120.74C158.524 120.558 158.93 120.467 159.381 120.467C159.846 120.467 160.251 120.549 160.598 120.713C160.949 120.872 161.245 121.107 161.486 121.417C161.732 121.722 161.926 122.091 162.067 122.524C162.209 122.957 162.307 123.447 162.361 123.994V124.623C162.311 125.165 162.213 125.653 162.067 126.086C161.926 126.519 161.732 126.888 161.486 127.193C161.245 127.499 160.949 127.733 160.598 127.897C160.247 128.057 159.837 128.137 159.367 128.137C158.925 128.137 158.524 128.043 158.164 127.856C157.809 127.67 157.503 127.408 157.248 127.07C156.993 126.733 156.797 126.337 156.66 125.881C156.528 125.421 156.462 124.922 156.462 124.384ZM157.727 124.24V124.384C157.727 124.753 157.763 125.099 157.836 125.423C157.913 125.746 158.03 126.031 158.185 126.277C158.344 126.523 158.547 126.717 158.793 126.858C159.039 126.995 159.333 127.063 159.675 127.063C160.094 127.063 160.44 126.975 160.714 126.797C160.987 126.619 161.204 126.384 161.363 126.093C161.527 125.801 161.655 125.484 161.746 125.143V123.495C161.696 123.244 161.618 123.003 161.514 122.771C161.413 122.534 161.281 122.324 161.117 122.142C160.958 121.955 160.759 121.807 160.522 121.697C160.285 121.588 160.007 121.533 159.688 121.533C159.342 121.533 159.044 121.606 158.793 121.752C158.547 121.893 158.344 122.089 158.185 122.34C158.03 122.586 157.913 122.873 157.836 123.201C157.763 123.525 157.727 123.871 157.727 124.24ZM168.705 118.047H169.983L173.244 126.161L176.498 118.047H177.783L173.736 128H172.738L168.705 118.047ZM168.288 118.047H169.416L169.601 124.117V128H168.288V118.047ZM177.065 118.047H178.193V128H176.881V124.117L177.065 118.047ZM181.693 120.604V128H180.422V120.604H181.693ZM180.326 118.642C180.326 118.437 180.388 118.263 180.511 118.122C180.638 117.981 180.825 117.91 181.071 117.91C181.313 117.91 181.497 117.981 181.625 118.122C181.757 118.263 181.823 118.437 181.823 118.642C181.823 118.838 181.757 119.006 181.625 119.147C181.497 119.284 181.313 119.353 181.071 119.353C180.825 119.353 180.638 119.284 180.511 119.147C180.388 119.006 180.326 118.838 180.326 118.642ZM184.988 122.183V128H183.724V120.604H184.92L184.988 122.183ZM184.688 124.021L184.161 124.001C184.166 123.495 184.241 123.028 184.387 122.6C184.533 122.167 184.738 121.791 185.002 121.472C185.266 121.153 185.581 120.907 185.945 120.733C186.314 120.556 186.722 120.467 187.169 120.467C187.534 120.467 187.862 120.517 188.153 120.617C188.445 120.713 188.693 120.868 188.898 121.082C189.108 121.296 189.268 121.574 189.377 121.916C189.486 122.253 189.541 122.666 189.541 123.153V128H188.27V123.14C188.27 122.752 188.213 122.442 188.099 122.21C187.985 121.973 187.818 121.802 187.6 121.697C187.381 121.588 187.112 121.533 186.793 121.533C186.479 121.533 186.191 121.599 185.932 121.731C185.676 121.864 185.455 122.046 185.269 122.278C185.086 122.511 184.943 122.777 184.838 123.078C184.738 123.374 184.688 123.689 184.688 124.021ZM192.727 117.5V128H191.462V117.5H192.727ZM192.426 124.021L191.899 124.001C191.904 123.495 191.979 123.028 192.125 122.6C192.271 122.167 192.476 121.791 192.74 121.472C193.005 121.153 193.319 120.907 193.684 120.733C194.053 120.556 194.461 120.467 194.907 120.467C195.272 120.467 195.6 120.517 195.892 120.617C196.183 120.713 196.432 120.868 196.637 121.082C196.846 121.296 197.006 121.574 197.115 121.916C197.225 122.253 197.279 122.666 197.279 123.153V128H196.008V123.14C196.008 122.752 195.951 122.442 195.837 122.21C195.723 121.973 195.557 121.802 195.338 121.697C195.119 121.588 194.85 121.533 194.531 121.533C194.217 121.533 193.93 121.599 193.67 121.731C193.415 121.864 193.194 122.046 193.007 122.278C192.825 122.511 192.681 122.777 192.576 123.078C192.476 123.374 192.426 123.689 192.426 124.021ZM206.508 124.097H203.849V123.023H206.508C207.023 123.023 207.44 122.941 207.759 122.777C208.078 122.613 208.31 122.385 208.456 122.094C208.606 121.802 208.682 121.469 208.682 121.096C208.682 120.754 208.606 120.433 208.456 120.132C208.31 119.831 208.078 119.59 207.759 119.407C207.44 119.22 207.023 119.127 206.508 119.127H204.156V128H202.837V118.047H206.508C207.26 118.047 207.896 118.177 208.415 118.437C208.935 118.696 209.329 119.056 209.598 119.517C209.867 119.972 210.001 120.494 210.001 121.082C210.001 121.72 209.867 122.265 209.598 122.716C209.329 123.167 208.935 123.511 208.415 123.748C207.896 123.98 207.26 124.097 206.508 124.097ZM212.742 117.5V128H211.478V117.5H212.742ZM212.441 124.021L211.915 124.001C211.92 123.495 211.995 123.028 212.141 122.6C212.286 122.167 212.492 121.791 212.756 121.472C213.02 121.153 213.335 120.907 213.699 120.733C214.068 120.556 214.476 120.467 214.923 120.467C215.287 120.467 215.616 120.517 215.907 120.617C216.199 120.713 216.447 120.868 216.652 121.082C216.862 121.296 217.021 121.574 217.131 121.916C217.24 122.253 217.295 122.666 217.295 123.153V128H216.023V123.14C216.023 122.752 215.966 122.442 215.853 122.21C215.739 121.973 215.572 121.802 215.354 121.697C215.135 121.588 214.866 121.533 214.547 121.533C214.232 121.533 213.945 121.599 213.686 121.731C213.43 121.864 213.209 122.046 213.022 122.278C212.84 122.511 212.697 122.777 212.592 123.078C212.492 123.374 212.441 123.689 212.441 124.021ZM226.113 120.009H227.084C227.084 120.506 227.018 120.923 226.886 121.26C226.758 121.597 226.533 121.85 226.209 122.019C225.885 122.187 225.43 122.271 224.842 122.271V121.492C225.252 121.492 225.546 121.442 225.724 121.342C225.901 121.237 226.011 121.075 226.052 120.856C226.093 120.638 226.113 120.355 226.113 120.009ZM223.714 126.291V120.604H224.985V128H223.775L223.714 126.291ZM223.953 124.732L224.479 124.719C224.479 125.211 224.427 125.667 224.322 126.086C224.222 126.501 224.058 126.861 223.83 127.166C223.602 127.471 223.304 127.711 222.935 127.884C222.565 128.052 222.117 128.137 221.588 128.137C221.228 128.137 220.897 128.084 220.597 127.979C220.3 127.875 220.045 127.713 219.831 127.494C219.617 127.275 219.451 126.991 219.332 126.64C219.218 126.289 219.161 125.867 219.161 125.375V120.604H220.426V125.389C220.426 125.721 220.462 125.997 220.535 126.216C220.613 126.43 220.715 126.601 220.843 126.729C220.975 126.852 221.121 126.938 221.28 126.988C221.444 127.038 221.613 127.063 221.786 127.063C222.324 127.063 222.75 126.961 223.064 126.756C223.379 126.546 223.604 126.266 223.741 125.915C223.882 125.56 223.953 125.165 223.953 124.732ZM234.146 119.79H235.164C235.164 120.291 235.096 120.724 234.959 121.089C234.822 121.449 234.594 121.727 234.275 121.923C233.956 122.119 233.523 122.217 232.977 122.217V121.424C233.318 121.424 233.571 121.355 233.735 121.219C233.904 121.082 234.013 120.891 234.063 120.645C234.118 120.398 234.146 120.114 234.146 119.79ZM227.521 124.384V124.227C227.521 123.693 227.599 123.199 227.754 122.743C227.909 122.283 228.132 121.884 228.424 121.547C228.715 121.205 229.069 120.941 229.483 120.754C229.898 120.562 230.363 120.467 230.878 120.467C231.397 120.467 231.865 120.562 232.279 120.754C232.699 120.941 233.054 121.205 233.346 121.547C233.637 121.884 233.861 122.283 234.016 122.743C234.171 123.199 234.248 123.693 234.248 124.227V124.384C234.248 124.917 234.171 125.411 234.016 125.867C233.861 126.323 233.637 126.722 233.346 127.063C233.054 127.401 232.701 127.665 232.286 127.856C231.876 128.043 231.411 128.137 230.892 128.137C230.372 128.137 229.905 128.043 229.49 127.856C229.076 127.665 228.72 127.401 228.424 127.063C228.132 126.722 227.909 126.323 227.754 125.867C227.599 125.411 227.521 124.917 227.521 124.384ZM228.786 124.227V124.384C228.786 124.753 228.829 125.102 228.916 125.43C229.003 125.753 229.132 126.04 229.306 126.291C229.483 126.542 229.704 126.74 229.969 126.886C230.233 127.027 230.541 127.098 230.892 127.098C231.238 127.098 231.541 127.027 231.801 126.886C232.065 126.74 232.284 126.542 232.457 126.291C232.63 126.04 232.76 125.753 232.847 125.43C232.938 125.102 232.983 124.753 232.983 124.384V124.227C232.983 123.862 232.938 123.518 232.847 123.194C232.76 122.866 232.628 122.577 232.45 122.326C232.277 122.071 232.058 121.87 231.794 121.725C231.534 121.579 231.229 121.506 230.878 121.506C230.532 121.506 230.226 121.579 229.962 121.725C229.702 121.87 229.483 122.071 229.306 122.326C229.132 122.577 229.003 122.866 228.916 123.194C228.829 123.518 228.786 123.862 228.786 124.227ZM237.133 122.183V128H235.868V120.604H237.064L237.133 122.183ZM236.832 124.021L236.306 124.001C236.31 123.495 236.385 123.028 236.531 122.6C236.677 122.167 236.882 121.791 237.146 121.472C237.411 121.153 237.725 120.907 238.09 120.733C238.459 120.556 238.867 120.467 239.313 120.467C239.678 120.467 240.006 120.517 240.298 120.617C240.59 120.713 240.838 120.868 241.043 121.082C241.253 121.296 241.412 121.574 241.521 121.916C241.631 122.253 241.686 122.666 241.686 123.153V128H240.414V123.14C240.414 122.752 240.357 122.442 240.243 122.21C240.129 121.973 239.963 121.802 239.744 121.697C239.525 121.588 239.257 121.533 238.938 121.533C238.623 121.533 238.336 121.599 238.076 121.731C237.821 121.864 237.6 122.046 237.413 122.278C237.231 122.511 237.087 122.777 236.982 123.078C236.882 123.374 236.832 123.689 236.832 124.021ZM248.398 120.604H249.547V127.843C249.547 128.494 249.415 129.05 249.15 129.511C248.886 129.971 248.517 130.32 248.043 130.557C247.574 130.798 247.031 130.919 246.416 130.919C246.161 130.919 245.86 130.878 245.514 130.796C245.172 130.718 244.835 130.584 244.502 130.393C244.174 130.206 243.898 129.953 243.675 129.634L244.338 128.882C244.648 129.256 244.971 129.515 245.309 129.661C245.65 129.807 245.988 129.88 246.32 129.88C246.721 129.88 247.068 129.805 247.359 129.654C247.651 129.504 247.877 129.281 248.036 128.984C248.2 128.693 248.282 128.333 248.282 127.904V122.23L248.398 120.604ZM243.306 124.384V124.24C243.306 123.675 243.372 123.162 243.504 122.702C243.641 122.237 243.834 121.839 244.085 121.506C244.34 121.173 244.648 120.918 245.008 120.74C245.368 120.558 245.773 120.467 246.225 120.467C246.689 120.467 247.095 120.549 247.441 120.713C247.792 120.872 248.089 121.107 248.33 121.417C248.576 121.722 248.77 122.091 248.911 122.524C249.052 122.957 249.15 123.447 249.205 123.994V124.623C249.155 125.165 249.057 125.653 248.911 126.086C248.77 126.519 248.576 126.888 248.33 127.193C248.089 127.499 247.792 127.733 247.441 127.897C247.09 128.057 246.68 128.137 246.211 128.137C245.769 128.137 245.368 128.043 245.008 127.856C244.652 127.67 244.347 127.408 244.092 127.07C243.837 126.733 243.641 126.337 243.504 125.881C243.372 125.421 243.306 124.922 243.306 124.384ZM244.57 124.24V124.384C244.57 124.753 244.607 125.099 244.68 125.423C244.757 125.746 244.873 126.031 245.028 126.277C245.188 126.523 245.391 126.717 245.637 126.858C245.883 126.995 246.177 127.063 246.519 127.063C246.938 127.063 247.284 126.975 247.558 126.797C247.831 126.619 248.048 126.384 248.207 126.093C248.371 125.801 248.499 125.484 248.59 125.143V123.495C248.54 123.244 248.462 123.003 248.357 122.771C248.257 122.534 248.125 122.324 247.961 122.142C247.801 121.955 247.603 121.807 247.366 121.697C247.129 121.588 246.851 121.533 246.532 121.533C246.186 121.533 245.887 121.606 245.637 121.752C245.391 121.893 245.188 122.089 245.028 122.34C244.873 122.586 244.757 122.873 244.68 123.201C244.607 123.525 244.57 123.871 244.57 124.24Z" fill="#667793"/>
</svg>
