<svg width="20" height="20" viewBox="0 0 20 20" fill="none" xmlns="http://www.w3.org/2000/svg">
<path fill-rule="evenodd" clip-rule="evenodd" d="M9.99935 18.3327C5.39935 18.3327 1.66602 14.6077 1.66602 9.99935C1.66602 5.39935 5.39935 1.66602 9.99935 1.66602C14.6077 1.66602 18.3327 5.39935 18.3327 9.99935C18.3327 14.6077 14.6077 18.3327 9.99935 18.3327ZM12.6577 13.091C12.7577 13.1493 12.866 13.1827 12.9827 13.1827C13.191 13.1827 13.3993 13.0743 13.516 12.8743C13.691 12.5827 13.5993 12.1993 13.2993 12.016L10.3327 10.2493V6.39935C10.3327 6.04935 10.0493 5.77435 9.70768 5.77435C9.36602 5.77435 9.08268 6.04935 9.08268 6.39935V10.6077C9.08268 10.8243 9.19935 11.0243 9.39102 11.141L12.6577 13.091Z" fill="#A2AEBD"/>
</svg>
