<svg width="343" height="165" viewBox="0 0 343 165" fill="none" xmlns="http://www.w3.org/2000/svg">
<rect width="343" height="40" fill="#F5F8FD"/>
<rect width="40" height="40" fill="#EA5455"/>
<rect x="40" width="216" height="40" fill="#FF9F43"/>
<path d="M23.3838 15.0469V15.9492L19.4053 25H17.6689L21.6406 16.3594H16.4863V15.0469H23.3838Z" fill="white"/>
<path d="M142.729 19.2783H143.714C144.097 19.2783 144.413 19.2122 144.664 19.0801C144.919 18.9479 145.108 18.7656 145.231 18.5332C145.354 18.3008 145.416 18.0342 145.416 17.7334C145.416 17.4189 145.359 17.1501 145.245 16.9268C145.136 16.6989 144.967 16.5234 144.739 16.4004C144.516 16.2773 144.231 16.2158 143.885 16.2158C143.593 16.2158 143.329 16.2751 143.092 16.3936C142.859 16.5075 142.675 16.6715 142.538 16.8857C142.401 17.0954 142.333 17.346 142.333 17.6377H140.679C140.679 17.109 140.818 16.6396 141.096 16.2295C141.374 15.8193 141.752 15.498 142.23 15.2656C142.714 15.0286 143.256 14.9102 143.857 14.9102C144.5 14.9102 145.061 15.0173 145.539 15.2314C146.022 15.4411 146.398 15.7555 146.667 16.1748C146.936 16.5941 147.07 17.1136 147.07 17.7334C147.07 18.016 147.004 18.3031 146.872 18.5947C146.74 18.8864 146.544 19.153 146.284 19.3945C146.024 19.6315 145.701 19.8252 145.313 19.9756C144.926 20.1214 144.477 20.1943 143.967 20.1943H142.729V19.2783ZM142.729 20.5635V19.6611H143.967C144.55 19.6611 145.047 19.7295 145.457 19.8662C145.872 20.0029 146.209 20.1921 146.469 20.4336C146.729 20.6706 146.918 20.9417 147.036 21.2471C147.159 21.5524 147.221 21.876 147.221 22.2178C147.221 22.6826 147.136 23.0973 146.968 23.4619C146.804 23.8219 146.569 24.1273 146.264 24.3779C145.958 24.6286 145.601 24.8177 145.19 24.9453C144.785 25.0729 144.343 25.1367 143.864 25.1367C143.436 25.1367 143.026 25.0775 142.634 24.959C142.242 24.8405 141.891 24.665 141.581 24.4326C141.271 24.1956 141.025 23.9017 140.843 23.5508C140.665 23.1953 140.576 22.7852 140.576 22.3203H142.224C142.224 22.6165 142.292 22.8786 142.429 23.1064C142.57 23.3298 142.766 23.5052 143.017 23.6328C143.272 23.7604 143.563 23.8242 143.892 23.8242C144.238 23.8242 144.536 23.7627 144.787 23.6396C145.038 23.5166 145.229 23.3343 145.361 23.0928C145.498 22.8512 145.566 22.5596 145.566 22.2178C145.566 21.8304 145.491 21.516 145.341 21.2744C145.19 21.0329 144.976 20.8551 144.698 20.7412C144.42 20.6227 144.092 20.5635 143.714 20.5635H142.729ZM155.239 19.1895V20.8164C155.239 21.5957 155.162 22.2611 155.007 22.8125C154.856 23.3594 154.638 23.8037 154.351 24.1455C154.063 24.4873 153.719 24.738 153.318 24.8975C152.922 25.057 152.478 25.1367 151.985 25.1367C151.593 25.1367 151.229 25.0866 150.892 24.9863C150.559 24.8861 150.258 24.7288 149.989 24.5146C149.72 24.3005 149.49 24.0247 149.299 23.6875C149.112 23.3457 148.966 22.9378 148.861 22.4639C148.761 21.9899 148.711 21.4408 148.711 20.8164V19.1895C148.711 18.4056 148.788 17.7448 148.943 17.207C149.098 16.6647 149.319 16.2249 149.606 15.8877C149.894 15.5459 150.235 15.2975 150.632 15.1426C151.033 14.9876 151.479 14.9102 151.972 14.9102C152.368 14.9102 152.733 14.9603 153.065 15.0605C153.403 15.1562 153.703 15.3089 153.968 15.5186C154.237 15.7282 154.465 16.0016 154.651 16.3389C154.843 16.6715 154.989 17.0749 155.089 17.5488C155.189 18.0182 155.239 18.5651 155.239 19.1895ZM153.592 21.0488V18.9434C153.592 18.5469 153.569 18.1982 153.523 17.8975C153.478 17.5921 153.41 17.3346 153.318 17.125C153.232 16.9108 153.122 16.7376 152.99 16.6055C152.858 16.4688 152.708 16.3708 152.539 16.3115C152.37 16.2477 152.181 16.2158 151.972 16.2158C151.716 16.2158 151.489 16.266 151.288 16.3662C151.088 16.4619 150.919 16.6169 150.782 16.8311C150.646 17.0452 150.541 17.3278 150.468 17.6787C150.399 18.0251 150.365 18.4466 150.365 18.9434V21.0488C150.365 21.4499 150.388 21.8031 150.434 22.1084C150.479 22.4137 150.548 22.6758 150.639 22.8945C150.73 23.1087 150.839 23.2865 150.967 23.4277C151.099 23.5645 151.249 23.6647 151.418 23.7285C151.591 23.7923 151.78 23.8242 151.985 23.8242C152.245 23.8242 152.475 23.7741 152.676 23.6738C152.876 23.5736 153.045 23.4141 153.182 23.1953C153.318 22.972 153.421 22.6826 153.489 22.3271C153.558 21.9717 153.592 21.5456 153.592 21.0488Z" fill="white"/>
<rect y="56" width="343" height="40" fill="#F5F8FD"/>
<rect y="56" width="40" height="40" fill="#28C76F"/>
<path d="M23.3838 71.0469V71.9492L19.4053 81H17.6689L21.6406 72.3594H16.4863V71.0469H23.3838Z" fill="white"/>
<circle cx="7" cy="124" r="7" fill="#FF9F43"/>
<path d="M30.502 129H28.4238L28.4375 127.927H30.502C31.2129 127.927 31.8053 127.779 32.2793 127.482C32.7533 127.182 33.1087 126.762 33.3457 126.225C33.5872 125.682 33.708 125.049 33.708 124.324V123.716C33.708 123.146 33.6396 122.64 33.5029 122.198C33.3662 121.752 33.1657 121.376 32.9014 121.07C32.637 120.76 32.3135 120.526 31.9307 120.366C31.5524 120.207 31.1172 120.127 30.625 120.127H28.3828V119.047H30.625C31.2767 119.047 31.8714 119.156 32.4092 119.375C32.9469 119.589 33.4095 119.901 33.7969 120.312C34.1888 120.717 34.4896 121.209 34.6992 121.788C34.9089 122.362 35.0137 123.009 35.0137 123.729V124.324C35.0137 125.044 34.9089 125.694 34.6992 126.272C34.4896 126.847 34.1865 127.337 33.79 127.742C33.3981 128.148 32.9242 128.46 32.3682 128.679C31.8167 128.893 31.1947 129 30.502 129ZM29.1279 119.047V129H27.8086V119.047H29.1279ZM31.0557 123.415V124.454H26.7012V123.415H31.0557ZM41.166 127.735V123.928C41.166 123.636 41.1068 123.383 40.9883 123.169C40.8743 122.95 40.7012 122.782 40.4688 122.663C40.2363 122.545 39.9492 122.485 39.6074 122.485C39.2884 122.485 39.0081 122.54 38.7666 122.649C38.5296 122.759 38.3428 122.902 38.2061 123.08C38.0739 123.258 38.0078 123.449 38.0078 123.654H36.7432C36.7432 123.39 36.8115 123.128 36.9482 122.868C37.085 122.608 37.2809 122.374 37.5361 122.164C37.7959 121.95 38.1058 121.781 38.4658 121.658C38.8304 121.531 39.236 121.467 39.6826 121.467C40.2204 121.467 40.6943 121.558 41.1045 121.74C41.5192 121.923 41.8428 122.198 42.0752 122.567C42.3122 122.932 42.4307 123.39 42.4307 123.941V127.387C42.4307 127.633 42.4512 127.895 42.4922 128.173C42.5378 128.451 42.6038 128.69 42.6904 128.891V129H41.3711C41.3073 128.854 41.2572 128.66 41.2207 128.419C41.1842 128.173 41.166 127.945 41.166 127.735ZM41.3848 124.516L41.3984 125.404H40.1201C39.7601 125.404 39.4388 125.434 39.1562 125.493C38.8737 125.548 38.6367 125.632 38.4453 125.746C38.2539 125.86 38.1081 126.004 38.0078 126.177C37.9076 126.345 37.8574 126.544 37.8574 126.771C37.8574 127.004 37.9098 127.216 38.0146 127.407C38.1195 127.599 38.2767 127.751 38.4863 127.865C38.7005 127.975 38.9626 128.029 39.2725 128.029C39.6598 128.029 40.0016 127.947 40.2979 127.783C40.5941 127.619 40.8288 127.419 41.002 127.182C41.1797 126.945 41.2754 126.715 41.2891 126.491L41.8291 127.1C41.7972 127.291 41.7106 127.503 41.5693 127.735C41.4281 127.968 41.2389 128.191 41.002 128.405C40.7695 128.615 40.4915 128.79 40.168 128.932C39.849 129.068 39.4889 129.137 39.0879 129.137C38.5866 129.137 38.1468 129.039 37.7686 128.843C37.3949 128.647 37.1032 128.385 36.8936 128.057C36.6885 127.724 36.5859 127.353 36.5859 126.942C36.5859 126.546 36.6634 126.197 36.8184 125.896C36.9733 125.591 37.1966 125.338 37.4883 125.138C37.7799 124.933 38.1309 124.778 38.541 124.673C38.9512 124.568 39.4092 124.516 39.915 124.516H41.3848ZM45.6846 123.183V129H44.4199V121.604H45.6162L45.6846 123.183ZM45.3838 125.021L44.8574 125.001C44.862 124.495 44.9372 124.028 45.083 123.6C45.2288 123.167 45.4339 122.791 45.6982 122.472C45.9626 122.153 46.277 121.907 46.6416 121.733C47.0107 121.556 47.4186 121.467 47.8652 121.467C48.2298 121.467 48.5579 121.517 48.8496 121.617C49.1413 121.713 49.3896 121.868 49.5947 122.082C49.8044 122.296 49.9639 122.574 50.0732 122.916C50.1826 123.253 50.2373 123.666 50.2373 124.153V129H48.9658V124.14C48.9658 123.752 48.9089 123.442 48.7949 123.21C48.681 122.973 48.5146 122.802 48.2959 122.697C48.0771 122.588 47.8083 122.533 47.4893 122.533C47.1748 122.533 46.8877 122.599 46.6279 122.731C46.3727 122.864 46.1517 123.046 45.9648 123.278C45.7826 123.511 45.639 123.777 45.5342 124.078C45.4339 124.374 45.3838 124.689 45.3838 125.021ZM56.9502 121.604H58.0986V128.843C58.0986 129.494 57.9665 130.05 57.7021 130.511C57.4378 130.971 57.0687 131.32 56.5947 131.557C56.1253 131.798 55.583 131.919 54.9678 131.919C54.7126 131.919 54.4118 131.878 54.0654 131.796C53.7236 131.718 53.3864 131.584 53.0537 131.393C52.7256 131.206 52.4499 130.953 52.2266 130.634L52.8896 129.882C53.1995 130.256 53.5231 130.515 53.8604 130.661C54.2021 130.807 54.5394 130.88 54.8721 130.88C55.2731 130.88 55.6195 130.805 55.9111 130.654C56.2028 130.504 56.4284 130.281 56.5879 129.984C56.752 129.693 56.834 129.333 56.834 128.904V123.23L56.9502 121.604ZM51.8574 125.384V125.24C51.8574 124.675 51.9235 124.162 52.0557 123.702C52.1924 123.237 52.3861 122.839 52.6367 122.506C52.8919 122.173 53.1995 121.918 53.5596 121.74C53.9196 121.558 54.3252 121.467 54.7764 121.467C55.2412 121.467 55.6468 121.549 55.9932 121.713C56.3441 121.872 56.6403 122.107 56.8818 122.417C57.1279 122.722 57.3216 123.091 57.4629 123.524C57.6042 123.957 57.7021 124.447 57.7568 124.994V125.623C57.7067 126.165 57.6087 126.653 57.4629 127.086C57.3216 127.519 57.1279 127.888 56.8818 128.193C56.6403 128.499 56.3441 128.733 55.9932 128.897C55.6423 129.057 55.2321 129.137 54.7627 129.137C54.3206 129.137 53.9196 129.043 53.5596 128.856C53.2041 128.67 52.8988 128.408 52.6436 128.07C52.3883 127.733 52.1924 127.337 52.0557 126.881C51.9235 126.421 51.8574 125.922 51.8574 125.384ZM53.1221 125.24V125.384C53.1221 125.753 53.1585 126.099 53.2314 126.423C53.3089 126.746 53.4251 127.031 53.5801 127.277C53.7396 127.523 53.9424 127.717 54.1885 127.858C54.4346 127.995 54.7285 128.063 55.0703 128.063C55.4896 128.063 55.8359 127.975 56.1094 127.797C56.3828 127.619 56.5993 127.384 56.7588 127.093C56.9229 126.801 57.0505 126.484 57.1416 126.143V124.495C57.0915 124.244 57.014 124.003 56.9092 123.771C56.8089 123.534 56.6768 123.324 56.5127 123.142C56.3532 122.955 56.1549 122.807 55.918 122.697C55.681 122.588 55.403 122.533 55.084 122.533C54.7376 122.533 54.4391 122.606 54.1885 122.752C53.9424 122.893 53.7396 123.089 53.5801 123.34C53.4251 123.586 53.3089 123.873 53.2314 124.201C53.1585 124.525 53.1221 124.871 53.1221 125.24ZM64.3467 121.604L65.9668 124.297L67.6074 121.604H69.0908L66.6709 125.254L69.166 129H67.7031L65.9941 126.225L64.2852 129H62.8154L65.3037 125.254L62.8906 121.604H64.3467ZM77.3623 121.009H78.333C78.333 121.506 78.2669 121.923 78.1348 122.26C78.0072 122.597 77.7816 122.85 77.458 123.019C77.1344 123.187 76.6787 123.271 76.0908 123.271V122.492C76.501 122.492 76.7949 122.442 76.9727 122.342C77.1504 122.237 77.2598 122.075 77.3008 121.856C77.3418 121.638 77.3623 121.355 77.3623 121.009ZM74.9629 127.291V121.604H76.2344V129H75.0244L74.9629 127.291ZM75.2021 125.732L75.7285 125.719C75.7285 126.211 75.6761 126.667 75.5713 127.086C75.471 127.501 75.307 127.861 75.0791 128.166C74.8512 128.471 74.5527 128.711 74.1836 128.884C73.8145 129.052 73.3656 129.137 72.8369 129.137C72.4769 129.137 72.1465 129.084 71.8457 128.979C71.5495 128.875 71.2943 128.713 71.0801 128.494C70.8659 128.275 70.6995 127.991 70.5811 127.64C70.4671 127.289 70.4102 126.867 70.4102 126.375V121.604H71.6748V126.389C71.6748 126.721 71.7113 126.997 71.7842 127.216C71.8617 127.43 71.9642 127.601 72.0918 127.729C72.224 127.852 72.3698 127.938 72.5293 127.988C72.6934 128.038 72.862 128.063 73.0352 128.063C73.5729 128.063 73.999 127.961 74.3135 127.756C74.6279 127.546 74.8535 127.266 74.9902 126.915C75.1315 126.56 75.2021 126.165 75.2021 125.732ZM73.917 120.544H73.0078L73.001 119.505C73.2334 119.491 73.4225 119.468 73.5684 119.437C73.7142 119.4 73.8213 119.348 73.8896 119.279C73.958 119.206 73.9922 119.111 73.9922 118.992C73.9922 118.896 73.9626 118.817 73.9033 118.753C73.8441 118.685 73.762 118.63 73.6572 118.589C73.5524 118.543 73.4316 118.511 73.2949 118.493C73.1582 118.475 73.0124 118.466 72.8574 118.466L72.9053 117.741C73.2425 117.741 73.5387 117.771 73.7939 117.83C74.0537 117.889 74.2702 117.976 74.4434 118.09C74.6211 118.204 74.7533 118.34 74.8398 118.5C74.931 118.655 74.9766 118.828 74.9766 119.02C74.9766 119.366 74.8672 119.619 74.6484 119.778C74.4297 119.933 74.1882 120.029 73.9238 120.065L73.917 120.544ZM83.9521 118.5V129H82.6807V118.5H83.9521ZM88.0605 128.234L90.1182 121.604H91.4717L88.5049 130.142C88.4365 130.324 88.3454 130.52 88.2314 130.729C88.1221 130.944 87.9808 131.146 87.8076 131.338C87.6344 131.529 87.4248 131.684 87.1787 131.803C86.9372 131.926 86.6478 131.987 86.3105 131.987C86.2103 131.987 86.0827 131.974 85.9277 131.946C85.7728 131.919 85.6634 131.896 85.5996 131.878L85.5928 130.853C85.6292 130.857 85.6862 130.862 85.7637 130.866C85.8457 130.875 85.9027 130.88 85.9346 130.88C86.2217 130.88 86.4655 130.841 86.666 130.764C86.8665 130.691 87.0352 130.565 87.1719 130.388C87.3132 130.215 87.4339 129.975 87.5342 129.67L88.0605 128.234ZM86.5498 121.604L88.4707 127.346L88.7988 128.679L87.8896 129.144L85.1689 121.604H86.5498ZM87.7939 120.51L89.1201 118.5H90.6445L88.8125 120.51H87.7939ZM96.0381 125.021V124.953C96.0381 123.96 96.1497 123.062 96.373 122.26C96.5964 121.453 96.8812 120.747 97.2275 120.141C97.5739 119.535 97.9385 119.033 98.3213 118.637C98.7041 118.236 99.0573 117.946 99.3809 117.769L99.6475 118.603C99.3786 118.808 99.1051 119.09 98.8271 119.45C98.5537 119.81 98.3008 120.252 98.0684 120.776C97.8405 121.3 97.6559 121.909 97.5146 122.602C97.3734 123.294 97.3027 124.074 97.3027 124.939V125.035C97.3027 125.901 97.3734 126.683 97.5146 127.38C97.6559 128.073 97.8405 128.683 98.0684 129.212C98.3008 129.741 98.5537 130.189 98.8271 130.559C99.1051 130.932 99.3786 131.229 99.6475 131.447L99.3809 132.213C99.0573 132.035 98.7041 131.746 98.3213 131.345C97.9385 130.948 97.5739 130.447 97.2275 129.841C96.8812 129.239 96.5964 128.535 96.373 127.729C96.1497 126.922 96.0381 126.02 96.0381 125.021ZM102.594 123.401H103.496C103.938 123.401 104.303 123.328 104.59 123.183C104.882 123.032 105.098 122.829 105.239 122.574C105.385 122.314 105.458 122.023 105.458 121.699C105.458 121.316 105.394 120.995 105.267 120.735C105.139 120.476 104.948 120.28 104.692 120.147C104.437 120.015 104.114 119.949 103.722 119.949C103.366 119.949 103.052 120.02 102.778 120.161C102.509 120.298 102.298 120.494 102.143 120.749C101.992 121.004 101.917 121.305 101.917 121.651H100.652C100.652 121.146 100.78 120.685 101.035 120.271C101.29 119.856 101.648 119.525 102.108 119.279C102.573 119.033 103.111 118.91 103.722 118.91C104.323 118.91 104.85 119.017 105.301 119.231C105.752 119.441 106.103 119.756 106.354 120.175C106.604 120.59 106.729 121.107 106.729 121.727C106.729 121.977 106.67 122.246 106.552 122.533C106.438 122.816 106.258 123.08 106.012 123.326C105.77 123.572 105.456 123.775 105.068 123.935C104.681 124.09 104.216 124.167 103.674 124.167H102.594V123.401ZM102.594 124.44V123.682H103.674C104.307 123.682 104.831 123.757 105.246 123.907C105.661 124.058 105.987 124.258 106.224 124.509C106.465 124.759 106.634 125.035 106.729 125.336C106.83 125.632 106.88 125.928 106.88 126.225C106.88 126.689 106.8 127.102 106.641 127.462C106.486 127.822 106.265 128.127 105.978 128.378C105.695 128.629 105.362 128.818 104.979 128.945C104.597 129.073 104.18 129.137 103.729 129.137C103.296 129.137 102.888 129.075 102.505 128.952C102.127 128.829 101.792 128.651 101.5 128.419C101.208 128.182 100.98 127.893 100.816 127.551C100.652 127.204 100.57 126.81 100.57 126.368H101.835C101.835 126.715 101.91 127.018 102.061 127.277C102.215 127.537 102.434 127.74 102.717 127.886C103.004 128.027 103.341 128.098 103.729 128.098C104.116 128.098 104.449 128.032 104.727 127.899C105.009 127.763 105.226 127.558 105.376 127.284C105.531 127.011 105.608 126.667 105.608 126.252C105.608 125.837 105.522 125.498 105.349 125.233C105.175 124.965 104.929 124.766 104.61 124.639C104.296 124.507 103.924 124.44 103.496 124.44H102.594ZM114.871 123.23V124.748C114.871 125.564 114.798 126.252 114.652 126.812C114.507 127.373 114.297 127.824 114.023 128.166C113.75 128.508 113.42 128.756 113.032 128.911C112.649 129.062 112.216 129.137 111.733 129.137C111.351 129.137 110.997 129.089 110.674 128.993C110.35 128.897 110.059 128.745 109.799 128.535C109.544 128.321 109.325 128.043 109.143 127.701C108.96 127.359 108.821 126.945 108.726 126.457C108.63 125.969 108.582 125.4 108.582 124.748V123.23C108.582 122.415 108.655 121.731 108.801 121.18C108.951 120.628 109.163 120.186 109.437 119.854C109.71 119.516 110.038 119.275 110.421 119.129C110.808 118.983 111.241 118.91 111.72 118.91C112.107 118.91 112.463 118.958 112.786 119.054C113.114 119.145 113.406 119.293 113.661 119.498C113.916 119.699 114.133 119.967 114.311 120.305C114.493 120.637 114.632 121.045 114.728 121.528C114.823 122.011 114.871 122.579 114.871 123.23ZM113.6 124.953V123.019C113.6 122.572 113.572 122.18 113.518 121.843C113.467 121.501 113.392 121.209 113.292 120.968C113.192 120.726 113.064 120.53 112.909 120.38C112.759 120.229 112.583 120.12 112.383 120.052C112.187 119.979 111.966 119.942 111.72 119.942C111.419 119.942 111.152 119.999 110.92 120.113C110.688 120.223 110.492 120.398 110.332 120.64C110.177 120.881 110.059 121.198 109.977 121.59C109.895 121.982 109.854 122.458 109.854 123.019V124.953C109.854 125.4 109.879 125.794 109.929 126.136C109.983 126.478 110.063 126.774 110.168 127.024C110.273 127.271 110.4 127.473 110.551 127.633C110.701 127.792 110.874 127.911 111.07 127.988C111.271 128.061 111.492 128.098 111.733 128.098C112.043 128.098 112.314 128.038 112.547 127.92C112.779 127.801 112.973 127.617 113.128 127.366C113.287 127.111 113.406 126.785 113.483 126.389C113.561 125.988 113.6 125.509 113.6 124.953ZM119.547 124.953V125.021C119.547 126.02 119.435 126.922 119.212 127.729C118.989 128.535 118.704 129.239 118.357 129.841C118.011 130.447 117.646 130.948 117.264 131.345C116.881 131.746 116.528 132.035 116.204 132.213L115.938 131.447C116.206 131.242 116.478 130.955 116.751 130.586C117.024 130.221 117.277 129.77 117.51 129.232C117.742 128.699 117.929 128.084 118.07 127.387C118.212 126.685 118.282 125.901 118.282 125.035V124.939C118.282 124.074 118.207 123.292 118.057 122.595C117.906 121.893 117.71 121.275 117.469 120.742C117.232 120.209 116.977 119.76 116.703 119.396C116.434 119.026 116.179 118.742 115.938 118.541L116.204 117.769C116.528 117.946 116.881 118.236 117.264 118.637C117.646 119.033 118.011 119.535 118.357 120.141C118.704 120.747 118.989 121.453 119.212 122.26C119.435 123.062 119.547 123.96 119.547 124.953Z" fill="#667793"/>
<circle cx="7" cy="156" r="7" fill="#28C76F"/>
<path d="M30.3613 161H28.2832L28.2969 159.927H30.3613C31.0723 159.927 31.6647 159.779 32.1387 159.482C32.6126 159.182 32.9681 158.762 33.2051 158.225C33.4466 157.682 33.5674 157.049 33.5674 156.324V155.716C33.5674 155.146 33.499 154.64 33.3623 154.198C33.2256 153.752 33.0251 153.376 32.7607 153.07C32.4964 152.76 32.1729 152.526 31.79 152.366C31.4118 152.207 30.9766 152.127 30.4844 152.127H28.2422V151.047H30.4844C31.1361 151.047 31.7308 151.156 32.2686 151.375C32.8063 151.589 33.2689 151.901 33.6562 152.312C34.0482 152.717 34.349 153.209 34.5586 153.788C34.7682 154.362 34.873 155.009 34.873 155.729V156.324C34.873 157.044 34.7682 157.694 34.5586 158.272C34.349 158.847 34.0459 159.337 33.6494 159.742C33.2575 160.148 32.7835 160.46 32.2275 160.679C31.6761 160.893 31.054 161 30.3613 161ZM28.9873 151.047V161H27.668V151.047H28.9873ZM30.915 155.415V156.454H26.5605V155.415H30.915ZM41.0254 159.735V155.928C41.0254 155.636 40.9661 155.383 40.8477 155.169C40.7337 154.95 40.5605 154.782 40.3281 154.663C40.0957 154.545 39.8086 154.485 39.4668 154.485C39.1478 154.485 38.8675 154.54 38.626 154.649C38.389 154.759 38.2021 154.902 38.0654 155.08C37.9333 155.258 37.8672 155.449 37.8672 155.654H36.6025C36.6025 155.39 36.6709 155.128 36.8076 154.868C36.9443 154.608 37.1403 154.374 37.3955 154.164C37.6553 153.95 37.9652 153.781 38.3252 153.658C38.6898 153.531 39.0954 153.467 39.542 153.467C40.0798 153.467 40.5537 153.558 40.9639 153.74C41.3786 153.923 41.7021 154.198 41.9346 154.567C42.1715 154.932 42.29 155.39 42.29 155.941V159.387C42.29 159.633 42.3105 159.895 42.3516 160.173C42.3971 160.451 42.4632 160.69 42.5498 160.891V161H41.2305C41.1667 160.854 41.1165 160.66 41.0801 160.419C41.0436 160.173 41.0254 159.945 41.0254 159.735ZM41.2441 156.516L41.2578 157.404H39.9795C39.6195 157.404 39.2982 157.434 39.0156 157.493C38.7331 157.548 38.4961 157.632 38.3047 157.746C38.1133 157.86 37.9674 158.004 37.8672 158.177C37.7669 158.345 37.7168 158.544 37.7168 158.771C37.7168 159.004 37.7692 159.216 37.874 159.407C37.9788 159.599 38.1361 159.751 38.3457 159.865C38.5599 159.975 38.8219 160.029 39.1318 160.029C39.5192 160.029 39.861 159.947 40.1572 159.783C40.4535 159.619 40.6882 159.419 40.8613 159.182C41.0391 158.945 41.1348 158.715 41.1484 158.491L41.6885 159.1C41.6566 159.291 41.57 159.503 41.4287 159.735C41.2874 159.968 41.0983 160.191 40.8613 160.405C40.6289 160.615 40.3509 160.79 40.0273 160.932C39.7083 161.068 39.3483 161.137 38.9473 161.137C38.446 161.137 38.0062 161.039 37.6279 160.843C37.2542 160.647 36.9626 160.385 36.7529 160.057C36.5479 159.724 36.4453 159.353 36.4453 158.942C36.4453 158.546 36.5228 158.197 36.6777 157.896C36.8327 157.591 37.056 157.338 37.3477 157.138C37.6393 156.933 37.9902 156.778 38.4004 156.673C38.8105 156.568 39.2686 156.516 39.7744 156.516H41.2441ZM41.251 150.637L42.1055 150.712C42.1055 151.045 42.0394 151.336 41.9072 151.587C41.7751 151.838 41.5973 152.031 41.374 152.168C41.1553 152.305 40.9069 152.373 40.6289 152.373C40.3965 152.373 40.2051 152.341 40.0547 152.277C39.9043 152.209 39.7699 152.134 39.6514 152.052C39.5329 151.965 39.4076 151.89 39.2754 151.826C39.1478 151.758 38.9883 151.724 38.7969 151.724C38.6055 151.724 38.4437 151.797 38.3115 151.942C38.1839 152.088 38.1201 152.268 38.1201 152.482L37.2656 152.441C37.2656 152.109 37.3294 151.817 37.457 151.566C37.5892 151.311 37.7669 151.113 37.9902 150.972C38.2135 150.826 38.4619 150.753 38.7354 150.753C38.9313 150.753 39.1022 150.787 39.248 150.855C39.3984 150.919 39.5397 150.994 39.6719 151.081C39.804 151.163 39.9408 151.238 40.082 151.307C40.2233 151.37 40.3851 151.402 40.5674 151.402C40.7588 151.402 40.9206 151.329 41.0527 151.184C41.1849 151.033 41.251 150.851 41.251 150.637ZM49.0166 150.5V161H47.752V150.5H49.0166ZM48.7158 157.021L48.1895 157.001C48.194 156.495 48.2692 156.028 48.415 155.6C48.5609 155.167 48.766 154.791 49.0303 154.472C49.2946 154.153 49.609 153.907 49.9736 153.733C50.3428 153.556 50.7507 153.467 51.1973 153.467C51.5618 153.467 51.89 153.517 52.1816 153.617C52.4733 153.713 52.7217 153.868 52.9268 154.082C53.1364 154.296 53.2959 154.574 53.4053 154.916C53.5146 155.253 53.5693 155.666 53.5693 156.153V161H52.2979V156.14C52.2979 155.752 52.2409 155.442 52.127 155.21C52.013 154.973 51.8467 154.802 51.6279 154.697C51.4092 154.588 51.1403 154.533 50.8213 154.533C50.5068 154.533 50.2197 154.599 49.96 154.731C49.7048 154.864 49.4837 155.046 49.2969 155.278C49.1146 155.511 48.971 155.777 48.8662 156.078C48.766 156.374 48.7158 156.689 48.7158 157.021ZM55.1279 157.384V157.227C55.1279 156.693 55.2054 156.199 55.3604 155.743C55.5153 155.283 55.7386 154.884 56.0303 154.547C56.3219 154.205 56.6751 153.941 57.0898 153.754C57.5046 153.562 57.9694 153.467 58.4844 153.467C59.0039 153.467 59.471 153.562 59.8857 153.754C60.305 153.941 60.6605 154.205 60.9521 154.547C61.2484 154.884 61.474 155.283 61.6289 155.743C61.7839 156.199 61.8613 156.693 61.8613 157.227V157.384C61.8613 157.917 61.7839 158.411 61.6289 158.867C61.474 159.323 61.2484 159.722 60.9521 160.063C60.6605 160.401 60.3073 160.665 59.8926 160.856C59.4824 161.043 59.0176 161.137 58.498 161.137C57.9785 161.137 57.5114 161.043 57.0967 160.856C56.682 160.665 56.3265 160.401 56.0303 160.063C55.7386 159.722 55.5153 159.323 55.3604 158.867C55.2054 158.411 55.1279 157.917 55.1279 157.384ZM56.3926 157.227V157.384C56.3926 157.753 56.4359 158.102 56.5225 158.43C56.609 158.753 56.7389 159.04 56.9121 159.291C57.0898 159.542 57.3109 159.74 57.5752 159.886C57.8395 160.027 58.1471 160.098 58.498 160.098C58.8444 160.098 59.1475 160.027 59.4072 159.886C59.6715 159.74 59.8903 159.542 60.0635 159.291C60.2367 159.04 60.3665 158.753 60.4531 158.43C60.5443 158.102 60.5898 157.753 60.5898 157.384V157.227C60.5898 156.862 60.5443 156.518 60.4531 156.194C60.3665 155.866 60.2344 155.577 60.0566 155.326C59.8835 155.071 59.6647 154.87 59.4004 154.725C59.1406 154.579 58.8353 154.506 58.4844 154.506C58.138 154.506 57.8327 154.579 57.5684 154.725C57.3086 154.87 57.0898 155.071 56.9121 155.326C56.7389 155.577 56.609 155.866 56.5225 156.194C56.4359 156.518 56.3926 156.862 56.3926 157.227ZM67.8086 159.735V155.928C67.8086 155.636 67.7493 155.383 67.6309 155.169C67.5169 154.95 67.3438 154.782 67.1113 154.663C66.8789 154.545 66.5918 154.485 66.25 154.485C65.931 154.485 65.6507 154.54 65.4092 154.649C65.1722 154.759 64.9854 154.902 64.8486 155.08C64.7165 155.258 64.6504 155.449 64.6504 155.654H63.3857C63.3857 155.39 63.4541 155.128 63.5908 154.868C63.7275 154.608 63.9235 154.374 64.1787 154.164C64.4385 153.95 64.7484 153.781 65.1084 153.658C65.473 153.531 65.8786 153.467 66.3252 153.467C66.863 153.467 67.3369 153.558 67.7471 153.74C68.1618 153.923 68.4854 154.198 68.7178 154.567C68.9548 154.932 69.0732 155.39 69.0732 155.941V159.387C69.0732 159.633 69.0938 159.895 69.1348 160.173C69.1803 160.451 69.2464 160.69 69.333 160.891V161H68.0137C67.9499 160.854 67.8997 160.66 67.8633 160.419C67.8268 160.173 67.8086 159.945 67.8086 159.735ZM68.0273 156.516L68.041 157.404H66.7627C66.4027 157.404 66.0814 157.434 65.7988 157.493C65.5163 157.548 65.2793 157.632 65.0879 157.746C64.8965 157.86 64.7507 158.004 64.6504 158.177C64.5501 158.345 64.5 158.544 64.5 158.771C64.5 159.004 64.5524 159.216 64.6572 159.407C64.762 159.599 64.9193 159.751 65.1289 159.865C65.3431 159.975 65.6051 160.029 65.915 160.029C66.3024 160.029 66.6442 159.947 66.9404 159.783C67.2367 159.619 67.4714 159.419 67.6445 159.182C67.8223 158.945 67.918 158.715 67.9316 158.491L68.4717 159.1C68.4398 159.291 68.3532 159.503 68.2119 159.735C68.0706 159.968 67.8815 160.191 67.6445 160.405C67.4121 160.615 67.1341 160.79 66.8105 160.932C66.4915 161.068 66.1315 161.137 65.7305 161.137C65.2292 161.137 64.7894 161.039 64.4111 160.843C64.0374 160.647 63.7458 160.385 63.5361 160.057C63.3311 159.724 63.2285 159.353 63.2285 158.942C63.2285 158.546 63.306 158.197 63.4609 157.896C63.6159 157.591 63.8392 157.338 64.1309 157.138C64.4225 156.933 64.7734 156.778 65.1836 156.673C65.5938 156.568 66.0518 156.516 66.5576 156.516H68.0273ZM65.8604 150.5L67.1797 152.51H66.0928L64.3291 150.5H65.8604ZM72.3271 155.183V161H71.0625V153.604H72.2588L72.3271 155.183ZM72.0264 157.021L71.5 157.001C71.5046 156.495 71.5798 156.028 71.7256 155.6C71.8714 155.167 72.0765 154.791 72.3408 154.472C72.6051 154.153 72.9196 153.907 73.2842 153.733C73.6533 153.556 74.0612 153.467 74.5078 153.467C74.8724 153.467 75.2005 153.517 75.4922 153.617C75.7839 153.713 76.0322 153.868 76.2373 154.082C76.4469 154.296 76.6064 154.574 76.7158 154.916C76.8252 155.253 76.8799 155.666 76.8799 156.153V161H75.6084V156.14C75.6084 155.752 75.5514 155.442 75.4375 155.21C75.3236 154.973 75.1572 154.802 74.9385 154.697C74.7197 154.588 74.4508 154.533 74.1318 154.533C73.8174 154.533 73.5303 154.599 73.2705 154.731C73.0153 154.864 72.7943 155.046 72.6074 155.278C72.4251 155.511 72.2816 155.777 72.1768 156.078C72.0765 156.374 72.0264 156.689 72.0264 157.021ZM85.3701 153.604V154.574H81.3711V153.604H85.3701ZM82.7246 151.806H83.9893V159.168C83.9893 159.419 84.028 159.608 84.1055 159.735C84.1829 159.863 84.2832 159.947 84.4062 159.988C84.5293 160.029 84.6615 160.05 84.8027 160.05C84.9076 160.05 85.0169 160.041 85.1309 160.022C85.2493 160 85.3382 159.981 85.3975 159.968L85.4043 161C85.304 161.032 85.1719 161.062 85.0078 161.089C84.8483 161.121 84.6546 161.137 84.4268 161.137C84.1169 161.137 83.832 161.075 83.5723 160.952C83.3125 160.829 83.1051 160.624 82.9502 160.337C82.7998 160.045 82.7246 159.653 82.7246 159.161V151.806ZM88.1182 150.5V161H86.8535V150.5H88.1182ZM87.8174 157.021L87.291 157.001C87.2956 156.495 87.3708 156.028 87.5166 155.6C87.6624 155.167 87.8675 154.791 88.1318 154.472C88.3962 154.153 88.7106 153.907 89.0752 153.733C89.4443 153.556 89.8522 153.467 90.2988 153.467C90.6634 153.467 90.9915 153.517 91.2832 153.617C91.5749 153.713 91.8232 153.868 92.0283 154.082C92.238 154.296 92.3975 154.574 92.5068 154.916C92.6162 155.253 92.6709 155.666 92.6709 156.153V161H91.3994V156.14C91.3994 155.752 91.3424 155.442 91.2285 155.21C91.1146 154.973 90.9482 154.802 90.7295 154.697C90.5107 154.588 90.2419 154.533 89.9229 154.533C89.6084 154.533 89.3213 154.599 89.0615 154.731C88.8063 154.864 88.5853 155.046 88.3984 155.278C88.2161 155.511 88.0726 155.777 87.9678 156.078C87.8675 156.374 87.8174 156.689 87.8174 157.021ZM98.9258 159.735V155.928C98.9258 155.636 98.8665 155.383 98.748 155.169C98.6341 154.95 98.4609 154.782 98.2285 154.663C97.9961 154.545 97.709 154.485 97.3672 154.485C97.0482 154.485 96.7679 154.54 96.5264 154.649C96.2894 154.759 96.1025 154.902 95.9658 155.08C95.8337 155.258 95.7676 155.449 95.7676 155.654H94.5029C94.5029 155.39 94.5713 155.128 94.708 154.868C94.8447 154.608 95.0407 154.374 95.2959 154.164C95.5557 153.95 95.8656 153.781 96.2256 153.658C96.5902 153.531 96.9958 153.467 97.4424 153.467C97.9801 153.467 98.4541 153.558 98.8643 153.74C99.279 153.923 99.6025 154.198 99.835 154.567C100.072 154.932 100.19 155.39 100.19 155.941V159.387C100.19 159.633 100.211 159.895 100.252 160.173C100.298 160.451 100.364 160.69 100.45 160.891V161H99.1309C99.0671 160.854 99.0169 160.66 98.9805 160.419C98.944 160.173 98.9258 159.945 98.9258 159.735ZM99.1445 156.516L99.1582 157.404H97.8799C97.5199 157.404 97.1986 157.434 96.916 157.493C96.6335 157.548 96.3965 157.632 96.2051 157.746C96.0137 157.86 95.8678 158.004 95.7676 158.177C95.6673 158.345 95.6172 158.544 95.6172 158.771C95.6172 159.004 95.6696 159.216 95.7744 159.407C95.8792 159.599 96.0365 159.751 96.2461 159.865C96.4603 159.975 96.7223 160.029 97.0322 160.029C97.4196 160.029 97.7614 159.947 98.0576 159.783C98.3538 159.619 98.5885 159.419 98.7617 159.182C98.9395 158.945 99.0352 158.715 99.0488 158.491L99.5889 159.1C99.557 159.291 99.4704 159.503 99.3291 159.735C99.1878 159.968 98.9987 160.191 98.7617 160.405C98.5293 160.615 98.2513 160.79 97.9277 160.932C97.6087 161.068 97.2487 161.137 96.8477 161.137C96.3464 161.137 95.9066 161.039 95.5283 160.843C95.1546 160.647 94.863 160.385 94.6533 160.057C94.4482 159.724 94.3457 159.353 94.3457 158.942C94.3457 158.546 94.4232 158.197 94.5781 157.896C94.7331 157.591 94.9564 157.338 95.248 157.138C95.5397 156.933 95.8906 156.778 96.3008 156.673C96.7109 156.568 97.1689 156.516 97.6748 156.516H99.1445ZM96.9775 150.5L98.2969 152.51H97.21L95.4463 150.5H96.9775ZM103.444 155.183V161H102.18V153.604H103.376L103.444 155.183ZM103.144 157.021L102.617 157.001C102.622 156.495 102.697 156.028 102.843 155.6C102.989 155.167 103.194 154.791 103.458 154.472C103.722 154.153 104.037 153.907 104.401 153.733C104.771 153.556 105.178 153.467 105.625 153.467C105.99 153.467 106.318 153.517 106.609 153.617C106.901 153.713 107.149 153.868 107.354 154.082C107.564 154.296 107.724 154.574 107.833 154.916C107.942 155.253 107.997 155.666 107.997 156.153V161H106.726V156.14C106.726 155.752 106.669 155.442 106.555 155.21C106.441 154.973 106.274 154.802 106.056 154.697C105.837 154.588 105.568 154.533 105.249 154.533C104.935 154.533 104.647 154.599 104.388 154.731C104.132 154.864 103.911 155.046 103.725 155.278C103.542 155.511 103.399 155.777 103.294 156.078C103.194 156.374 103.144 156.689 103.144 157.021ZM111.183 150.5V161H109.918V150.5H111.183ZM110.882 157.021L110.355 157.001C110.36 156.495 110.435 156.028 110.581 155.6C110.727 155.167 110.932 154.791 111.196 154.472C111.461 154.153 111.775 153.907 112.14 153.733C112.509 153.556 112.917 153.467 113.363 153.467C113.728 153.467 114.056 153.517 114.348 153.617C114.639 153.713 114.888 153.868 115.093 154.082C115.302 154.296 115.462 154.574 115.571 154.916C115.681 155.253 115.735 155.666 115.735 156.153V161H114.464V156.14C114.464 155.752 114.407 155.442 114.293 155.21C114.179 154.973 114.013 154.802 113.794 154.697C113.575 154.588 113.306 154.533 112.987 154.533C112.673 154.533 112.386 154.599 112.126 154.731C111.871 154.864 111.65 155.046 111.463 155.278C111.281 155.511 111.137 155.777 111.032 156.078C110.932 156.374 110.882 156.689 110.882 157.021ZM121.054 157.021V156.953C121.054 155.96 121.165 155.062 121.389 154.26C121.612 153.453 121.897 152.747 122.243 152.141C122.59 151.535 122.954 151.033 123.337 150.637C123.72 150.236 124.073 149.946 124.396 149.769L124.663 150.603C124.394 150.808 124.121 151.09 123.843 151.45C123.569 151.81 123.316 152.252 123.084 152.776C122.856 153.3 122.672 153.909 122.53 154.602C122.389 155.294 122.318 156.074 122.318 156.939V157.035C122.318 157.901 122.389 158.683 122.53 159.38C122.672 160.073 122.856 160.683 123.084 161.212C123.316 161.741 123.569 162.189 123.843 162.559C124.121 162.932 124.394 163.229 124.663 163.447L124.396 164.213C124.073 164.035 123.72 163.746 123.337 163.345C122.954 162.948 122.59 162.447 122.243 161.841C121.897 161.239 121.612 160.535 121.389 159.729C121.165 158.922 121.054 158.02 121.054 157.021ZM132.196 151.047V151.758L128.074 161H126.741L130.856 152.086H125.47V151.047H132.196ZM136.688 156.953V157.021C136.688 158.02 136.576 158.922 136.353 159.729C136.129 160.535 135.844 161.239 135.498 161.841C135.152 162.447 134.787 162.948 134.404 163.345C134.021 163.746 133.668 164.035 133.345 164.213L133.078 163.447C133.347 163.242 133.618 162.955 133.892 162.586C134.165 162.221 134.418 161.77 134.65 161.232C134.883 160.699 135.07 160.084 135.211 159.387C135.352 158.685 135.423 157.901 135.423 157.035V156.939C135.423 156.074 135.348 155.292 135.197 154.595C135.047 153.893 134.851 153.275 134.609 152.742C134.372 152.209 134.117 151.76 133.844 151.396C133.575 151.026 133.32 150.742 133.078 150.541L133.345 149.769C133.668 149.946 134.021 150.236 134.404 150.637C134.787 151.033 135.152 151.535 135.498 152.141C135.844 152.747 136.129 153.453 136.353 154.26C136.576 155.062 136.688 155.96 136.688 156.953Z" fill="#667793"/>
<circle cx="186" cy="124" r="7" fill="#EA5455"/>
<path d="M209.383 129H207.305L207.318 127.927H209.383C210.094 127.927 210.686 127.779 211.16 127.482C211.634 127.182 211.99 126.762 212.227 126.225C212.468 125.682 212.589 125.049 212.589 124.324V123.716C212.589 123.146 212.521 122.64 212.384 122.198C212.247 121.752 212.047 121.376 211.782 121.07C211.518 120.76 211.194 120.526 210.812 120.366C210.433 120.207 209.998 120.127 209.506 120.127H207.264V119.047H209.506C210.158 119.047 210.752 119.156 211.29 119.375C211.828 119.589 212.29 119.901 212.678 120.312C213.07 120.717 213.37 121.209 213.58 121.788C213.79 122.362 213.895 123.009 213.895 123.729V124.324C213.895 125.044 213.79 125.694 213.58 126.272C213.37 126.847 213.067 127.337 212.671 127.742C212.279 128.148 211.805 128.46 211.249 128.679C210.698 128.893 210.076 129 209.383 129ZM208.009 119.047V129H206.689V119.047H208.009ZM209.937 123.415V124.454H205.582V123.415H209.937ZM220.047 127.735V123.928C220.047 123.636 219.988 123.383 219.869 123.169C219.755 122.95 219.582 122.782 219.35 122.663C219.117 122.545 218.83 122.485 218.488 122.485C218.169 122.485 217.889 122.54 217.647 122.649C217.41 122.759 217.224 122.902 217.087 123.08C216.955 123.258 216.889 123.449 216.889 123.654H215.624C215.624 123.39 215.692 123.128 215.829 122.868C215.966 122.608 216.162 122.374 216.417 122.164C216.677 121.95 216.987 121.781 217.347 121.658C217.711 121.531 218.117 121.467 218.563 121.467C219.101 121.467 219.575 121.558 219.985 121.74C220.4 121.923 220.724 122.198 220.956 122.567C221.193 122.932 221.312 123.39 221.312 123.941V127.387C221.312 127.633 221.332 127.895 221.373 128.173C221.419 128.451 221.485 128.69 221.571 128.891V129H220.252C220.188 128.854 220.138 128.66 220.102 128.419C220.065 128.173 220.047 127.945 220.047 127.735ZM220.266 124.516L220.279 125.404H219.001C218.641 125.404 218.32 125.434 218.037 125.493C217.755 125.548 217.518 125.632 217.326 125.746C217.135 125.86 216.989 126.004 216.889 126.177C216.788 126.345 216.738 126.544 216.738 126.771C216.738 127.004 216.791 127.216 216.896 127.407C217 127.599 217.158 127.751 217.367 127.865C217.581 127.975 217.843 128.029 218.153 128.029C218.541 128.029 218.882 127.947 219.179 127.783C219.475 127.619 219.71 127.419 219.883 127.182C220.061 126.945 220.156 126.715 220.17 126.491L220.71 127.1C220.678 127.291 220.591 127.503 220.45 127.735C220.309 127.968 220.12 128.191 219.883 128.405C219.65 128.615 219.372 128.79 219.049 128.932C218.73 129.068 218.37 129.137 217.969 129.137C217.467 129.137 217.028 129.039 216.649 128.843C216.276 128.647 215.984 128.385 215.774 128.057C215.569 127.724 215.467 127.353 215.467 126.942C215.467 126.546 215.544 126.197 215.699 125.896C215.854 125.591 216.077 125.338 216.369 125.138C216.661 124.933 217.012 124.778 217.422 124.673C217.832 124.568 218.29 124.516 218.796 124.516H220.266ZM220.272 118.637L221.127 118.712C221.127 119.045 221.061 119.336 220.929 119.587C220.797 119.838 220.619 120.031 220.396 120.168C220.177 120.305 219.928 120.373 219.65 120.373C219.418 120.373 219.227 120.341 219.076 120.277C218.926 120.209 218.791 120.134 218.673 120.052C218.554 119.965 218.429 119.89 218.297 119.826C218.169 119.758 218.01 119.724 217.818 119.724C217.627 119.724 217.465 119.797 217.333 119.942C217.205 120.088 217.142 120.268 217.142 120.482L216.287 120.441C216.287 120.109 216.351 119.817 216.479 119.566C216.611 119.311 216.788 119.113 217.012 118.972C217.235 118.826 217.483 118.753 217.757 118.753C217.953 118.753 218.124 118.787 218.27 118.855C218.42 118.919 218.561 118.994 218.693 119.081C218.826 119.163 218.962 119.238 219.104 119.307C219.245 119.37 219.407 119.402 219.589 119.402C219.78 119.402 219.942 119.329 220.074 119.184C220.206 119.033 220.272 118.851 220.272 118.637ZM231.429 131.844V123.025L231.538 121.604H232.7V131.844H231.429ZM226.459 125.384V125.24C226.459 124.675 226.525 124.162 226.657 123.702C226.789 123.237 226.983 122.839 227.238 122.506C227.493 122.173 227.801 121.918 228.161 121.74C228.526 121.558 228.94 121.467 229.405 121.467C229.87 121.467 230.278 121.549 230.629 121.713C230.984 121.872 231.285 122.107 231.531 122.417C231.782 122.722 231.98 123.091 232.126 123.524C232.272 123.957 232.372 124.447 232.427 124.994V125.623C232.377 126.165 232.279 126.653 232.133 127.086C231.987 127.519 231.789 127.888 231.538 128.193C231.292 128.499 230.989 128.733 230.629 128.897C230.273 129.057 229.861 129.137 229.392 129.137C228.936 129.137 228.526 129.043 228.161 128.856C227.801 128.67 227.493 128.408 227.238 128.07C226.988 127.733 226.794 127.337 226.657 126.881C226.525 126.421 226.459 125.922 226.459 125.384ZM227.73 125.24V125.384C227.73 125.753 227.769 126.102 227.847 126.43C227.924 126.753 228.043 127.04 228.202 127.291C228.366 127.542 228.571 127.74 228.817 127.886C229.068 128.027 229.364 128.098 229.706 128.098C230.125 128.098 230.474 128.007 230.752 127.824C231.035 127.642 231.26 127.403 231.429 127.106C231.597 126.806 231.727 126.484 231.818 126.143V124.495C231.768 124.244 231.688 124.001 231.579 123.764C231.474 123.527 231.338 123.315 231.169 123.128C231 122.937 230.795 122.786 230.554 122.677C230.317 122.563 230.039 122.506 229.72 122.506C229.373 122.506 229.075 122.579 228.824 122.725C228.574 122.87 228.366 123.071 228.202 123.326C228.043 123.577 227.924 123.866 227.847 124.194C227.769 124.522 227.73 124.871 227.73 125.24ZM239.256 127.291V121.604H240.527V129H239.317L239.256 127.291ZM239.495 125.732L240.021 125.719C240.021 126.211 239.969 126.667 239.864 127.086C239.764 127.501 239.6 127.861 239.372 128.166C239.144 128.471 238.846 128.711 238.477 128.884C238.107 129.052 237.659 129.137 237.13 129.137C236.77 129.137 236.439 129.084 236.139 128.979C235.842 128.875 235.587 128.713 235.373 128.494C235.159 128.275 234.993 127.991 234.874 127.64C234.76 127.289 234.703 126.867 234.703 126.375V121.604H235.968V126.389C235.968 126.721 236.004 126.997 236.077 127.216C236.155 127.43 236.257 127.601 236.385 127.729C236.517 127.852 236.663 127.938 236.822 127.988C236.986 128.038 237.155 128.063 237.328 128.063C237.866 128.063 238.292 127.961 238.606 127.756C238.921 127.546 239.146 127.266 239.283 126.915C239.424 126.56 239.495 126.165 239.495 125.732ZM246.816 127.735V123.928C246.816 123.636 246.757 123.383 246.639 123.169C246.525 122.95 246.352 122.782 246.119 122.663C245.887 122.545 245.6 122.485 245.258 122.485C244.939 122.485 244.659 122.54 244.417 122.649C244.18 122.759 243.993 122.902 243.856 123.08C243.724 123.258 243.658 123.449 243.658 123.654H242.394C242.394 123.39 242.462 123.128 242.599 122.868C242.735 122.608 242.931 122.374 243.187 122.164C243.446 121.95 243.756 121.781 244.116 121.658C244.481 121.531 244.886 121.467 245.333 121.467C245.871 121.467 246.345 121.558 246.755 121.74C247.17 121.923 247.493 122.198 247.726 122.567C247.963 122.932 248.081 123.39 248.081 123.941V127.387C248.081 127.633 248.102 127.895 248.143 128.173C248.188 128.451 248.254 128.69 248.341 128.891V129H247.021C246.958 128.854 246.908 128.66 246.871 128.419C246.835 128.173 246.816 127.945 246.816 127.735ZM247.035 124.516L247.049 125.404H245.771C245.41 125.404 245.089 125.434 244.807 125.493C244.524 125.548 244.287 125.632 244.096 125.746C243.904 125.86 243.758 126.004 243.658 126.177C243.558 126.345 243.508 126.544 243.508 126.771C243.508 127.004 243.56 127.216 243.665 127.407C243.77 127.599 243.927 127.751 244.137 127.865C244.351 127.975 244.613 128.029 244.923 128.029C245.31 128.029 245.652 127.947 245.948 127.783C246.244 127.619 246.479 127.419 246.652 127.182C246.83 126.945 246.926 126.715 246.939 126.491L247.479 127.1C247.448 127.291 247.361 127.503 247.22 127.735C247.078 127.968 246.889 128.191 246.652 128.405C246.42 128.615 246.142 128.79 245.818 128.932C245.499 129.068 245.139 129.137 244.738 129.137C244.237 129.137 243.797 129.039 243.419 128.843C243.045 128.647 242.754 128.385 242.544 128.057C242.339 127.724 242.236 127.353 242.236 126.942C242.236 126.546 242.314 126.197 242.469 125.896C242.624 125.591 242.847 125.338 243.139 125.138C243.43 124.933 243.781 124.778 244.191 124.673C244.602 124.568 245.06 124.516 245.565 124.516H247.035ZM244.772 120.51L246.099 118.5H247.623L245.791 120.51H244.772ZM254.808 118.5V129H253.543V118.5H254.808ZM254.507 125.021L253.98 125.001C253.985 124.495 254.06 124.028 254.206 123.6C254.352 123.167 254.557 122.791 254.821 122.472C255.086 122.153 255.4 121.907 255.765 121.733C256.134 121.556 256.542 121.467 256.988 121.467C257.353 121.467 257.681 121.517 257.973 121.617C258.264 121.713 258.513 121.868 258.718 122.082C258.927 122.296 259.087 122.574 259.196 122.916C259.306 123.253 259.36 123.666 259.36 124.153V129H258.089V124.14C258.089 123.752 258.032 123.442 257.918 123.21C257.804 122.973 257.638 122.802 257.419 122.697C257.2 122.588 256.931 122.533 256.612 122.533C256.298 122.533 256.011 122.599 255.751 122.731C255.496 122.864 255.275 123.046 255.088 123.278C254.906 123.511 254.762 123.777 254.657 124.078C254.557 124.374 254.507 124.689 254.507 125.021ZM265.615 127.735V123.928C265.615 123.636 265.556 123.383 265.438 123.169C265.324 122.95 265.15 122.782 264.918 122.663C264.686 122.545 264.398 122.485 264.057 122.485C263.738 122.485 263.457 122.54 263.216 122.649C262.979 122.759 262.792 122.902 262.655 123.08C262.523 123.258 262.457 123.449 262.457 123.654H261.192C261.192 123.39 261.261 123.128 261.397 122.868C261.534 122.608 261.73 122.374 261.985 122.164C262.245 121.95 262.555 121.781 262.915 121.658C263.28 121.531 263.685 121.467 264.132 121.467C264.67 121.467 265.144 121.558 265.554 121.74C265.968 121.923 266.292 122.198 266.524 122.567C266.761 122.932 266.88 123.39 266.88 123.941V127.387C266.88 127.633 266.9 127.895 266.941 128.173C266.987 128.451 267.053 128.69 267.14 128.891V129H265.82C265.757 128.854 265.706 128.66 265.67 128.419C265.633 128.173 265.615 127.945 265.615 127.735ZM265.834 124.516L265.848 125.404H264.569C264.209 125.404 263.888 125.434 263.605 125.493C263.323 125.548 263.086 125.632 262.895 125.746C262.703 125.86 262.557 126.004 262.457 126.177C262.357 126.345 262.307 126.544 262.307 126.771C262.307 127.004 262.359 127.216 262.464 127.407C262.569 127.599 262.726 127.751 262.936 127.865C263.15 127.975 263.412 128.029 263.722 128.029C264.109 128.029 264.451 127.947 264.747 127.783C265.043 127.619 265.278 127.419 265.451 127.182C265.629 126.945 265.725 126.715 265.738 126.491L266.278 127.1C266.246 127.291 266.16 127.503 266.019 127.735C265.877 127.968 265.688 128.191 265.451 128.405C265.219 128.615 264.941 128.79 264.617 128.932C264.298 129.068 263.938 129.137 263.537 129.137C263.036 129.137 262.596 129.039 262.218 128.843C261.844 128.647 261.552 128.385 261.343 128.057C261.138 127.724 261.035 127.353 261.035 126.942C261.035 126.546 261.113 126.197 261.268 125.896C261.423 125.591 261.646 125.338 261.938 125.138C262.229 124.933 262.58 124.778 262.99 124.673C263.4 124.568 263.858 124.516 264.364 124.516H265.834ZM262.936 130.682C262.936 130.477 262.997 130.303 263.12 130.162C263.248 130.021 263.435 129.95 263.681 129.95C263.922 129.95 264.107 130.021 264.234 130.162C264.367 130.303 264.433 130.477 264.433 130.682C264.433 130.878 264.367 131.044 264.234 131.181C264.107 131.322 263.922 131.393 263.681 131.393C263.435 131.393 263.248 131.322 263.12 131.181C262.997 131.044 262.936 130.878 262.936 130.682ZM270.134 123.183V129H268.869V121.604H270.065L270.134 123.183ZM269.833 125.021L269.307 125.001C269.311 124.495 269.386 124.028 269.532 123.6C269.678 123.167 269.883 122.791 270.147 122.472C270.412 122.153 270.726 121.907 271.091 121.733C271.46 121.556 271.868 121.467 272.314 121.467C272.679 121.467 273.007 121.517 273.299 121.617C273.59 121.713 273.839 121.868 274.044 122.082C274.254 122.296 274.413 122.574 274.522 122.916C274.632 123.253 274.687 123.666 274.687 124.153V129H273.415V124.14C273.415 123.752 273.358 123.442 273.244 123.21C273.13 122.973 272.964 122.802 272.745 122.697C272.526 122.588 272.257 122.533 271.938 122.533C271.624 122.533 271.337 122.599 271.077 122.731C270.822 122.864 270.601 123.046 270.414 123.278C270.232 123.511 270.088 123.777 269.983 124.078C269.883 124.374 269.833 124.689 269.833 125.021ZM280.032 125.021V124.953C280.032 123.96 280.144 123.062 280.367 122.26C280.59 121.453 280.875 120.747 281.222 120.141C281.568 119.535 281.933 119.033 282.315 118.637C282.698 118.236 283.051 117.946 283.375 117.769L283.642 118.603C283.373 118.808 283.099 119.09 282.821 119.45C282.548 119.81 282.295 120.252 282.062 120.776C281.835 121.3 281.65 121.909 281.509 122.602C281.368 123.294 281.297 124.074 281.297 124.939V125.035C281.297 125.901 281.368 126.683 281.509 127.38C281.65 128.073 281.835 128.683 282.062 129.212C282.295 129.741 282.548 130.189 282.821 130.559C283.099 130.932 283.373 131.229 283.642 131.447L283.375 132.213C283.051 132.035 282.698 131.746 282.315 131.345C281.933 130.948 281.568 130.447 281.222 129.841C280.875 129.239 280.59 128.535 280.367 127.729C280.144 126.922 280.032 126.02 280.032 125.021ZM291.175 119.047V119.758L287.053 129H285.72L289.835 120.086H284.448V119.047H291.175ZM295.666 124.953V125.021C295.666 126.02 295.554 126.922 295.331 127.729C295.108 128.535 294.823 129.239 294.477 129.841C294.13 130.447 293.766 130.948 293.383 131.345C293 131.746 292.647 132.035 292.323 132.213L292.057 131.447C292.326 131.242 292.597 130.955 292.87 130.586C293.144 130.221 293.396 129.77 293.629 129.232C293.861 128.699 294.048 128.084 294.189 127.387C294.331 126.685 294.401 125.901 294.401 125.035V124.939C294.401 124.074 294.326 123.292 294.176 122.595C294.025 121.893 293.829 121.275 293.588 120.742C293.351 120.209 293.096 119.76 292.822 119.396C292.553 119.026 292.298 118.742 292.057 118.541L292.323 117.769C292.647 117.946 293 118.236 293.383 118.637C293.766 119.033 294.13 119.535 294.477 120.141C294.823 120.747 295.108 121.453 295.331 122.26C295.554 123.062 295.666 123.96 295.666 124.953Z" fill="#667793"/>
</svg>
