<svg width="30" height="25" viewBox="0 0 30 25" fill="none" xmlns="http://www.w3.org/2000/svg">
<path fill-rule="evenodd" clip-rule="evenodd" d="M0.333313 2.73872C0.333313 1.42267 1.39563 0.360352 2.71169 0.360352C4.02775 0.360352 5.09006 1.42267 5.09006 2.73872C5.09006 4.05478 4.02775 5.1171 2.71169 5.1171C1.39563 5.1171 0.333313 4.05478 0.333313 2.73872ZM0.333313 12.2521C0.333313 10.936 1.39563 9.8737 2.71169 9.8737C4.02775 9.8737 5.09006 10.936 5.09006 12.2521C5.09006 13.5681 4.02775 14.6305 2.71169 14.6305C1.39563 14.6305 0.333313 13.5681 0.333313 12.2521ZM2.71169 19.3874C1.38775 19.3874 0.333313 20.4576 0.333313 21.7658C0.333313 23.0739 1.40358 24.1441 2.71169 24.1441C4.01979 24.1441 5.09006 23.0739 5.09006 21.7658C5.09006 20.4576 4.03563 19.3874 2.71169 19.3874ZM7.4684 20.1803H29.6666V23.3515H7.4684V20.1803ZM29.6666 1.15332H7.4684V4.32451H29.6666V1.15332ZM7.4684 10.6667H29.6666V13.8379H7.4684V10.6667Z" fill="#7966FF" fill-opacity="0.9"/>
</svg>
