<svg width="20" height="20" viewBox="0 0 20 20" fill="none" xmlns="http://www.w3.org/2000/svg">
<path fill-rule="evenodd" clip-rule="evenodd" d="M7.05421 4.36289C6.86832 4.61395 6.88967 4.97208 7.12452 5.19935C7.37452 5.44935 7.78285 5.44935 8.03285 5.19935L9.35785 3.86602V7.31602H10.6412V3.86602L11.9662 5.19935L12.0381 5.26133C12.2891 5.44728 12.6472 5.42662 12.8745 5.19935C12.9995 5.07435 13.0662 4.90768 13.0662 4.74102C13.0662 4.58268 12.9995 4.41602 12.8745 4.29102L10.4495 1.85768L10.3739 1.78975C10.2662 1.70868 10.1328 1.66602 9.99952 1.66602C9.82452 1.66602 9.66618 1.73268 9.54118 1.85768L7.11618 4.29102L7.05421 4.36289ZM5.19198 7.32028C3.23094 7.41291 1.66602 9.06255 1.66602 11.0722V15.2098L1.67005 15.3869C1.7611 17.3826 3.38292 18.9828 5.37435 18.9828H14.6327L14.8067 18.9787C16.7678 18.8861 18.3327 17.2362 18.3327 15.2183V11.0892L18.3286 10.9114C18.2371 8.9084 16.6077 7.31618 14.6243 7.31618H10.641V12.4034L10.6351 12.4928C10.592 12.814 10.3202 13.0563 9.99935 13.0563C9.64102 13.0563 9.35768 12.768 9.35768 12.4034V7.31618H5.36602L5.19198 7.32028Z" fill="#A2AEBD"/>
</svg>
