<svg width="48" height="48" viewBox="0 0 48 48" fill="none" xmlns="http://www.w3.org/2000/svg">
<path d="M47.5797 13.9602L34.5797 0.460326C34.1556 0.0183128 33.5056 -0.119381 32.9398 0.1084C32.3718 0.338379 31.9997 0.888423 31.9997 1.50036V8.00055H31.4998C20.748 8.00055 12 16.7485 12 27.5004V30.5004C12 31.1962 12.49 31.7762 13.1678 31.9341C13.2777 31.9601 13.3879 31.9744 13.4978 31.9744C14.0658 31.9744 14.6078 31.6422 14.8678 31.1222C17.6799 25.4961 23.3338 22.0003 29.6238 22.0003H31.9997V28.5001C31.9997 29.1121 32.3718 29.6621 32.9398 29.8921C33.5015 30.1184 34.1556 29.9822 34.5797 29.5402L47.5797 16.0403C48.1396 15.4602 48.1396 14.5403 47.5797 13.9602Z" fill="#7966FF"/>
<path d="M41.9997 47.9995H5.99996C2.692 47.9995 0 45.3075 0 41.9995V14C0 10.692 2.692 8 5.99996 8H11.9999C13.1059 8 13.9998 8.89575 13.9998 9.99986C13.9998 11.104 13.1059 11.9997 11.9999 11.9997H5.99996C4.89584 11.9997 3.99973 12.8977 3.99973 14V41.9995C3.99973 43.1014 4.89584 43.9997 5.99996 43.9997H41.9997C43.1034 43.9997 43.9996 43.1014 43.9996 41.9995V25.9999C43.9996 24.8957 44.8935 23.9996 45.9994 23.9996C47.1054 23.9996 47.9997 24.8957 47.9997 25.9999V41.9995C47.9997 45.3075 45.3077 47.9995 41.9997 47.9995Z" fill="#9B8DFF"/>
</svg>
