<svg fill="none" height="18" viewBox="0 0 18 18" width="18" xmlns="http://www.w3.org/2000/svg">
    <path
        d="M10.9668 15.8564H1.86595C1.14539 15.8564 0.5625 15.2724 0.5625 14.5529C0.5625 11.5685 2.98176 9.15039 5.96503 9.15039H6.86767C9.85205 9.15039 12.2702 11.5696 12.2702 14.5529C12.2702 15.2724 11.6873 15.8564 10.9668 15.8564Z"
        fill="white" />
    <path
        d="M6.41689 7.99978C8.03323 7.99978 9.34354 6.68947 9.34354 5.07313C9.34354 3.45679 8.03323 2.14648 6.41689 2.14648C4.80054 2.14648 3.49023 3.45679 3.49023 5.07313C3.49023 6.68947 4.80054 7.99978 6.41689 7.99978Z"
        fill="white" />
    <path
        d="M17.4395 6.10871L16.1394 4.80859L12.9751 7.97284L11.3919 6.39072L10.0918 7.69083L12.9763 10.5742L14.2764 9.27406L14.2753 9.27295L17.4395 6.10871Z"
        fill="white" />
</svg>
