<svg width="18" height="18" viewBox="0 0 18 18" fill="none" xmlns="http://www.w3.org/2000/svg">
<path d="M9 7.5C10.6569 7.5 12 6.15685 12 4.5C12 2.84315 10.6569 1.5 9 1.5C7.34315 1.5 6 2.84315 6 4.5C6 6.15685 7.34315 7.5 9 7.5Z" fill="white"/>
<path d="M11.4375 9H6.5625C4.59825 9 3 10.5983 3 12.5625V14.4375C3 14.748 3.252 15 3.5625 15H14.4375C14.748 15 15 14.748 15 14.4375V12.5625C15 10.5983 13.4017 9 11.4375 9Z" fill="white"/>
<path d="M3.75 0H2.25C1.0095 0 0 1.0095 0 2.25V3.75C0 4.16475 0.336 4.5 0.75 4.5C1.164 4.5 1.5 4.16475 1.5 3.75V2.25C1.5 1.836 1.83675 1.5 2.25 1.5H3.75C4.164 1.5 4.5 1.16475 4.5 0.75C4.5 0.33525 4.164 0 3.75 0Z" fill="white"/>
<path d="M3.75 16.5H2.25C1.83675 16.5 1.5 16.164 1.5 15.75V14.25C1.5 13.8353 1.164 13.5 0.75 13.5C0.336 13.5 0 13.8353 0 14.25V15.75C0 16.9905 1.0095 18 2.25 18H3.75C4.164 18 4.5 17.6648 4.5 17.25C4.5 16.8352 4.164 16.5 3.75 16.5Z" fill="white"/>
<path d="M15.75 0H14.25C13.836 0 13.5 0.33525 13.5 0.75C13.5 1.16475 13.836 1.5 14.25 1.5H15.75C16.1632 1.5 16.5 1.836 16.5 2.25V3.75C16.5 4.16475 16.836 4.5 17.25 4.5C17.664 4.5 18 4.16475 18 3.75V2.25C18 1.0095 16.9905 0 15.75 0Z" fill="white"/>
<path d="M17.25 13.5C16.836 13.5 16.5 13.8353 16.5 14.25V15.75C16.5 16.164 16.1632 16.5 15.75 16.5H14.25C13.836 16.5 13.5 16.8352 13.5 17.25C13.5 17.6648 13.836 18 14.25 18H15.75C16.9905 18 18 16.9905 18 15.75V14.25C18 13.8353 17.664 13.5 17.25 13.5Z" fill="white"/>
</svg>
