<svg fill="none" height="18" viewBox="0 0 18 18" width="18" xmlns="http://www.w3.org/2000/svg">
    <path
        d="M16.3125 3.9375H1.6875C0.756914 3.9375 0 4.69441 0 5.625V12.375C0 13.3056 0.756914 14.0625 1.6875 14.0625H16.3125C17.2431 14.0625 18 13.3056 18 12.375V5.625C18 4.69441 17.2431 3.9375 16.3125 3.9375ZM2.01727 6.69727C1.89105 6.4132 2.01902 6.08098 2.30273 5.95477C2.58645 5.82855 2.91902 5.95652 3.04523 6.24023L3.65625 7.6152L4.26727 6.24023C4.39348 5.95652 4.72605 5.82855 5.00977 5.95477C5.29348 6.08098 5.42145 6.4132 5.29523 6.69727L4.27184 9L5.29523 11.3027C5.46145 11.6768 5.18495 12.0938 4.7816 12.0938C4.56609 12.0938 4.36043 11.9693 4.26727 11.7598L3.65625 10.3852L3.04523 11.7598C2.95207 11.9693 2.74641 12.0938 2.5309 12.0938C2.1278 12.0938 1.85098 11.677 2.01727 11.3027L3.04066 9L2.01727 6.69727ZM9 9.5625H8.71875C8.40797 9.5625 8.15625 9.31078 8.15625 9C8.15625 8.68922 8.40797 8.4375 8.71875 8.4375H9C9.15504 8.4375 9.28125 8.31129 9.28125 8.15625V7.3125C9.28125 7.15746 9.15504 7.03125 9 7.03125H7.875C7.56422 7.03125 7.3125 6.77953 7.3125 6.46875C7.3125 6.15797 7.56422 5.90625 7.875 5.90625H9C9.77555 5.90625 10.4062 6.53695 10.4062 7.3125C10.4062 8.13273 10.4735 8.5365 10.1243 9C10.3015 9.2352 10.4062 9.52734 10.4062 9.84375V10.6875C10.4062 11.463 9.77555 12.0938 9 12.0938H7.875C7.56422 12.0938 7.3125 11.842 7.3125 11.5312C7.3125 11.2205 7.56422 10.9688 7.875 10.9688H9C9.15504 10.9688 9.28125 10.8425 9.28125 10.6875V9.84375C9.28125 9.68871 9.15504 9.5625 9 9.5625ZM6.75 9.5625H5.90625C5.59547 9.5625 5.34375 9.31078 5.34375 9C5.34375 8.68922 5.59547 8.4375 5.90625 8.4375H6.75C7.06078 8.4375 7.3125 8.68922 7.3125 9C7.3125 9.31078 7.06078 9.5625 6.75 9.5625ZM13.7812 10.9688C14.092 10.9688 14.3438 11.2205 14.3438 11.5312C14.3438 11.842 14.092 12.0938 13.7812 12.0938H11.5312C11.0832 12.0938 10.8138 11.5926 11.0633 11.2191L12.8454 8.54613C13.0897 8.1798 13.2188 7.75301 13.2188 7.3125C13.2188 7.15746 13.0925 7.03125 12.9375 7.03125H12.375C12.22 7.03125 12.0938 7.15746 12.0938 7.3125C12.0938 7.62328 11.842 7.875 11.5312 7.875C11.2205 7.875 10.9688 7.62328 10.9688 7.3125C10.9688 6.53695 11.5995 5.90625 12.375 5.90625H12.9375C13.713 5.90625 14.3438 6.53695 14.3438 7.3125C14.3438 7.9759 14.1493 8.6182 13.7812 9.17016L12.5824 10.9688H13.7812ZM16.0312 11.5312C16.0312 11.842 15.7795 12.0938 15.4688 12.0938C15.158 12.0938 14.9062 11.842 14.9062 11.5312V6.46875C14.9062 6.15797 15.158 5.90625 15.4688 5.90625C15.7795 5.90625 16.0312 6.15797 16.0312 6.46875V11.5312Z"
        fill="white" />
</svg>
