<svg fill="none" height="24" viewBox="0 0 24 24" width="24" xmlns="http://www.w3.org/2000/svg">
    <rect fill="#18D2A6" height="24" rx="12" width="24" />
    <path
        d="M13.7482 18.0937H5.65862C5.01812 18.0937 4.5 17.5746 4.5 16.9351C4.5 14.2823 6.65045 12.1328 9.30225 12.1328H10.1046C12.7574 12.1328 14.9068 14.2833 14.9068 16.9351C14.9068 17.5746 14.3887 18.0937 13.7482 18.0937Z"
        fill="white" />
    <path
        d="M9.70498 11.1092C11.1417 11.1092 12.3065 9.94446 12.3065 8.50771C12.3065 7.07096 11.1417 5.90625 9.70498 5.90625C8.26823 5.90625 7.10352 7.07096 7.10352 8.50771C7.10352 9.94446 8.26823 11.1092 9.70498 11.1092Z"
        fill="white" />
    <path
        d="M19.502 9.42714L18.3463 8.27148L15.5337 11.0841L14.1264 9.67781L12.9707 10.8335L15.5347 13.3964L16.6903 12.2408L16.6893 12.2398L19.502 9.42714Z"
        fill="white" />
</svg>
