<svg width="12" height="12" viewBox="0 0 12 12" fill="none" xmlns="http://www.w3.org/2000/svg">
<path d="M9.99408 10.3434C9.95335 10.3434 9.91226 10.3362 9.87268 10.3216L6.7883 9.17714C6.67679 9.13575 6.59398 9.04045 6.5686 8.92425C6.54321 8.80804 6.57872 8.6869 6.66284 8.60278L7.6328 7.63279L8.60279 6.66283C8.68688 6.57869 8.80803 6.54323 8.92425 6.56859C9.04046 6.59397 9.13575 6.67678 9.17714 6.78829L10.3216 9.87267C10.369 10.0006 10.3376 10.1446 10.2411 10.2411C10.1744 10.3078 10.0851 10.3434 9.99408 10.3434Z" fill="#FB6F44"/>
<path d="M3.14796 5.43713C3.12316 5.43713 3.0982 5.43448 3.07343 5.42909C2.95722 5.40371 2.86193 5.32093 2.82054 5.20939L1.67611 2.12501C1.62865 1.99704 1.66005 1.85311 1.75659 1.7566C1.85311 1.66008 1.99699 1.62863 2.12501 1.67611L5.20938 2.82054C5.3209 2.86193 5.4037 2.95723 5.42908 3.07343C5.45447 3.18964 5.41896 3.31079 5.33484 3.3949L4.36488 4.36489L3.3949 5.33485C3.32869 5.40106 3.23955 5.43713 3.14796 5.43713ZM4.11794 4.11795H4.11818H4.11794Z" fill="#FD8F32"/>
<path d="M8.84972 5.43712C8.75811 5.43712 8.669 5.40105 8.60279 5.33484L7.6328 4.36488L6.66284 3.3949C6.57872 3.3108 6.54321 3.18963 6.5686 3.07343C6.59398 2.95722 6.67679 2.86193 6.7883 2.82054L9.87268 1.67611C10.0006 1.62865 10.1446 1.66005 10.2411 1.75659C10.3376 1.85311 10.369 1.99701 10.3216 2.12501L9.17714 5.20938C9.13575 5.3209 9.04046 5.4037 8.92425 5.42908C8.8995 5.4345 8.87452 5.43712 8.84972 5.43712Z" fill="#FB6F44"/>
<path d="M2.0036 10.3434C1.91257 10.3434 1.8233 10.3078 1.75659 10.2411C1.66005 10.1446 1.62865 10.0007 1.67611 9.87267L2.82054 6.7883C2.86193 6.67678 2.95722 6.59398 3.07343 6.5686C3.18972 6.54321 3.31078 6.57874 3.3949 6.66284L4.36488 7.6328L5.33484 8.60278C5.41896 8.68688 5.45447 8.80805 5.42908 8.92425C5.4037 9.04046 5.3209 9.13575 5.20938 9.17714L2.12501 10.3216C2.08544 10.3362 2.04433 10.3434 2.0036 10.3434Z" fill="#FD8F32"/>
<path d="M6.00027 11.9992C5.86377 11.9992 5.73976 11.9197 5.68286 11.7956L4.31111 8.80536C4.26149 8.69724 4.27037 8.57131 4.33457 8.47121C4.39879 8.37109 4.50955 8.31055 4.62852 8.31055H7.37202C7.49097 8.31055 7.60173 8.37109 7.66597 8.47121C7.73017 8.57131 7.73905 8.69724 7.68944 8.80536L6.31768 11.7956C6.26078 11.9197 6.13677 11.9992 6.00027 11.9992Z" fill="#FBAC5B"/>
<path d="M7.6657 8.47121C7.60148 8.37109 7.4907 8.31055 7.37175 8.31055H6V11.9992C6.1365 11.9992 6.26051 11.9197 6.31741 11.7956L7.68916 8.80536C7.73878 8.69724 7.7299 8.57131 7.6657 8.47121Z" fill="#FD8F32"/>
<path d="M7.37202 3.68866H4.62852C4.50958 3.68866 4.39881 3.62812 4.33457 3.528C4.27037 3.4279 4.26149 3.30197 4.31111 3.19385L5.68286 0.203602C5.73976 0.0795234 5.86377 0 6.00027 0C6.13677 0 6.26078 0.0795234 6.31768 0.203602L7.68944 3.19385C7.73905 3.30197 7.73017 3.4279 7.66597 3.528C7.60176 3.62812 7.49097 3.68866 7.37202 3.68866Z" fill="#FBAC5B"/>
<path d="M7.68916 3.19385L6.31741 0.203602C6.26051 0.0795234 6.1365 0 6 0V3.68866H7.37175C7.4907 3.68866 7.60146 3.62812 7.6657 3.528C7.7299 3.4279 7.73878 3.30197 7.68916 3.19385Z" fill="#FD8F32"/>
<path d="M8.65979 7.72123C8.59393 7.72123 8.52837 7.70262 8.47121 7.66596C8.37109 7.60175 8.31055 7.49096 8.31055 7.37201V4.62851C8.31055 4.50957 8.37109 4.3988 8.47121 4.33456C8.57131 4.27036 8.69724 4.2615 8.80536 4.3111L11.7956 5.68285C11.9197 5.73975 11.9992 5.86376 11.9992 6.00026C11.9992 6.13676 11.9197 6.26077 11.7956 6.31768L8.80536 7.68943C8.75898 7.71071 8.70929 7.72123 8.65979 7.72123Z" fill="#FD8F32"/>
<path d="M3.33942 7.72123C3.2899 7.72123 3.24026 7.71071 3.19385 7.68943L0.203602 6.31768C0.0795234 6.26077 0 6.13676 0 6.00026C0 5.86376 0.0795234 5.73975 0.203602 5.68285L3.19385 4.3111C3.30192 4.2615 3.42788 4.27036 3.528 4.33456C3.62812 4.39878 3.68866 4.50957 3.68866 4.62851V7.37201C3.68866 7.49096 3.62812 7.60172 3.528 7.66596C3.47086 7.70262 3.40528 7.72123 3.33942 7.72123Z" fill="#FBAC5B"/>
<path d="M5.99953 9.49125C4.07419 9.49125 2.50781 7.92488 2.50781 5.99953C2.50781 4.07419 4.07419 2.50781 5.99953 2.50781C7.92488 2.50781 9.49125 4.07419 9.49125 5.99953C9.49125 7.92488 7.92488 9.49125 5.99953 9.49125Z" fill="#FDDB8D"/>
<path d="M6 2.50781V9.49125C7.92534 9.49125 9.49172 7.92488 9.49172 5.99953C9.49172 4.07419 7.92534 2.50781 6 2.50781Z" fill="#FBAC5B"/>
</svg>
