<svg fill="none" height="11" viewBox="0 0 37 11" width="37" xmlns="http://www.w3.org/2000/svg">
    <rect fill="#EA5455" height="11" rx="2" width="36" x="0.5" />
    <path
        d="M3.91016 3.73438V8H3.1748V3.73438H3.91016ZM6.47363 3.73438L4.74512 5.78809L3.76074 6.83105L3.63184 6.10156L4.33496 5.23438L5.57715 3.73438H6.47363ZM5.68262 8L4.2793 5.97852L4.78613 5.47754L6.55566 8H5.68262ZM7.59277 3.5V8H6.88965V3.5H7.59277ZM7.46973 6.29785L7.24121 6.29492C7.24316 6.07617 7.27344 5.87402 7.33203 5.68848C7.39258 5.50293 7.47656 5.3418 7.58398 5.20508C7.69336 5.06641 7.82422 4.95996 7.97656 4.88574C8.12891 4.80957 8.29785 4.77148 8.4834 4.77148C8.63965 4.77148 8.78027 4.79297 8.90527 4.83594C9.03223 4.87891 9.1416 4.94824 9.2334 5.04395C9.3252 5.1377 9.39453 5.26074 9.44141 5.41309C9.49023 5.56348 9.51465 5.74707 9.51465 5.96387V8H8.80566V5.95801C8.80566 5.80566 8.7832 5.68457 8.73828 5.59473C8.69531 5.50488 8.63184 5.44043 8.54785 5.40137C8.46387 5.36035 8.36133 5.33984 8.24023 5.33984C8.11328 5.33984 8.00098 5.36523 7.90332 5.41602C7.80762 5.4668 7.72754 5.53613 7.66309 5.62402C7.59863 5.71191 7.5498 5.81348 7.5166 5.92871C7.48535 6.04395 7.46973 6.16699 7.46973 6.29785ZM10.0947 6.4502V6.38281C10.0947 6.1543 10.1279 5.94238 10.1943 5.74707C10.2607 5.5498 10.3564 5.37891 10.4814 5.23438C10.6084 5.08789 10.7627 4.97461 10.9443 4.89453C11.1279 4.8125 11.335 4.77148 11.5654 4.77148C11.7979 4.77148 12.0049 4.8125 12.1865 4.89453C12.3701 4.97461 12.5254 5.08789 12.6523 5.23438C12.7793 5.37891 12.876 5.5498 12.9424 5.74707C13.0088 5.94238 13.042 6.1543 13.042 6.38281V6.4502C13.042 6.67871 13.0088 6.89062 12.9424 7.08594C12.876 7.28125 12.7793 7.45215 12.6523 7.59863C12.5254 7.74316 12.3711 7.85645 12.1895 7.93848C12.0078 8.01855 11.8018 8.05859 11.5713 8.05859C11.3389 8.05859 11.1309 8.01855 10.9473 7.93848C10.7656 7.85645 10.6113 7.74316 10.4844 7.59863C10.3574 7.45215 10.2607 7.28125 10.1943 7.08594C10.1279 6.89062 10.0947 6.67871 10.0947 6.4502ZM10.8008 6.38281V6.4502C10.8008 6.59277 10.8154 6.72754 10.8447 6.85449C10.874 6.98145 10.9199 7.09277 10.9824 7.18848C11.0449 7.28418 11.125 7.35938 11.2227 7.41406C11.3203 7.46875 11.4365 7.49609 11.5713 7.49609C11.7021 7.49609 11.8154 7.46875 11.9111 7.41406C12.0088 7.35938 12.0889 7.28418 12.1514 7.18848C12.2139 7.09277 12.2598 6.98145 12.2891 6.85449C12.3203 6.72754 12.3359 6.59277 12.3359 6.4502V6.38281C12.3359 6.24219 12.3203 6.10938 12.2891 5.98438C12.2598 5.85742 12.2129 5.74512 12.1484 5.64746C12.0859 5.5498 12.0059 5.47363 11.9082 5.41895C11.8125 5.3623 11.6982 5.33398 11.5654 5.33398C11.4326 5.33398 11.3174 5.3623 11.2197 5.41895C11.124 5.47363 11.0449 5.5498 10.9824 5.64746C10.9199 5.74512 10.874 5.85742 10.8447 5.98438C10.8154 6.10938 10.8008 6.24219 10.8008 6.38281ZM11.7617 3.5L12.5732 4.30859V4.34082H12.002L11.5537 3.88086L11.1055 4.34082H10.5459V4.30273L11.3457 3.5H11.7617ZM14.334 5.50684V8H13.6279V4.83008H14.293L14.334 5.50684ZM14.208 6.29785L13.9795 6.29492C13.9814 6.07031 14.0127 5.86426 14.0732 5.67676C14.1357 5.48926 14.2217 5.32812 14.3311 5.19336C14.4424 5.05859 14.5752 4.95508 14.7295 4.88281C14.8838 4.80859 15.0557 4.77148 15.2451 4.77148C15.3975 4.77148 15.5352 4.79297 15.6582 4.83594C15.7832 4.87695 15.8896 4.94434 15.9775 5.03809C16.0674 5.13184 16.1357 5.25391 16.1826 5.4043C16.2295 5.55273 16.2529 5.73535 16.2529 5.95215V8H15.5439V5.94922C15.5439 5.79688 15.5215 5.67676 15.4766 5.58887C15.4336 5.49902 15.3701 5.43555 15.2861 5.39844C15.2041 5.35938 15.1016 5.33984 14.9785 5.33984C14.8574 5.33984 14.749 5.36523 14.6533 5.41602C14.5576 5.4668 14.4766 5.53613 14.4102 5.62402C14.3457 5.71191 14.2959 5.81348 14.2607 5.92871C14.2256 6.04395 14.208 6.16699 14.208 6.29785ZM19.0039 4.83008H19.6455V7.91211C19.6455 8.19727 19.585 8.43945 19.4639 8.63867C19.3428 8.83789 19.1738 8.98926 18.957 9.09277C18.7402 9.19824 18.4893 9.25098 18.2041 9.25098C18.083 9.25098 17.9482 9.2334 17.7998 9.19824C17.6533 9.16309 17.5107 9.10645 17.3721 9.02832C17.2354 8.95215 17.1211 8.85156 17.0293 8.72656L17.3604 8.31055C17.4736 8.44531 17.5986 8.54395 17.7354 8.60645C17.8721 8.66895 18.0156 8.7002 18.166 8.7002C18.3281 8.7002 18.4658 8.66992 18.5791 8.60938C18.6943 8.55078 18.7832 8.46387 18.8457 8.34863C18.9082 8.2334 18.9395 8.09277 18.9395 7.92676V5.54785L19.0039 4.83008ZM16.8506 6.4502V6.38867C16.8506 6.14844 16.8799 5.92969 16.9385 5.73242C16.9971 5.5332 17.0811 5.3623 17.1904 5.21973C17.2998 5.0752 17.4326 4.96484 17.5889 4.88867C17.7451 4.81055 17.9219 4.77148 18.1191 4.77148C18.3242 4.77148 18.499 4.80859 18.6436 4.88281C18.79 4.95703 18.9121 5.06348 19.0098 5.20215C19.1074 5.33887 19.1836 5.50293 19.2383 5.69434C19.2949 5.88379 19.3369 6.09473 19.3643 6.32715V6.52344C19.3389 6.75 19.2959 6.95703 19.2354 7.14453C19.1748 7.33203 19.0947 7.49414 18.9951 7.63086C18.8955 7.76758 18.7725 7.87305 18.626 7.94727C18.4814 8.02148 18.3105 8.05859 18.1133 8.05859C17.9199 8.05859 17.7451 8.01855 17.5889 7.93848C17.4346 7.8584 17.3018 7.74609 17.1904 7.60156C17.0811 7.45703 16.9971 7.28711 16.9385 7.0918C16.8799 6.89453 16.8506 6.68066 16.8506 6.4502ZM17.5566 6.38867V6.4502C17.5566 6.59473 17.5703 6.72949 17.5977 6.85449C17.627 6.97949 17.6709 7.08984 17.7295 7.18555C17.79 7.2793 17.8662 7.35352 17.958 7.4082C18.0518 7.46094 18.1621 7.4873 18.2891 7.4873C18.4551 7.4873 18.5908 7.45215 18.6963 7.38184C18.8037 7.31152 18.8857 7.2168 18.9424 7.09766C19.001 6.97656 19.042 6.8418 19.0654 6.69336V6.16309C19.0537 6.04785 19.0293 5.94043 18.9922 5.84082C18.957 5.74121 18.9092 5.6543 18.8486 5.58008C18.7881 5.50391 18.7119 5.44531 18.6201 5.4043C18.5283 5.36133 18.4199 5.33984 18.2949 5.33984C18.168 5.33984 18.0576 5.36719 17.9639 5.42188C17.8701 5.47656 17.793 5.55176 17.7324 5.64746C17.6738 5.74316 17.6299 5.85449 17.6006 5.98145C17.5713 6.1084 17.5566 6.24414 17.5566 6.38867ZM22.6279 3.5V8H21.9189V3.5H22.6279ZM24.3213 7.6543L25.1826 4.83008H25.9385L24.667 8.4834C24.6377 8.56152 24.5996 8.64648 24.5527 8.73828C24.5059 8.83008 24.4443 8.91699 24.3682 8.99902C24.2939 9.08301 24.2012 9.15039 24.0898 9.20117C23.9785 9.25391 23.8438 9.28027 23.6855 9.28027C23.623 9.28027 23.5625 9.27441 23.5039 9.2627C23.4473 9.25293 23.3936 9.24219 23.3428 9.23047L23.3398 8.69141C23.3594 8.69336 23.3828 8.69531 23.4102 8.69727C23.4395 8.69922 23.4629 8.7002 23.4805 8.7002C23.5977 8.7002 23.6953 8.68555 23.7734 8.65625C23.8516 8.62891 23.915 8.58398 23.9639 8.52148C24.0146 8.45898 24.0576 8.375 24.0928 8.26953L24.3213 7.6543ZM23.835 4.83008L24.5879 7.20312L24.7139 7.94727L24.2246 8.07324L23.0732 4.83008H23.835ZM24.1924 4.38184L24.7637 3.5H25.5605L24.7637 4.38184H24.1924ZM29.7705 7.34375V3.5H30.4795V8H29.8379L29.7705 7.34375ZM27.708 6.4502V6.38867C27.708 6.14844 27.7363 5.92969 27.793 5.73242C27.8496 5.5332 27.9316 5.3623 28.0391 5.21973C28.1465 5.0752 28.2773 4.96484 28.4316 4.88867C28.5859 4.81055 28.7598 4.77148 28.9531 4.77148C29.1445 4.77148 29.3125 4.80859 29.457 4.88281C29.6016 4.95703 29.7246 5.06348 29.8262 5.20215C29.9277 5.33887 30.0088 5.50293 30.0693 5.69434C30.1299 5.88379 30.1729 6.09473 30.1982 6.32715V6.52344C30.1729 6.75 30.1299 6.95703 30.0693 7.14453C30.0088 7.33203 29.9277 7.49414 29.8262 7.63086C29.7246 7.76758 29.6006 7.87305 29.4541 7.94727C29.3096 8.02148 29.1406 8.05859 28.9473 8.05859C28.7559 8.05859 28.583 8.01855 28.4287 7.93848C28.2764 7.8584 28.1465 7.74609 28.0391 7.60156C27.9316 7.45703 27.8496 7.28711 27.793 7.0918C27.7363 6.89453 27.708 6.68066 27.708 6.4502ZM28.4141 6.38867V6.4502C28.4141 6.59473 28.4268 6.72949 28.4521 6.85449C28.4795 6.97949 28.5215 7.08984 28.5781 7.18555C28.6348 7.2793 28.708 7.35352 28.7979 7.4082C28.8896 7.46094 28.999 7.4873 29.126 7.4873C29.2861 7.4873 29.418 7.45215 29.5215 7.38184C29.625 7.31152 29.7061 7.2168 29.7646 7.09766C29.8252 6.97656 29.8662 6.8418 29.8877 6.69336V6.16309C29.876 6.04785 29.8516 5.94043 29.8145 5.84082C29.7793 5.74121 29.7314 5.6543 29.6709 5.58008C29.6104 5.50391 29.5352 5.44531 29.4453 5.4043C29.3574 5.36133 29.2529 5.33984 29.1318 5.33984C29.0029 5.33984 28.8936 5.36719 28.8037 5.42188C28.7139 5.47656 28.6396 5.55176 28.5811 5.64746C28.5244 5.74316 28.4824 5.85449 28.4551 5.98145C28.4277 6.1084 28.4141 6.24414 28.4141 6.38867ZM31.083 6.4502V6.38281C31.083 6.1543 31.1162 5.94238 31.1826 5.74707C31.249 5.5498 31.3447 5.37891 31.4697 5.23438C31.5967 5.08789 31.751 4.97461 31.9326 4.89453C32.1162 4.8125 32.3232 4.77148 32.5537 4.77148C32.7861 4.77148 32.9932 4.8125 33.1748 4.89453C33.3584 4.97461 33.5137 5.08789 33.6406 5.23438C33.7676 5.37891 33.8643 5.5498 33.9307 5.74707C33.9971 5.94238 34.0303 6.1543 34.0303 6.38281V6.4502C34.0303 6.67871 33.9971 6.89062 33.9307 7.08594C33.8643 7.28125 33.7676 7.45215 33.6406 7.59863C33.5137 7.74316 33.3594 7.85645 33.1777 7.93848C32.9961 8.01855 32.79 8.05859 32.5596 8.05859C32.3271 8.05859 32.1191 8.01855 31.9355 7.93848C31.7539 7.85645 31.5996 7.74316 31.4727 7.59863C31.3457 7.45215 31.249 7.28125 31.1826 7.08594C31.1162 6.89062 31.083 6.67871 31.083 6.4502ZM31.7891 6.38281V6.4502C31.7891 6.59277 31.8037 6.72754 31.833 6.85449C31.8623 6.98145 31.9082 7.09277 31.9707 7.18848C32.0332 7.28418 32.1133 7.35938 32.2109 7.41406C32.3086 7.46875 32.4248 7.49609 32.5596 7.49609C32.6904 7.49609 32.8037 7.46875 32.8994 7.41406C32.9971 7.35938 33.0771 7.28418 33.1396 7.18848C33.2021 7.09277 33.248 6.98145 33.2773 6.85449C33.3086 6.72754 33.3242 6.59277 33.3242 6.4502V6.38281C33.3242 6.24219 33.3086 6.10938 33.2773 5.98438C33.248 5.85742 33.2012 5.74512 33.1367 5.64746C33.0742 5.5498 32.9941 5.47363 32.8965 5.41895C32.8008 5.3623 32.6865 5.33398 32.5537 5.33398C32.4209 5.33398 32.3057 5.3623 32.208 5.41895C32.1123 5.47363 32.0332 5.5498 31.9707 5.64746C31.9082 5.74512 31.8623 5.85742 31.833 5.98438C31.8037 6.10938 31.7891 6.24219 31.7891 6.38281Z"
        fill="white" />
</svg>
