<svg width="14" height="12" viewBox="0 0 14 12" fill="none" xmlns="http://www.w3.org/2000/svg">
<rect x="0.5" y="0.5" width="13" height="11" rx="2" fill="#5A8DEE"/>
<path d="M6.77148 4.23438V8.5H6.03613L4.12305 5.44434V8.5H3.3877V4.23438H4.12305L6.04199 7.2959V4.23438H6.77148ZM9.26758 6.90918H8.15723V6.32617H9.26758C9.46094 6.32617 9.61719 6.29492 9.73633 6.23242C9.85547 6.16992 9.94238 6.08398 9.99707 5.97461C10.0537 5.86328 10.082 5.73633 10.082 5.59375C10.082 5.45898 10.0537 5.33301 9.99707 5.21582C9.94238 5.09668 9.85547 5.00098 9.73633 4.92871C9.61719 4.85645 9.46094 4.82031 9.26758 4.82031H8.38281V8.5H7.64746V4.23438H9.26758C9.59766 4.23438 9.87793 4.29297 10.1084 4.41016C10.3408 4.52539 10.5176 4.68555 10.6387 4.89062C10.7598 5.09375 10.8203 5.32617 10.8203 5.58789C10.8203 5.86328 10.7598 6.09961 10.6387 6.29688C10.5176 6.49414 10.3408 6.64551 10.1084 6.75098C9.87793 6.85645 9.59766 6.90918 9.26758 6.90918Z" fill="white"/>
</svg>
