<svg width="33" height="32" viewBox="0 0 33 32" fill="none" xmlns="http://www.w3.org/2000/svg">
<path fill-rule="evenodd" clip-rule="evenodd" d="M10.7209 29.3327H22.2764C26.7968 29.3327 29.8327 26.1619 29.8327 21.4437V10.555C29.8327 5.83683 26.7968 2.66602 22.2778 2.66602H10.7209C6.20188 2.66602 3.16602 5.83683 3.16602 10.555V21.4437C3.16602 26.1619 6.20188 29.3327 10.7209 29.3327ZM11.8312 14.666C9.99297 14.666 8.49935 13.1704 8.49935 11.3327C8.49935 9.49499 9.99297 7.99935 11.8312 7.99935C13.668 7.99935 15.163 9.49499 15.163 11.3327C15.163 13.1704 13.668 14.666 11.8312 14.666ZM26.9271 19.9113C27.3736 21.0561 27.1416 22.4321 26.6643 23.5659C26.0985 24.9144 25.0152 25.9354 23.6503 26.3812C23.0442 26.5793 22.4087 26.666 21.7745 26.666H10.5375C9.41934 26.666 8.42985 26.3977 7.61869 25.8982C7.11054 25.5845 7.0207 24.8607 7.39746 24.3915C8.02762 23.6072 8.64974 22.8201 9.27722 22.0262C10.4732 20.5071 11.279 20.0668 12.1746 20.4534C12.538 20.613 12.9027 20.8525 13.2781 21.1056C14.2783 21.7854 15.6687 22.7197 17.5002 21.7056C18.7535 21.0036 19.4804 19.7995 20.1135 18.751L20.124 18.7334C20.1689 18.6599 20.2134 18.5863 20.2577 18.513L20.2577 18.5129C20.4704 18.1609 20.6803 17.8136 20.9178 17.4937C21.2154 17.0933 22.3189 15.8411 23.7481 16.7328C24.6585 17.2942 25.4241 18.0537 26.2433 18.8669C26.5557 19.1779 26.7783 19.5315 26.9271 19.9113Z" fill="#7966FF"/>
</svg>
