<svg width="27" height="32" viewBox="0 0 33 29" fill="none" xmlns="http://www.w3.org/2000/svg">
<path d="M26.4245 7.95429C26.2885 6.17143 24.7919 4.8 23.0232 4.66286L21.7987 4.52571C21.2545 4.52571 20.7102 4.25143 20.4381 3.70286L19.2136 1.78286C18.5334 0.685714 17.3089 0 16.0844 0H10.9143C9.55377 0 8.46534 0.685714 7.78506 1.78286L6.56057 3.70286C6.28846 4.11429 5.74425 4.38857 5.20003 4.52571L3.97554 4.66286C2.20683 4.8 0.846288 6.17143 0.574179 7.95429C0.438124 9.73714 0.166016 12.2057 0.166016 14.1257C0.166016 16.0457 0.438124 18.5143 0.574179 20.2971C0.710233 22.08 2.20683 23.4514 3.97554 23.5886C6.69663 23.7257 10.5062 24 13.4993 24C16.4925 24 20.3021 23.7257 23.0232 23.5886C24.7919 23.4514 26.2885 22.08 26.4245 20.2971C26.5606 18.5143 26.8327 16.0457 26.8327 14.1257C26.8327 12.2057 26.5606 9.6 26.4245 7.95429ZM13.4993 18.6514C10.6422 18.6514 8.32928 16.32 8.32928 13.44C8.32928 10.56 10.6422 8.22857 13.4993 8.22857C16.3565 8.22857 18.6694 10.56 18.6694 13.44C18.6694 16.32 16.3565 18.6514 13.4993 18.6514Z" fill="white"/>
</svg>
