<svg width="13" height="11" viewBox="0 0 13 11" fill="none" xmlns="http://www.w3.org/2000/svg">
<rect x="0.5" width="12" height="11" rx="2" fill="#FF9F43"/>
<path d="M4.64258 7.2207L5.76465 3.73438H6.57617L5.04688 8H4.49902L4.64258 7.2207ZM3.60547 3.73438L4.71875 7.2207L4.87109 8H4.32031L2.79688 3.73438H3.60547ZM9.29785 6.90137C9.29785 6.81348 9.28418 6.73535 9.25684 6.66699C9.23145 6.59863 9.18555 6.53613 9.11914 6.47949C9.05273 6.42285 8.95898 6.36816 8.83789 6.31543C8.71875 6.26074 8.56641 6.20508 8.38086 6.14844C8.17773 6.08594 7.99023 6.0166 7.81836 5.94043C7.64844 5.8623 7.5 5.77246 7.37305 5.6709C7.24609 5.56738 7.14746 5.44922 7.07715 5.31641C7.00684 5.18164 6.97168 5.02637 6.97168 4.85059C6.97168 4.67676 7.00781 4.51855 7.08008 4.37598C7.1543 4.2334 7.25879 4.11035 7.39355 4.00684C7.53027 3.90137 7.69141 3.82031 7.87695 3.76367C8.0625 3.70508 8.26758 3.67578 8.49219 3.67578C8.80859 3.67578 9.08105 3.73438 9.30957 3.85156C9.54004 3.96875 9.7168 4.12598 9.83984 4.32324C9.96484 4.52051 10.0273 4.73828 10.0273 4.97656H9.29785C9.29785 4.83594 9.26758 4.71191 9.20703 4.60449C9.14844 4.49512 9.05859 4.40918 8.9375 4.34668C8.81836 4.28418 8.66699 4.25293 8.4834 4.25293C8.30957 4.25293 8.16504 4.2793 8.0498 4.33203C7.93457 4.38477 7.84863 4.45605 7.79199 4.5459C7.73535 4.63574 7.70703 4.7373 7.70703 4.85059C7.70703 4.93066 7.72559 5.00391 7.7627 5.07031C7.7998 5.13477 7.85645 5.19531 7.93262 5.25195C8.00879 5.30664 8.10449 5.3584 8.21973 5.40723C8.33496 5.45605 8.4707 5.50293 8.62695 5.54785C8.86328 5.61816 9.06934 5.69629 9.24512 5.78223C9.4209 5.86621 9.56738 5.96191 9.68457 6.06934C9.80176 6.17676 9.88965 6.29883 9.94824 6.43555C10.0068 6.57031 10.0361 6.72363 10.0361 6.89551C10.0361 7.0752 10 7.2373 9.92773 7.38184C9.85547 7.52441 9.75195 7.64648 9.61719 7.74805C9.48438 7.84766 9.32422 7.9248 9.13672 7.97949C8.95117 8.03223 8.74414 8.05859 8.51562 8.05859C8.31055 8.05859 8.1084 8.03125 7.90918 7.97656C7.71191 7.92188 7.53223 7.83887 7.37012 7.72754C7.20801 7.61426 7.0791 7.47363 6.9834 7.30566C6.8877 7.13574 6.83984 6.9375 6.83984 6.71094H7.5752C7.5752 6.84961 7.59863 6.96777 7.64551 7.06543C7.69434 7.16309 7.76172 7.24316 7.84766 7.30566C7.93359 7.36621 8.0332 7.41113 8.14648 7.44043C8.26172 7.46973 8.38477 7.48438 8.51562 7.48438C8.6875 7.48438 8.83105 7.45996 8.94629 7.41113C9.06348 7.3623 9.15137 7.29395 9.20996 7.20605C9.26855 7.11816 9.29785 7.0166 9.29785 6.90137Z" fill="white"/>
</svg>
