<svg fill="none" height="32" viewBox="0 0 32 32" width="32" xmlns="http://www.w3.org/2000/svg">
    <path clip-rule="evenodd" d="M27.0495 6.99095C27.5682 6.99095 28 7.42161 28 7.96961V8.47627C28 9.01093 27.5682 9.45492 27.0495 9.45492H4.9518C4.43181 9.45492 4 9.01093 4 8.47627V7.96961C4 7.42161 4.43181 6.99095 4.9518 6.99095H8.83942C9.62913 6.99095 10.3164 6.42962 10.4941 5.63763L10.6976 4.7283C11.014 3.48965 12.0553 2.66699 13.247 2.66699H18.753C19.9317 2.66699 20.9847 3.48965 21.2894 4.66297L21.5072 5.6363C21.6836 6.42962 22.3709 6.99095 23.1619 6.99095H27.0495ZM25.0744 25.5124C25.4803 21.7297 26.1909 12.7432 26.1909 12.6525C26.2169 12.3778 26.1274 12.1178 25.9497 11.9085C25.7591 11.7125 25.5179 11.5965 25.2521 11.5965H6.75803C6.4909 11.5965 6.23674 11.7125 6.06038 11.9085C5.88143 12.1178 5.79326 12.3778 5.80622 12.6525C5.80861 12.6692 5.83411 12.9857 5.87674 13.5149C6.06611 15.8659 6.59356 22.4139 6.93439 25.5124C7.17558 27.795 8.67331 29.2297 10.8427 29.2817C12.5168 29.3203 14.2415 29.3337 16.0051 29.3337C17.6662 29.3337 19.3532 29.3203 21.0792 29.2817C23.3238 29.243 24.8203 27.8337 25.0744 25.5124Z"
        fill="#EA5455"
        fill-rule="evenodd" />
</svg>
