<svg fill="none" height="484" viewBox="0 0 650 484" width="650" xmlns="http://www.w3.org/2000/svg">
    <path d="M650 425.34H0V425.665H650V425.34Z" fill="#EBEBEB" />
    <path d="M584.87 446.238H541.814V446.563H584.87V446.238Z" fill="#EBEBEB" />
    <path d="M430.586 449.773H419.289V450.098H430.586V449.773Z" fill="#EBEBEB" />
    <path d="M540.514 434.184H515.567V434.508H540.514V434.184Z" fill="#EBEBEB" />
    <path d="M124.345 436.367H68.1978V436.692H124.345V436.367Z" fill="#EBEBEB" />
    <path d="M144.157 436.367H135.928V436.692H144.157V436.367Z" fill="#EBEBEB" />
    <path d="M292.695 441.848H170.911V442.172H292.695V441.848Z" fill="#EBEBEB" />
    <path
        d="M308.1 367.407H57.0829C55.1164 367.403 53.2317 366.62 51.8424 365.23C50.4531 363.839 49.6728 361.955 49.6729 359.99V7.41698C49.6728 5.45212 50.4531 3.56755 51.8424 2.17697C53.2317 0.786389 55.1164 0.00344108 57.0829 0L308.1 0C310.069 0 311.957 0.781429 313.349 2.17238C314.741 3.56334 315.523 5.44987 315.523 7.41698V359.99C315.523 360.964 315.331 361.928 314.958 362.828C314.585 363.728 314.038 364.546 313.349 365.234C312.659 365.923 311.841 366.469 310.941 366.842C310.04 367.215 309.075 367.407 308.1 367.407ZM57.0829 0.324736C55.2026 0.328177 53.4005 1.07691 52.0722 2.40659C50.7439 3.73627 49.9978 5.53825 49.9979 7.41698V359.99C49.9978 361.868 50.7439 363.67 52.0722 365C53.4005 366.33 55.2026 367.079 57.0829 367.082H308.1C309.981 367.079 311.785 366.33 313.115 365.001C314.445 363.672 315.194 361.87 315.198 359.99V7.41698C315.194 5.53705 314.445 3.73511 313.115 2.4058C311.785 1.07649 309.981 0.32817 308.1 0.324736H57.0829Z"
        fill="#EBEBEB" />
    <path
        d="M589.303 367.407H338.273C336.305 367.403 334.419 366.621 333.028 365.231C331.637 363.84 330.854 361.956 330.85 359.99V7.41698C330.854 5.45093 331.637 3.56639 333.028 2.17618C334.419 0.785966 336.305 0.00343416 338.273 0L589.303 0C591.267 0.0068743 593.149 0.791337 594.535 2.18155C595.922 3.57176 596.7 5.45437 596.7 7.41698V359.99C596.7 361.952 595.922 363.835 594.535 365.225C593.149 366.615 591.267 367.4 589.303 367.407ZM338.273 0.324736C336.392 0.32817 334.588 1.07649 333.258 2.4058C331.927 3.73511 331.179 5.53705 331.175 7.41698V359.99C331.179 361.87 331.927 363.672 333.258 365.001C334.588 366.33 336.392 367.079 338.273 367.082H589.303C591.185 367.079 592.988 366.33 594.318 365.001C595.649 363.672 596.398 361.87 596.401 359.99V7.41698C596.398 5.53705 595.649 3.73511 594.318 2.4058C592.988 1.07649 591.185 0.32817 589.303 0.324736H338.273Z"
        fill="#EBEBEB" />
    <path
        d="M246.558 354.172L262.899 394.946H317.2C321.664 399.47 326.982 403.062 332.847 405.515C338.712 407.968 345.006 409.232 351.364 409.234H419.9L427.7 397.544H443.3L445.38 399.505C451.118 404.915 458.707 407.931 466.596 407.935C470.74 407.932 474.841 407.096 478.655 405.479C482.469 403.861 485.919 401.494 488.8 398.518L489.736 397.544H535.6L552.5 367.33L246.558 354.172Z"
        fill="#E0E0E0" />
    <path
        d="M534.079 327.398H551.85C571.597 327.398 587.6 349.48 587.6 376.758C587.6 404.036 571.597 426.118 551.85 426.118H534.079C514.345 426.118 498.329 404.036 498.329 376.758C498.329 349.48 514.345 327.398 534.079 327.398Z"
        fill="#E0E0E0" />
    <path
        d="M219.479 327.398H237.25C256.997 327.398 273 349.48 273 376.758C273 404.036 256.997 426.118 237.25 426.118H219.479C199.745 426.118 183.729 404.036 183.729 376.758C183.729 349.48 199.745 327.398 219.479 327.398Z"
        fill="#E0E0E0" />
    <path
        d="M376.779 327.398H394.55C414.297 327.398 430.3 349.48 430.3 376.758C430.3 404.036 414.297 426.118 394.55 426.118H376.779C357.045 426.118 341.029 404.036 341.029 376.758C341.029 349.48 357.045 327.398 376.779 327.398Z"
        fill="#E0E0E0" />
    <path
        d="M613.6 357.601V371.24C613.6 372.704 613.018 374.108 611.982 375.144C610.946 376.179 609.54 376.761 608.075 376.761H178.425C176.96 376.761 175.554 376.179 174.518 375.144C173.482 374.108 172.9 372.704 172.9 371.24V349.95C172.901 349.058 173.119 348.179 173.536 347.389C173.953 346.599 174.555 345.922 175.292 345.417L180.7 341.689V315.191C180.698 306.744 183.343 298.508 188.262 291.639C193.181 284.769 200.128 279.61 208.13 276.885C209.261 276.495 210.418 276.157 211.588 275.872L242.268 268.377L258.102 238.709C261.816 231.753 267.352 225.938 274.119 221.883C280.885 217.829 288.627 215.689 296.517 215.691H441.272C449.769 215.686 458.112 217.96 465.43 222.276C472.747 226.592 478.771 232.792 482.872 240.228L502.281 275.443L520.351 281.938L569.751 299.681C575.578 301.77 580.847 305.166 585.154 309.61C589.461 314.053 592.691 319.424 594.594 325.309L603.2 352.081H608.075C609.54 352.081 610.946 352.662 611.982 353.698C613.018 354.733 613.6 356.137 613.6 357.601Z"
        fill="#E6E6E6" />
    <path
        d="M357.5 220.887L373.529 276.741C373.529 276.741 440.999 282.794 465.205 282.794C497.276 282.794 502.229 275.442 502.229 275.442L482.82 240.228C478.234 231.924 471.26 225.187 462.8 220.887H357.5Z"
        fill="#F0F0F0" />
    <path d="M367.029 276.248L352.3 220.887H306.8L297.7 272.403L367.029 276.248Z" fill="#F0F0F0" />
    <path
        d="M291.421 270.182L301.6 220.887H294.125C286.664 220.891 279.361 223.034 273.082 227.06C266.803 231.087 261.811 236.829 258.7 243.605L247.455 268.077L291.421 270.182Z"
        fill="#F0F0F0" />
    <path
        d="M449.8 352.078V376.758H608.075C609.54 376.758 610.945 376.176 611.982 375.141C613.018 374.106 613.6 372.702 613.6 371.238V357.599C613.6 356.135 613.018 354.73 611.982 353.695C610.945 352.66 609.54 352.078 608.075 352.078H449.8Z"
        fill="#F0F0F0" />
    <path
        d="M461.721 346.012C469.259 346.012 475.371 339.325 475.371 331.075C475.371 322.825 469.259 316.137 461.721 316.137C454.182 316.137 448.071 322.825 448.071 331.075C448.071 339.325 454.182 346.012 461.721 346.012Z"
        fill="#FAFAFA" />
    <path
        d="M577.421 346.012C584.96 346.012 591.071 339.325 591.071 331.075C591.071 322.825 584.96 316.137 577.421 316.137C569.882 316.137 563.771 322.825 563.771 331.075C563.771 339.325 569.882 346.012 577.421 346.012Z"
        fill="#FAFAFA" />
    <path
        d="M369.889 420.923C385.663 420.923 398.45 403.767 398.45 382.604C398.45 361.441 385.663 344.285 369.889 344.285C354.115 344.285 341.328 361.441 341.328 382.604C341.328 403.767 354.115 420.923 369.889 420.923Z"
        fill="#E0E0E0" />
    <path
        d="M367.419 405.153C375.949 405.153 382.863 395.883 382.863 384.447C382.863 373.012 375.949 363.742 367.419 363.742C358.89 363.742 351.975 373.012 351.975 384.447C351.975 395.883 358.89 405.153 367.419 405.153Z"
        fill="#E6E6E6" />
    <path
        d="M213.889 422.224C229.663 422.224 242.45 405.068 242.45 383.905C242.45 362.742 229.663 345.586 213.889 345.586C198.115 345.586 185.328 362.742 185.328 383.905C185.328 405.068 198.115 422.224 213.889 422.224Z"
        fill="#E0E0E0" />
    <path
        d="M211.419 406.453C219.949 406.453 226.863 397.183 226.863 385.748C226.863 374.313 219.949 365.043 211.419 365.043C202.89 365.043 195.975 374.313 195.975 385.748C195.975 397.183 202.89 406.453 211.419 406.453Z"
        fill="#E6E6E6" />
    <path
        d="M482.924 335.686C480.428 319.605 525.2 319.93 525.2 319.93C525.2 319.93 529.1 326.75 530.075 344.285C530.075 344.285 484.9 348.754 482.924 335.686Z"
        fill="#EBEBEB" />
    <path
        d="M530.075 319.93C530.075 319.93 534.625 336.024 533.65 345.025C533.65 345.025 560.404 347.311 558.454 334.218C556.504 321.125 530.075 319.93 530.075 319.93Z"
        fill="#EBEBEB" />
    <path
        d="M424.671 352.016H449.8V376.696H424.671C422.94 376.692 421.279 376.01 420.046 374.795C418.814 373.58 418.107 371.931 418.08 370.201V358.705C418.068 357.832 418.23 356.965 418.555 356.155C418.881 355.345 419.364 354.607 419.977 353.985C420.591 353.363 421.321 352.868 422.127 352.53C422.932 352.192 423.797 352.017 424.671 352.016Z"
        fill="#EBEBEB" />
    <path
        d="M373.75 277.872C373.75 277.872 429 285.835 469.131 309.216H552.5C552.5 309.216 535.275 293.187 504.075 277.82C504.075 277.82 493.675 296.226 373.75 277.872Z"
        fill="#EBEBEB" />
    <path
        d="M444.925 310.98L439.4 318.306V345.583L418.08 345.181L403.78 355.975C395.538 328.269 378.235 320.033 357.435 323.501C336.635 326.97 334.035 355.975 334.035 355.975H247.429C247.429 355.975 237.25 327.203 218.4 324.956C199.55 322.709 193.7 341.687 193.7 341.687H180.7V315.188C180.699 306.741 183.343 298.506 188.262 291.636C193.181 284.767 200.129 279.607 208.13 276.882L242.45 270.18L297.7 274.739C297.7 274.739 362.271 278.454 369.889 280.337C377.507 282.221 444.925 310.98 444.925 310.98Z"
        fill="#E0E0E0" />
    <path
        d="M147.108 426.119L119.535 214.391H114.608H109.486H109.187H105.859H103.558L55.8999 426.119H61.0999L104.065 238.109L89.8559 426.119H95.7969L112.567 237.343L140.4 426.119H147.108Z"
        fill="#E0E0E0" />
    <path d="M198.172 389.461H80.5998L53.2998 144.727H170.872L198.172 389.461Z" fill="#407BFF" />
    <path d="M198.172 389.461H80.5998L53.2998 144.727H170.872L198.172 389.461Z" fill="white"
        opacity="0.8" />
    <path d="M167.544 166.316H62.3611L60.7881 152.223H165.971L167.544 166.316Z" fill="#407BFF" />
    <path d="M130.26 224.547H68.8609L68.3149 219.676H129.714L130.26 224.547Z" fill="#407BFF" />
    <path d="M131.482 235.536H70.0831L69.5371 230.652H130.936L131.482 235.536Z" fill="#407BFF" />
    <path d="M99.5928 211.923H67.4438L63.9468 180.566H96.0958L99.5928 211.923Z" fill="#407BFF" />
    <path d="M138.333 297.005H76.9342L76.3882 292.121H137.8L138.333 297.005Z" fill="#407BFF" />
    <path d="M139.568 307.993H78.169L77.623 303.109H139.022L139.568 307.993Z" fill="#407BFF" />
    <path d="M107.679 284.367H75.5302L72.0332 253.023H104.182L107.679 284.367Z" fill="#407BFF" />
    <path d="M167.544 166.316H62.3611L60.7881 152.223H165.971L167.544 166.316Z" fill="white"
        opacity="0.6" />
    <path d="M130.26 224.547H68.8609L68.3149 219.676H129.714L130.26 224.547Z" fill="white"
        opacity="0.6" />
    <path d="M131.482 235.536H70.0831L69.5371 230.652H130.936L131.482 235.536Z" fill="white"
        opacity="0.6" />
    <path d="M99.5928 211.923H67.4438L63.9468 180.566H96.0958L99.5928 211.923Z" fill="white"
        opacity="0.6" />
    <path d="M138.333 297.005H76.9342L76.3882 292.121H137.8L138.333 297.005Z" fill="white"
        opacity="0.6" />
    <path d="M139.568 307.993H78.169L77.623 303.109H139.022L139.568 307.993Z" fill="white"
        opacity="0.6" />
    <path d="M107.679 284.367H75.5302L72.0332 253.023H104.182L107.679 284.367Z" fill="white"
        opacity="0.6" />
    <path d="M565.513 46.8516H338.013V117.813H565.513V46.8516Z" fill="#F5F5F5" />
    <path
        d="M325 484.002C464.207 484.002 577.057 477.419 577.057 469.298C577.057 461.177 464.207 454.594 325 454.594C185.793 454.594 72.9429 461.177 72.9429 469.298C72.9429 477.419 185.793 484.002 325 484.002Z"
        fill="#F5F5F5" />
    <path d="M433.524 457.316L422.981 458.433L421.005 435.715L431.548 434.598L433.524 457.316Z"
        fill="#E4897B" />
    <path d="M486.148 456.552H475.93L475.085 432.898H485.316L486.148 456.552Z" fill="#E4897B" />
    <path
        d="M474.5 455.368H486.915C487.117 455.373 487.312 455.445 487.469 455.572C487.627 455.698 487.738 455.873 487.786 456.069L489.801 465.162C489.883 465.553 489.807 465.96 489.59 466.295C489.374 466.63 489.034 466.867 488.644 466.954C488.533 466.974 488.418 466.974 488.306 466.954C484.289 466.889 481.364 466.643 476.32 466.643C473.213 466.643 463.84 466.967 459.55 466.967C455.26 466.967 454.701 462.733 456.456 462.343C464.334 460.629 470.262 458.251 472.784 455.991C473.258 455.577 473.871 455.354 474.5 455.368Z"
        fill="#2E353A" />
    <path
        d="M471.133 457.228C470.438 457.294 469.742 457.11 469.17 456.709C468.983 456.553 468.838 456.352 468.749 456.125C468.66 455.897 468.631 455.651 468.663 455.41C468.66 455.269 468.697 455.13 468.771 455.01C468.845 454.891 468.952 454.795 469.079 454.734C470.21 454.15 473.512 456.176 473.876 456.41C473.918 456.431 473.952 456.466 473.973 456.508C473.994 456.55 474.001 456.597 473.993 456.644C473.989 456.693 473.969 456.74 473.936 456.777C473.903 456.815 473.86 456.841 473.811 456.852C472.936 457.081 472.037 457.208 471.133 457.228ZM469.612 455.111C469.504 455.106 469.397 455.128 469.3 455.176C469.235 455.176 469.157 455.267 469.144 455.462C469.121 455.622 469.139 455.786 469.196 455.938C469.253 456.09 469.347 456.225 469.469 456.332C470.616 456.851 471.917 456.916 473.109 456.514C472.045 455.811 470.859 455.314 469.612 455.046V455.111Z"
        fill="#407BFF" />
    <path
        d="M473.746 456.798H473.629C472.576 456.227 470.535 453.98 470.743 452.901C470.782 452.723 470.88 452.562 471.022 452.447C471.163 452.331 471.34 452.267 471.523 452.265C471.707 452.241 471.893 452.256 472.07 452.31C472.248 452.364 472.411 452.455 472.55 452.577C473.733 453.538 473.98 456.474 473.993 456.616C473.995 456.66 473.985 456.704 473.965 456.743C473.944 456.782 473.914 456.814 473.876 456.837C473.853 456.841 473.829 456.839 473.807 456.833C473.784 456.826 473.764 456.814 473.746 456.798ZM471.692 452.655H471.575C471.263 452.655 471.237 452.837 471.224 452.901C471.094 453.564 472.394 455.266 473.447 456.058C473.377 454.895 472.955 453.781 472.238 452.863C472.086 452.732 471.893 452.659 471.692 452.655Z"
        fill="#407BFF" />
    <path
        d="M421.863 455.044H434.278C434.48 455.049 434.675 455.121 434.832 455.247C434.99 455.374 435.101 455.549 435.149 455.745L437.164 464.838C437.246 465.228 437.17 465.635 436.953 465.971C436.737 466.306 436.397 466.543 436.007 466.63C435.895 466.65 435.781 466.65 435.669 466.63C431.652 466.565 428.727 466.318 423.683 466.318C420.576 466.318 411.203 466.643 406.913 466.643C402.623 466.643 402.064 462.409 403.819 462.019C411.697 460.304 417.625 457.927 420.147 455.667C420.621 455.252 421.233 455.03 421.863 455.044Z"
        fill="#2E353A" />
    <path
        d="M418.483 456.838C417.788 456.903 417.092 456.719 416.52 456.318C416.333 456.162 416.188 455.961 416.099 455.734C416.01 455.507 415.981 455.261 416.013 455.019C416.01 454.878 416.047 454.74 416.121 454.62C416.195 454.5 416.302 454.404 416.429 454.344C417.56 453.759 420.862 455.786 421.226 456.019C421.268 456.041 421.302 456.075 421.323 456.117C421.344 456.159 421.351 456.207 421.343 456.253C421.339 456.303 421.319 456.349 421.286 456.387C421.253 456.424 421.21 456.45 421.161 456.461C420.286 456.691 419.388 456.817 418.483 456.838ZM416.962 454.72C416.854 454.715 416.747 454.738 416.65 454.785C416.585 454.785 416.507 454.876 416.494 455.071C416.472 455.232 416.489 455.395 416.546 455.547C416.603 455.699 416.697 455.835 416.819 455.941C417.966 456.461 419.267 456.526 420.459 456.123C419.39 455.444 418.205 454.968 416.962 454.72Z"
        fill="#407BFF" />
    <path
        d="M421.096 456.474H420.979C419.926 455.903 417.885 453.655 418.093 452.577C418.132 452.398 418.23 452.238 418.372 452.122C418.513 452.007 418.69 451.943 418.873 451.941C419.057 451.917 419.243 451.932 419.421 451.986C419.598 452.04 419.761 452.13 419.9 452.253C421.083 453.214 421.33 456.149 421.343 456.292C421.345 456.336 421.336 456.38 421.315 456.419C421.294 456.457 421.264 456.49 421.226 456.513C421.203 456.517 421.179 456.515 421.157 456.508C421.134 456.502 421.114 456.49 421.096 456.474ZM419.042 452.33H418.925C418.613 452.33 418.587 452.512 418.574 452.577C418.444 453.24 419.744 454.941 420.797 455.734C420.727 454.571 420.305 453.457 419.588 452.538C419.436 452.408 419.243 452.335 419.042 452.33Z"
        fill="#407BFF" />
    <path d="M431.548 434.598L421.005 435.715L422.032 447.431L432.575 446.314L431.548 434.598Z"
        fill="black"
        opacity="0.2" />
    <path d="M485.316 432.91H475.085L475.527 445.107H485.758L485.316 432.91Z" fill="black"
        opacity="0.2" />
    <path
        d="M481.091 225.43H426.855C421.655 253.565 405.561 353.142 417.144 441.873L435.5 439.587C435.5 439.587 433.797 321.811 450.008 278.258C451.88 301.561 454.09 326.319 456.014 339.555C460.733 372.029 470.834 443.003 470.834 443.003H489.528C489.528 443.003 485.706 375.068 483.938 343.153C482.001 308.51 481.169 232.509 481.091 225.43Z"
        fill="#407BFF" />
    <path d="M489.528 443.002H470.834C470.834 443.002 460.733 372.028 456.014 339.554C454.09 326.37 451.88 301.573 450.008 278.27C447.339 285.903 445.313 293.746 443.95 301.716C434.265 353.946 435.5 439.599 435.5 439.599L417.144 442.197C405.561 353.466 421.694 253.356 426.855 226.078H481.091C481.169 232.573 482.001 308.834 483.938 343.477C485.706 375.392 489.528 443.002 489.528 443.002Z"
        fill="white"
        opacity="0.6" />
    <path d="M415.038 446.146L437.762 442.769L437.073 436.469L413.426 439.573L415.038 446.146Z"
        fill="#407BFF" />
    <path d="M468.585 443.147H490.633V436.561L467.753 436.133L468.585 443.147Z" fill="#407BFF" />
    <path
        d="M490.49 136.467C487.487 147.49 485.314 158.723 483.99 170.07C483.561 173.552 483.21 176.968 482.924 180.28C482.547 184.489 482.287 188.541 482.079 192.386C481.819 197.257 481.741 203.012 481.754 208.675C481.754 221.665 482.3 234.199 482.3 234.199C471.9 236.797 441.844 235.07 425.425 233.875C423.491 218.188 422.986 202.358 423.917 186.58C424.464 176.161 425.614 165.782 427.362 155.496C428.244 150.004 429.469 144.573 431.028 139.234C431.632 137.341 432.766 135.661 434.296 134.392C435.826 133.124 437.687 132.32 439.66 132.076C441.649 131.83 443.95 131.583 446.368 131.44C447.304 131.44 448.24 131.349 449.189 131.336C456.945 131.424 464.688 131.962 472.381 132.947C473.837 133.115 475.319 133.336 476.749 133.57C481.378 134.294 485.964 135.26 490.49 136.467Z"
        fill="#407BFF" />
    <path d="M437.723 149.012C432.358 161.24 427.747 173.786 423.917 186.577C424.464 176.158 425.614 165.78 427.362 155.493L437.723 149.012Z"
        fill="black"
        opacity="0.2" />
    <path
        d="M436.098 133.18C423.8 134.18 399.62 174.356 404.17 183.085C408.72 191.814 416.338 195.88 429.494 171.2C442.65 146.52 436.098 133.18 436.098 133.18Z"
        fill="#407BFF" />
    <path d="M436.098 133.18C423.8 134.18 399.62 174.356 404.17 183.085C408.72 191.814 416.338 195.88 429.494 171.2C442.65 146.52 436.098 133.18 436.098 133.18Z"
        fill="black"
        opacity="0.2" />
    <path
        d="M442 87.6237C442 87.6237 440.271 99.2103 447.746 104.627C455.221 110.043 455.221 83.8438 455.221 83.8438L442 87.6237Z"
        fill="#2E353A" />
    <path
        d="M472.394 132.881C467.415 137.401 455.221 135.725 455.221 135.725C455.221 135.725 447.603 133.647 449.202 131.27C453.687 130.53 455.858 128.438 456.755 125.762C457.246 124.104 457.401 122.364 457.21 120.645C457.136 119.686 457.01 118.732 456.833 117.787L471.9 106.629C469.937 113.994 467.519 127.542 472.394 132.881Z"
        fill="#E4897B" />
    <path d="M468.429 113.723C467.831 122.815 460.395 125.257 456.729 125.764C457.22 124.105 457.375 122.365 457.184 120.646L468.429 113.723Z"
        fill="black"
        opacity="0.2" />
    <path
        d="M469.443 115.814C467.882 118.138 465.6 119.884 462.948 120.786C460.296 121.687 457.422 121.693 454.766 120.802C451.318 119.705 448.415 117.342 446.641 114.19C446.394 113.769 446.168 113.335 445.965 112.891C442.286 104.292 441.116 89.2505 450.216 83.6131C452.217 82.3573 454.506 81.6337 456.866 81.5109C459.226 81.3881 461.578 81.8703 463.698 82.9116C465.819 83.9529 467.638 85.5187 468.983 87.4602C470.327 89.4018 471.152 91.6546 471.38 94.0046C472.498 104.006 473.629 109.865 469.443 115.814Z"
        fill="#E4897B" />
    <path
        d="M456.716 99.3168C456.911 100.122 456.534 100.863 456.001 100.953C455.468 101.044 454.922 100.447 454.779 99.6545C454.636 98.8622 454.974 98.1088 455.494 98.0308C456.014 97.9529 456.56 98.4984 456.716 99.3168Z"
        fill="#2E353A" />
    <path
        d="M447.525 100.887C447.72 101.679 447.343 102.433 446.81 102.511C446.277 102.589 445.744 102.017 445.601 101.212C445.458 100.406 445.783 99.666 446.316 99.5751C446.849 99.4842 447.395 100.121 447.525 100.887Z"
        fill="#2E353A" />
    <path
        d="M450.515 100.785C449.967 103.432 449.062 105.993 447.824 108.397C448.456 108.689 449.143 108.84 449.839 108.84C450.535 108.84 451.223 108.689 451.854 108.397L450.515 100.785Z"
        fill="#DE5753" />
    <path
        d="M459.056 95.861C458.972 95.887 458.882 95.8911 458.796 95.873C458.709 95.8548 458.629 95.8149 458.562 95.7571C458.13 95.3308 457.604 95.0114 457.026 94.8242C456.448 94.6371 455.835 94.5873 455.234 94.679C455.11 94.71 454.979 94.6904 454.869 94.6247C454.759 94.5589 454.68 94.4523 454.649 94.3282C454.618 94.2042 454.638 94.073 454.703 93.9633C454.769 93.8537 454.876 93.7747 455 93.7437C455.755 93.608 456.531 93.6551 457.264 93.8812C457.997 94.1072 458.665 94.5055 459.212 95.0427C459.258 95.0874 459.295 95.141 459.32 95.2001C459.345 95.2592 459.357 95.3227 459.357 95.3869C459.357 95.451 459.345 95.5146 459.32 95.5737C459.295 95.6328 459.258 95.6863 459.212 95.7311C459.166 95.7805 459.113 95.8241 459.056 95.861Z"
        fill="#2E353A" />
    <path
        d="M453.882 112.435C455.08 112.412 456.255 112.097 457.304 111.517C458.352 110.938 459.244 110.111 459.901 109.11C459.919 109.081 459.932 109.049 459.937 109.016C459.942 108.982 459.941 108.948 459.932 108.915C459.924 108.882 459.908 108.851 459.887 108.824C459.866 108.797 459.84 108.775 459.81 108.759C459.755 108.725 459.688 108.714 459.625 108.729C459.562 108.744 459.507 108.782 459.472 108.837C458.838 109.741 458.001 110.485 457.028 111.008C456.055 111.531 454.973 111.82 453.869 111.851C453.804 111.851 453.741 111.877 453.694 111.923C453.648 111.969 453.622 112.032 453.622 112.098C453.622 112.163 453.648 112.226 453.694 112.272C453.741 112.318 453.804 112.344 453.869 112.344L453.882 112.435Z"
        fill="#2E353A" />
    <path
        d="M443.04 98.3931C442.952 98.4249 442.855 98.4249 442.767 98.3931C442.706 98.3781 442.648 98.3509 442.598 98.313C442.547 98.2752 442.505 98.2275 442.473 98.1729C442.442 98.1183 442.422 98.0579 442.414 97.9953C442.406 97.9327 442.412 97.8692 442.429 97.8086C442.626 97.0657 442.999 96.3812 443.517 95.8135C444.036 95.2458 444.684 94.8117 445.406 94.5483C445.527 94.5115 445.657 94.5235 445.769 94.5819C445.881 94.6402 445.965 94.7401 446.004 94.86C446.022 94.9206 446.028 94.9841 446.021 95.0469C446.015 95.1097 445.996 95.1706 445.966 95.2261C445.935 95.2816 445.895 95.3306 445.845 95.3703C445.796 95.41 445.74 95.4396 445.679 95.4575C445.118 95.6819 444.618 96.0334 444.216 96.4842C443.814 96.9351 443.523 97.4729 443.365 98.0554C443.347 98.1359 443.307 98.2098 443.25 98.2693C443.192 98.3288 443.12 98.3716 443.04 98.3931Z"
        fill="#2E353A" />
    <path
        d="M458.679 87.4172C461.5 86.0014 464.841 88.2226 464.1 91.1972C463.125 95.094 465.946 100.615 469.079 102.563C469.079 102.563 468.975 100.939 470.379 101.16C471.783 101.381 472.446 109.824 470.275 114.15C470.275 114.15 473.85 110.032 475.046 100.939C476.242 91.8466 475.475 84.5985 472.979 82.1045C470.483 79.6106 469.846 82.2215 468 78.7533C466.154 75.2851 462.475 71.3882 459.329 73.6614C456.183 75.9346 452.946 76.3762 450.45 74.6356C447.954 72.895 445.146 75.7267 445.471 78.8572C445.796 81.9876 440.596 79.7275 439.504 82.9748C438.412 86.2222 440.882 96.302 458.679 87.4172Z"
        fill="#2E353A" />
    <path d="M454.766 120.799C451.318 119.702 448.415 117.339 446.641 114.188C449.098 114.188 452.673 114.33 453.609 114.902C454.545 115.473 454.753 118.565 454.766 120.799Z"
        fill="black"
        opacity="0.2" />
    <path
        d="M477.1 101.38C476.373 103.825 474.71 105.883 472.472 107.109C469.495 108.706 467.272 106.213 467.48 103.017C467.688 100.185 469.443 95.8469 472.745 95.6001C476.047 95.3533 477.984 98.3669 477.1 101.38Z"
        fill="#E4897B" />
    <path
        d="M470.171 127.141L455.754 133.635L454.909 128.44L449.618 130.31C448.69 130.629 447.898 131.254 447.373 132.083C446.849 132.912 446.623 133.895 446.732 134.869L447.317 140.572L454.636 136.584L458.276 141.78L475.592 133.453L470.171 127.141Z"
        fill="#407BFF" />
    <path d="M470.171 127.141L455.754 133.635L454.909 128.44L449.618 130.31C448.69 130.629 447.898 131.254 447.373 132.083C446.849 132.912 446.623 133.895 446.732 134.869L447.317 140.572L454.636 136.584L458.276 141.78L475.592 133.453L470.171 127.141Z"
        fill="white"
        opacity="0.6" />
    <path
        d="M433.992 151.974L446.225 132.074C448.237 131.628 450.025 130.482 451.269 128.84C453.154 126.177 454.324 115.85 453.44 115.409C452.556 114.967 443.04 116.058 442.39 117.331C441.74 118.604 439.855 129.151 439.855 129.151L425.763 145.648L433.992 151.974Z"
        fill="#E4897B" />
    <path
        d="M406.432 169.354C412.425 159.521 433.459 133.906 433.459 133.906L443.222 140.479C443.222 140.479 425.633 176.148 419.029 183.084C412.425 190.021 397.982 183.253 406.432 169.354Z"
        fill="#407BFF" />
    <path d="M406.432 169.354C412.425 159.521 433.459 133.906 433.459 133.906L443.222 140.479C443.222 140.479 425.633 176.148 419.029 183.084C412.425 190.021 397.982 183.253 406.432 169.354Z"
        fill="black"
        opacity="0.1" />
    <path d="M482.079 192.384C481.819 197.255 481.741 203.009 481.754 208.672C462.592 206.594 457.821 196.137 457.821 196.137L482.924 180.277C482.547 184.447 482.3 188.539 482.079 192.384Z"
        fill="black"
        opacity="0.2" />
    <path
        d="M444.925 184.034L421.603 182.423C420.276 180.849 418.434 179.795 416.403 179.448C413.179 179.02 403.494 182.748 403.494 183.748C403.494 184.748 408.863 192.646 410.306 192.646C411.749 192.646 422.006 189.411 422.006 189.411L443.17 194.256L444.925 184.034Z"
        fill="#E4897B" />
    <path
        d="M490.334 136.57C490.334 136.57 495.235 139.363 495.95 153.015C496.587 165.316 492.622 191.529 484.9 197.244C472.563 206.402 427.7 193.776 427.7 193.776L429.429 180.553C429.429 180.553 463.385 185.047 471.471 180.553C479.557 176.058 481.975 153.002 481.975 153.002C481.975 153.002 485.355 137.973 490.334 136.57Z"
        fill="#407BFF" />
    <path d="M490.334 136.57C490.334 136.57 495.235 139.363 495.95 153.015C496.587 165.316 492.622 191.529 484.9 197.244C472.563 206.402 427.7 193.776 427.7 193.776L429.429 180.553C429.429 180.553 463.385 185.047 471.471 180.553C479.557 176.058 481.975 153.002 481.975 153.002C481.975 153.002 485.355 137.973 490.334 136.57Z"
        fill="black"
        opacity="0.1" />
    <path d="M432.679 179.539L430.43 196.14L426.309 194.555L427.362 179.812L432.679 179.539Z"
        fill="#407BFF" />
    <path d="M432.679 179.539L430.43 196.14L426.309 194.555L427.362 179.812L432.679 179.539Z"
        fill="white"
        opacity="0.6" />
    <path d="M430.573 135.556L433.719 132.387L444.21 140.18L443.222 144.246L430.573 135.556Z"
        fill="#407BFF" />
    <path d="M430.573 135.556L433.719 132.387L444.21 140.18L443.222 144.246L430.573 135.556Z"
        fill="white"
        opacity="0.6" />
    <path d="M450.008 278.27C447.339 285.903 445.313 293.746 443.95 301.716C442.429 280.933 448.5 258.98 448.5 258.98L450.008 278.27Z"
        fill="black"
        opacity="0.2" />
    <path
        d="M317.642 444.422L309.452 445.863L306.085 434.693L303.017 424.444L312.468 421.145L315.211 433.472L317.642 444.422Z"
        fill="#E4897B" />
    <path d="M315.263 433.721L306.124 434.929L303.03 424.563L312.481 421.199L315.263 433.721Z"
        fill="black"
        opacity="0.2" />
    <path
        d="M262.899 448.201H254.579L253.214 436.485L251.966 425.781L261.859 424.145L262.418 436.874L262.899 448.201Z"
        fill="#E4897B" />
    <path d="M262.418 436.979L253.214 436.577L251.966 425.835L261.859 424.172L262.418 436.979Z"
        fill="black"
        opacity="0.2" />
    <path
        d="M327.925 189.647L341.367 176.371C341.367 176.371 341.835 172.812 343.135 171.825C344.435 170.838 353.665 167.487 354.835 168.227C356.005 168.967 357.539 176.423 355.966 177.787C354.393 179.151 345.995 180.892 345.137 180.749L330.59 197.999L327.925 189.647Z"
        fill="#EEC1BB" />
    <path
        d="M279.76 165.473C285.571 168.551 306.15 197.31 309.179 198.726C312.208 200.142 335.4 181.372 335.4 181.372L339.3 188.035C339.3 188.035 320.281 214.885 309.53 213.586C298.779 212.287 278.2 189.555 278.2 189.555L279.76 165.473Z"
        fill="#407BFF" />
    <path d="M279.76 165.473C285.571 168.551 306.15 197.31 309.179 198.726C312.208 200.142 335.4 181.372 335.4 181.372L339.3 188.035C339.3 188.035 320.281 214.885 309.53 213.586C298.779 212.287 278.2 189.555 278.2 189.555L279.76 165.473Z"
        fill="black"
        opacity="0.3" />
    <path d="M334.113 182.086L335.725 180.566L339.95 187.711L338.429 190.633L334.113 182.086Z"
        fill="#407BFF" />
    <path d="M286.468 197.946C281.658 193.361 278.2 189.555 278.2 189.555L278.564 183.839L280.371 178.293C282.858 180.862 284.705 183.979 285.765 187.393C286.824 190.807 287.064 194.422 286.468 197.946Z"
        fill="black"
        opacity="0.2" />
    <path
        d="M316.03 427.224L302.549 429.588C288.951 395.724 279.279 367.459 272.441 344.013C268.762 331.349 265.694 320.1 263.484 310.111L263.9 346.975V430.016H250.614C217.321 271.545 240.916 235.422 240.916 235.422L280.748 228.797C282.329 236.176 283.445 243.646 284.089 251.165L285.883 264.362L301.483 344.741L316.03 427.224Z"
        fill="#2E353A" />
    <path
        d="M240.5 235.774C240.5 235.774 234.533 249.478 232.804 255.258L262.795 258.791L267.553 240.931L274.417 257.492L285.675 253.245L282.1 232.656L240.5 235.774Z"
        fill="#407BFF" />
    <path d="M240.5 235.774C240.5 235.774 234.533 249.478 232.804 255.258L262.795 258.791L267.553 240.931L274.417 257.492L285.675 253.245L282.1 232.656L240.5 235.774Z"
        fill="black"
        opacity="0.3" />
    <path d="M240.5 229.824V235.774L282.1 232.656V225.629L240.5 229.824Z" fill="#2E353A" />
    <path d="M272.156 227.068L263.273 227.863L263.877 234.591L272.759 233.796L272.156 227.068Z"
        fill="white" />
    <path d="M254.567 227.307L252.555 227.41L253.08 237.671L255.093 237.568L254.567 227.307Z"
        fill="#407BFF" />
    <path d="M254.567 227.307L252.555 227.41L253.08 237.671L255.093 237.568L254.567 227.307Z"
        fill="black"
        opacity="0.3" />
    <path d="M279.358 224.612L277.346 224.715L277.87 234.976L279.882 234.874L279.358 224.612Z"
        fill="#407BFF" />
    <path d="M279.358 224.612L277.346 224.715L277.87 234.976L279.882 234.874L279.358 224.612Z"
        fill="black"
        opacity="0.3" />
    <path d="M272.441 344.014C268.762 331.349 265.941 320.1 263.692 310.111C263.887 298.286 264.755 286.481 266.292 274.754C266.292 274.754 272.103 320.36 272.441 344.014Z"
        fill="black"
        opacity="0.2" />
    <path
        d="M234.208 134.207C235.378 138.701 229.008 151.093 231.608 173.617C234.208 196.141 258.908 194.777 270.062 187.269C281.216 179.761 279.253 138.987 275.431 130.947C271.609 122.906 234.208 134.207 234.208 134.207Z"
        fill="#2E353A" />
    <path
        d="M281.71 226.341L241.072 229.914C240.684 219.831 239.237 209.818 236.756 200.038C235.781 196.141 234.559 191.815 232.999 186.802C232.167 184.113 231.244 181.242 230.204 178.138C229.424 175.786 228.592 173.292 227.604 170.656C233.133 168.899 238.781 167.54 244.504 166.59C250.517 165.517 256.599 164.874 262.704 164.667C270.608 164.603 279.682 165.486 279.682 165.486C279.682 165.486 280.982 165.798 281.788 174.176C282.607 182.021 283.4 197.739 281.71 226.341Z"
        fill="#407BFF" />
    <path d="M281.71 226.341L241.072 229.914C240.684 219.831 239.237 209.818 236.756 200.038C235.781 196.141 234.559 191.815 232.999 186.802C232.167 184.113 231.244 181.242 230.204 178.138C229.424 175.786 228.592 173.292 227.604 170.656C233.133 168.899 238.781 167.54 244.504 166.59C250.517 165.517 256.599 164.874 262.704 164.667C270.608 164.603 279.682 165.486 279.682 165.486C279.682 165.486 280.982 165.798 281.788 174.176C282.607 182.021 283.4 197.739 281.71 226.341Z"
        fill="black"
        opacity="0.3" />
    <path
        d="M255.476 163.486C250.601 163.772 242.801 163.733 237.757 171.526H247L241.956 177.67C241.956 177.67 258.154 181.567 263.224 192.128C263.224 192.128 270.478 179.554 274.417 176.631C271.995 174.234 269.225 172.216 266.201 170.643C268.837 169.52 271.594 168.705 274.417 168.214C274.417 168.214 262.067 163.096 255.476 163.486Z"
        fill="white" />
    <path
        d="M246.402 168.07C246.402 168.07 258.934 182.19 262.795 189.009C264.559 181.55 264.38 173.764 262.275 166.395L246.402 168.07Z"
        fill="#407BFF" />
    <path d="M246.402 168.07C246.402 168.07 258.934 182.19 262.795 189.009C264.559 181.55 264.38 173.764 262.275 166.395L246.402 168.07Z"
        fill="white"
        opacity="0.6" />
    <path
        d="M259.428 173.618C249.405 172.319 246.428 168.071 246.428 168.071C252.785 162.07 247.507 151.691 247.507 151.691L259.558 153.939C259.273 155.617 259.116 157.315 259.09 159.017C258.999 166.331 262.301 166.395 262.301 166.395C264.394 170.357 259.428 173.618 259.428 173.618Z"
        fill="#EEC1BB" />
    <path d="M259.532 153.939C259.247 155.617 259.091 157.315 259.064 159.017C250.913 159.017 247.481 151.691 247.481 151.691L259.532 153.939Z"
        fill="black"
        opacity="0.2" />
    <path
        d="M252.863 120.271C263.341 119.7 267.02 125.117 268.385 135.859C270.088 149.29 267.618 159.032 254.358 156.876C236.353 153.94 235.469 121.22 252.863 120.271Z"
        fill="#EEC1BB" />
    <path
        d="M261.573 135.648C262.502 137.162 263.606 138.562 264.862 139.818C264.576 140.26 264.173 140.616 263.699 140.845C263.224 141.074 262.695 141.168 262.171 141.117L261.573 135.648Z"
        fill="#D4827D" />
    <path
        d="M255.112 135.09C255.19 135.948 254.774 136.688 254.202 136.727C253.63 136.766 253.11 136.117 253.045 135.246C252.98 134.376 253.383 133.662 253.955 133.623C254.527 133.584 255.047 134.285 255.112 135.09Z"
        fill="#2E353A" />
    <path d="M253.721 133.793L255.541 132.91C255.541 132.91 254.722 134.495 253.721 133.793Z"
        fill="#2E353A" />
    <path
        d="M265.785 134.132C265.863 134.989 265.447 135.717 264.875 135.769C264.303 135.821 263.783 135.158 263.718 134.288C263.653 133.418 264.056 132.703 264.628 132.651C265.2 132.599 265.72 133.275 265.785 134.132Z"
        fill="#2E353A" />
    <path d="M264.394 132.715L266.201 131.832C266.201 131.832 265.395 133.482 264.394 132.715Z"
        fill="#2E353A" />
    <path
        d="M254.618 127.922C253.784 127.867 252.948 128.003 252.176 128.321C251.403 128.638 250.713 129.128 250.159 129.754"
        stroke="#2E353A" stroke-linecap="round" stroke-linejoin="round" stroke-width="0.69" />
    <path
        d="M262.21 127.066C262.916 126.844 263.662 126.784 264.394 126.892C265.126 127 265.824 127.273 266.435 127.689"
        stroke="#2E353A" stroke-linecap="round" stroke-linejoin="round" stroke-width="0.69" />
    <path
        d="M260.871 145.367C260.434 146.573 260.091 147.811 259.844 149.069H259.168C256.1 148.926 254.722 147.848 254.124 146.692C253.843 146.124 253.704 145.495 253.721 144.861C253.719 144.505 253.767 144.151 253.864 143.809C255.719 144.73 257.748 145.248 259.818 145.328L260.871 145.367Z"
        fill="#2E353A" />
    <path
        d="M259.818 145.301L259.493 146.379C256.607 146.236 254.592 145.756 253.721 144.833C253.718 144.478 253.767 144.123 253.864 143.781C255.718 144.703 257.748 145.221 259.818 145.301Z"
        fill="white" />
    <path
        d="M259.168 149.041C256.1 148.898 254.722 147.82 254.124 146.664C255.29 146.743 256.434 147.024 257.504 147.495C258.206 147.825 258.788 148.366 259.168 149.041Z"
        fill="#DE5753" />
    <path
        d="M242.385 138.546C242.385 138.546 246.805 129.674 245.7 123.076C245.7 123.076 266.006 113.463 268.177 134.454C268.177 134.454 269.191 115.646 251.147 116.269C233.103 116.893 234.637 143.17 244.374 150.496C244.4 150.444 239.642 144.092 242.385 138.546Z"
        fill="#2E353A" />
    <path
        d="M244.218 140.65C244.037 139.448 243.391 138.365 242.418 137.636C241.445 136.907 240.223 136.589 239.018 136.753C235.794 137.286 234.611 144.027 242.775 145.196C243.958 145.339 244.556 144.183 244.218 140.65Z"
        fill="#EEC1BB" />
    <path
        d="M248.495 122.024C249.218 130.698 247.072 139.368 242.385 146.704C236.496 155.602 243.256 163.396 243.256 163.396C243.256 163.396 229.281 158.577 235.378 138.716C235.378 138.716 228.8 120.985 241.735 116.218C241.735 116.218 241.8 110.814 253.5 111.841C265.2 112.867 274.625 122.895 276.406 135.663C278.187 148.432 271.544 162.668 271.544 162.668C271.544 162.668 278.616 117.4 248.495 122.024Z"
        fill="#2E353A" />
    <path
        d="M249.119 121.844L249.236 122.285C249.301 122.571 249.392 122.987 249.47 123.584C249.695 125.05 249.817 126.531 249.834 128.014C249.834 128.923 249.834 129.91 249.756 130.949C249.678 131.989 249.574 133.093 249.405 134.21C249.236 135.327 249.028 136.496 248.768 137.652C248.508 138.808 248.183 139.977 247.832 141.146C247.481 142.315 247.104 143.419 246.636 144.536C246.168 145.653 245.713 146.706 245.206 147.719C244.286 149.55 243.193 151.29 241.943 152.915C241.07 154.077 240.096 155.159 239.031 156.149C238.621 156.527 238.186 156.879 237.731 157.201C238.188 156.867 238.623 156.503 239.031 156.11C240.058 155.09 240.993 153.981 241.826 152.798C243.003 151.127 244.026 149.354 244.881 147.498C245.369 146.46 245.803 145.398 246.181 144.315C246.584 143.224 246.922 142.055 247.247 140.925C247.572 139.795 247.832 138.613 248.04 137.457C248.248 136.301 248.443 135.171 248.56 134.067C248.677 132.963 248.768 131.885 248.794 130.871C248.82 129.858 248.794 128.884 248.794 128.001C248.727 126.58 248.562 125.165 248.3 123.766C248.196 123.273 248.105 122.883 248.04 122.623L247.923 122.246L249.119 121.844Z"
        fill="#2E353A" />
    <path d="M238.355 207.026C237.913 204.844 237.393 202.519 236.756 200.025C236.353 198.44 235.911 196.778 235.456 195.011C236.756 190.582 238.056 194.037 238.056 194.037C238.862 198.322 238.963 202.709 238.355 207.026Z"
        fill="black"
        opacity="0.2" />
    <path
        d="M190.112 236.41L175.5 248.464C175.5 248.464 171.912 248.581 170.794 249.763C169.676 250.945 165.438 259.804 166.062 260.999C166.686 262.194 173.953 264.493 175.474 263.052C176.995 261.61 179.556 253.452 179.491 252.582L198.12 239.826L190.112 236.41Z"
        fill="#EEC1BB" />
    <path
        d="M227.669 170.645C227.669 170.645 213.629 212.068 209.469 217.043C205.309 222.018 183.898 239.995 183.898 239.995L186.719 248.438C186.719 248.438 210.548 234.799 216.177 229.383C220.519 225.213 237.848 194.311 237.848 194.311C237.848 194.311 237.367 174.476 227.669 170.645Z"
        fill="#407BFF" />
    <path d="M227.669 170.645C227.669 170.645 213.629 212.068 209.469 217.043C205.309 222.018 183.898 239.995 183.898 239.995L186.719 248.438C186.719 248.438 210.548 234.799 216.177 229.383C220.519 225.213 237.848 194.311 237.848 194.311C237.848 194.311 237.367 174.476 227.669 170.645Z"
        fill="black"
        opacity="0.3" />
    <path d="M181.779 239.994L184.6 237.617L188.721 249.308L185.471 250.607L181.779 239.994Z"
        fill="#407BFF" />
    <path
        d="M274.196 464.688C272.877 463.614 271.369 462.794 269.75 462.272C269.75 462.272 264.914 457.478 262.587 443.047L256.256 441.398C255.181 441.133 254.051 441.207 253.02 441.61C251.989 442.012 251.108 442.723 250.497 443.645C250.316 443.897 250.18 444.178 250.094 444.476C249.758 446.021 249.532 447.588 249.418 449.165C248.781 454.049 249.327 465.012 249.327 465.012H250.471L250.926 455.062C251.095 451.685 253.682 455.647 254.423 459.284C255.164 462.921 256.737 466.792 264.147 466.974C272.792 467.143 276.38 466.805 274.196 464.688Z"
        fill="#2E353A" />
    <path
        d="M329.446 463.727C328.127 462.653 326.619 461.833 325 461.311C325 461.311 320.164 456.518 317.837 442.086L311.506 440.437C310.431 440.172 309.301 440.247 308.27 440.649C307.239 441.051 306.358 441.762 305.747 442.684C305.566 442.936 305.43 443.217 305.344 443.515C305.008 445.06 304.782 446.627 304.668 448.204C304.031 453.088 304.577 464.051 304.577 464.051H305.721L306.176 454.101C306.345 450.724 308.932 454.686 309.673 458.323C310.414 461.96 311.987 465.831 319.397 466.013C328.042 466.169 331.63 465.831 329.446 463.727Z"
        fill="#2E353A" />
    <path
        d="M177.45 420.418L183.807 435.018C185.005 437.778 186.985 440.127 189.503 441.777C192.021 443.427 194.966 444.306 197.977 444.306H224.588C228.118 444.304 231.503 442.902 234 440.409H283.699C285.62 440.408 287.513 439.951 289.222 439.074C290.931 438.198 292.406 436.928 293.527 435.369L300.092 426.276L177.45 420.418Z"
        fill="#2E353A" />
    <path
        d="M217.945 362.536C217.945 369.524 245.869 419.248 248.664 421.235C251.459 423.222 287.911 420.988 287.911 420.988L285.194 431.315H185.094L143.494 350.637L171.002 310.98L221.117 312.37C221.117 312.37 217.945 355.547 217.945 362.536Z"
        fill="#407BFF" />
    <path d="M217.945 362.536C217.945 369.524 245.869 419.248 248.664 421.235C251.459 423.222 287.911 420.988 287.911 420.988L285.194 431.315H185.094L143.494 350.637L171.002 310.98L221.117 312.37C221.117 312.37 217.945 355.547 217.945 362.536Z"
        fill="black"
        opacity="0.2" />
    <path
        d="M136.63 469.723C159.181 469.723 177.463 447.688 177.463 420.506C177.463 393.324 159.181 371.289 136.63 371.289C114.078 371.289 95.7969 393.324 95.7969 420.506C95.7969 447.688 114.078 469.723 136.63 469.723Z"
        fill="#2E353A" />
    <path
        d="M129.792 451.551C144.015 451.551 155.545 437.651 155.545 420.506C155.545 403.36 144.015 389.461 129.792 389.461C115.569 389.461 104.039 403.36 104.039 420.506C104.039 437.651 115.569 451.551 129.792 451.551Z"
        fill="white" />
    <path
        d="M123.877 433.029C129.8 433.029 134.602 427.242 134.602 420.104C134.602 412.966 129.8 407.18 123.877 407.18C117.954 407.18 113.152 412.966 113.152 420.104C113.152 427.242 117.954 433.029 123.877 433.029Z"
        fill="#407BFF" />
    <path d="M123.877 433.029C129.8 433.029 134.602 427.242 134.602 420.104C134.602 412.966 129.8 407.18 123.877 407.18C117.954 407.18 113.152 412.966 113.152 420.104C113.152 427.242 117.954 433.029 123.877 433.029Z"
        fill="black"
        opacity="0.4" />
    <path
        d="M364.091 346.169C364.091 346.169 327.236 374.408 313.183 432.614H254.163L310.063 341.688L339.547 329.426L364.091 346.169Z"
        fill="#407BFF" />
    <path d="M367.9 343.286C367.9 343.286 333.437 369.628 316.979 419.17C315.706 423.072 313.232 426.473 309.91 428.887C306.588 431.301 302.588 432.605 298.48 432.614H254.163L310.063 341.688L339.547 329.426L367.9 343.286Z"
        fill="black"
        opacity="0.4" />
    <path
        d="M364.351 345.584H341.588C337.269 345.533 333.034 346.767 329.42 349.13C315.913 358.119 283.92 383.202 280.592 422.923C280.384 425.545 279.201 427.994 277.276 429.787C275.351 431.581 272.824 432.589 270.192 432.613H171.249C154.623 432.615 138.294 428.209 123.929 419.845L95.6409 403.374C92.5933 401.595 90.1798 398.907 88.7389 395.688C87.298 392.468 86.9022 388.879 87.6069 385.423C90.9739 369.199 100.464 341.363 127.621 330.464C128.05 330.27 127.4 330.114 128.7 329.958V313.072H199.628C199.628 313.072 185.406 346.948 185.406 360.938C185.406 374.161 199.394 424.781 217.49 429.977H242.19C245.474 429.897 248.68 428.953 251.482 427.24C254.285 425.528 256.586 423.107 258.154 420.222C270.192 398.763 296.933 343.09 288.6 290.47C287.625 284.313 292.357 278 298.597 278H330.447C330.447 278 359.047 311.136 368.329 339.154C369.278 341.921 367.237 345.584 364.351 345.584Z"
        fill="#407BFF" />
    <path
        d="M313.3 267.49H304.2C301.809 267.492 299.491 266.671 297.635 265.165L278.928 250.032C278.192 249.438 277.274 249.113 276.328 249.11H240.37C239.68 249.11 239.019 248.836 238.532 248.349C238.044 247.862 237.77 247.201 237.77 246.512C237.77 245.823 238.044 245.162 238.532 244.675C239.019 244.188 239.68 243.914 240.37 243.914H276.302C278.443 243.915 280.518 244.654 282.178 246.005L300.898 261.086C301.827 261.843 302.989 262.256 304.187 262.255H313.287C314.548 262.25 315.766 261.794 316.72 260.97C317.674 260.146 318.301 259.007 318.487 257.761L319.306 251.915C319.633 249.689 320.748 247.653 322.448 246.178C324.149 244.702 326.323 243.885 328.575 243.875H335.4C336.09 243.875 336.751 244.149 337.239 244.636C337.726 245.123 338 245.784 338 246.473C338 247.162 337.726 247.823 337.239 248.31C336.751 248.797 336.09 249.071 335.4 249.071H328.549C327.548 249.076 326.582 249.439 325.826 250.094C325.07 250.749 324.574 251.654 324.428 252.643L323.609 258.488C323.252 260.972 322.015 263.246 320.124 264.898C318.233 266.549 315.812 267.469 313.3 267.49Z"
        fill="#2E353A" />
    <path
        d="M297.245 256.477C297.245 256.477 297.362 262.595 291.603 262.218L289.731 268.881C289.464 269.818 289.397 270.8 289.533 271.765C289.67 272.729 290.007 273.654 290.524 274.48L294.593 280.975H332.293L335.257 275.402C335.732 274.513 335.911 273.497 335.768 272.499C335.626 271.502 335.169 270.576 334.464 269.856L323.232 258.373C322.642 257.773 321.938 257.296 321.161 256.97C320.384 256.645 319.55 256.477 318.708 256.477H297.245Z"
        fill="#407BFF" />
    <path d="M297.245 256.477C297.245 256.477 297.362 262.595 291.603 262.218L289.731 268.881C289.464 269.818 289.397 270.8 289.533 271.765C289.67 272.729 290.007 273.654 290.524 274.48L294.593 280.975H332.293L335.257 275.402C335.732 274.513 335.911 273.497 335.768 272.499C335.626 271.502 335.169 270.576 334.464 269.856L323.232 258.373C322.642 257.773 321.938 257.296 321.161 256.97C320.384 256.645 319.55 256.477 318.708 256.477H297.245Z"
        fill="black"
        opacity="0.4" />
    <path
        d="M361.985 469.723C384.536 469.723 402.818 447.688 402.818 420.506C402.818 393.324 384.536 371.289 361.985 371.289C339.433 371.289 321.152 393.324 321.152 420.506C321.152 447.688 339.433 469.723 361.985 469.723Z"
        fill="#2E353A" />
    <path
        d="M355.16 451.551C369.383 451.551 380.913 437.651 380.913 420.506C380.913 403.36 369.383 389.461 355.16 389.461C340.937 389.461 329.407 403.36 329.407 420.506C329.407 437.651 340.937 451.551 355.16 451.551Z"
        fill="white" />
    <path
        d="M402.168 388.773C397.865 381.46 386.36 365.639 365.677 361.015C360.376 359.779 354.881 359.62 349.518 360.547L349.427 360.339L349.518 360.145H349.349L345.8 352.078H341.757C338.476 352.078 335.283 353.14 332.657 355.105L325.559 360.443L328.9 372.017C327.93 373.05 327.027 374.143 326.196 375.29C320.207 382.727 316.124 391.51 314.301 400.88C314.241 401.27 314.266 401.67 314.375 402.05C314.484 402.43 314.674 402.782 314.932 403.082C315.191 403.382 315.511 403.623 315.871 403.787C316.231 403.952 316.622 404.037 317.018 404.036H319.15C319.711 404.046 320.262 403.883 320.727 403.57C321.192 403.256 321.549 402.806 321.75 402.282C323.652 397.256 326.67 392.726 330.577 389.033L342.42 419.831L351.949 415.83L348.608 377.447C348.608 377.447 370.526 371.29 384.878 388.994C385.71 390.036 386.766 390.878 387.968 391.458C389.169 392.038 390.485 392.341 391.82 392.345H400.153C400.567 392.338 400.973 392.223 401.329 392.011C401.686 391.798 401.98 391.497 402.184 391.136C402.388 390.775 402.493 390.367 402.49 389.952C402.488 389.538 402.376 389.132 402.168 388.773Z"
        fill="#407BFF" />
    <path d="M402.168 388.773C397.865 381.46 386.36 365.639 365.677 361.015C360.376 359.779 354.881 359.62 349.518 360.547L349.427 360.339L349.518 360.145H349.349L345.8 352.078H341.757C338.476 352.078 335.283 353.14 332.657 355.105L325.559 360.443L328.9 372.017C327.93 373.05 327.027 374.143 326.196 375.29C320.207 382.727 316.124 391.51 314.301 400.88C314.241 401.27 314.266 401.67 314.375 402.05C314.484 402.43 314.674 402.782 314.932 403.082C315.191 403.382 315.511 403.623 315.871 403.787C316.231 403.952 316.622 404.037 317.018 404.036H319.15C319.711 404.046 320.262 403.883 320.727 403.57C321.192 403.256 321.549 402.806 321.75 402.282C323.652 397.256 326.67 392.726 330.577 389.033L342.42 419.831L351.949 415.83L348.608 377.447C348.608 377.447 370.526 371.29 384.878 388.994C385.71 390.036 386.766 390.878 387.968 391.458C389.169 392.038 390.485 392.341 391.82 392.345H400.153C400.567 392.338 400.973 392.223 401.329 392.011C401.686 391.798 401.98 391.497 402.184 391.136C402.388 390.775 402.493 390.367 402.49 389.952C402.488 389.538 402.376 389.132 402.168 388.773Z"
        fill="black"
        opacity="0.2" />
    <path
        d="M349.245 433.029C355.168 433.029 359.97 427.242 359.97 420.104C359.97 412.966 355.168 407.18 349.245 407.18C343.322 407.18 338.52 412.966 338.52 420.104C338.52 427.242 343.322 433.029 349.245 433.029Z"
        fill="#407BFF" />
    <path d="M349.245 433.029C355.168 433.029 359.97 427.242 359.97 420.104C359.97 412.966 355.168 407.18 349.245 407.18C343.322 407.18 338.52 412.966 338.52 420.104C338.52 427.242 343.322 433.029 349.245 433.029Z"
        fill="black"
        opacity="0.4" />
    <path
        d="M310.622 282.402C310.622 282.402 317.369 324.839 339.651 325.138C360.542 325.41 362.492 285.572 342.563 279.441C326.456 274.492 310.622 282.402 310.622 282.402Z"
        fill="#407BFF" />
    <path d="M310.622 282.402C310.622 282.402 317.369 324.839 339.651 325.138C360.542 325.41 362.492 285.572 342.563 279.441C326.456 274.492 310.622 282.402 310.622 282.402Z"
        fill="black"
        opacity="0.2" />
    <path
        d="M355.069 301.914C355.563 312.695 349.063 321.398 340.548 321.398C332.033 321.398 324.74 312.656 324.246 301.914C323.752 291.172 330.252 282.43 338.754 282.43C347.256 282.43 354.575 291.146 355.069 301.914Z"
        fill="white" />
    <path d="M333.866 274.092H314.522L316.056 271.598H333.866V274.092Z" fill="#407BFF" />
    <path
        d="M227.5 311.32V316.191C227.5 320.633 223.873 323.504 219.427 323.504H131.521C127.062 323.504 123.5 320.633 123.5 316.191V311.32C123.5 306.89 127.062 304.02 131.521 304.02H219.427C223.873 304.02 227.5 306.89 227.5 311.32Z"
        fill="#2E353A" />
    <path d="M198.9 311.319V316.19C198.951 317.178 198.79 318.166 198.43 319.088C198.069 320.009 197.516 320.844 196.808 321.535C196.1 322.227 195.252 322.76 194.322 323.099C193.392 323.439 192.4 323.576 191.412 323.503H131.521C127.062 323.503 123.5 320.633 123.5 316.19V311.319C123.5 306.89 127.062 304.019 131.521 304.019H191.412C192.398 303.946 193.389 304.083 194.319 304.422C195.248 304.76 196.095 305.292 196.803 305.983C197.511 306.673 198.064 307.506 198.425 308.426C198.787 309.346 198.949 310.332 198.9 311.319Z"
        fill="white"
        opacity="0.2" />
    <path d="M187.837 401.283V432.614H171.249C154.623 432.616 138.294 428.21 123.929 419.845L95.6409 403.375C92.5933 401.595 90.1798 398.907 88.7389 395.688C87.298 392.468 86.9022 388.879 87.6069 385.423C90.9739 369.199 100.607 341.363 127.816 330.465L129.116 330.543H140.101C146.441 330.542 152.649 332.348 157.998 335.748C163.347 339.149 167.615 344.003 170.3 349.741L182 374.811C185.859 383.103 187.851 392.139 187.837 401.283Z"
        fill="black"
        opacity="0.2" />
    <path d="M261.246 226.348L259.181 227.926L273.263 246.322L275.328 244.744L261.246 226.348Z"
        fill="#2E353A" />
    <path
        d="M252.785 224.133H259.415C260.104 224.133 260.778 224.335 261.353 224.713C261.928 225.092 262.38 225.631 262.652 226.263L263.536 228.328C263.764 228.863 263.855 229.446 263.802 230.025C263.749 230.604 263.554 231.16 263.233 231.645C262.913 232.13 262.477 232.528 261.965 232.804C261.453 233.08 260.881 233.225 260.299 233.225H253.084C252.237 233.228 251.418 232.924 250.778 232.37C250.138 231.816 249.719 231.05 249.6 230.212L249.301 228.134C249.23 227.636 249.267 227.128 249.41 226.646C249.553 226.163 249.798 225.717 250.128 225.338C250.459 224.958 250.867 224.654 251.325 224.446C251.784 224.238 252.282 224.132 252.785 224.133Z"
        fill="#407BFF" />
    <path d="M327.411 229.267L323.945 245.715L326.489 246.25L329.955 229.802L327.411 229.267Z"
        fill="#2E353A" />
    <path
        d="M336.466 224.133H329.329C328.629 224.13 327.951 224.381 327.423 224.84C326.894 225.298 326.55 225.934 326.456 226.627L325.975 229.913C325.917 230.325 325.949 230.745 326.067 231.144C326.186 231.543 326.389 231.912 326.662 232.226C326.936 232.54 327.274 232.792 327.653 232.964C328.032 233.137 328.444 233.226 328.861 233.225H335.985C336.684 233.226 337.36 232.974 337.888 232.515C338.416 232.057 338.761 231.424 338.858 230.731L339.339 227.445C339.396 227.034 339.365 226.615 339.247 226.217C339.129 225.819 338.928 225.451 338.655 225.137C338.383 224.823 338.047 224.571 337.669 224.398C337.292 224.225 336.881 224.134 336.466 224.133Z"
        fill="#407BFF" />
</svg>
