<svg width="50" height="50" viewBox="0 0 50 50" fill="none" xmlns="http://www.w3.org/2000/svg">
<g clip-path="url(#clip0_11874_156764)">
<rect width="50" height="50" />
<path d="M19.877 15.5964V10.1875H28.3376C29.3366 10.1875 30.1496 9.37424 30.1496 8.37517V1.90964C30.1496 0.910568 29.3366 0.0976562 28.3376 0.0976562H18.7585C17.7594 0.0976562 16.9465 0.910568 16.9465 1.90964V15.6002L0.510506 38.2854C-0.0849677 39.1159 -0.166602 40.2435 0.302987 41.1575C0.75808 42.0437 1.64805 42.5945 2.62499 42.5945H39.7286L29.6998 29.0157L19.877 15.5964Z" fill="#B9C4D0"/>
<path d="M49.5214 38.541L38.207 22.7604C37.7328 22.0989 37 21.7197 36.1959 21.7197C35.3921 21.7197 34.659 22.0993 34.1852 22.7604L31.4512 26.6086L43.2439 42.5945H47.5099C48.4403 42.5945 49.2857 42.073 49.7167 41.2338C50.157 40.3774 50.0803 39.3204 49.5214 38.541Z" fill="#B9C4D0"/>
</g>
<defs>
<clipPath id="clip0_11874_156764">
<rect width="50" height="50" fill="white"/>
</clipPath>
</defs>
</svg>
