<svg width="18" height="14" viewBox="0 0 18 14" fill="none" xmlns="http://www.w3.org/2000/svg">
<path d="M10.9668 13.8564H1.86595C1.14539 13.8564 0.5625 13.2724 0.5625 12.5529C0.5625 9.56853 2.98176 7.15039 5.96503 7.15039H6.86767C9.85205 7.15039 12.2702 9.56964 12.2702 12.5529C12.2702 13.2724 11.6873 13.8564 10.9668 13.8564Z" fill="white"/>
<path d="M6.41884 5.99978C8.03518 5.99978 9.34549 4.68947 9.34549 3.07313C9.34549 1.45679 8.03518 0.146484 6.41884 0.146484C4.80249 0.146484 3.49219 1.45679 3.49219 3.07313C3.49219 4.68947 4.80249 5.99978 6.41884 5.99978Z" fill="white"/>
<path d="M17.4375 4.10871L16.1374 2.80859L12.9732 5.97284L11.39 4.39072L10.0898 5.69083L12.9743 8.57418L14.2744 7.27406L14.2733 7.27295L17.4375 4.10871Z" fill="white"/>
</svg>
