<svg width="18" height="18" viewBox="0 0 18 18" fill="none" xmlns="http://www.w3.org/2000/svg">
<path fill-rule="evenodd" clip-rule="evenodd" d="M11.8021 1.42567C12.815 0.412797 14.4572 0.412799 15.47 1.42567L16.575 2.53062C17.5879 3.54349 17.5879 5.18568 16.575 6.19855L6.2005 16.573C5.71411 17.0594 5.05441 17.3327 4.36654 17.3327H1.37532C0.98466 17.3327 0.667969 17.016 0.667969 16.6253V13.6341C0.667969 12.9462 0.941224 12.2865 1.42762 11.8001L11.8021 1.42567ZM14.4697 2.42601C14.0093 1.96562 13.2628 1.96562 12.8024 2.42601L10.8639 4.36459L13.6361 7.13678L15.5746 5.19821C16.035 4.73781 16.035 3.99136 15.5746 3.53097L14.4697 2.42601ZM12.6357 8.13712L9.86353 5.36493L2.42797 12.8005C2.20688 13.0216 2.08267 13.3214 2.08267 13.6341V15.918H4.36654C4.67921 15.918 4.97907 15.7938 5.20016 15.5727L12.6357 8.13712Z" fill="#A2AEBD"/>
</svg>
