<svg width="48" height="38" viewBox="0 0 48 38" fill="none" xmlns="http://www.w3.org/2000/svg">
<path d="M42.8004 18.9999C42.8004 8.59733 34.4042 0.201172 24.0016 0.201172C17.8346 0.201172 12.2618 3.24777 8.84375 7.85426L11.5932 12.6096C12.2618 11.3463 13.0793 10.1578 14.1194 9.11717C16.7201 6.51655 20.2121 5.03042 23.9273 5.03042C27.6425 5.03042 31.1345 6.44211 33.7351 9.11717C36.3357 11.7178 37.8219 15.2098 37.8219 18.925H32.621L40.3485 32.2253L48.0016 18.9999H42.8004Z" fill="#71CFF4"/>
<path d="M33.8078 28.8072C31.2072 31.4078 27.7152 32.8939 24 32.8939C20.2848 32.8939 16.7928 31.4822 14.1922 28.8072C11.5915 26.2065 10.1054 22.7145 10.1054 18.9993H15.3067L7.65309 5.77344L0 18.9993H5.20125C5.20125 29.4019 13.5974 37.7981 24 37.7981C30.2414 37.7981 35.7398 34.7515 39.1579 30.145L36.4085 25.3896C35.7398 26.6524 34.8485 27.767 33.8078 28.8072Z" fill="#FA7564"/>
</svg>
