<svg width="54" height="51" viewBox="0 0 54 51" fill="none" xmlns="http://www.w3.org/2000/svg">
<path d="M41.9859 4.01172C43.0245 4.01172 43.8665 4.85369 43.8665 5.89234V46.1185C43.8665 47.1572 43.0245 47.9991 41.9859 47.9991H12.0134C10.9748 47.9991 10.1328 47.1572 10.1328 46.1185V5.89234C10.1328 4.85369 10.9748 4.01172 12.0134 4.01172H41.9859Z" fill="#E8834D"/>
<path d="M41.9859 46.2595H12.0134C10.9748 46.2595 10.1328 45.4176 10.1328 44.3789V46.1192C10.1328 47.1578 10.9748 47.9998 12.0134 47.9998H41.9859C43.0245 47.9998 43.8666 47.1578 43.8666 46.1192V44.3789C43.8666 45.4176 43.0245 46.2595 41.9859 46.2595Z" fill="#D56723"/>
<path d="M13.5742 7.49609H40.4238V44.5185H13.5742V7.49609Z" fill="#FFF0C0"/>
<path d="M13.5742 42.7773H40.4238V44.5176H13.5742V42.7773Z" fill="#FFE394"/>
<path d="M20.2172 18.1156H17.7442C17.2103 18.1156 16.7773 17.6828 16.7773 17.1488V14.6758C16.7773 14.1419 17.2102 13.709 17.7442 13.709H20.2172C20.7512 13.709 21.1841 14.1418 21.1841 14.6758V17.1489C21.1841 17.6828 20.7511 18.1156 20.2172 18.1156Z" fill="#00E0A7"/>
<path d="M20.2172 16.377H17.7442C17.2103 16.377 16.7773 15.9442 16.7773 15.4102V17.1504C16.7773 17.6843 17.2102 18.1173 17.7442 18.1173H20.2172C20.7512 18.1173 21.1841 17.6844 21.1841 17.1504V15.4102C21.1841 15.9441 20.7511 16.377 20.2172 16.377Z" fill="#00C988"/>
<path d="M20.2172 25.5005H17.7442C17.2103 25.5005 16.7773 25.0676 16.7773 24.5336V22.0606C16.7773 21.5266 17.2102 21.0938 17.7442 21.0938H20.2172C20.7512 21.0938 21.1841 21.5266 21.1841 22.0606V24.5336C21.1841 25.0676 20.7511 25.5005 20.2172 25.5005Z" fill="#00E0A7"/>
<path d="M20.2172 23.7598H17.7442C17.2103 23.7598 16.7773 23.327 16.7773 22.793V24.5333C16.7773 25.0672 17.2102 25.5001 17.7442 25.5001H20.2172C20.7512 25.5001 21.1841 25.0673 21.1841 24.5333V22.793C21.1841 23.327 20.7511 23.7598 20.2172 23.7598Z" fill="#00C988"/>
<path d="M20.2172 32.8852H17.7442C17.2103 32.8852 16.7773 32.4524 16.7773 31.9184V29.4454C16.7773 28.9115 17.2102 28.4785 17.7442 28.4785H20.2172C20.7512 28.4785 21.1841 28.9114 21.1841 29.4454V31.9184C21.1841 32.4523 20.7511 32.8852 20.2172 32.8852Z" fill="#00E0A7"/>
<path d="M20.2172 31.1446H17.7442C17.2103 31.1446 16.7773 30.7117 16.7773 30.1777V31.918C16.7773 32.4519 17.2102 32.8849 17.7442 32.8849H20.2172C20.7512 32.8849 21.1841 32.452 21.1841 31.918V30.1777C21.1841 30.7117 20.7511 31.1446 20.2172 31.1446Z" fill="#00C988"/>
<path d="M20.2172 40.27H17.7442C17.2103 40.27 16.7773 39.8372 16.7773 39.3032V36.8301C16.7773 36.2961 17.2102 35.8633 17.7442 35.8633H20.2172C20.7512 35.8633 21.1841 36.2961 21.1841 36.8301V39.3032C21.1841 39.8372 20.7511 40.27 20.2172 40.27Z" fill="#00E0A7"/>
<path d="M20.2172 38.5293H17.7442C17.2103 38.5293 16.7773 38.0965 16.7773 37.5625V39.3028C16.7773 39.8367 17.2102 40.2696 17.7442 40.2696H20.2172C20.7512 40.2696 21.1841 39.8368 21.1841 39.3028V37.5625C21.1841 38.0964 20.7511 38.5293 20.2172 38.5293Z" fill="#00C988"/>
<path d="M33.3959 2.77716H30.2667V0.983156C30.2667 0.440156 29.8265 0 29.2835 0H24.7144C24.1714 0 23.7313 0.440156 23.7313 0.983156V2.77725H20.6021C19.9179 2.77725 19.3633 3.33188 19.3633 4.01606V7.42575C19.3633 8.10994 19.9179 8.66456 20.6021 8.66456H24.7144H29.2835H33.3959C34.0801 8.66456 34.6347 8.10994 34.6347 7.42575V4.01606C34.6347 3.33178 34.0801 2.77716 33.3959 2.77716Z" fill="#FFDC00"/>
<path d="M33.3959 6.92436H29.2835H24.7144H20.6021C19.9179 6.92436 19.3633 6.36973 19.3633 5.68555V7.42583C19.3633 8.11002 19.9179 8.66464 20.6021 8.66464H24.7144H29.2835H33.3959C34.0801 8.66464 34.6347 8.11002 34.6347 7.42583V5.68555C34.6347 6.36973 34.0801 6.92436 33.3959 6.92436Z" fill="#FFBF00"/>
<path d="M24.5454 15.3349H36.7484C37.1489 15.3349 37.4735 15.0102 37.4735 14.6098C37.4735 14.2093 37.1489 13.8848 36.7484 13.8848H24.5454C24.1449 13.8848 23.8203 14.2094 23.8203 14.6098C23.8203 15.0102 24.1449 15.3349 24.5454 15.3349Z" fill="#FF2F6B"/>
<path d="M24.5454 17.9404H31.4041C31.8046 17.9404 32.1293 17.6157 32.1293 17.2153C32.1293 16.8148 31.8047 16.4902 31.4041 16.4902H24.5454C24.1449 16.4902 23.8203 16.8149 23.8203 17.2153C23.8203 17.6158 24.1449 17.9404 24.5454 17.9404Z" fill="#FF2F6B"/>
<path d="M24.5454 22.7198H36.7484C37.1489 22.7198 37.4735 22.3952 37.4735 21.9947C37.4735 21.5943 37.1489 21.2695 36.7484 21.2695H24.5454C24.1449 21.2695 23.8203 21.5942 23.8203 21.9947C23.8203 22.3952 24.1449 22.7198 24.5454 22.7198Z" fill="#FF2F6B"/>
<path d="M24.5454 25.3252H31.4041C31.8046 25.3252 32.1293 25.0006 32.1293 24.6002C32.1293 24.1997 31.8047 23.875 31.4041 23.875H24.5454C24.1449 23.875 23.8203 24.1997 23.8203 24.6002C23.8203 25.0006 24.1449 25.3252 24.5454 25.3252Z" fill="#FF2F6B"/>
<path d="M24.5454 30.1044H36.7484C37.1489 30.1044 37.4735 29.7798 37.4735 29.3794C37.4735 28.979 37.1489 28.6543 36.7484 28.6543H24.5454C24.1449 28.6543 23.8203 28.979 23.8203 29.3794C23.8203 29.7798 24.1449 30.1044 24.5454 30.1044Z" fill="#FF2F6B"/>
<path d="M24.5454 32.7099H31.4041C31.8046 32.7099 32.1293 32.3852 32.1293 31.9848C32.1293 31.5843 31.8047 31.2598 31.4041 31.2598H24.5454C24.1449 31.2598 23.8203 31.5844 23.8203 31.9848C23.8203 32.3852 24.1449 32.7099 24.5454 32.7099Z" fill="#FF2F6B"/>
<path d="M24.5454 37.4873H36.7484C37.1489 37.4873 37.4735 37.1627 37.4735 36.7623C37.4735 36.3618 37.1489 36.0371 36.7484 36.0371H24.5454C24.1449 36.0371 23.8203 36.3618 23.8203 36.7623C23.8203 37.1627 24.1449 37.4873 24.5454 37.4873Z" fill="#FF2F6B"/>
<path d="M24.5454 40.0928H31.4041C31.8046 40.0928 32.1293 39.7681 32.1293 39.3677C32.1293 38.9672 31.8047 38.6426 31.4041 38.6426H24.5454C24.1449 38.6426 23.8203 38.9672 23.8203 39.3677C23.8203 39.7682 24.1449 40.0928 24.5454 40.0928Z" fill="#FF2F6B"/>
<path d="M42.5 48C48.0229 48 52.5 43.5229 52.5 38C52.5 32.4772 48.0229 28 42.5 28C36.9772 28 32.5 32.4772 32.5 38C32.5 43.5229 36.9772 48 42.5 48Z" fill="#E63946"/>
<path d="M43.9119 38.0002L46.2119 35.7102C46.4002 35.5219 46.506 35.2665 46.506 35.0002C46.506 34.7339 46.4002 34.4785 46.2119 34.2902C46.0236 34.1019 45.7682 33.9961 45.5019 33.9961C45.2356 33.9961 44.9802 34.1019 44.7919 34.2902L42.5019 36.5902L40.2119 34.2902C40.0236 34.1019 39.7682 33.9961 39.5019 33.9961C39.2356 33.9961 38.9802 34.1019 38.7919 34.2902C38.6036 34.4785 38.4978 34.7339 38.4978 35.0002C38.4978 35.2665 38.6036 35.5219 38.7919 35.7102L41.0919 38.0002L38.7919 40.2902C38.6982 40.3831 38.6238 40.4938 38.573 40.6156C38.5222 40.7375 38.4961 40.8682 38.4961 41.0002C38.4961 41.1322 38.5222 41.2629 38.573 41.3848C38.6238 41.5066 38.6982 41.6172 38.7919 41.7102C38.8849 41.8039 38.9955 41.8783 39.1173 41.9291C39.2392 41.9798 39.3699 42.006 39.5019 42.006C39.6339 42.006 39.7646 41.9798 39.8865 41.9291C40.0083 41.8783 40.1189 41.8039 40.2119 41.7102L42.5019 39.4102L44.7919 41.7102C44.8849 41.8039 44.9955 41.8783 45.1173 41.9291C45.2392 41.9798 45.3699 42.006 45.5019 42.006C45.6339 42.006 45.7646 41.9798 45.8865 41.9291C46.0083 41.8783 46.1189 41.8039 46.2119 41.7102C46.3056 41.6172 46.38 41.5066 46.4308 41.3848C46.4816 41.2629 46.5077 41.1322 46.5077 41.0002C46.5077 40.8682 46.4816 40.7375 46.4308 40.6156C46.38 40.4938 46.3056 40.3831 46.2119 40.2902L43.9119 38.0002Z" fill="#EDEBEA"/>
</svg>
