<svg width="34" height="48" viewBox="0 0 34 48" fill="none" xmlns="http://www.w3.org/2000/svg">
<path d="M31.9859 4.01172C33.0245 4.01172 33.8665 4.85369 33.8665 5.89234V46.1185C33.8665 47.1572 33.0245 47.9991 31.9859 47.9991H2.01344C0.974782 47.9991 0.132812 47.1572 0.132812 46.1185V5.89234C0.132812 4.85369 0.974782 4.01172 2.01344 4.01172H31.9859Z" fill="#E8834D"/>
<path d="M31.9859 46.2595H2.01344C0.974782 46.2595 0.132812 45.4176 0.132812 44.3789V46.1192C0.132812 47.1578 0.974782 47.9998 2.01344 47.9998H31.9859C33.0245 47.9998 33.8666 47.1578 33.8666 46.1192V44.3789C33.8666 45.4176 33.0245 46.2595 31.9859 46.2595Z" fill="#D56723"/>
<path d="M3.57422 7.49609H30.4238V44.5185H3.57422V7.49609Z" fill="#FFF0C0"/>
<path d="M3.57422 42.7773H30.4238V44.5176H3.57422V42.7773Z" fill="#FFE394"/>
<path d="M10.2172 18.1156H7.74419C7.21028 18.1156 6.77734 17.6828 6.77734 17.1488V14.6758C6.77734 14.1419 7.21019 13.709 7.74419 13.709H10.2172C10.7512 13.709 11.1841 14.1418 11.1841 14.6758V17.1489C11.1841 17.6828 10.7511 18.1156 10.2172 18.1156Z" fill="#00E0A7"/>
<path d="M10.2172 16.377H7.74419C7.21028 16.377 6.77734 15.9442 6.77734 15.4102V17.1504C6.77734 17.6843 7.21019 18.1173 7.74419 18.1173H10.2172C10.7512 18.1173 11.1841 17.6844 11.1841 17.1504V15.4102C11.1841 15.9441 10.7511 16.377 10.2172 16.377Z" fill="#00C988"/>
<path d="M10.2172 25.5005H7.74419C7.21028 25.5005 6.77734 25.0676 6.77734 24.5336V22.0606C6.77734 21.5266 7.21019 21.0938 7.74419 21.0938H10.2172C10.7512 21.0938 11.1841 21.5266 11.1841 22.0606V24.5336C11.1841 25.0676 10.7511 25.5005 10.2172 25.5005Z" fill="#00E0A7"/>
<path d="M10.2172 23.7598H7.74419C7.21028 23.7598 6.77734 23.327 6.77734 22.793V24.5333C6.77734 25.0672 7.21019 25.5001 7.74419 25.5001H10.2172C10.7512 25.5001 11.1841 25.0673 11.1841 24.5333V22.793C11.1841 23.327 10.7511 23.7598 10.2172 23.7598Z" fill="#00C988"/>
<path d="M10.2172 32.8852H7.74419C7.21028 32.8852 6.77734 32.4524 6.77734 31.9184V29.4454C6.77734 28.9115 7.21019 28.4785 7.74419 28.4785H10.2172C10.7512 28.4785 11.1841 28.9114 11.1841 29.4454V31.9184C11.1841 32.4523 10.7511 32.8852 10.2172 32.8852Z" fill="#00E0A7"/>
<path d="M10.2172 31.1446H7.74419C7.21028 31.1446 6.77734 30.7117 6.77734 30.1777V31.918C6.77734 32.4519 7.21019 32.8849 7.74419 32.8849H10.2172C10.7512 32.8849 11.1841 32.452 11.1841 31.918V30.1777C11.1841 30.7117 10.7511 31.1446 10.2172 31.1446Z" fill="#00C988"/>
<path d="M10.2172 40.27H7.74419C7.21028 40.27 6.77734 39.8372 6.77734 39.3032V36.8301C6.77734 36.2961 7.21019 35.8633 7.74419 35.8633H10.2172C10.7512 35.8633 11.1841 36.2961 11.1841 36.8301V39.3032C11.1841 39.8372 10.7511 40.27 10.2172 40.27Z" fill="#00E0A7"/>
<path d="M10.2172 38.5293H7.74419C7.21028 38.5293 6.77734 38.0965 6.77734 37.5625V39.3028C6.77734 39.8367 7.21019 40.2696 7.74419 40.2696H10.2172C10.7512 40.2696 11.1841 39.8368 11.1841 39.3028V37.5625C11.1841 38.0964 10.7511 38.5293 10.2172 38.5293Z" fill="#00C988"/>
<path d="M23.3959 2.77716H20.2667V0.983156C20.2667 0.440156 19.8265 0 19.2835 0H14.7144C14.1714 0 13.7313 0.440156 13.7313 0.983156V2.77725H10.6021C9.91791 2.77725 9.36328 3.33188 9.36328 4.01606V7.42575C9.36328 8.10994 9.91791 8.66456 10.6021 8.66456H14.7144H19.2835H23.3959C24.0801 8.66456 24.6347 8.10994 24.6347 7.42575V4.01606C24.6347 3.33178 24.0801 2.77716 23.3959 2.77716Z" fill="#FFDC00"/>
<path d="M23.3959 6.92436H19.2835H14.7144H10.6021C9.91791 6.92436 9.36328 6.36973 9.36328 5.68555V7.42583C9.36328 8.11002 9.91791 8.66464 10.6021 8.66464H14.7144H19.2835H23.3959C24.0801 8.66464 24.6347 8.11002 24.6347 7.42583V5.68555C24.6347 6.36973 24.0801 6.92436 23.3959 6.92436Z" fill="#FFBF00"/>
<path d="M14.5454 15.3349H26.7484C27.1489 15.3349 27.4735 15.0102 27.4735 14.6098C27.4735 14.2093 27.1489 13.8848 26.7484 13.8848H14.5454C14.1449 13.8848 13.8203 14.2094 13.8203 14.6098C13.8203 15.0102 14.1449 15.3349 14.5454 15.3349Z" fill="#FF2F6B"/>
<path d="M14.5454 17.9404H21.4041C21.8046 17.9404 22.1293 17.6157 22.1293 17.2153C22.1293 16.8148 21.8047 16.4902 21.4041 16.4902H14.5454C14.1449 16.4902 13.8203 16.8149 13.8203 17.2153C13.8203 17.6158 14.1449 17.9404 14.5454 17.9404Z" fill="#FF2F6B"/>
<path d="M14.5454 22.7198H26.7484C27.1489 22.7198 27.4735 22.3952 27.4735 21.9947C27.4735 21.5943 27.1489 21.2695 26.7484 21.2695H14.5454C14.1449 21.2695 13.8203 21.5942 13.8203 21.9947C13.8203 22.3952 14.1449 22.7198 14.5454 22.7198Z" fill="#FF2F6B"/>
<path d="M14.5454 25.3252H21.4041C21.8046 25.3252 22.1293 25.0006 22.1293 24.6002C22.1293 24.1997 21.8047 23.875 21.4041 23.875H14.5454C14.1449 23.875 13.8203 24.1997 13.8203 24.6002C13.8203 25.0006 14.1449 25.3252 14.5454 25.3252Z" fill="#FF2F6B"/>
<path d="M14.5454 30.1044H26.7484C27.1489 30.1044 27.4735 29.7798 27.4735 29.3794C27.4735 28.979 27.1489 28.6543 26.7484 28.6543H14.5454C14.1449 28.6543 13.8203 28.979 13.8203 29.3794C13.8203 29.7798 14.1449 30.1044 14.5454 30.1044Z" fill="#FF2F6B"/>
<path d="M14.5454 32.7099H21.4041C21.8046 32.7099 22.1293 32.3852 22.1293 31.9848C22.1293 31.5843 21.8047 31.2598 21.4041 31.2598H14.5454C14.1449 31.2598 13.8203 31.5844 13.8203 31.9848C13.8203 32.3852 14.1449 32.7099 14.5454 32.7099Z" fill="#FF2F6B"/>
<path d="M14.5454 37.4873H26.7484C27.1489 37.4873 27.4735 37.1627 27.4735 36.7623C27.4735 36.3618 27.1489 36.0371 26.7484 36.0371H14.5454C14.1449 36.0371 13.8203 36.3618 13.8203 36.7623C13.8203 37.1627 14.1449 37.4873 14.5454 37.4873Z" fill="#FF2F6B"/>
<path d="M14.5454 40.0928H21.4041C21.8046 40.0928 22.1293 39.7681 22.1293 39.3677C22.1293 38.9672 21.8047 38.6426 21.4041 38.6426H14.5454C14.1449 38.6426 13.8203 38.9672 13.8203 39.3677C13.8203 39.7682 14.1449 40.0928 14.5454 40.0928Z" fill="#FF2F6B"/>
</svg>
