<svg width="20" height="20" viewBox="0 0 20 20" fill="none" xmlns="http://www.w3.org/2000/svg">
<g clip-path="url(#clip0_13330_189843)">
<path d="M18.1253 16.9266V6.02706L10.7411 6.03565V16.9266H9.2414V1.79492L1.8747 3.77014V16.9267H0V18.2052H20V16.9266H18.1253ZM12.7275 7.85599H16.0955V9.26544H12.7275V7.85599ZM12.7275 11.061H16.0955V12.4704H12.7275V11.061ZM12.7275 14.266H16.0955V15.6754H12.7275V14.266ZM3.88782 4.80586H7.22829V6.20377H3.88782V4.80586ZM3.88782 7.98463H7.22829V9.38253H3.88782V7.98463ZM3.88782 11.1633H7.22829V12.5613H3.88782V11.1633ZM3.88782 14.3421H7.22829V15.74H3.88782V14.3421Z" fill="#4C6FFF"/>
</g>
<defs>
<clipPath id="clip0_13330_189843">
<rect width="20" height="20" fill="white"/>
</clipPath>
</defs>
</svg>
