<svg width="56" height="56" viewBox="0 0 56 56" fill="none" xmlns="http://www.w3.org/2000/svg">
<path d="M41.8101 33.414C41.2057 33.9997 40.9281 34.8467 41.0657 35.6773L43.1401 47.1573C43.3151 48.1303 42.9044 49.115 42.0901 49.6773C41.2921 50.2607 40.2304 50.3307 39.3601 49.864L29.0257 44.474C28.6664 44.2827 28.2674 44.18 27.8591 44.1683H27.2267C27.0074 44.201 26.7927 44.271 26.5967 44.3783L16.2601 49.794C15.7491 50.0507 15.1704 50.1417 14.6034 50.0507C13.2221 49.7893 12.3004 48.4733 12.5267 47.085L14.6034 35.605C14.7411 34.7673 14.4634 33.9157 13.8591 33.3207L5.43339 25.154C4.72873 24.4703 4.48373 23.4437 4.80573 22.5173C5.11839 21.5933 5.91639 20.919 6.88006 20.7673L18.4767 19.085C19.3587 18.994 20.1334 18.4573 20.5301 17.664L25.6401 7.18732C25.7614 6.95398 25.9177 6.73932 26.1067 6.55732L26.3167 6.39398C26.4264 6.27265 26.5524 6.17232 26.6924 6.09065L26.9467 5.99732L27.3434 5.83398H28.3257C29.2031 5.92498 29.9754 6.44998 30.3791 7.23398L35.5567 17.664C35.9301 18.427 36.6557 18.9567 37.4934 19.085L49.0901 20.7673C50.0701 20.9073 50.8891 21.584 51.2134 22.5173C51.5191 23.453 51.2554 24.4797 50.5367 25.154L41.8101 33.414Z" fill="#7966FF"/>
</svg>
