<svg width="32" height="32" viewBox="0 0 32 32" fill="none" xmlns="http://www.w3.org/2000/svg">
<rect opacity="0.1" width="32" height="32" rx="16" fill="#EA5455"/>
<path fill-rule="evenodd" clip-rule="evenodd" d="M17.5712 9.33732C17.4225 9.316 17.2731 9.35997 17.1543 9.45457C17.0321 9.5505 16.9557 9.68908 16.9391 9.8443C16.904 10.1581 17.1304 10.4419 17.4437 10.4772C19.6048 10.7184 21.2846 12.4019 21.5276 14.5697C21.5601 14.8602 21.8038 15.0794 22.0946 15.0794C22.1165 15.0794 22.1378 15.078 22.1597 15.0754C22.3117 15.0587 22.4472 14.9834 22.5428 14.8635C22.6377 14.7436 22.6809 14.5944 22.6636 14.4418C22.3608 11.737 20.2675 9.63778 17.5712 9.33732ZM17.6127 11.6587C17.2954 11.6 17.0039 11.8026 16.9435 12.1123C16.883 12.4221 17.0862 12.7246 17.3949 12.7852C18.3244 12.9664 19.0422 13.6859 19.2241 14.6186V14.6193C19.2759 14.8878 19.5122 15.083 19.7844 15.083C19.821 15.083 19.8575 15.0796 19.8947 15.073C20.2034 15.011 20.4065 14.7092 20.3461 14.3988C20.0746 13.0057 19.0023 11.9298 17.6127 11.6587ZM18.6674 18.0591C18.9683 17.8855 19.3083 17.6895 19.7371 17.7807C20.1255 17.8627 21.4494 18.9373 21.8119 19.3097C22.0496 19.5535 22.1817 19.8053 22.2023 20.0572C22.2381 21.0451 20.8957 22.173 20.6513 22.3136C20.3267 22.5474 19.9489 22.6654 19.5246 22.6654C19.0911 22.6654 18.6077 22.5421 18.0806 22.2963C15.2204 21.1024 10.851 16.8194 9.69576 13.9813C9.2164 12.9247 9.21308 12.0533 9.68779 11.3984C9.87701 11.0913 10.9559 9.80753 11.9219 9.84817C12.1789 9.87015 12.4285 10.0021 12.6735 10.2419C13.044 10.605 14.0917 11.9327 14.1727 12.3225C14.2623 12.7555 14.0658 13.0999 13.8912 13.4024C13.8539 13.4674 13.8037 13.5446 13.7488 13.6291C13.5401 13.9499 13.2624 14.3769 13.3607 14.6495C14.0651 16.379 15.6924 17.888 17.4226 18.5968C17.6902 18.6941 18.117 18.4144 18.4368 18.2048C18.5201 18.1502 18.5961 18.1004 18.6602 18.0632L18.6674 18.0591Z" fill="#EA5455"/>
</svg>
