<svg width="20" height="20" viewBox="0 0 20 20" fill="none" xmlns="http://www.w3.org/2000/svg">
<path fill-rule="evenodd" clip-rule="evenodd" d="M16.9059 4.37044C17.2301 4.37044 17.5 4.63961 17.5 4.9821V5.29877C17.5 5.63293 17.2301 5.91043 16.9059 5.91043H3.09488C2.76988 5.91043 2.5 5.63293 2.5 5.29877V4.9821C2.5 4.63961 2.76988 4.37044 3.09488 4.37044H5.52464C6.01821 4.37044 6.44775 4.01961 6.55879 3.52462L6.68603 2.95629C6.88378 2.18213 7.53458 1.66797 8.27939 1.66797H11.7206C12.4573 1.66797 13.1154 2.18213 13.3059 2.91546L13.442 3.52378C13.5522 4.01961 13.9818 4.37044 14.4762 4.37044H16.9059ZM15.6715 15.9463C15.9252 13.5822 16.3693 7.96557 16.3693 7.90891C16.3855 7.73724 16.3296 7.57474 16.2186 7.44391C16.0994 7.32141 15.9487 7.24891 15.7826 7.24891H4.22377C4.05681 7.24891 3.89796 7.32141 3.78774 7.44391C3.6759 7.57474 3.62079 7.73724 3.62889 7.90891C3.63038 7.91932 3.64632 8.11716 3.67296 8.44792C3.79132 9.91729 4.12097 14.0098 4.33399 15.9463C4.48474 17.373 5.42082 18.2696 6.77672 18.3021C7.82302 18.3263 8.90094 18.3346 10.0032 18.3346C11.0414 18.3346 12.0958 18.3263 13.1745 18.3021C14.5774 18.278 15.5127 17.3971 15.6715 15.9463Z" fill="#EA5455"/>
</svg>
