<svg width="20" height="20" viewBox="0 0 20 20" fill="none" xmlns="http://www.w3.org/2000/svg">
<path fill-rule="evenodd" clip-rule="evenodd" d="M6.50833 1.66797H13.4925C16.0667 1.66797 17.5 3.1513 17.5 5.69297V14.3013C17.5 16.8846 16.0667 18.3346 13.4925 18.3346H6.50833C3.975 18.3346 2.5 16.8846 2.5 14.3013V5.69297C2.5 3.1513 3.975 1.66797 6.50833 1.66797ZM6.73333 5.5513V5.54297H9.22417C9.58333 5.54297 9.875 5.83464 9.875 6.19214C9.875 6.55964 9.58333 6.8513 9.22417 6.8513H6.73333C6.37417 6.8513 6.08333 6.55964 6.08333 6.2013C6.08333 5.84297 6.37417 5.5513 6.73333 5.5513ZM6.73333 10.618H13.2667C13.625 10.618 13.9167 10.3263 13.9167 9.96797C13.9167 9.60964 13.625 9.31714 13.2667 9.31714H6.73333C6.37417 9.31714 6.08333 9.60964 6.08333 9.96797C6.08333 10.3263 6.37417 10.618 6.73333 10.618ZM6.73333 14.4263H13.2667C13.5992 14.393 13.85 14.1088 13.85 13.7763C13.85 13.4346 13.5992 13.1513 13.2667 13.118H6.73333C6.48333 13.093 6.24167 13.2096 6.10833 13.4263C5.975 13.6346 5.975 13.9096 6.10833 14.1263C6.24167 14.3346 6.48333 14.4596 6.73333 14.4263Z" fill="#02C5DD"/>
</svg>
