<svg width="24" height="24" viewBox="0 0 24 24" fill="none" xmlns="http://www.w3.org/2000/svg">
<rect width="24" height="24" rx="12" fill="#8E68DF"/>
<path d="M20.0002 14.8264C20.0002 12.8409 18.8612 11.069 17.1553 10.207C17.1023 14.0139 14.0159 17.1003 10.209 17.1533C11.0709 18.8593 12.8429 19.9983 14.8284 19.9983C15.7593 19.9983 16.6646 19.7504 17.46 19.2793L19.9777 19.9757L19.2812 17.458C19.7523 16.6626 20.0002 15.7573 20.0002 14.8264Z" fill="white"/>
<path d="M16.2188 10.1094C16.2188 6.7406 13.4781 4 10.1094 4C6.7406 4 4 6.7406 4 10.1094C4 11.2073 4.29224 12.2762 4.84717 13.2147L4.02246 16.1962L7.00403 15.3716C7.9425 15.9265 9.01147 16.2188 10.1094 16.2188C13.4781 16.2188 16.2188 13.4781 16.2188 10.1094ZM9.17188 8.6875H8.23438C8.23438 7.65356 9.07544 6.8125 10.1094 6.8125C11.1433 6.8125 11.9844 7.65356 11.9844 8.6875C11.9844 9.21228 11.7622 9.71667 11.3746 10.0712L10.5781 10.8002V11.5312H9.64062V10.3873L10.7417 9.37952C10.9385 9.19946 11.0469 8.95374 11.0469 8.6875C11.0469 8.17053 10.6263 7.75 10.1094 7.75C9.59241 7.75 9.17188 8.17053 9.17188 8.6875ZM9.64062 12.4688H10.5781V13.4062H9.64062V12.4688Z" fill="white"/>
</svg>
