<svg width="20" height="20" viewBox="0 0 20 20" fill="none" xmlns="http://www.w3.org/2000/svg">
<path d="M10.1859 5.3717C11.2086 5.3717 12.0377 4.54259 12.0377 3.51984C12.0377 2.49708 11.2086 1.66797 10.1859 1.66797C9.16309 1.66797 8.33398 2.49708 8.33398 3.51984C8.33398 4.54259 9.16309 5.3717 10.1859 5.3717Z" fill="#A2AEBD"/>
<path d="M10.1859 11.8522C11.2086 11.8522 12.0377 11.0231 12.0377 10.0003C12.0377 8.97755 11.2086 8.14844 10.1859 8.14844C9.16309 8.14844 8.33398 8.97755 8.33398 10.0003C8.33398 11.0231 9.16309 11.8522 10.1859 11.8522Z" fill="#A2AEBD"/>
<path d="M10.1859 18.3326C11.2086 18.3326 12.0377 17.5035 12.0377 16.4808C12.0377 15.458 11.2086 14.6289 10.1859 14.6289C9.16309 14.6289 8.33398 15.458 8.33398 16.4808C8.33398 17.5035 9.16309 18.3326 10.1859 18.3326Z" fill="#A2AEBD"/>
</svg>
