<svg width="49" height="49" viewBox="0 0 49 49" fill="none" xmlns="http://www.w3.org/2000/svg">
<rect opacity="0.1" x="0.5" y="0.503906" width="48" height="48" rx="24" fill="#7966FF"/>
<path d="M33.469 16.1693C33.3478 14.6217 32.1357 13.3121 30.56 13.1931C28.863 13.074 26.3175 12.8359 24.4993 12.8359C22.6812 12.8359 20.1357 13.074 18.4387 13.3121C16.863 13.4312 15.6509 14.6217 15.5297 16.1693C15.4084 18.074 15.166 21.7645 15.166 24.5026C15.166 27.1217 15.4084 30.8121 15.5297 32.8359C15.6509 34.3836 16.863 35.6931 18.4387 35.8121C20.1357 35.9312 22.6812 36.1693 24.4993 36.1693C26.3175 36.1693 28.863 35.9312 30.56 35.8121C32.1357 35.6931 33.3478 34.3836 33.469 32.8359C33.5903 30.9312 33.8327 27.2407 33.8327 24.5026C33.8327 21.7645 33.5903 18.1931 33.469 16.1693ZM24.4993 17.3597C25.1054 17.3597 25.7115 17.955 25.7115 18.5502C25.7115 19.1455 25.1054 19.7407 24.4993 19.7407C23.8933 19.7407 23.2872 19.1455 23.2872 18.5502C23.2872 17.955 23.8933 17.3597 24.4993 17.3597ZM25.7115 31.4074H23.2872C22.8024 31.4074 22.3175 31.0502 22.3175 30.455C22.3175 29.8597 22.6812 29.5026 23.2872 29.5026H25.7115C26.1963 29.5026 26.6812 29.8597 26.6812 30.455C26.6812 31.0502 26.1963 31.4074 25.7115 31.4074Z" fill="#7966FF"/>
</svg>
