<svg width="18" height="18" viewBox="0 0 18 18" fill="none" xmlns="http://www.w3.org/2000/svg">
<path fill-rule="evenodd" clip-rule="evenodd" d="M0.666016 7.89291C0.666016 3.90268 3.8663 0.667969 7.81405 0.667969C9.70983 0.667969 11.528 1.42917 12.8685 2.7841C14.209 4.13904 14.9621 5.97673 14.9621 7.89291C14.9621 11.8831 11.7618 15.1178 7.81405 15.1178C3.8663 15.1178 0.666016 11.8831 0.666016 7.89291ZM14.8438 13.7132L16.9727 15.4316H17.0097C17.4404 15.867 17.4404 16.5728 17.0097 17.0081C16.579 17.4435 15.8807 17.4435 15.45 17.0081L13.6833 14.9834C13.5163 14.8151 13.4224 14.5866 13.4224 14.3483C13.4224 14.11 13.5163 13.8814 13.6833 13.7132C14.0054 13.3933 14.5217 13.3933 14.8438 13.7132Z" fill="#A2AEBD"/>
</svg>
